<?xml version="1.0" encoding="UTF-8" standalone="no"?>
<svg
   width="50pt"
   height="50pt"
   version="1.1"
   viewBox="0 0 50 50"
   id="svg1024"
   sodipodi:docname="candle_active.svg"
   inkscape:version="1.2.2 (b0a8486541, 2022-12-01)"
   xmlns:inkscape="http://www.inkscape.org/namespaces/inkscape"
   xmlns:sodipodi="http://sodipodi.sourceforge.net/DTD/sodipodi-0.dtd"
   xmlns="http://www.w3.org/2000/svg"
   xmlns:svg="http://www.w3.org/2000/svg">
  <sodipodi:namedview
     id="namedview1026"
     pagecolor="#ffffff"
     bordercolor="#000000"
     borderopacity="0.25"
     inkscape:showpageshadow="2"
     inkscape:pageopacity="0.0"
     inkscape:pagecheckerboard="0"
     inkscape:deskcolor="#d1d1d1"
     inkscape:document-units="pt"
     showgrid="false"
     inkscape:zoom="13.748788"
     inkscape:cx="26.184126"
     inkscape:cy="38.00335"
     inkscape:window-width="1836"
     inkscape:window-height="1476"
     inkscape:window-x="3016"
     inkscape:window-y="56"
     inkscape:window-maximized="1"
     inkscape:current-layer="g1022" />
  <defs
     id="defs940">
    <symbol
       id="u"
       overflow="visible">
      <path
         d="m 20.844,-1.25 c -1.0742,0.5625 -2.1953,0.98438 -3.3594,1.2656 -1.168,0.28125 -2.3828,0.42188 -3.6406,0.42188 -3.7812,0 -6.7773,-1.0508 -8.9844,-3.1562 -2.2109,-2.1133 -3.3125,-4.9766 -3.3125,-8.5938 0,-3.625 1.1016,-6.4922 3.3125,-8.6094 2.207,-2.1133 5.2031,-3.1719 8.9844,-3.1719 1.2578,0 2.4727,0.14844 3.6406,0.4375 1.1641,0.28125 2.2852,0.69922 3.3594,1.25 v 4.7031 c -1.0859,-0.73828 -2.1523,-1.2812 -3.2031,-1.625 -1.0547,-0.34375 -2.1641,-0.51562 -3.3281,-0.51562 -2.0859,0 -3.7266,0.66797 -4.9219,2 -1.1992,1.3359 -1.7969,3.1797 -1.7969,5.5312 0,2.3359 0.59766,4.1719 1.7969,5.5156 1.1953,1.3359 2.8359,2 4.9219,2 1.1641,0 2.2734,-0.17188 3.3281,-0.51562 1.0508,-0.34375 2.1172,-0.88281 3.2031,-1.625 z"
         id="path877" />
    </symbol>
    <symbol
       id="d"
       overflow="visible">
      <path
         d="m 15.25,-12.375 c -0.48047,-0.22656 -0.95312,-0.39453 -1.4219,-0.5 -0.46875,-0.10156 -0.94531,-0.15625 -1.4219,-0.15625 -1.3984,0 -2.4766,0.44922 -3.2344,1.3438 -0.75,0.89844 -1.125,2.1797 -1.125,3.8438 V 1.5e-4 H 2.6093 v -17.016 h 5.4375 v 2.7969 c 0.69531,-1.1133 1.5,-1.9258 2.4062,-2.4375 0.90625,-0.50781 1.9922,-0.76562 3.2656,-0.76562 0.17578,0 0.36719,0.01172 0.57812,0.03125 0.21875,0.01172 0.53125,0.04297 0.9375,0.09375 z"
         id="path880" />
    </symbol>
    <symbol
       id="a"
       overflow="visible">
      <path
         d="M 19.594,-8.5469 V -7 H 6.875 c 0.13281,1.2734 0.59766,2.2305 1.3906,2.875 0.78906,0.63672 1.8945,0.95312 3.3125,0.95312 1.1445,0 2.3164,-0.16406 3.5156,-0.5 1.1953,-0.34375 2.4297,-0.85938 3.7031,-1.5469 v 4.1875 c -1.293,0.49219 -2.5859,0.85547 -3.875,1.0938 -1.2812,0.25 -2.5625,0.375 -3.8438,0.375 -3.0859,0 -5.4805,-0.78125 -7.1875,-2.3438 -1.6992,-1.5625 -2.5469,-3.7539 -2.5469,-6.5781 0,-2.7812 0.83203,-4.9609 2.5,-6.5469 1.6758,-1.5938 3.9844,-2.3906 6.9219,-2.3906 2.6758,0 4.8164,0.80859 6.4219,2.4219 1.6016,1.6055 2.4062,3.7578 2.4062,6.4531 z m -5.5938,-1.8125 c 0,-1.0312 -0.30469,-1.8633 -0.90625,-2.5 -0.59375,-0.63281 -1.3828,-0.95312 -2.3594,-0.95312 -1.0547,0 -1.9062,0.29688 -2.5625,0.89062 -0.6563,0.59374 -1.0703,1.4492 -1.2344,2.5625 z"
         id="path883" />
    </symbol>
    <symbol
       id="b"
       overflow="visible">
      <path
         d="m 10.234,-7.6562 c -1.1367,0 -1.9922,0.19531 -2.5625,0.57812 -0.5625,0.38672 -0.84375,0.95312 -0.84375,1.7031 0,0.6875 0.22656,1.2305 0.6875,1.625 0.45703,0.38672 1.0977,0.57812 1.9219,0.57812 1.0195,0 1.8789,-0.36328 2.5781,-1.0938 0.69531,-0.73828 1.0469,-1.6602 1.0469,-2.7656 v -0.625 z m 8.3125,-2.0469 V 0 h -5.4844 v -2.5156 c -0.73047,1.0312 -1.5547,1.7812 -2.4688,2.25 -0.90625,0.46875 -2.0117,0.70312 -3.3125,0.70312 -1.7617,0 -3.1953,-0.50781 -4.2969,-1.5312 -1.0938,-1.0312 -1.6406,-2.3672 -1.6406,-4.0156 0,-1.9883 0.67969,-3.4453 2.0469,-4.375 1.375,-0.9375 3.5312,-1.4062 6.4688,-1.4062 h 3.2031 v -0.42188 c 0,-0.86328 -0.33984,-1.4922 -1.0156,-1.8906 -0.67969,-0.40625 -1.7344,-0.60938 -3.1719,-0.60938 -1.168,0 -2.2578,0.12109 -3.2656,0.35938 -1,0.23047 -1.9297,0.57812 -2.7812,1.0469 v -4.1562 c 1.1641,-0.28125 2.332,-0.49219 3.5,-0.64062 1.1758,-0.14453 2.3516,-0.21875 3.5312,-0.21875 3.0703,0 5.2852,0.60547 6.6406,1.8125 1.3633,1.2109 2.0469,3.1797 2.0469,5.9062 z"
         id="path886" />
    </symbol>
    <symbol
       id="c"
       overflow="visible">
      <path
         d="m 8.5469,-21.844 v 4.8281 h 5.6094 v 3.8906 H 8.5469 v 7.2188 c 0,0.79297 0.15625,1.3281 0.46875,1.6094 0.32031,0.27344 0.94531,0.40625 1.875,0.40625 h 2.7969 v 3.8906 h -4.6719 c -2.1484,0 -3.668,-0.44531 -4.5625,-1.3438 -0.89844,-0.89453 -1.3438,-2.4141 -1.3438,-4.5625 v -7.2188 h -2.7031 v -3.8906 h 2.7031 v -4.8281 z"
         id="path889" />
    </symbol>
    <symbol
       id="k"
       overflow="visible">
      <path
         d="m 14.188,-14.516 v -9.125 h 5.4688 V 0 H 14.188 v -2.4531 c -0.75,1 -1.5781,1.7344 -2.4844,2.2031 -0.89844,0.45703 -1.9375,0.6875 -3.125,0.6875 -2.0938,0 -3.8203,-0.83203 -5.1719,-2.5 -1.3438,-1.6641 -2.0156,-3.8047 -2.0156,-6.4219 0,-2.625 0.67188,-4.7695 2.0156,-6.4375 1.3516,-1.6641 3.0781,-2.5 5.1719,-2.5 1.1758,0 2.2188,0.23438 3.125,0.70312 0.9062,0.46874 1.7344,1.2031 2.4844,2.2031 z m -3.5781,11 c 1.1562,0 2.0391,-0.42188 2.6562,-1.2656 0.61328,-0.85156 0.92188,-2.0859 0.92188,-3.7031 0,-1.625 -0.30859,-2.8594 -0.92188,-3.7031 -0.61719,-0.85156 -1.5,-1.2812 -2.6562,-1.2812 -1.1562,0 -2.043,0.42969 -2.6562,1.2812 -0.61719,0.84375 -0.92188,2.0781 -0.92188,3.7031 0,1.6172 0.30469,2.8516 0.92188,3.7031 0.61328,0.84375 1.5,1.2656 2.6562,1.2656 z"
         id="path892" />
    </symbol>
    <symbol
       id="j"
       overflow="visible">
      <path
         d="m 11.672,-3.5156 c 1.1562,0 2.0391,-0.42188 2.6562,-1.2656 0.61328,-0.85156 0.92188,-2.0859 0.92188,-3.7031 0,-1.625 -0.30859,-2.8594 -0.92188,-3.7031 -0.61719,-0.85156 -1.5,-1.2812 -2.6562,-1.2812 -1.168,0 -2.0625,0.42969 -2.6875,1.2812 -0.625,0.85547 -0.9375,2.0898 -0.9375,3.7031 0,1.6055 0.3125,2.8359 0.9375,3.6875 0.625,0.85547 1.5195,1.2812 2.6875,1.2812 z m -3.625,-11 c 0.75,-1 1.5781,-1.7344 2.4844,-2.2031 0.91406,-0.46875 1.9688,-0.70312 3.1562,-0.70312 2.0938,0 3.8125,0.83594 5.1562,2.5 1.3516,1.668 2.0312,3.8125 2.0312,6.4375 0,2.6172 -0.67969,4.7578 -2.0312,6.4219 -1.3438,1.668 -3.0625,2.5 -5.1562,2.5 -1.1875,0 -2.2422,-0.23438 -3.1562,-0.70312 C 9.62515,-0.73429 8.797,-1.46084 8.047,-2.45304 V 6e-5 H 2.6095 v -23.641 H 8.047 Z"
         id="path895" />
    </symbol>
    <symbol
       id="f"
       overflow="visible">
      <path
         d="m 0.375,-17.016 h 5.4375 l 4.5781,11.547 3.8906,-11.547 h 5.4375 L 12.5625,1.609 C 11.84375,3.5035 11.0039,4.8278 10.0469,5.5778 9.08596,6.33561 7.8281,6.7184 6.2657,6.7184 H 3.1095 V 3.1403 h 1.7031 c 0.92578,0 1.5977,-0.14844 2.0156,-0.4375 C 7.24226,2.40983 7.57039,1.88249 7.81258,1.1247 L 7.9532,0.65595 Z"
         id="path898" />
    </symbol>
    <symbol
       id="i"
       overflow="visible">
      <path
         d="M 16.625,-4.125 H 7.4688 L 6.0313,0 h -5.875 l 8.3906,-22.672 h 6.9844 L 23.9219,0 h -5.875 z M 8.9375,-8.3438 h 6.2031 l -3.0938,-9.0156 z"
         id="path901" />
    </symbol>
    <symbol
       id="t"
       overflow="visible">
      <path
         d="m 15.906,-16.484 v 4.1406 c -1.168,-0.48828 -2.293,-0.85156 -3.375,-1.0938 -1.0859,-0.25 -2.1055,-0.375 -3.0625,-0.375 -1.043,0 -1.8125,0.13281 -2.3125,0.39062 -0.5,0.26172 -0.75,0.65625 -0.75,1.1875 0,0.4375 0.1875,0.77734 0.5625,1.0156 0.38281,0.23047 1.0664,0.40234 2.0469,0.51562 l 0.96875,0.125 c 2.7812,0.35547 4.6484,0.9375 5.6094,1.75 0.96875,0.8125 1.4531,2.0859 1.4531,3.8125 0,1.8125 -0.67188,3.1797 -2.0156,4.0938 -1.3359,0.90625 -3.3281,1.3594 -5.9844,1.3594 -1.1172,0 -2.2773,-0.089844 -3.4844,-0.26562 -1.1992,-0.17578 -2.4297,-0.44141 -3.6875,-0.79688 v -4.125 c 1.082,0.52344 2.1914,0.91797 3.3281,1.1875 1.1328,0.26172 2.2891,0.39062 3.4688,0.39062 1.0625,0 1.8594,-0.14453 2.3906,-0.4375 0.53906,-0.30078 0.8125,-0.73828 0.8125,-1.3125 0,-0.48828 -0.1875,-0.84766 -0.5625,-1.0781 -0.36719,-0.23828 -1.1016,-0.42578 -2.2031,-0.5625 l -0.95312,-0.125 c -2.418,-0.30078 -4.1172,-0.85938 -5.0938,-1.6719 -0.96875,-0.82031 -1.4531,-2.0703 -1.4531,-3.75 0,-1.8008 0.61328,-3.1328 1.8438,-4 1.2383,-0.875 3.1328,-1.3125 5.6875,-1.3125 1,0 2.0508,0.07813 3.1562,0.23438 1.1016,0.14844 2.3047,0.38281 3.6094,0.70312 z"
         id="path904" />
    </symbol>
    <symbol
       id="h"
       overflow="visible">
      <path
         d="M 19.719,-10.359 V 0 h -5.4688 v -7.9062 c 0,-1.4766 -0.03906,-2.4922 -0.10938,-3.0469 -0.0625,-0.5625 -0.17188,-0.97656 -0.32812,-1.25 -0.21875,-0.35156 -0.51172,-0.62891 -0.875,-0.82812 -0.36719,-0.19531 -0.77734,-0.29688 -1.2344,-0.29688 -1.1367,0 -2.0312,0.44531 -2.6875,1.3281 -0.64844,0.875 -0.96875,2.0859 -0.96875,3.625 V 0 h -5.4375 v -23.641 h 5.4375 v 9.125 c 0.82031,-1 1.6914,-1.7344 2.6094,-2.2031 0.92578,-0.46875 1.9453,-0.70312 3.0625,-0.70312 1.957,0 3.4453,0.60547 4.4688,1.8125 1.0195,1.1992 1.5312,2.9492 1.5312,5.25 z"
         id="path907" />
    </symbol>
    <symbol
       id="s"
       overflow="visible">
      <path
         d="m 11.172,-12.625 c 1.2188,0 2.0938,-0.22266 2.625,-0.67188 0.53125,-0.45703 0.79688,-1.2109 0.79688,-2.2656 0,-1.0312 -0.26562,-1.7656 -0.79688,-2.2031 -0.53125,-0.44531 -1.4062,-0.67188 -2.625,-0.67188 H 8.7032 v 5.8125 z M 8.7032,-8.5781 V 0 H 2.8594 v -22.672 h 8.9219 c 2.9883,0 5.1797,0.5 6.5781,1.5 1.3945,1 2.0938,2.5859 2.0938,4.75 0,1.5 -0.36719,2.7344 -1.0938,3.7031 -0.71875,0.96094 -1.8086,1.6641 -3.2656,2.1094 0.78906,0.1875 1.5039,0.60547 2.1406,1.25 0.63281,0.63672 1.2734,1.6094 1.9219,2.9219 l 3.1719,6.4375 h -6.2188 l -2.7656,-5.6406 c -0.5625,-1.1328 -1.1328,-1.9062 -1.7031,-2.3125 -0.57422,-0.41406 -1.3359,-0.625 -2.2812,-0.625 z"
         id="path910" />
    </symbol>
    <symbol
       id="g"
       overflow="visible">
      <path
         d="M 19.719,-10.359 V 0 h -5.4688 v -7.9219 c 0,-1.4688 -0.03906,-2.4766 -0.10938,-3.0312 -0.0625,-0.5625 -0.17188,-0.97656 -0.32812,-1.25 -0.21875,-0.35156 -0.51172,-0.62891 -0.875,-0.82812 -0.36719,-0.19531 -0.77734,-0.29688 -1.2344,-0.29688 -1.1367,0 -2.0312,0.44531 -2.6875,1.3281 -0.64844,0.875 -0.96875,2.0859 -0.96875,3.625 V 0 h -5.4375 v -17.016 h 5.4375 v 2.5 c 0.82031,-1 1.6914,-1.7344 2.6094,-2.2031 0.92578,-0.46875 1.9453,-0.70312 3.0625,-0.70312 1.957,0 3.4453,0.60547 4.4688,1.8125 1.0195,1.1992 1.5312,2.9492 1.5312,5.25 z"
         id="path913" />
    </symbol>
    <symbol
       id="r"
       overflow="visible">
      <path
         d="m 13.812,-23.641 v 3.5781 h -3.0156 c -0.77344,0 -1.3086,0.14062 -1.6094,0.42188 -0.30469,0.27344 -0.45312,0.75 -0.45312,1.4375 v 1.1875 h 4.6406 v 3.8906 h -4.6406 v 13.125 h -5.4375 v -13.125 h -2.7031 v -3.8906 h 2.7031 v -1.1875 c 0,-1.8516 0.51562,-3.2227 1.5469,-4.1094 1.0312,-0.88281 2.6289,-1.3281 4.7969,-1.3281 z"
         id="path916" />
    </symbol>
    <symbol
       id="e"
       overflow="visible">
      <path
         d="m 10.703,-13.531 c -1.1992,0 -2.1172,0.43359 -2.75,1.2969 -0.63672,0.86719 -0.95312,2.1172 -0.95312,3.75 0,1.625 0.31641,2.8711 0.95312,3.7344 0.63281,0.86719 1.5508,1.2969 2.75,1.2969 1.1875,0 2.0938,-0.42969 2.7188,-1.2969 0.63281,-0.86328 0.95312,-2.1094 0.95312,-3.7344 0,-1.6328 -0.32031,-2.8828 -0.95312,-3.75 -0.625,-0.86328 -1.5312,-1.2969 -2.7188,-1.2969 z m 0,-3.8906 c 2.9258,0 5.2109,0.79297 6.8594,2.375 1.6445,1.5742 2.4688,3.7617 2.4688,6.5625 0,2.793 -0.82422,4.9805 -2.4688,6.5625 -1.6484,1.5742 -3.9336,2.3594 -6.8594,2.3594 -2.9375,0 -5.2344,-0.78516 -6.8906,-2.3594 -1.6484,-1.582 -2.4688,-3.7695 -2.4688,-6.5625 0,-2.8008 0.82031,-4.9883 2.4688,-6.5625 1.6562,-1.582 3.9531,-2.375 6.8906,-2.375 z"
         id="path919" />
    </symbol>
    <symbol
       id="q"
       overflow="visible">
      <path
         d="m 18.375,-14.188 c 0.6875,-1.0508 1.5039,-1.8516 2.4531,-2.4062 0.94531,-0.55078 1.9883,-0.82812 3.125,-0.82812 1.957,0 3.4453,0.60547 4.4688,1.8125 1.0195,1.1992 1.5312,2.9492 1.5312,5.25 v 10.359 h -5.4688 v -8.875 c 0.0078,-0.125 0.01563,-0.25781 0.01563,-0.40625 0.0078,-0.14453 0.01563,-0.34766 0.01563,-0.60938 0,-1.207 -0.17969,-2.082 -0.53125,-2.625 -0.35547,-0.53906 -0.92969,-0.8125 -1.7188,-0.8125 -1.0312,0 -1.8281,0.42969 -2.3906,1.2812 -0.5625,0.85547 -0.85547,2.0859 -0.875,3.6875 v 8.3594 h -5.4688 v -8.875 c 0,-1.8828 -0.16406,-3.0977 -0.48438,-3.6406 -0.32422,-0.53906 -0.90234,-0.8125 -1.7344,-0.8125 -1.043,0 -1.8516,0.43359 -2.4219,1.2969 -0.5625,0.85547 -0.84375,2.0742 -0.84375,3.6562 v 8.375 h -5.4688 v -17.016 h 5.4688 v 2.5 c 0.66406,-0.96875 1.4297,-1.6914 2.2969,-2.1719 0.875,-0.48828 1.832,-0.73438 2.875,-0.73438 1.1758,0 2.2109,0.28906 3.1094,0.85938 0.90625,0.5625 1.5859,1.3555 2.0469,2.375 z"
         id="path922" />
    </symbol>
    <symbol
       id="p"
       overflow="visible">
      <path
         d="m 2.8594,-22.672 h 6.5312 l 8.25,15.547 v -15.547 h 5.5469 V 0 H 16.6406 L 8.4062,-15.562 V 0 H 2.8593 Z"
         id="path925" />
    </symbol>
    <symbol
       id="o"
       overflow="visible">
      <path
         d="m 2.4375,-6.625 v -10.391 h 5.4688 v 1.7031 c 0,0.92969 -0.00781,2.0898 -0.015625,3.4844 -0.011719,1.3867 -0.015625,2.3125 -0.015625,2.7812 0,1.3672 0.03125,2.3516 0.09375,2.9531 0.070312,0.60547 0.19531,1.043 0.375,1.3125 0.21875,0.35547 0.50391,0.63281 0.85938,0.82812 0.36328,0.1875 0.78125,0.28125 1.25,0.28125 1.1328,0 2.0234,-0.42969 2.6719,-1.2969 0.64453,-0.875 0.96875,-2.0859 0.96875,-3.6406 v -8.4062 h 5.4375 V -3e-5 h -5.4375 v -2.4531 c -0.82422,0.99219 -1.6953,1.7188 -2.6094,2.1875 -0.91797,0.46875 -1.9297,0.70312 -3.0312,0.70312 -1.9609,0 -3.4531,-0.59766 -4.4844,-1.7969 -1.0234,-1.207 -1.5312,-2.9609 -1.5312,-5.2656 z"
         id="path928" />
    </symbol>
    <symbol
       id="n"
       overflow="visible">
      <path
         d="m 2.8594,-22.672 h 9.7031 c 2.8828,0 5.0977,0.64062 6.6406,1.9219 1.5508,1.2812 2.3281,3.1055 2.3281,5.4688 0,2.375 -0.77734,4.2031 -2.3281,5.4844 -1.543,1.2812 -3.7578,1.9219 -6.6406,1.9219 H 8.7031 V 0 H 2.8593 Z m 5.8438,4.2344 v 6.3281 h 3.2344 c 1.1328,0 2.0078,-0.27344 2.625,-0.82812 0.625,-0.55078 0.9375,-1.332 0.9375,-2.3438 0,-1.0078 -0.3125,-1.7852 -0.9375,-2.3281 -0.61719,-0.55078 -1.4922,-0.82812 -2.625,-0.82812 z"
         id="path931" />
    </symbol>
    <symbol
       id="m"
       overflow="visible">
      <path
         d="m 2.6094,-17.016 h 5.4375 v 16.719 c 0,2.2695 -0.54688,4.0039 -1.6406,5.2031 -1.0938,1.207 -2.6797,1.8125 -4.75,1.8125 H -1.0312 V 3.1405 h 0.9375 c 1.0312,0 1.7383,-0.23438 2.125,-0.70312 0.38281,-0.46094 0.57812,-1.3711 0.57812,-2.7344 z m 0,-6.625 h 5.4375 v 4.4375 H 2.6094 Z"
         id="path934" />
    </symbol>
    <symbol
       id="l"
       overflow="visible">
      <path
         d="m 16.359,-16.484 v 4.4375 c -0.74219,-0.50781 -1.4844,-0.88281 -2.2344,-1.125 -0.74219,-0.23828 -1.5117,-0.35938 -2.3125,-0.35938 -1.5117,0 -2.6953,0.44531 -3.5469,1.3281 -0.84375,0.88672 -1.2656,2.125 -1.2656,3.7188 0,1.5859 0.42188,2.8203 1.2656,3.7031 0.85156,0.88672 2.0352,1.3281 3.5469,1.3281 0.85156,0 1.6602,-0.125 2.4219,-0.375 0.76953,-0.25 1.4766,-0.625 2.125,-1.125 v 4.4531 c -0.85547,0.3125 -1.7188,0.54688 -2.5938,0.70312 -0.875,0.15624 -1.75,0.23438 -2.625,0.23438 -3.0742,0 -5.4766,-0.78516 -7.2031,-2.3594 -1.7305,-1.5703 -2.5938,-3.7578 -2.5938,-6.5625 0,-2.8125 0.86328,-5.0039 2.5938,-6.5781 1.7266,-1.5703 4.1289,-2.3594 7.2031,-2.3594 0.88281,0 1.7578,0.07813 2.625,0.23438 0.86328,0.15625 1.7266,0.39062 2.5938,0.70312 z"
         id="path937" />
    </symbol>
  </defs>
  <g
     id="g1022">
    <g
       id="g2540"
       transform="translate(-12.73099)">
      <path
         style="fill:#678a9b;fill-opacity:1;stroke-width:0.75"
         id="path2499"
         d="m 25.012439,3.6960323 c -0.01667,0.022786 -0.03737,0.043114 -0.05003,0.068357 -0.04372,0.087258 -0.07288,0.2064009 -0.07846,0.3045148 -0.0038,0.066172 -0.01623,0.057293 0.01855,0.066442 0.120842,-0.2305308 0.0461,-0.1237191 0.248284,-0.3365704 0.0097,-0.010213 0.04201,-0.03706 0.0299,-0.029868 -0.125032,0.074228 -0.238442,0.1629883 -0.352291,0.2525698 -0.202262,0.1792743 -0.349031,0.407367 -0.485452,0.6380131 -0.02532,0.048727 -0.0378,0.066823 -0.05328,0.1191844 -0.0073,0.024832 0.0011,0.029228 -0.01193,0.05041 -0.0035,0.00569 -0.0098,0.00919 -0.0139,0.014444 -0.02027,0.025781 -0.03947,0.052374 -0.0592,0.078561 -0.0163,0.020612 -0.03179,0.041896 -0.0489,0.061834 -0.01737,0.02024 -0.03819,0.037486 -0.05449,0.058605 -0.07165,0.092876 -0.04967,0.086742 -0.118428,0.1701123 -0.154416,0.1872308 0.03047,-0.064112 -0.126486,0.156237 -0.04141,0.052941 -0.06106,0.1190803 -0.09876,0.1741448 -0.0062,0.00913 -0.01794,0.01307 -0.02585,0.020792 -0.01852,0.018059 -0.03598,0.037186 -0.0533,0.056398 -0.09407,0.1043624 -0.07688,0.086042 -0.158159,0.1914145 -0.130972,0.1552635 -0.222602,0.3363918 -0.324931,0.5103868 -0.155109,0.1843306 -0.286206,0.3862715 -0.40135,0.5975047 -0.03516,0.071642 -0.05255,0.1484592 -0.07031,0.2254523 -0.0027,0.011603 -0.0122,0.023252 -0.0087,0.034642 0.0025,0.0082 0.01828,-0.028796 0.01243,-0.022524 -0.01349,0.014466 -0.02377,0.031621 -0.03565,0.047432 -0.0064,0.00188 -0.01448,8.55e-4 -0.01904,0.00565 -0.107708,0.1134237 -0.170795,0.2578888 -0.252587,0.3887931 -0.01749,0.02799 -0.0375,0.054322 -0.05625,0.081488 -0.02223,0.037223 -0.04357,0.074992 -0.06668,0.111675 -0.0947,0.1503233 -0.06551,0.08574 -0.15033,0.2460023 -0.05047,0.09537 -0.08789,0.196269 -0.132137,0.2944867 -0.01469,0.03111 -0.02791,0.062955 -0.04406,0.093329 -0.08689,0.1634513 -0.02383,0.021645 -0.145635,0.2176748 -0.09352,0.1505047 -0.162447,0.3170332 -0.23199,0.479319 -0.05148,0.152706 -0.09568,0.3094387 -0.120099,0.4690597 -0.0096,0.083275 -0.0042,0.044363 -0.01556,0.1168313 -0.01048,0.042037 -0.02032,0.078519 -0.04205,0.1295782 -0.0062,0.014715 -0.01505,0.028297 -0.02089,0.043177 -0.0076,0.01947 -0.01295,0.039765 -0.01943,0.059648 -0.02002,0.062716 -0.06754,0.1128755 -0.09628,0.1712975 -0.03083,0.06271 -0.06254,0.163105 -0.08459,0.227764 -0.02784,0.09829 -0.05628,0.197039 -0.06121,0.299725 -0.0018,0.03734 0.01003,0.07581 0.01396,0.112781 0.117301,-0.366718 -0.0048,0.103359 -0.02156,0.151538 -0.0029,0.0084 -0.01867,-0.01769 -0.02427,-0.01082 -0.01631,0.01999 -0.01813,0.04832 -0.02632,0.07278 -0.02576,0.07694 -0.02637,0.08554 -0.04625,0.16411 -0.03252,0.156469 -0.05131,0.316094 -0.04594,0.476149 0.0023,0.07032 0.01228,0.134372 0.02134,0.20377 0.0019,0.0094 0.02378,0.132507 0.03419,0.146302 0.007,0.0093 0.0044,-0.023 0.0054,-0.03464 0.0024,-0.02911 0.0012,-0.05851 0.0047,-0.08751 0.0087,-0.07267 0.01399,-0.08496 0.03091,-0.143361 -0.0085,0.02615 -0.01417,0.05344 -0.02561,0.07845 -0.0021,0.0045 -0.0016,-0.01901 -0.0037,-0.01448 -0.05117,0.113016 -0.06735,0.237382 -0.08976,0.358034 -0.04941,0.192309 -0.05194,0.392548 -0.0033,0.58486 0.01101,0.03742 0.02196,0.07527 0.03028,0.113414 0.002,0.0088 -0.0026,-0.01958 -0.0092,-0.0011 -0.0026,0.0072 -0.0023,0.01519 -0.0035,0.02278 -0.02379,0.142591 -0.0032,0.285863 0.02995,0.425099 0.002,0.01011 0.0054,0.02004 0.0062,0.03032 0.01355,0.186361 -0.01262,-0.06306 0.002,0.116677 0.007,0.08595 0.02284,0.169021 0.04075,0.253208 0.0065,0.0232 0.01193,0.04669 0.01942,0.06959 0.0053,0.01619 0.01148,0.03214 0.0189,0.04746 0.005,0.01033 0.01846,0.0387 0.02182,0.0066 0.01219,-0.116704 -0.01196,-0.221049 0.0289,0.107902 0.0058,0.03332 0.01957,0.06494 0.02492,0.09832 0.0028,0.01805 -0.01007,0.0169 -0.0098,0.03522 0.0011,0.06856 0.01795,0.118773 0.03408,0.186726 0.03169,0.08779 0.03677,0.115225 0.08132,0.192768 0.0289,0.05033 0.04328,0.05674 0.0745,0.104061 0.03185,0.04827 0.06061,0.09852 0.09214,0.146985 0.0617,0.150989 0.156702,0.288638 0.259542,0.416176 0.0049,0.0061 0.09047,0.08573 0.10033,0.08336 0.01061,-0.0026 0.0048,-0.02162 0.004,-0.03251 -0.0024,-0.03254 -0.01942,-0.06485 -0.01351,-0.09693 0.0034,-0.01839 0.01456,0.03445 0.02184,0.05167 0.813666,1.191762 0.08576,0.15521 0.309362,0.440234 0.01498,0.0191 0.02519,0.04218 0.04273,0.05895 0.06185,0.05913 0.140622,0.103557 0.212301,0.148587 0.0405,0.02544 0.08102,0.05086 0.121522,0.0763 0.152222,0.07612 0.30939,0.164818 0.481974,0.183858 0.194142,0.02142 0.388081,0.06638 0.583177,0.05704 0.07703,-0.0037 0.14062,-0.06339 0.210929,-0.09509 -0.354076,0.223538 0.119951,-0.04374 -0.548326,0.127492 -0.03495,0.009 0.06508,0.03154 0.09914,0.04341 0.08008,0.02791 0.17377,0.04754 0.257871,0.05708 0.03638,0.0041 0.07313,0.0037 0.109701,0.0055 0.04694,0.02317 0.09281,-0.01204 0.138966,-0.0074 0.03067,0.0031 0.06015,0.01358 0.09016,0.02064 0.06508,0.01531 0.1289,0.03262 0.191899,0.05501 0.341066,0.108123 0.621348,0.09805 0.995393,0.08744 0.09298,-0.0026 0.236247,-0.03991 0.328803,-0.06131 0.119765,-0.01887 0.22721,-0.11166 0.344438,-0.136592 0.02654,-0.0056 0.05435,0.0027 0.08141,7.23e-4 0.07643,-0.0055 0.167931,-0.02565 0.24175,-0.03978 0.112112,-0.02698 0.223519,-0.06122 0.330992,-0.103246 0.04367,-0.01708 0.08582,-0.03781 0.129221,-0.05553 0.0694,-0.02833 0.139796,-0.05416 0.209277,-0.08229 0.132523,-0.05807 0.04693,-0.02691 0.162853,-0.05769 0.02329,-0.0061 0.04603,-0.01443 0.06948,-0.01997 0.03791,-0.0089 0.06298,-0.0096 0.10154,-0.0248 0.05799,-0.0053 0.114112,-0.02125 0.171282,-0.03098 0.01987,-0.0034 0.04047,-0.0022 0.06011,-0.0067 0.07366,-0.0171 0.136455,-0.05035 0.205651,-0.08111 0.04003,-0.02015 0.07862,-0.04346 0.120084,-0.06046 0.193811,-0.07943 0.06401,9e-4 0.26333,-0.09403 0.11016,-0.05246 0.222985,-0.119955 0.319587,-0.195145 0.04434,-0.03451 0.08435,-0.07425 0.12652,-0.111379 0.09307,-0.08801 0.114861,-0.102275 0.193781,-0.201189 0.02551,-0.03198 0.04516,-0.06849 0.07181,-0.09953 0.01817,-0.02116 0.04292,-0.03588 0.06195,-0.05627 0.154395,-0.16548 0.0032,-0.03208 0.159225,-0.161238 0.127043,-0.09914 0.24163,-0.215828 0.337363,-0.345719 0.02044,-0.02773 0.03728,-0.05795 0.0565,-0.08654 0.0194,-0.02887 0.03955,-0.05723 0.05932,-0.08584 0.02657,-0.04294 0.04071,-0.06445 0.06517,-0.109997 0.0015,-0.0029 0.002,-0.0061 0.003,-0.0092 0.0057,-0.01162 0.01052,-0.02369 0.017,-0.03487 0.01539,-0.02652 0.03601,-0.04964 0.05367,-0.07469 0.01762,-0.02539 0.03439,-0.05138 0.05285,-0.07616 0.0154,-0.02067 0.03383,-0.03902 0.04866,-0.06011 0.03752,-0.05335 0.06388,-0.114255 0.103604,-0.165976 0.01985,-0.02583 0.04516,-0.04699 0.06665,-0.07147 0.02401,-0.02735 0.04652,-0.05598 0.06978,-0.08397 0.128065,-0.209436 0.278528,-0.406429 0.384469,-0.628912 0.02375,-0.04988 0.04315,-0.101706 0.06473,-0.152559 0.09367,-0.188069 0.082,-0.154052 0.156779,-0.344345 0.024,-0.06107 0.0499,-0.121549 0.06937,-0.184206 0.05763,-0.185484 0.08566,-0.378439 0.110655,-0.570247 0.01749,-0.128954 0.03251,-0.208982 0.03364,-0.339446 4.31e-4,-0.04967 -0.0045,-0.09926 -0.0079,-0.148818 -0.0065,-0.09508 -0.01904,-0.187058 -0.03851,-0.280186 -0.0062,-0.05158 -0.02048,-0.103109 -0.02069,-0.155421 -4.5e-5,-0.0118 0.0019,-0.02352 0.0029,-0.03528 -4.72e-4,-0.0317 -4.37e-4,-0.0634 -0.0014,-0.09508 -0.0012,-0.03918 -0.0035,-0.07833 -0.0052,-0.117489 -0.01405,-0.166074 -0.05599,-0.330723 -0.125516,-0.482418 -0.0107,-0.023333 -0.0626,-0.1236202 -0.07867,-0.154809 -0.04215,-0.1409092 -0.08096,-0.2830327 -0.144392,-0.41634 -0.03155,-0.0663 -0.06845,-0.129915 -0.101864,-0.1952857 -0.04956,-0.111432 -0.117918,-0.21183 -0.202335,-0.29958 -0.01975,-0.020535 -0.04196,-0.03858 -0.06217,-0.058658 -0.124348,-0.123474 -0.06217,-0.076745 -0.12996,-0.1253468 0.07651,0.033442 0.08863,0.1223685 0.143482,0.173634 0.0066,0.00615 0.0051,-0.017625 0.0052,-0.026685 1.52e-4,-0.018585 -0.003,-0.037043 -0.0045,-0.055568 -0.0089,-0.1112835 5.15e-4,-0.050655 -0.03261,-0.178005 -0.01801,-0.057893 -0.02926,-0.1010422 -0.05516,-0.1562175 -0.0071,-0.015248 -0.0195,-0.02778 -0.02602,-0.043305 -0.01252,-0.029835 -0.02017,-0.061485 -0.03078,-0.092055 -0.02238,-0.064515 -0.04249,-0.1299195 -0.06818,-0.1931962 -0.02508,-0.061792 -0.05597,-0.121065 -0.08395,-0.1815975 -0.07454,-0.163101 -0.171324,-0.311589 -0.292781,-0.4435347 -0.02327,-0.025282 -0.166629,-0.1601856 -0.198124,-0.1928431 -0.02737,-0.028388 -0.05283,-0.058571 -0.07924,-0.087856 -0.05866,-0.091544 -0.119306,-0.1826581 -0.190768,-0.2648432 -0.04924,-0.056627 -0.07858,-0.07676 -0.128089,-0.1321387 -0.02713,-0.030344 -0.05227,-0.062408 -0.0784,-0.093611 -0.03425,-0.060792 -0.09914,-0.096043 -0.13876,-0.1520742 -0.01508,-0.021328 -0.02101,-0.047916 -0.0337,-0.070745 -0.02507,-0.045084 -0.05058,-0.090064 -0.07949,-0.1327893 C 28.206443,6.1657012 28.176375,6.1424708 28.031124,5.9773049 27.883345,5.7855906 27.721612,5.6037998 27.533425,5.4505933 c -0.04029,-0.032801 -0.08094,-0.066264 -0.126905,-0.090487 -0.02062,-0.010865 -0.05603,-0.032159 -0.06876,-0.012636 -0.02051,0.031468 0.0024,0.075091 0.0036,0.1126362 0.801707,-0.3497405 -0.484172,1.0556947 -0.313741,0.8184007 0.09162,-0.1275622 0.235934,-0.2155562 0.312297,-0.3527957 0.08338,-0.1498453 0.08524,-0.3590699 0.06215,-0.5267503 -0.0073,-0.053182 -0.02289,-0.104901 -0.03433,-0.1573515 -0.01332,-0.040571 -0.02498,-0.081726 -0.03996,-0.1217141 -0.01591,-0.04246 -0.03479,-0.083746 -0.05263,-0.1254307 -0.06926,-0.1618278 -0.14581,-0.3200744 -0.220929,-0.4792122 -0.01998,-0.039232 -0.04086,-0.078015 -0.05993,-0.1176966 -0.0683,-0.142133 -0.06135,-0.1478991 -0.140456,-0.290807 -0.07071,-0.1277356 -0.157357,-0.2452663 -0.244673,-0.3618018 -0.03559,-0.04266 -0.06818,-0.088005 -0.106765,-0.1279801 -0.306871,-0.3179694 -0.557238,-0.3394827 -1.172908,-0.1830648 -0.1777,0.045147 -0.249768,0.2691486 -0.361917,0.4141951 -0.140093,0.1811887 -0.186133,0.3284532 -0.274452,0.5371547 -0.02956,0.096832 -0.06429,0.1922382 -0.0887,0.2904976 -0.02234,0.089943 -0.03467,0.1820839 -0.05134,0.2732478 -0.02915,0.1593663 -0.06428,0.3396738 -0.07784,0.5025682 -0.01085,0.1304 -0.0047,0.1954538 9e-4,0.3187801 0.0042,0.08927 0.005,0.087495 0.0059,0.165688 1.86e-4,0.017778 0.0021,0.085276 -0.0032,0.110337 -0.0032,0.014684 -0.01052,0.028167 -0.01453,0.042634 -0.0071,0.025274 -0.01234,0.050984 -0.01852,0.076476 -0.0065,0.023864 -0.01293,0.047734 -0.01943,0.071593 -0.0058,0.021121 -0.01259,0.04197 -0.01728,0.063349 -0.0063,0.028739 -0.01962,0.1247064 -0.03008,0.1529755 -0.007,0.018866 -0.02115,0.034249 -0.03073,0.051937 -0.0136,0.025097 -0.02585,0.050902 -0.03877,0.076352 -0.05249,0.080322 -0.09376,0.1671468 -0.143043,0.2493133 -0.03532,0.058889 -0.07652,0.1142146 -0.110155,0.1740788 -0.09598,0.1708006 -0.165006,0.3511967 -0.229728,0.5352984 -0.02139,0.06906 -0.03128,0.094228 -0.04521,0.159804 -0.0025,0.01155 -0.0059,0.02322 -0.0053,0.03501 2.13e-4,0.00457 0.0095,0.00735 0.0075,0.011438 -0.01102,0.023025 -0.02908,0.04197 -0.04325,0.063202 -0.02066,0.030983 -0.04082,0.062295 -0.06124,0.09344 -0.135814,0.1389922 -0.258598,0.2974537 -0.345747,0.4720725 -0.04018,0.080504 -0.08363,0.211518 -0.113887,0.2973225 -0.01723,0.041228 -0.03604,0.081828 -0.05168,0.1236795 -0.002,0.00532 -0.06467,0.1994685 -0.06883,0.2118607 -0.02887,0.085902 -0.05576,0.1693005 -0.07575,0.2577203 -0.06723,0.1059 -0.154187,0.196872 -0.220978,0.3035325 -0.03309,0.052838 -0.06316,0.1075027 -0.09473,0.1612537 -0.125007,0.217134 -0.236496,0.4470504 -0.279203,0.6957884 -0.005,0.01823 -0.02631,0.100957 -0.03665,0.12514 -0.0065,0.01501 -0.01624,0.02833 -0.02373,0.04283 -0.01136,0.02201 -0.02078,0.04503 -0.03282,0.06669 -0.0136,0.02447 -0.0308,0.04686 -0.04398,0.07156 -0.01983,0.03718 -0.03662,0.07592 -0.05492,0.113878 -0.08374,0.171588 -0.155738,0.350574 -0.196023,0.537861 -0.0072,0.03336 -0.01146,0.06728 -0.0172,0.100923 -0.01445,0.04331 -0.0094,0.08902 -0.01637,0.133218 -0.008,0.05061 -0.01512,0.06112 -0.02717,0.109017 -0.05351,0.212856 0.01116,-0.02655 -0.049,0.191644 -0.07962,0.189741 -0.138963,0.391571 -0.154838,0.597597 -0.0031,0.04084 -0.002,0.08189 -0.0029,0.122837 2.36e-4,0.03101 0.0036,0.06215 7.05e-4,0.09303 -0.0047,0.05066 -0.01759,0.100296 -0.0236,0.150828 -0.01679,0.141126 -0.02602,0.288132 -0.0083,0.429628 0.0046,0.03665 0.01393,0.07255 0.02089,0.108833 0.03375,0.161972 0.08035,0.321389 0.145517,0.473695 0.0282,0.0659 0.04787,0.09596 0.0827,0.155899 0.08077,0.154297 0.174521,0.297872 0.310006,0.409648 0.03219,0.02656 0.137468,0.09103 0.169776,0.111341 0.246886,0.14481 0.108609,0.0813 0.360782,0.165757 0.0076,0.003 0.0151,0.006 0.02265,0.009 0.002,0.0017 0.0034,0.004 0.0058,0.0051 0.04058,0.01681 0.07648,0.02581 0.119222,0.03835 0.05512,0.01447 0.109542,0.02978 0.165705,0.04007 0.08264,0.01512 0.04591,0.0013 0.122189,0.0174 0.03991,0.0084 0.12609,0.03292 0.161665,0.04273 0.139014,0.03374 0.06749,0.02179 0.162495,0.03199 0.01803,0.0019 0.03613,0.009 0.05404,0.0062 0.0083,-0.0013 -0.07259,-0.02974 -0.04239,-0.02224 0.08381,0.0269 0.166672,0.0614 0.252975,0.07993 0.01454,0.0031 0.02964,0.0023 0.04446,0.0035 0.02332,0.0056 0.04666,0.01126 0.06998,0.01688 0.199453,0.04264 0.371333,0.03303 0.589525,0.01802 0.02846,-0.002 0.05498,-0.01643 0.08038,-0.02944 0.172017,-0.08814 0.153138,-0.08255 0.279707,-0.189364 0.0056,-0.0034 0.0185,-0.01671 0.01694,-0.01029 -0.0028,0.01139 -0.01469,0.01829 -0.02123,0.02801 -0.0041,0.0074 -0.0083,0.0147 -0.01248,0.02206 0.0037,0.0019 0.0128,0.002 0.01106,0.0057 -0.04154,0.08999 -0.04234,0.01551 -0.03357,0.08811 0.102736,0.01214 0.219171,0.01525 0.321794,0.01022 0.06082,-0.003 0.121319,-0.01057 0.181964,-0.016 0.07654,-0.0069 0.153544,-0.0098 0.229585,-0.0209 0.06952,-0.01013 0.13762,-0.02842 0.20643,-0.04262 0.265455,-0.08349 0.524141,-0.204948 0.728712,-0.397399 0.09211,-0.08666 0.110765,-0.122434 0.181618,-0.221756 0.01,-0.01691 0.08215,-0.135859 0.101786,-0.178002 0.0013,-0.0027 -0.0075,0.0088 -0.0067,0.0059 0.0032,-0.01103 0.02162,-0.04 0.01397,-0.03145 -0.487738,0.545061 0.172335,-0.156841 -0.260176,0.298627 0.203415,-7.5e-4 0.405274,-0.04526 0.587321,-0.137692 0.07097,-0.03603 0.147777,-0.09175 0.213987,-0.137486 0.365736,-0.23006 -0.23148,0.147378 0.205167,-0.135705 0.04236,-0.02746 0.08743,-0.05068 0.129078,-0.07921 0.06371,-0.04364 0.155955,-0.117899 0.212457,-0.174229 0.02674,-0.02666 0.05024,-0.05639 0.07536,-0.08458 0.01734,-0.024 0.03641,-0.04684 0.05202,-0.072 0.0069,-0.01114 0.01126,-0.02378 0.01518,-0.0363 0.0023,-0.0073 0.0097,-0.02669 0.0032,-0.02257 -0.02308,0.01483 -0.04239,0.03573 -0.05838,0.05803 -0.01197,0.01669 -0.04427,0.05368 -0.02396,0.05676 0.04005,0.0061 0.07573,-0.02877 0.113599,-0.04315 0.364895,-0.197215 0.698321,-0.460826 0.942318,-0.799676 0.06302,-0.08751 0.11451,-0.182766 0.171765,-0.274148 0.03984,-0.09242 0.08742,-0.181876 0.119518,-0.277264 0.02908,-0.08644 0.04732,-0.176398 0.06333,-0.266187 0.03135,-0.175797 0.04702,-0.35453 0.01928,-0.532435 -0.03481,-0.223281 -0.07839,-0.268906 -0.179952,-0.462964 -0.02617,-0.03348 -0.04861,-0.130626 -0.0785,-0.100432 -0.03188,0.03221 0.04257,0.08079 0.05473,0.124446 0.02288,0.08215 0.03103,0.167748 0.04979,0.250933 0.0043,0.01895 4.87e-4,0.04993 0.01924,0.05503 0.0173,0.0047 0.02587,-0.02518 0.0359,-0.04003 0.01415,-0.02095 0.02412,-0.04444 0.03618,-0.06665 0.07631,-0.19402 0.132785,-0.400777 0.138971,-0.610423 0.0046,-0.15444 -0.01028,-0.229043 -0.02879,-0.381251 C 29.44,10.033199 29.43112,9.9056476 29.40796,9.7804899 29.39583,9.7149629 29.37868,9.6504609 29.36427,9.5853954 29.34572,9.5016364 29.33325,9.4163349 29.30909,9.3340186 29.24989,9.1322521 29.21702,9.0906294 29.1229,8.9146216 29.005335,8.7455559 29.0637,8.8192426 28.940099,8.6773111 c -0.03148,-0.03615 -0.06137,-0.07377 -0.0946,-0.1083217 -0.07658,-0.079632 -0.163559,-0.1494998 -0.234651,-0.2340653 -0.02366,-0.02814 0.05862,0.044767 0.09066,0.06279 0.0097,0.00548 0.02176,0.00435 0.03263,0.00652 -0.02952,-0.2016735 -0.157665,-0.3674572 -0.255193,-0.5403217 -0.0218,-0.038647 -0.04101,-0.078707 -0.06152,-0.1180605 C 28.32172,7.5652642 28.218896,7.388175 28.133464,7.2021988 28.101523,7.1326674 28.077954,7.0593295 28.043455,6.9910309 28.005141,6.9151757 27.958111,6.8440467 27.915439,6.7705546 27.787015,6.5360706 27.601723,6.3446747 27.42584,6.1467967 27.367355,6.0809972 27.31255,6.0118683 27.251869,5.9480883 27.191424,5.884557 27.124746,5.827234 27.062774,5.7651911 26.997241,5.6995838 26.933865,5.6318581 26.869411,5.5651917 26.681916,5.3873147 26.472082,5.2324099 26.235239,5.1264101 c -0.0572,-0.025598 -0.117322,-0.04419 -0.176877,-0.063682 -0.106534,-0.034867 -0.213411,-0.1298765 -0.32127,-0.099356 -0.348747,0.098685 -0.654303,0.3119912 -0.981455,0.4679868 -0.05672,0.132422 -0.123855,0.260851 -0.170152,0.397266 -0.03533,0.1041106 -0.05437,0.2132547 -0.07378,0.3214722 -0.01993,0.1111617 -0.03689,0.2232169 -0.04408,0.3359215 -0.0093,0.1449008 0.0042,0.4399344 0.02387,0.5912649 0.0093,0.071411 0.02751,0.1413702 0.04126,0.2120553 0.0092,0.1107948 0.03176,0.2195607 0.03955,0.330419 0.0013,0.019027 0.0021,0.038085 0.0032,0.05712 9.75e-4,0.016402 0.005,0.032895 0.003,0.0492 -0.0034,0.02727 -0.01271,0.053467 -0.01906,0.080203 -0.02658,0.1069943 -0.04771,0.2157045 -0.06004,0.3253328 -0.0087,0.076915 -0.01283,0.152304 -0.02724,0.2283967 -0.005,0.011947 -0.0077,0.025073 -0.01481,0.035843 -0.03004,0.04524 -0.08457,0.091716 -0.116038,0.1329008 -0.04204,0.055035 -0.0827,0.1113352 -0.119008,0.1703107 -0.09835,0.1597403 -0.13673,0.2587568 -0.214619,0.4300568 -0.110156,0.223596 -0.190254,0.4604932 -0.242021,0.7042192 -0.01586,0.074632 -0.02548,0.15045 -0.03812,0.2256922 -0.04723,0.281167 -0.03111,0.148342 -0.05199,0.415499 8.25e-4,0.138416 -0.0062,0.163229 0.01938,0.292267 0.0051,0.02587 0.01073,0.05226 0.02253,0.07586 0.0025,0.005 0.01504,0.0081 0.01672,0.0027 0.01042,-0.03335 0.0099,-0.06917 0.01487,-0.10376 0.01376,-0.04313 0.02753,-0.08627 0.0413,-0.129398 -0.01189,0.0059 -0.02599,0.0087 -0.03569,0.01775 -0.02415,0.02261 -0.04334,0.05001 -0.06416,0.07572 -0.107512,0.132761 -0.181256,0.285526 -0.260127,0.436101 -0.07984,0.166772 -0.0378,0.0847 -0.1321,0.256542 -0.0279,0.05083 -0.05012,0.105243 -0.08377,0.152464 -0.03911,0.05486 -0.09214,0.0986 -0.133224,0.151993 -0.128513,0.167035 -0.163925,0.244989 -0.268282,0.429228 -0.09254,0.194528 -0.160018,0.401091 -0.181335,0.615963 -0.008,0.08063 -0.04936,0.166291 -0.02094,0.242168 0.0884,0.236039 0.240383,0.443098 0.360574,0.664646 0.07556,0.03094 0.29069,0.143516 0.226685,0.09282 -0.10149,-0.08039 -0.228282,-0.122224 -0.341985,-0.184145 -0.01786,-0.0097 -0.04211,-0.04817 -0.05269,-0.0308 -0.01472,0.02416 0.01079,0.05591 0.02144,0.08211 0.03849,0.09479 0.07969,0.143863 0.138177,0.228847 0.05775,0.06446 0.148868,0.172375 0.218176,0.222668 0.108113,0.07845 0.20269,0.215364 0.336242,0.218016 0.737563,0.01465 0.741936,-0.0733 1.073772,-0.409696 0.197622,-0.06799 0.356434,-0.208739 0.510686,-0.344387 0.278932,-0.245292 -0.0033,-0.0016 0.239498,-0.210218 -0.19385,0.127063 0.128678,-0.09914 0.08448,-0.102817 -0.02003,-0.0016 -0.03636,0.02059 -0.05645,0.02116 -0.240263,0.0069 -0.497987,0.09055 -0.721082,0.0011 -0.237487,-0.09523 -0.423985,-0.67458 -0.299895,-0.315419 0.11565,0.169742 0.201311,0.356913 0.425853,0.418689 0.370139,0.101832 0.465039,0.06655 0.745413,0.02859 0.269027,-0.03642 0.116318,-0.0065 0.37323,-0.06823 0.137051,-0.02811 0.268694,-0.07247 0.390204,-0.141937 0.01631,-0.0093 0.08096,-0.05782 0.112467,-0.06008 0.0045,-3.22e-4 0.0025,0.0087 0.0038,0.01301 -0.0028,0.0037 -0.01327,0.01181 -0.0086,0.01113 0.0864,-0.01262 0.232168,-0.0602 0.304628,-0.08528 0.09928,-0.03437 0.276937,-0.10535 0.366139,-0.152268 0.06515,-0.03427 0.125856,-0.0764 0.188783,-0.114594 0.23438,-0.187381 0.479775,-0.402456 0.575287,-0.697686 -0.0092,0.0115 -0.103418,0.126879 -0.08408,0.130089 0.04762,0.0079 0.09077,-0.03296 0.135465,-0.05119 0.190956,-0.07786 0.139577,-0.05775 0.32973,-0.175872 0.06492,-0.05864 0.135504,-0.111579 0.194767,-0.175939 0.206117,-0.223846 0.346409,-0.514866 0.39707,-0.814965 0.04609,-0.273007 0.0036,-0.386155 -0.04247,-0.651508 -0.03139,-0.09127 -0.0562,-0.185086 -0.09418,-0.273824 -0.06593,-0.1540564 -0.146364,-0.2728227 -0.243268,-0.4066872 -0.06527,-0.09017 -0.139776,-0.1848285 -0.220559,-0.2623012 -0.02875,-0.027563 -0.06185,-0.05019 -0.09277,-0.075282 0.08432,0.1161847 -0.160501,-0.154134 -0.151497,-0.09518 0.0068,0.04398 0.05014,0.074003 0.06871,0.1144335 0.03622,0.078871 0.04734,0.1699237 0.09514,0.242364 0.01749,0.026497 0.0032,-0.06351 0.002,-0.09523 -0.0021,-0.05094 -0.0081,-0.1016498 -0.01215,-0.1524743 C 28.063098,9.048701 28.09606,9.2360615 28.03573,8.947325 27.979931,8.6802658 27.995411,8.694164 27.89947,8.4338315 27.819024,8.2155478 27.796965,8.1862903 27.695744,7.9896898 27.605501,7.8547693 27.630479,7.8686953 27.532502,7.7841283 27.515417,7.7693758 27.491859,7.7611858 27.478974,7.7426458 27.437581,7.6831108 27.415292,7.611407 27.371977,7.553258 27.188897,7.3074703 27.119931,7.4174832 27.183624,7.3235059 c -0.0034,-0.015028 -0.0022,-0.032006 -0.01036,-0.045082 -0.09009,-0.1441858 -0.25641,-0.2792806 -0.404964,-0.3601497 -0.02447,-0.013322 -0.05079,-0.022931 -0.07619,-0.034396 -0.913614,-0.2394808 1.138631,-0.7789304 -1.337397,0.6374321 -0.0436,0.024938 -0.05434,-0.1226653 -0.10294,-0.1100217 -0.07184,0.018686 -0.282796,0.431369 -0.28765,0.4400652 -0.141582,0.3253118 -0.278378,0.6564293 -0.343254,1.0073153 -0.01962,0.106125 -0.02905,0.2140845 -0.03559,0.3218107 -0.0065,0.1079918 -0.01062,0.2165858 -0.0037,0.3245513 0.0068,0.1047075 0.02982,0.2077215 0.04473,0.3115822 0.03111,0.1112378 0.05203,0.2258427 0.09333,0.3337127 0.06139,0.160327 0.170834,0.332238 0.272741,0.471897 0.0343,0.04701 0.07264,0.09095 0.110072,0.135515 0.06072,0.07229 0.09161,0.05857 0.05661,0.07183 -0.07835,-0.002 -0.08839,0.05015 -0.124859,0.11854 -0.02599,0.04875 -0.04899,0.09904 -0.07375,0.148427 -0.105968,0.211393 -0.04709,0.08453 -0.140951,0.298655 -0.01312,0.03455 -0.02903,0.06818 -0.03936,0.10366 -0.0058,0.01997 -0.0042,0.04148 -0.0088,0.06175 -0.008,0.03493 -0.04752,0.09176 -0.06295,0.122445 -0.02463,0.04897 -0.04791,0.09861 -0.07187,0.147908 -0.06535,0.424755 -0.184371,0.665059 0.414475,0.989571 0.204638,0.110893 0.465647,-0.0034 0.698087,-0.01553 0.05948,-0.0031 0.118176,-0.0163 0.176161,-0.02991 0.25788,-0.06053 0.254599,-0.07127 0.4979,-0.174048 0.217716,-0.138344 0.232273,-0.131729 0.42603,-0.328037 0.08143,-0.08251 0.152707,-0.174488 0.231188,-0.259808 0.09815,-0.106705 0.206841,-0.203996 0.298652,-0.316204 0.257797,-0.31507 0.280793,-0.403595 0.464281,-0.758074 0.04208,-0.116769 0.09066,-0.231399 0.126252,-0.350307 0.04794,-0.160148 0.08607,-0.383714 0.09493,-0.552391 0.0142,-0.2703434 0.01202,-0.4738934 -0.108646,-0.7320569 C 27.897376,9.1790224 27.796929,9.0781991 27.717464,8.9652206 27.62792,8.8993781 27.544571,8.8241531 27.448832,8.7676999 27.221732,8.6337881 27.270538,8.7223774 27.113098,8.6105606 26.976692,8.5136801 27.00572,8.4992104 26.881319,8.3475409 26.816152,8.2680926 26.745476,8.1933334 26.677555,8.1162296 26.545922,7.9787846 26.408493,7.8278126 26.2634,7.7029069 c -0.04709,-0.040545 -0.09359,-0.084069 -0.149233,-0.111732 -0.02461,-0.012233 -0.07551,-0.030015 -0.08236,-0.00338 -0.03302,0.1283722 0.09743,0.3337252 -0.01894,0.3972022 -0.397966,0.2170928 -0.879142,0.2216633 -1.318713,0.3324953 -0.0087,0.022815 -0.02423,0.044107 -0.02606,0.06846 -0.01277,0.1690672 0.02753,0.4805685 0.05194,0.6178972 0.06683,0.3759158 0.14326,0.6663765 0.28639,1.0219444 0.061,0.151544 0.140074,0.295173 0.210111,0.442758 0.132843,0.207518 0.202013,0.358432 0.385504,0.514153 0.03808,0.03232 0.08764,0.04792 0.131456,0.07188 0.03685,0.102441 1.485588,-0.418768 1.448733,-0.521209 v 0 c 0.02004,-0.03059 0.05213,-0.05608 0.06011,-0.09176 0.04218,-0.188533 -0.01632,-0.413329 -0.04318,-0.5915196 C 27.156172,9.6973991 27.121822,9.5420029 27.070211,9.3919999 26.934227,8.9967731 26.825915,8.7842944 26.619537,8.4236516 26.485486,8.1893996 26.334496,7.9574336 26.172274,7.7411321 c -0.05538,-0.073837 -0.116289,-0.1433655 -0.174433,-0.215049 -0.471282,0.069075 -0.979828,0.011003 -1.413848,0.207228 -0.135485,0.061253 -0.02886,0.2964338 -0.02903,0.4451235 -3.29e-4,0.2961263 0.155758,0.583035 0.324286,0.8150355 0.08422,0.1159328 0.184549,0.2192543 0.276823,0.3288818 0.114656,0.100947 0.221663,0.2113125 0.34397,0.302841 0.181342,0.135708 0.498285,0.3188047 0.718139,0.4094921 0.08242,0.034 0.168007,0.06201 0.255505,0.07914 0.0203,0.004 0.0498,8.25e-4 0.05954,-0.01745 0.01276,-0.02389 -0.0047,-0.05397 -0.007,-0.08096 -0.08277,-0.2947316 -0.02731,-0.056377 -0.0677,-0.3734314 -0.0022,-0.016815 0.0022,-0.056287 -0.0132,-0.049117 -0.03969,0.018533 -0.06149,0.06261 -0.08889,0.096782 -0.163189,0.2034825 -0.181287,0.250161 -0.329139,0.4873864 -0.137971,0.273407 -0.197314,0.364222 -0.291318,0.65175 -0.02371,0.07254 -0.0292,0.150262 -0.0534,0.22264 -0.01921,0.05746 -0.0768,0.06309 -0.124167,0.08407 -0.05642,0.02499 -0.112344,0.0511 -0.168516,0.07666 -0.211964,0.129164 -0.11192,0.05686 -0.272219,0.19005 -0.02183,0.01814 -0.09385,0.04956 -0.06582,0.05401 0.183189,0.02902 0.40255,-0.08067 0.555917,0.02363 0.538266,0.366068 0.436293,0.534163 0.363321,0.944093 -0.01396,0.03091 -0.03588,0.05934 -0.04188,0.09272 -0.0017,0.0095 0.01908,-0.005 0.02709,-0.01042 0.02225,-0.01507 0.04315,-0.03221 0.06284,-0.0505 0.03375,-0.03133 0.06412,-0.06613 0.09725,-0.09811 0.190511,-0.183939 0.05716,-0.03327 0.249713,-0.275165 0.120959,-0.19481 0.158776,-0.237532 0.246561,-0.462332 0.118707,-0.303984 0.179076,-0.63017 0.15133,-0.957056 -0.009,-0.106468 -0.03993,-0.209938 -0.0599,-0.314907 -0.03629,-0.09079 -0.06812,-0.183505 -0.108883,-0.272383 -0.0476,-0.1037979 -0.110813,-0.2040024 -0.181625,-0.2937519 -0.01721,-0.021818 -0.06192,-0.083972 -0.103209,-0.094774 -0.0073,-0.00188 -0.01487,0.00263 -0.0223,0.00398 0.01564,-0.065085 0.02256,-0.099053 0.05039,-0.1716255 0.02618,-0.06828 0.05864,-0.1340228 0.08564,-0.2019885 0.120503,-0.3033465 0.227993,-0.612084 0.33441,-0.9205463 0.02702,-0.1202235 0.06302,-0.2387767 0.08108,-0.3606712 0.0054,-0.036375 0.06525,-0.7784105 -0.01414,-0.7601422 -2.425761,0.5581919 -0.53336,0.9687359 -1.295184,0.5497169 -0.01013,-0.00555 0.0028,0.022958 0.0041,0.034433 0.0096,0.020302 0.01729,0.041662 0.02889,0.0609 0.07338,0.1216763 0.180452,0.228246 0.293659,0.3127485 0.02484,0.018548 0.288888,0.1824128 0.305748,0.1929293 0.03743,0.019298 0.121389,0.099011 0.112291,0.057893 -0.01695,-0.076591 -0.09846,-0.12249 -0.141148,-0.1883025 -0.03244,-0.050018 -0.04187,-0.1155218 -0.08356,-0.1581458 -0.0126,-0.012885 -0.02065,0.030907 -0.02347,0.048712 -0.01687,0.106617 0.0023,0.2012213 0.01411,0.30789 0.0185,0.076618 0.03299,0.154317 0.05551,0.2298548 0.04509,0.1512975 0.132482,0.3781072 0.204762,0.516837 0.0403,0.077338 0.09138,0.14856 0.136845,0.222975 0.11858,0.1940692 0.05466,0.111216 0.169673,0.2430982 0.161174,0.1053218 -0.0013,-0.061605 0.167872,0.3329142 0.02028,0.04728 0.05955,0.08466 0.08071,0.131549 0.005,0.01106 -0.03769,0.0024 -0.03191,0.01752 0.01104,0.02358 0.02021,0.04813 0.03311,0.07074 0.0243,0.04258 0.100911,0.148182 0.125281,0.183614 0.04954,0.07202 0.09502,0.147255 0.151855,0.213989 0.0047,0.0031 0.0398,0.02683 0.04195,0.02647 0.01104,-0.0019 0.02361,-0.02824 0.0283,-0.01807 0.0051,0.01111 -0.01532,0.0191 -0.02374,0.02797 -0.02606,0.02749 -0.08068,0.07875 -0.106188,0.10305 -0.05703,0.04901 -0.109661,0.09153 -0.161353,0.14612 -0.01153,0.01217 -0.01839,0.02846 -0.03073,0.03981 -0.09856,0.09068 -0.211632,0.166307 -0.297877,0.270384 -0.01771,0.013 -0.03435,0.02761 -0.05313,0.039 -0.0382,0.02317 -0.08401,0.03239 -0.118503,0.0626 -0.125983,0.0799 -0.0498,0.03835 -0.173382,0.12496 -0.03254,0.02281 -0.0666,0.04338 -0.0999,0.06506 -0.159216,0.115908 -0.04647,0.03002 -0.17766,0.138261 -0.01301,0.01073 -0.03101,0.01685 -0.0398,0.03124 -0.0039,0.0064 0.01538,5.1e-5 0.02237,-0.0027 0.0034,-0.0014 0.0045,-0.0058 0.0068,-0.0087 -0.03715,0.0057 -0.0743,0.01136 -0.111453,0.01703 -0.0478,0.013 -0.145715,0.04276 -0.201253,0.04819 -0.02741,0.0027 -0.05511,-0.0016 -0.0826,2.4e-5 -0.144026,0.0086 -0.28464,0.03946 -0.419238,0.09178 -0.03887,0.01351 -0.07863,0.02466 -0.116596,0.04052 -0.0243,0.01015 -0.04585,0.02602 -0.06965,0.03729 -0.0055,0.0026 -0.02396,0.0033 -0.0179,0.0042 0.147967,0.02127 0.303849,0.0074 0.444804,0.05716 0.145396,0.05135 0.240811,0.257537 0.30997,0.373022 0.07699,0.302458 -0.06096,-0.277152 -0.332085,-0.392983 -0.362189,-0.154736 -0.740066,-0.04637 -1.059532,0.111559 -0.05077,0.0251 -0.09964,0.05391 -0.149456,0.08087 -0.05603,0.04043 -0.113248,0.07926 -0.168091,0.121282 -0.273503,0.209576 -0.520197,0.454054 -0.688948,0.757381 -0.0097,0.01885 -0.0368,0.03688 -0.02895,0.05656 0.0061,0.01529 0.02378,-0.02581 0.03992,-0.02905 0.262699,-0.05269 0.524516,-0.154992 0.791893,-0.137789 0.113715,0.0074 0.181988,0.137185 0.272598,0.206282 0.01208,0.0092 0.02369,0.03824 0.03545,0.02863 0.01241,-0.01013 -0.0095,-0.0306 -0.0143,-0.0459 -0.04969,-0.093 -0.07139,-0.14049 -0.138393,-0.230406 -0.03526,-0.04732 -0.07484,-0.09128 -0.11356,-0.135797 -0.05082,-0.05842 -0.09279,-0.12694 -0.155042,-0.172987 -0.130462,-0.0965 -0.281142,-0.162405 -0.417444,-0.250461 -0.05502,-0.03555 0.115513,0.06181 0.173269,0.09272 0.10935,0.217395 0.243343,0.424058 0.328049,0.652188 0.02173,0.05852 -0.02426,0.124584 -0.01662,0.186541 0.0017,0.01307 0.02794,0.0053 0.03951,-9.75e-4 0.02909,-0.01583 0.05333,-0.03959 0.07721,-0.06254 0.134808,-0.129549 0.150945,-0.166262 0.272412,-0.32739 0.115987,-0.205578 0.174866,-0.290715 0.256799,-0.515953 0.03221,-0.08856 0.05219,-0.181101 0.07869,-0.271535 0.03755,-0.128148 0.07103,-0.258621 0.12373,-0.381603 0.02216,-0.05492 0.03656,-0.09387 0.06146,-0.14545 0.03965,-0.08212 0.08866,-0.159604 0.121479,-0.245111 0.02811,-0.06415 0.06215,-0.126012 0.08433,-0.192443 0.06799,-0.203627 0.0073,-0.11103 0.06031,-0.242479 0.03441,-0.0854 0.02498,-0.02227 0.05555,-0.124568 0.01107,-0.03703 0.01768,-0.07525 0.02651,-0.112868 0.0085,-0.04134 0.01703,-0.08266 0.0254,-0.124015 0.0085,-0.04175 0.01287,-0.08449 0.02508,-0.12529 0.01252,-0.04186 0.03181,-0.0814 0.04881,-0.121647 0.07788,-0.184384 0.169875,-0.3625944 0.236945,-0.5515449 0.05938,-0.137943 0.121505,-0.2736848 0.168201,-0.416754 0.02181,-0.066817 0.0365,-0.1357598 0.05558,-0.2034128 0.01917,-0.068017 0.04198,-0.1350315 0.05914,-0.2035822 0.02474,-0.098855 0.03448,-0.2011208 0.06463,-0.2988075 0.02278,-0.1180268 0.02015,-0.1007363 0.03937,-0.2138963 0.01574,-0.092707 0.03332,-0.1875262 0.03275,-0.281955 -9.4e-5,-0.015802 -0.004,-0.031365 -0.0059,-0.047047 0.0032,-0.020573 0.004,-0.0417 0.0098,-0.06171 0.0197,-0.068295 0.06101,-0.1294822 0.06822,-0.2020417 0.044,-0.1665863 0.0787,-0.3365076 0.100419,-0.5074006 0.01375,-0.066957 0.03148,-0.1332203 0.04126,-0.2008717 0.01253,-0.086635 0.01975,-0.174019 0.0256,-0.2613611 0.01559,-0.2329882 0.01657,-0.3367406 -0.01,-0.5695632 -0.008,-0.070069 0.0066,-0.1520386 -0.03563,-0.2085468 -0.02206,-0.029542 -0.07315,0.00925 -0.109733,0.013867 -2.234668,0.8147318 -0.349379,0.3697192 -1.086492,0.244282 -0.02692,-0.00458 0.03239,0.044269 0.05192,0.063351 0.135323,0.1322558 0.296201,0.2364706 0.449359,0.3458668 0.05581,0.037238 0.114858,0.070018 0.167416,0.1117144 0.04181,0.033166 0.07737,0.073562 0.11447,0.1119181 0.0427,0.044142 0.08673,0.087342 0.124846,0.1354925 0.04372,0.055219 0.07981,0.1160677 0.120071,0.1738578 0.17526,0.2515846 0.09677,0.145255 0.300682,0.3961104 0.0544,0.06282 0.105375,0.1287862 0.163213,0.18846 0.338638,0.3493845 0.02464,-0.00623 0.245018,0.2297032 0.0191,0.020453 0.03887,0.040733 0.05407,0.064245 0.01628,0.025177 0.06603,0.1609455 0.06959,0.170223 0.0152,0.04056 0.03119,0.080831 0.04562,0.1216748 0.05033,0.1425772 0.05839,0.1949962 0.127876,0.3350062 0.09305,0.1874963 0.217284,0.353556 0.369277,0.4973813 0.04594,0.043852 0.08943,0.090434 0.137836,0.1315507 0.305285,0.2593073 0.103964,0.05385 -0.03617,-0.094294 -0.01526,-0.01614 -0.02783,-0.0471 -0.04986,-0.04422 -0.0614,0.00803 0.072,0.2507812 0.0019,0.1857495 0.01481,0.061522 0.02555,0.1241707 0.04444,0.1845637 0.0746,0.2383958 0.07292,0.177858 0.179662,0.4012774 0.02686,0.05622 0.0458,0.11604 0.07343,0.171885 0.143248,0.289564 0.01384,-0.01997 0.09754,0.187296 0.01928,0.04723 0.01844,0.05501 0.0193,0.106723 1.77e-4,0.01068 0.0039,0.02156 0.0017,0.032 -0.01065,0.04931 -0.04499,0.09175 -0.05239,0.14198 -0.01365,0.04164 -0.03002,0.08249 -0.04096,0.124927 -0.05748,0.223068 -0.05518,0.434631 -6.63e-4,0.661773 0.016,0.06663 0.05739,0.12454 0.08241,0.188334 0.0042,0.01076 -0.01316,-0.01902 -0.01973,-0.02852 -0.01585,-0.0369 -0.034,-0.07288 -0.04753,-0.110695 -0.0085,-0.02368 -0.01153,-0.04898 -0.01829,-0.0732 -0.0017,-0.0061 -0.0013,-0.01998 -0.007,-0.0175 -0.01197,0.0052 -0.01592,0.02063 -0.02401,0.03085 -0.102985,0.130043 -0.03911,0.04362 -0.157592,0.217382 -0.144979,0.219044 -0.07002,0.108158 -0.22513,0.332486 -0.0324,0.04878 -0.06149,0.0997 -0.09395,0.148451 -0.04469,0.06714 -0.09408,0.131793 -0.140425,0.197833 -0.04662,0.0623 -0.0095,0.01634 -0.124694,0.116403 -0.02906,0.02524 -0.05559,0.05368 -0.08695,0.07601 -0.009,0.0064 -0.02181,0.0046 -0.03212,0.0087 -0.0077,0.0031 -0.101967,0.04878 -0.108592,0.05198 -0.07712,0.04667 -0.07399,0.04165 -0.150573,0.103003 -0.02228,0.01785 -0.04393,0.03653 -0.06479,0.05602 -0.01573,0.01469 -0.02796,0.03311 -0.04489,0.04641 -0.02211,0.01738 -0.05993,0.0074 -0.07986,0.02716 -0.05023,0.008 -0.101225,0.0115 -0.150977,0.02206 -0.102335,0.02171 -0.220788,0.06087 -0.312408,0.111923 -0.01997,0.01113 -0.03668,0.02731 -0.05502,0.04096 -0.326624,0.221106 -0.128039,0.05915 -0.380762,0.332666 -0.0016,0.0018 -0.0048,-0.0049 -0.0065,-0.0032 -0.01442,0.01407 -0.02402,0.03251 -0.03817,0.04685 -0.0022,0.0022 -0.0098,0.004 -0.0091,10e-4 0.0044,-0.01934 0.01435,-0.037 0.02152,-0.05549 -0.0029,-0.0088 -0.0012,-0.02096 -0.0087,-0.02627 -0.03161,-0.0223 -0.148177,0.0105 -0.17709,0.01471 -0.08195,0.01194 -0.165613,0.01 -0.246872,0.02782 -0.364006,0.07363 -0.01487,-0.0046 -0.341503,0.0892 -0.04139,0.0119 -0.08393,0.01939 -0.125828,0.02936 -0.109468,0.02604 -0.219224,0.05107 -0.327837,0.08052 -0.04577,0.01853 -0.09303,0.03375 -0.137311,0.0556 -0.120387,0.05942 -0.229912,0.139959 -0.326756,0.232358 0.02431,-0.02105 0.04633,-0.04506 0.07292,-0.06315 0.04791,-0.0326 0.09941,-0.05959 0.14973,-0.08833 0.145397,-0.08303 0.173277,-0.03074 0.443259,-0.02803 0.0233,2.34e-4 0.01811,0.0055 0.01376,0.01243 -0.04298,0.0022 0.01121,0.0017 -0.06738,-0.01715 -0.008,-0.0019 -0.01644,0.0011 -0.02458,1.81e-4 -0.05813,-0.0069 -0.110847,-0.03444 -0.169156,-0.04074 -0.04793,-0.01348 -0.146097,-0.0415 -0.192455,-0.05277 -0.02683,-0.0065 -0.05366,-0.01353 -0.08103,-0.01717 -0.0024,-3.16e-4 -0.0022,0.0046 -0.0042,0.0058 -0.0026,0.0016 -0.0115,3.91e-4 -0.009,0.0022 0.01245,0.009 0.02736,0.01399 0.04105,0.02099 0.01234,0.01446 0.01036,0.01012 -0.02507,-0.0062 -0.02253,-0.0104 -0.04469,-0.0216 -0.06708,-0.03227 -0.08882,-0.04233 -0.179255,-0.07889 -0.274896,-0.103583 -0.119373,-0.02911 -0.241346,-0.05641 -0.364236,-0.0662 -0.02256,-0.0018 -0.08322,-0.01442 -0.06786,0.0022 0.06258,0.06766 0.197129,0.03709 0.237183,0.142075 0.02202,0.0053 0.02251,0.0073 -0.02151,-0.03256 -0.0093,-0.0084 -0.06889,-0.04514 -0.07518,-0.04655 -0.06408,-0.01435 0.02191,0.06512 -0.05361,-0.02342 -0.0072,-0.01038 -0.01365,-0.02126 -0.02149,-0.03113 -0.04855,-0.06116 -0.01009,0.09733 -5.84e-4,-0.0055 0.0032,-0.02733 0.0081,-0.05452 0.0097,-0.082 0.005,-0.08822 -5.33e-4,-0.113197 -0.0082,-0.200774 -0.0023,-0.02602 -0.0039,-0.0521 -0.0068,-0.07806 -0.002,-0.01752 -0.01045,-0.03487 -0.0078,-0.05231 0.004,-0.02695 0.01823,-0.05136 0.02735,-0.07704 0.04252,-0.117957 0.07509,-0.236663 0.09201,-0.361447 0.0064,-0.04673 0.0076,-0.09402 0.01159,-0.141013 0.01504,-0.178912 0.01122,-0.08548 0.01232,-0.255913 -0.0021,-0.01646 -0.004,-0.03294 -0.0062,-0.04938 -6.3e-4,-0.0046 -0.0029,-0.0092 -0.0024,-0.01382 0.0068,-0.05627 0.03447,-0.104084 0.06438,-0.151027 0.04333,-0.06655 0.03153,-0.04411 0.07303,-0.133914 0.0681,-0.147371 0.125788,-0.299943 0.153984,-0.460461 0.0091,-0.06006 0.02176,-0.195007 0.06818,-0.241103 0.0068,-0.0068 0.01563,-0.01108 0.02345,-0.01662 0.174736,-0.204283 0.307857,-0.439462 0.399379,-0.692358 0.06902,-0.197803 0.0034,-0.01903 0.08864,-0.223593 0.05525,-0.1326069 0.10446,-0.2678011 0.161852,-0.3995566 0.03505,-0.061343 0.06549,-0.124251 0.09851,-0.1866277 0.0238,-0.044963 0.07604,-0.1333606 0.100323,-0.1749983 0.0196,-0.036795 0.03674,-0.07485 0.05511,-0.112281 0.02204,-0.035858 0.119926,-0.1939853 0.135084,-0.2236163 0.07293,-0.142563 0.117607,-0.2947725 0.154388,-0.4497127 -0.0032,0.0033 -0.0078,0.00563 -0.0096,0.0098 -7.5e-4,0.0018 0.0043,2.002e-4 0.0059,-0.00105 0.02145,-0.01674 0.04235,-0.034215 0.06258,-0.052402 0.108407,-0.097429 0.208684,-0.2038327 0.293925,-0.322374 0.108329,-0.1618485 0.149478,-0.210339 0.233536,-0.3921998 0.12291,-0.2659185 0.182827,-0.5545425 0.242234,-0.8396256 0.04557,-0.2301867 0.01429,-0.054339 0.04494,-0.2768916 0.01285,-0.093366 0.04015,-0.1844382 0.04426,-0.2790958 0.0037,-0.029515 0.0093,-0.078923 0.01532,-0.1048372 0.01568,-0.067541 0.0138,-0.038937 0.04009,-0.097116 0.01243,-0.02752 0.02294,-0.055868 0.03442,-0.083802 0.01481,-0.032629 0.02962,-0.065259 0.04443,-0.097889 0.05045,-0.1159374 0.08208,-0.1808019 0.120452,-0.3060039 0.07357,-0.2400471 0.03771,-0.1787817 0.104992,-0.4202939 0.184551,-0.6624577 -0.04344,0.2400022 0.130237,-0.4648081 0.01337,-0.073678 0.03176,-0.1466208 0.04011,-0.2210344 0.0059,-0.053014 0.05603,-0.1607355 0.0027,-0.1600187 -0.09579,0.00129 -0.140917,0.1583213 -0.236595,0.1631624 -0.831114,0.042052 -0.762484,0.1196446 -0.989659,-0.1521992 0.04114,0.092363 0.07624,0.1880844 0.12031,0.2790354 0.06869,0.141771 0.15689,0.2737698 0.220439,0.4182457 0.104096,0.1758266 0.215742,0.3477577 0.338563,0.5111669 0.03808,-0.031042 0.0072,3.878e-4 0.02948,-0.082353 0.0233,-0.086626 0.02725,-0.1827546 0.07569,-0.2582564 0.07658,-0.1193507 0.259102,-0.1729805 0.289821,-0.3114179 0.06796,-0.3062559 -1.035327,1.2543478 -0.376392,0.8625696 0.02076,0.1213019 0.03373,0.2388306 0.07891,0.3542955 0.129254,0.3303096 0.384986,0.5912176 0.642375,0.8250153 0.06483,0.055012 0.127237,0.1130198 0.194497,0.1650346 0.08217,0.063547 0.254767,0.1743259 0.346477,0.2333283 0.04168,0.026812 0.0829,0.05437 0.125439,0.079783 0.0099,0.00593 0.02013,0.012285 0.03148,0.013965 0.0035,5.078e-4 0.0041,-0.00563 0.0061,-0.0084 -0.0099,-0.019043 -0.01825,-0.036743 0.0074,0.031477 0.04193,0.111546 0.10254,0.2148638 0.170535,0.3125123 0.03008,0.043208 0.06347,0.084009 0.09521,0.1260135 0.02334,0.035168 0.04732,0.069922 0.07003,0.1055018 0.04472,0.07008 0.118285,0.1968832 0.166659,0.2621355 0.1001,0.1350292 0.220365,0.252303 0.360674,0.3451297 0.01328,-0.00742 0.03604,-0.00762 0.03985,-0.022365 0.0075,-0.029115 -0.0056,-0.059955 -0.01098,-0.089539 -3.11e-4,-0.00173 -0.005,-0.00127 -0.0052,4.5e-4 -0.01017,0.098129 0.0053,0.196671 0.02437,0.2925832 0.01036,0.039652 0.01841,0.079978 0.03107,0.118953 0.04181,0.1286595 0.09933,0.2494253 0.167123,0.366087 0.03344,0.057533 0.06233,0.118179 0.101933,0.171651 0.03622,0.048892 0.08284,0.089137 0.124265,0.1337055 0.0498,0.032887 -0.05724,-0.087211 -0.08687,-0.091528 -0.02976,-0.00435 0.06426,0.1195492 0.02962,0.082429 0.02339,0.0594 0.04303,0.1202393 0.06646,0.1796265 0.05264,0.1334324 0.118272,0.2615904 0.201607,0.3785044 0.02064,0.06437 0.03532,0.132261 0.05972,0.195304 0.0069,0.01789 0.01763,0.03413 0.02501,0.05185 0.06434,0.154682 -0.01998,-0.02693 0.04809,0.115945 0.0068,0.0096 0.01363,0.0191 0.02018,0.02882 0.0035,0.0053 0.0087,0.0099 0.0101,0.01612 0.01166,0.05102 0.01112,0.106822 -8.25e-4,0.157549 -0.02185,0.06686 -0.03195,0.133794 -0.04502,0.2029 -0.0058,0.03099 -0.01387,0.06158 -0.01877,0.09273 -0.0033,0.02096 -0.02636,0.223497 -0.02816,0.239173 -0.05417,0.242211 -0.143889,0.473902 -0.216143,0.710915 -0.05577,0.08958 -0.06587,0.104078 -0.122037,0.202856 -0.05527,0.0972 -0.06782,0.128182 -0.126169,0.222781 -0.02684,0.04351 -0.05623,0.08539 -0.08321,0.128796 -0.02472,0.03977 -0.04792,0.08048 -0.07188,0.120721 -0.105036,0.217995 -0.04108,0.07068 -0.116409,0.279073 -0.0044,0.01219 -0.05247,0.129586 -0.04775,0.153099 0.0012,0.0061 0.009,-0.0084 0.01349,-0.01264 0.0028,-0.005 0.0139,-0.01732 0.0086,-0.015 -0.0083,0.0037 -0.01141,0.01437 -0.01885,0.01951 -0.0053,0.0037 -0.01346,0.0021 -0.01848,0.0062 -0.01832,0.01506 -0.03245,0.0347 -0.05031,0.05031 -0.0095,0.0083 -0.02097,0.01408 -0.03146,0.02111 -0.01806,0.01642 -0.03612,0.03283 -0.05418,0.04924 -0.06471,0.05444 -0.02844,0.02558 -0.10983,0.08528 -0.132902,0.109319 -0.253884,0.235506 -0.348689,0.379348 -0.09698,0.145038 -0.0233,0.04885 -0.09219,0.121123 -0.01921,0.02015 -0.03412,0.04483 -0.05624,0.06173 -0.01048,0.008 -0.02592,0.0056 -0.0382,0.01046 -0.05429,0.02143 -0.0985,0.05013 -0.149508,0.0795 -0.09203,0.04755 -0.119245,0.05883 -0.210192,0.118803 -0.03262,0.02151 -0.06332,0.04582 -0.09502,0.06867 -0.230964,0.166541 6.66e-4,-0.0066 -0.167682,0.132865 -0.0018,0.0015 -0.0047,4.93e-4 -0.0071,7.4e-4 0.0025,-0.0043 0.01227,-0.01071 0.0078,-0.01287 -0.0099,-0.0047 -0.02214,-0.0012 -0.03295,7.5e-4 -0.02056,0.0038 -0.04019,0.01149 -0.06056,0.01611 -0.03816,0.0087 -0.07943,0.0048 -0.117471,0.01251 -0.06405,0.0068 -0.121904,0.01097 -0.185081,0.02531 -0.151225,0.03431 -0.292215,0.09563 -0.437027,0.148941 -0.03023,0.01117 -0.13563,0.05086 -0.165761,0.05898 -0.01891,0.0051 -0.03868,0.0061 -0.05798,0.0094 -0.10717,0.01806 -0.215242,0.0317 -0.320236,0.06082 -0.05739,0.01855 -0.170935,0.05414 -0.227181,0.07671 -0.03724,0.01494 -0.07184,0.03628 -0.109724,0.04951 -0.0504,0.01759 -0.105497,-0.02537 -0.155236,-0.0239 -0.0048,-3.66e-4 -0.215129,-0.01633 -0.214855,-0.01633 0.09209,-5.94e-4 0.184876,-0.0047 0.276169,0.0074 0.04916,0.0065 -0.09914,0.0044 -0.14847,0.0095 -0.04389,0.0045 -0.08737,0.01242 -0.13098,0.0191 -0.03377,0.0052 -0.06745,0.01097 -0.101174,0.01646 -0.02957,0.0025 -0.05989,3.24e-4 -0.08871,0.0073 -0.0061,0.0015 -0.0048,0.01188 -0.0091,0.01653 -0.0028,0.0031 -0.01363,0.0024 -0.01109,0.0056 0.005,0.0064 0.02826,0.01541 0.02276,0.0093 -0.01106,-0.01223 -0.09637,-0.06634 -0.10235,-0.07024 -0.03515,-0.01705 -0.0691,-0.03685 -0.105465,-0.05114 -0.158013,-0.06205 -0.325442,-0.0913 -0.494893,-0.09276 -0.196686,-0.0017 -0.394909,-0.02025 -0.590064,0.0043 -0.07756,0.0098 -0.142398,0.06453 -0.213596,0.0968 0.06043,-0.02773 0.114836,-0.0809 0.181287,-0.08322 0.183493,-0.0064 0.36482,0.0423 0.547763,0.05787 0.0049,4.16e-4 0.01176,-0.0056 0.01044,-0.01036 -0.0025,-0.0088 -0.01165,-0.01439 -0.01891,-0.02 -0.02264,-0.01754 -0.150426,-0.10188 -0.160385,-0.108515 -0.03435,-0.02032 -0.237171,-0.141118 -0.271394,-0.158116 -0.04453,-0.02212 -0.09089,-0.04052 -0.137562,-0.05767 -0.04851,-0.01782 -0.09716,-0.03634 -0.147706,-0.04712 -0.01825,-0.0039 -0.06384,-0.0132 -0.05588,0.0037 0.06247,0.132406 0.155466,0.24812 0.233198,0.37218 0.0069,0.01606 0.0206,0.06567 0.02063,0.04819 7.8e-5,-0.04222 -0.01195,-0.08364 -0.0205,-0.124986 -0.03032,-0.14672 -0.09317,-0.280522 -0.181988,-0.401252 -0.06417,-0.07282 -0.127953,-0.152008 -0.20859,-0.207801 -0.01066,-0.0074 -0.02371,-0.01051 -0.03556,-0.01577 -0.0034,0.0094 -9.75e-4,0.03185 -0.0102,0.02811 -0.01564,-0.0064 -0.01779,-0.02871 -0.02668,-0.04306 0.006,0.0097 0.03676,0.05975 0.03905,0.0594 0.01384,-0.0021 9.75e-4,-0.02812 -9e-4,-0.042 -0.01221,-0.08876 -0.04181,-0.173478 -0.08488,-0.251884 -0.02874,-0.04622 -0.06043,-0.09057 -0.08881,-0.137015 -0.01426,-0.02333 -0.02548,-0.04843 -0.03958,-0.07185 -0.0075,-0.01242 -0.01062,-0.03452 -0.02509,-0.03554 -0.0041,-2.91e-4 0.0098,0.06197 0.01019,0.06365 0.0077,0.06502 0.0021,0.133079 0.02314,0.195082 0.0121,0.03563 0.0032,-0.07521 0.0048,-0.112808 0.0022,-0.04984 0.007,-0.100391 0.0046,-0.15031 -8.25e-4,-0.01784 -0.0031,-0.03559 -0.0047,-0.05339 -0.01093,-0.09573 -0.02442,-0.191612 -0.04712,-0.285399 -0.0057,-0.02345 -0.01523,-0.04587 -0.02056,-0.0694 -0.0053,-0.02363 -0.0076,-0.04785 -0.01146,-0.07177 -1.68e-4,-9.75e-4 -0.0095,-0.06339 -0.0142,-0.07212 -0.0022,-0.0041 -0.01696,0.02682 -0.01206,-0.0071 -0.0025,-0.01332 -0.0062,-0.07916 -0.0071,-0.0937 -0.0065,-0.08233 2.98e-4,-0.0088 -0.01132,-0.09901 -0.0042,-0.03265 -0.01327,-0.05445 0.01316,-0.07448 0.04805,-0.119963 0.04301,-0.282082 0.02544,-0.407871 0.0011,-0.02933 0.0074,-0.06573 -0.0021,-0.0961 -0.0012,-0.004 -0.0031,-0.0128 -0.0066,-0.0106 -0.009,0.0056 -0.01634,0.03649 -0.01833,0.02605 -0.0037,-0.01952 0.03542,-0.125579 -0.0048,-0.0097 0.02585,-0.07822 0.03472,-0.0961 0.04768,-0.190277 0.0055,-0.03979 0.0055,-0.08015 0.0083,-0.120222 9e-4,-0.02663 -5.29e-4,-0.05343 0.0027,-0.07988 0.0011,-0.0092 0.03485,-2.54e-4 0.01309,-0.02465 0.0249,-0.125463 0.04159,-0.252237 0.06313,-0.378341 0.0053,-0.03992 0.01255,-0.07964 0.01604,-0.119773 0.0071,-0.08147 0.0044,-0.111822 -0.0016,-0.188582 -0.0031,-0.03931 0.01138,-0.150863 -0.01015,-0.117841 -0.01858,0.02848 -0.139905,0.476717 -0.01716,0.100559 0.02104,0.01703 0.01228,0.01618 0.03645,-0.02515 0.05416,-0.09256 0.08685,-0.194742 0.113966,-0.297888 0.01162,-0.04982 0.02613,-0.09902 0.03568,-0.14928 0.0081,-0.04265 0.0073,-0.08706 0.01909,-0.128841 0.0065,-0.023 0.01698,-0.0447 0.0251,-0.06719 0.007,-0.01962 0.01366,-0.03941 0.02049,-0.05911 0.0068,-0.02396 0.0077,-0.05534 0.01724,-0.07668 0.002,-0.0045 0.0062,-0.0079 0.0082,-0.01243 0.01629,-0.03541 0.0298,-0.07204 0.04565,-0.107639 0.02824,-0.04444 0.06124,-0.08508 0.08974,-0.1294276 0.06571,-0.1022475 0.125278,-0.208617 0.178035,-0.3180938 0.03521,-0.083424 0.08832,-0.2067405 0.119847,-0.2915167 0.01503,-0.040403 0.02902,-0.081231 0.04139,-0.122529 0.01138,-0.038018 0.01686,-0.077751 0.02982,-0.1152578 0.0219,-0.06336 0.04421,-0.089822 0.08014,-0.143454 0.07018,-0.099659 0.146474,-0.1945905 0.207903,-0.300234 0.06688,-0.115011 0.07037,-0.1404742 0.125838,-0.2608852 0.01685,-0.036592 0.03501,-0.07257 0.05251,-0.108852 0.04322,-0.094996 0.08887,-0.1891238 0.12693,-0.2863553 0.0065,-0.016448 0.01234,-0.033098 0.01852,-0.049643 5.67e-4,-0.00938 -0.0017,-0.019395 0.0017,-0.028155 0.0097,-0.02475 0.02463,-0.047108 0.03694,-0.070658 0.0112,-0.040312 0.0397,-0.077037 0.07283,-0.1024867 0.01147,-0.00881 0.02504,-0.01473 0.03615,-0.023992 0.05549,-0.04626 0.08046,-0.080778 0.130011,-0.1379085 0.02714,-0.041213 0.0559,-0.081392 0.08141,-0.1236285 0.0361,-0.059766 0.0971,-0.1799218 0.12704,-0.2427395 0.01537,-0.03226 0.02988,-0.064942 0.04378,-0.09786 0.01168,-0.02764 0.01978,-0.056811 0.03296,-0.083768 0.01483,-0.030337 0.03389,-0.058418 0.05083,-0.087626 0.02014,-0.032301 0.03854,-0.06503 0.0638,-0.0938 0.01275,-0.014524 0.02819,-0.026499 0.04129,-0.04071 0.06511,-0.070625 0.124779,-0.1466128 0.180981,-0.2244038 0.01922,-0.024718 0.03845,-0.049435 0.05767,-0.074152 0.01402,-0.020641 0.02693,-0.042082 0.04206,-0.061923 0.02122,-0.027821 0.04517,-0.053462 0.06686,-0.080912 0.03026,-0.03829 0.05825,-0.078355 0.08897,-0.1162782 0.04204,-0.051892 0.09229,-0.096832 0.130621,-0.151906 0.02529,-0.036492 0.05279,-0.071553 0.07588,-0.1094759 0.02623,-0.043066 0.04812,-0.088626 0.07185,-0.1331163 0.05135,-0.096285 0.101404,-0.1937253 0.133278,-0.2985783 -0.02108,0.00701 -0.0212,0.00948 0.0115,-0.028895 0.05416,-0.063562 0.143336,-0.093374 0.181402,-0.1733182 0.03776,-0.047383 0.09102,-0.1136083 0.125749,-0.1601817 0.05641,-0.075648 0.05504,-0.079299 0.105241,-0.1491144 0.01645,-0.02287 0.03491,-0.044318 0.05026,-0.067935 0.0079,-0.012196 0.01289,-0.026084 0.01934,-0.039125 0.0567,-0.082027 0.01996,-0.043544 -0.08076,0.020578 -0.02345,0.014925 0.04961,-0.026183 0.07048,-0.044547 0.220591,-0.1942359 0.170216,-0.1484691 0.306759,-0.384513 0.01012,-0.015771 0.07896,-0.1222012 0.08759,-0.1391133 0.08088,-0.1584816 0.113661,-0.3311601 0.101826,-0.5083508 0.01663,-0.1048248 -1.465818,-0.3399956 -1.482446,-0.2351709 z" />
      <path
         id="path946"
         d="M 34.42189,50.000002 H 15.5795 c -1.57021,0 -2.84851,-1.277534 -2.84851,-2.847748 0,-1.511545 1.18221,-2.750891 2.67088,-2.842868 l 0.0774,-23.457507 0.0512,-0.164506 c 0.0419,-0.133467 1.05874,-3.262363 4.30914,-3.262363 0.55968,0 1.15225,0.09945 1.76058,0.29648 2.13442,0.689781 3.55657,1.424066 4.5933,1.960519 0.88308,0.455742 1.46551,0.757084 1.92836,0.757084 0.29125,0 0.76119,-0.102438 1.81734,-0.89504 1.17541,-0.880826 2.39839,-0.848677 3.2414,0 1.53768,1.545904 1.64123,5.794557 1.61319,10.775963 l -0.004,1.036728 c 0,3.248198 0.005,10.042826 0.008,12.971545 1.39306,0.184691 2.47123,1.379943 2.47123,2.823438 10e-4,1.571363 -1.27754,2.848131 -2.84775,2.848131 z M 15.5795,46.579143 c -0.31517,0 -0.57239,0.25722 -0.57239,0.572766 0,0.315546 0.25722,0.572392 0.57239,0.572392 h 18.84334 c 0.31518,0 0.5724,-0.256846 0.5724,-0.572392 0,-0.315546 -0.25722,-0.572766 -0.5724,-0.572766 h -1.89811 l -7.7e-4,-1.136936 c -0.002,-1.658076 -0.009,-10.291671 -0.009,-14.084649 l 0.004,-1.049458 c 0.0112,-2.046945 0.0441,-8.197063 -0.91111,-9.125735 -0.055,0.02281 -0.15478,0.07253 -0.30247,0.183572 -1.26068,0.946253 -2.2129,1.349986 -3.18311,1.349986 -1.01539,0 -1.87945,-0.446773 -2.97294,-1.01127 -1.02141,-0.527523 -2.29292,-1.184408 -4.24903,-1.816954 -0.38172,-0.123379 -0.73838,-0.185811 -1.05989,-0.185811 -1.32606,0 -1.91946,1.135788 -2.08619,1.531739 l -0.0841,25.345861 h -2.0903 z M 25.62616,21.489019 c -0.6281,0 -1.13732,-0.509951 -1.13732,-1.138085 l -3.8e-4,-7.429087 c 0,-0.628842 0.5092,-1.138085 1.13732,-1.138085 0.62884,0 1.13808,0.509204 1.13808,1.138085 V 20.3517 c 3.8e-4,0.627722 -0.50883,1.137319 -1.1377,1.137319 z M 25.38497,18.06261 c -0.14543,0 -0.29125,-0.0049 -0.44079,-0.01309 C 22.58953,17.913804 20.76587,16.858029 19.80954,15.076583 18.71041,13.026672 18.87712,10.09556 20.22566,7.783595 21.26909,5.995736 21.79894,5.284326 22.53169,4.297271 23.03566,3.619454 23.66154,2.77673 24.65788,1.308925 L 25.54657,-2e-6 26.50481,1.25772 c 0.13272,0.173847 3.2616,4.281098 4.51071,6.024451 1.4143,1.972483 1.54963,4.765294 0.3432,7.113533 -1.17914,2.296652 -3.41301,3.666833 -5.97363,3.666833 z M 25.64331,3.887036 c -0.5365,0.760443 -0.93915,1.302897 -1.285,1.768716 -0.71445,0.961979 -1.18632,1.597875 -2.16658,3.275476 -0.95037,1.627449 -1.10478,3.712486 -0.37686,5.069651 0.58436,1.088698 1.68124,1.686501 3.25978,1.777713 1.87122,0.108793 3.41942,-0.784744 4.25908,-2.421936 0.80756,-1.572129 0.74026,-3.480677 -0.16786,-4.747683 -0.80681,-1.126121 -2.46826,-3.328881 -3.5226,-4.721937 z"
         style="stroke-width:0.0957098" />
      <path
         id="path2504"
         style="fill:#678a9b;fill-opacity:1;stroke-width:0.75"
         d="m 22.998459,12.123713 c -0.03151,0.04267 -0.06711,0.08263 -0.09455,0.128035 -0.07109,0.117623 -0.105195,0.221757 -0.146889,0.352829 -0.03202,0.100639 -0.07249,0.244047 -0.08832,0.350476 -0.0068,0.04583 -0.0068,0.09243 -0.01012,0.138637 -0.02512,0.109045 1.517008,0.464402 1.542135,0.355356 v 0 c 0.01804,-0.03127 0.03853,-0.06124 0.05411,-0.09379 0.03792,-0.07921 0.08624,-0.217035 0.113843,-0.297738 0.03571,-0.104441 0.08198,-0.239748 0.09844,-0.348586 0.0081,-0.05376 0.0053,-0.108609 0.008,-0.162913 0.02987,-0.104412 -1.446735,-0.526715 -1.476596,-0.422304 z" />
    </g>
  </g>
  <g
     inkscape:groupmode="layer"
     id="layer3"
     inkscape:label="Layer 1" />
</svg>
