<?xml version="1.0" encoding="UTF-8" standalone="no"?>
<svg
   width="50pt"
   height="50pt"
   version="1.1"
   viewBox="0 0 50 50"
   id="svg3049"
   sodipodi:docname="ceiling_light_active.svg"
   inkscape:version="1.2.2 (b0a8486541, 2022-12-01)"
   xmlns:inkscape="http://www.inkscape.org/namespaces/inkscape"
   xmlns:sodipodi="http://sodipodi.sourceforge.net/DTD/sodipodi-0.dtd"
   xmlns="http://www.w3.org/2000/svg"
   xmlns:svg="http://www.w3.org/2000/svg">
  <sodipodi:namedview
     id="namedview3051"
     pagecolor="#ffffff"
     bordercolor="#000000"
     borderopacity="0.25"
     inkscape:showpageshadow="2"
     inkscape:pageopacity="0.0"
     inkscape:pagecheckerboard="0"
     inkscape:deskcolor="#d1d1d1"
     inkscape:document-units="pt"
     showgrid="false"
     inkscape:zoom="14.201518"
     inkscape:cx="45.206435"
     inkscape:cy="32.989431"
     inkscape:window-width="1836"
     inkscape:window-height="1476"
     inkscape:window-x="3016"
     inkscape:window-y="56"
     inkscape:window-maximized="1"
     inkscape:current-layer="g3047" />
  <defs
     id="defs2951">
    <symbol
       id="w"
       overflow="visible">
      <path
         d="m 14.656,-0.875 c -0.76172,0.39844 -1.5547,0.69531 -2.375,0.89062 -0.8125,0.19531 -1.6641,0.29688 -2.5469,0.29688 -2.6562,0 -4.7617,-0.73828 -6.3125,-2.2188 -1.5547,-1.4883 -2.3281,-3.5039 -2.3281,-6.0469 0,-2.5508 0.77344,-4.5664 2.3281,-6.0469 1.5508,-1.4883 3.6562,-2.2344 6.3125,-2.2344 0.88281,0 1.7344,0.10156 2.5469,0.29688 0.82031,0.19922 1.6133,0.49609 2.375,0.89062 v 3.2969 c -0.76172,-0.51953 -1.5117,-0.89844 -2.25,-1.1406 -0.74219,-0.23828 -1.5234,-0.35938 -2.3438,-0.35938 -1.4688,0 -2.625,0.46875 -3.4688,1.4062 -0.83594,0.9375 -1.25,2.2344 -1.25,3.8906 0,1.6484 0.41406,2.9375 1.25,3.875 0.84375,0.9375 2,1.4062 3.4688,1.4062 0.82031,0 1.6016,-0.11719 2.3438,-0.35938 0.73828,-0.23828 1.4883,-0.61719 2.25,-1.1406 z"
         id="path2882" />
    </symbol>
    <symbol
       id="d"
       overflow="visible">
      <path
         d="m 10.719,-8.7031 c -0.33594,-0.15625 -0.66797,-0.26953 -1,-0.34375 -0.32422,-0.082031 -0.65625,-0.125 -1,-0.125 -0.98047,0 -1.7344,0.32031 -2.2656,0.95312 -0.53125,0.625 -0.79688,1.5273 -0.79688,2.7031 V -3e-5 h -3.8125 v -11.969 h 3.8125 v 1.9688 c 0.48828,-0.78125 1.0508,-1.3477 1.6875,-1.7031 0.64453,-0.36328 1.4102,-0.54688 2.2969,-0.54688 0.13281,0 0.27344,0.0078 0.42188,0.01563 0.14453,0.01172 0.36328,0.03125 0.65625,0.0625 z"
         id="path2885" />
    </symbol>
    <symbol
       id="c"
       overflow="visible">
      <path
         d="m 13.781,-6.0156 v 1.0938 H 4.8435 c 0.09375,0.89844 0.41406,1.5703 0.96875,2.0156 0.55078,0.44922 1.3281,0.67188 2.3281,0.67188 0.80078,0 1.625,-0.11719 2.4688,-0.35938 0.84375,-0.23828 1.7109,-0.59766 2.6094,-1.0781 v 2.9531 c -0.90625,0.33594 -1.8125,0.58984 -2.7188,0.76562 -0.9063,0.17578 -1.8125,0.26562 -2.7188,0.26562 -2.1562,0 -3.8398,-0.54688 -5.0469,-1.6406 -1.1992,-1.1016 -1.7969,-2.6484 -1.7969,-4.6406 0,-1.9453 0.58594,-3.4766 1.7656,-4.5938 1.1758,-1.125 2.8008,-1.6875 4.875,-1.6875 1.875,0 3.375,0.57031 4.5,1.7031 1.1328,1.125 1.7031,2.6367 1.7031,4.5312 z M 9.8435,-7.2812 c 0,-0.72656 -0.21484,-1.3125 -0.64062,-1.75 -0.41797,-0.44531 -0.96875,-0.67188 -1.6562,-0.67188 -0.74219,0 -1.3438,0.21094 -1.8125,0.625 -0.46094,0.41797 -0.74609,1.0156 -0.85938,1.7969 z"
         id="path2888" />
    </symbol>
    <symbol
       id="b"
       overflow="visible">
      <path
         d="m 7.2031,-5.3906 c -0.80469,0 -1.4062,0.13672 -1.8125,0.40625 -0.39844,0.27344 -0.59375,0.67188 -0.59375,1.2031 0,0.48047 0.16016,0.85938 0.48438,1.1406 0.32031,0.27344 0.77344,0.40625 1.3594,0.40625 0.71875,0 1.3203,-0.25391 1.8125,-0.76562 0.48828,-0.51953 0.73438,-1.1719 0.73438,-1.9531 v -0.4375 z m 5.8438,-1.4375 V 0 H 9.1875 v -1.7656 c -0.51172,0.71875 -1.0898,1.2461 -1.7344,1.5781 -0.63672,0.33203 -1.418,0.5 -2.3438,0.5 -1.2422,0 -2.2461,-0.35938 -3.0156,-1.0781 -0.77344,-0.72656 -1.1562,-1.6719 -1.1562,-2.8281 0,-1.3945 0.47656,-2.4219 1.4375,-3.0781 0.96875,-0.65625 2.4883,-0.98438 4.5625,-0.98438 h 2.25 v -0.29688 c 0,-0.60156 -0.24219,-1.0469 -0.71875,-1.3281 -0.48047,-0.28125 -1.2266,-0.42188 -2.2344,-0.42188 -0.8125,0 -1.5742,0.085937 -2.2812,0.25 -0.71094,0.15625 -1.3672,0.40234 -1.9688,0.73438 v -2.9219 c 0.82031,-0.19531 1.6445,-0.34766 2.4688,-0.45312 0.82031,-0.10156 1.6484,-0.15625 2.4844,-0.15625 2.1562,0 3.7109,0.42969 4.6719,1.2812 0.95703,0.84375 1.4375,2.2266 1.4375,4.1406 z"
         id="path2891" />
    </symbol>
    <symbol
       id="f"
       overflow="visible">
      <path
         d="m 6.0156,-15.359 v 3.3906 H 9.9531 V -9.234 H 6.0156 v 5.0781 c 0,0.55469 0.10938,0.92969 0.32812,1.125 0.21875,0.19922 0.65625,0.29688 1.3125,0.29688 h 1.9688 v 2.7344 h -3.2812 c -1.5117,0 -2.5859,-0.3125 -3.2188,-0.9375 -0.625,-0.63281 -0.9375,-1.707 -0.9375,-3.2188 v -5.0781 h -1.9062 v -2.7344 h 1.9062 v -3.3906 z"
         id="path2894" />
    </symbol>
    <symbol
       id="n"
       overflow="visible">
      <path
         d="m 9.9688,-10.219 v -6.4062 h 3.8594 V -2e-4 H 9.9688 V -1.7346 C 9.44536,-1.02366 8.8672,-0.5041 8.2344,-0.1721 7.59768,0.14821 6.8633,0.31228 6.0313,0.31228 c -1.4688,0 -2.6797,-0.58203 -3.625,-1.75 -0.94922,-1.1758 -1.4219,-2.6875 -1.4219,-4.5312 0,-1.8437 0.47266,-3.3477 1.4219,-4.5156 0.94531,-1.1758 2.1562,-1.7656 3.625,-1.7656 0.83203,0 1.5664,0.16797 2.2031,0.5 0.63281,0.32422 1.2109,0.83594 1.7344,1.5312 z m -2.5156,7.75 c 0.82031,0 1.4453,-0.29688 1.875,-0.89062 0.42578,-0.60156 0.64062,-1.4727 0.64062,-2.6094 0,-1.1445 -0.21484,-2.0156 -0.64062,-2.6094 -0.42969,-0.59375 -1.0547,-0.89062 -1.875,-0.89062 -0.8125,0 -1.4336,0.29688 -1.8594,0.89062 -0.42969,0.59375 -0.64062,1.4648 -0.64062,2.6094 0,1.1367 0.21094,2.0078 0.64062,2.6094 0.42578,0.59375 1.0469,0.89062 1.8594,0.89062 z"
         id="path2897" />
    </symbol>
    <symbol
       id="m"
       overflow="visible">
      <path
         d="m 8.2031,-2.4688 c 0.82031,0 1.4453,-0.29688 1.875,-0.89062 0.42578,-0.60156 0.64062,-1.4727 0.64062,-2.6094 0,-1.1445 -0.21484,-2.0156 -0.64062,-2.6094 -0.42969,-0.59375 -1.0547,-0.89062 -1.875,-0.89062 -0.82422,0 -1.4531,0.30469 -1.8906,0.90625 -0.4375,0.59375 -0.65625,1.4609 -0.65625,2.5938 0,1.1367 0.21875,2.0078 0.65625,2.6094 0.4375,0.59375 1.0664,0.89062 1.8906,0.89062 z m -2.5469,-7.75 c 0.53125,-0.69531 1.1133,-1.207 1.75,-1.5312 0.64453,-0.33203 1.3828,-0.5 2.2188,-0.5 1.4688,0 2.6758,0.58984 3.625,1.7656 0.94531,1.168 1.4219,2.6719 1.4219,4.5156 0,1.8437 -0.47656,3.3555 -1.4219,4.5312 -0.94922,1.168 -2.1562,1.75 -3.625,1.75 -0.83594,0 -1.5742,-0.16797 -2.2188,-0.5 -0.63672,-0.33203 -1.2188,-0.84766 -1.75,-1.5469 V -1e-4 H 1.8437 v -16.625 h 3.8125 z"
         id="path2900" />
    </symbol>
    <symbol
       id="l"
       overflow="visible">
      <path
         d="m 0.26562,-11.969 h 3.8281 l 3.2188,8.125 2.7344,-8.125 h 3.8125 L 8.82822,1.125 c -0.5,1.332 -1.0898,2.2656 -1.7656,2.7969 -0.66797,0.53125 -1.5547,0.79688 -2.6562,0.79688 h -2.2188 v -2.5 h 1.2031 c 0.64453,0 1.1133,-0.10547 1.4062,-0.3125 C 5.0977,1.69534 5.32817,1.32816 5.48442,0.79688 L 5.5938,0.45313 Z"
         id="path2903" />
    </symbol>
    <symbol
       id="k"
       overflow="visible">
      <path
         d="M 2.0156,-15.953 H 6.125 v 5.8281 l 5.9219,-5.8281 h 4.7812 L 9.1406,-8.3905 17.6094,1e-4 H 12.4688 L 6.125,-6.2811 V 1e-4 H 2.0156 Z"
         id="path2906" />
    </symbol>
    <symbol
       id="e"
       overflow="visible">
      <path
         d="m 7.5312,-9.5156 c -0.84375,0 -1.4922,0.30859 -1.9375,0.92188 -0.44922,0.60547 -0.67188,1.4805 -0.67188,2.625 0,1.1484 0.22266,2.0273 0.67188,2.6406 0.44531,0.60547 1.0938,0.90625 1.9375,0.90625 0.83203,0 1.4688,-0.30078 1.9062,-0.90625 0.44531,-0.61328 0.67188,-1.4922 0.67188,-2.6406 0,-1.1445 -0.22656,-2.0195 -0.67188,-2.625 C 8.9999,-9.207 8.3632,-9.5156 7.5312,-9.5156 Z m 0,-2.7344 c 2.0508,0 3.6562,0.55859 4.8125,1.6719 1.1641,1.1055 1.75,2.6406 1.75,4.6094 0,1.9688 -0.58594,3.5117 -1.75,4.625 -1.1562,1.1055 -2.7617,1.6562 -4.8125,1.6562 -2.0625,0 -3.6797,-0.55078 -4.8438,-1.6562 -1.168,-1.1133 -1.75,-2.6562 -1.75,-4.625 0,-1.9688 0.58203,-3.5039 1.75,-4.6094 1.1641,-1.1133 2.7812,-1.6719 4.8438,-1.6719 z"
         id="path2909" />
    </symbol>
    <symbol
       id="a"
       overflow="visible">
      <path
         d="M 13.859,-7.2812 V 0 h -3.8438 v -5.5781 c 0,-1.0312 -0.027344,-1.7383 -0.078125,-2.125 -0.042969,-0.39453 -0.12109,-0.6875 -0.23438,-0.875 -0.14844,-0.25 -0.35156,-0.44141 -0.60938,-0.57812 -0.25,-0.14453 -0.54297,-0.21875 -0.875,-0.21875 -0.79297,0 -1.418,0.3125 -1.875,0.9375 -0.46094,0.61719 -0.6875,1.4648 -0.6875,2.5469 V 3e-5 h -3.8125 v -11.969 h 3.8125 v 1.75 c 0.58203,-0.69531 1.1953,-1.207 1.8438,-1.5312 0.64453,-0.33203 1.3594,-0.5 2.1406,-0.5 1.3828,0 2.4297,0.42969 3.1406,1.2812 0.71875,0.84375 1.0781,2.0742 1.0781,3.6875 z"
         id="path2912" />
    </symbol>
    <symbol
       id="j"
       overflow="visible">
      <path
         d="m 0.32812,-11.969 h 3.8281 l 2.9844,8.2656 2.9688,-8.2656 h 3.8281 L 9.23442,0 h -4.2031 z"
         id="path2915" />
    </symbol>
    <symbol
       id="i"
       overflow="visible">
      <path
         d="M 1.8438,-11.969 H 5.6563 V 0 H 1.8438 Z m 0,-4.6562 h 3.8125 v 3.125 H 1.8438 Z"
         id="path2918" />
    </symbol>
    <symbol
       id="h"
       overflow="visible">
      <path
         d="m 11.188,-11.594 v 2.9062 c -0.82422,-0.34375 -1.6172,-0.59766 -2.375,-0.76562 -0.76172,-0.16406 -1.4805,-0.25 -2.1562,-0.25 -0.73047,0 -1.2734,0.089844 -1.625,0.26562 -0.35547,0.17969 -0.53125,0.46094 -0.53125,0.84375 0,0.30469 0.13281,0.53906 0.40625,0.70312 0.26953,0.16797 0.75,0.28906 1.4375,0.35938 l 0.67188,0.09375 c 1.957,0.25 3.2734,0.66406 3.9531,1.2344 0.67578,0.57422 1.0156,1.4648 1.0156,2.6719 0,1.2812 -0.46875,2.2461 -1.4062,2.8906 -0.9375,0.63672 -2.3438,0.95312 -4.2188,0.95312 -0.78125,0 -1.5938,-0.0625 -2.4375,-0.1875 -0.8437,-0.125 -1.7148,-0.3125 -2.6094,-0.5625 v -2.9062 c 0.75781,0.375 1.5391,0.65625 2.3438,0.84375 0.80078,0.17969 1.6133,0.26562 2.4375,0.26562 0.75,0 1.3125,-0.10156 1.6875,-0.3125 0.38281,-0.20703 0.57812,-0.50781 0.57812,-0.90625 0,-0.34375 -0.13281,-0.59766 -0.39062,-0.76562 C 7.70756,-4.38304 7.18803,-4.51586 6.40678,-4.6096 L 5.7349,-4.70335 C 4.0357,-4.91038 2.8443,-5.30101 2.1568,-5.87525 1.4693,-6.45728 1.1256,-7.33615 1.1256,-8.51585 c 0,-1.2695 0.42969,-2.207 1.2969,-2.8125 0.875,-0.61328 2.2109,-0.92188 4.0156,-0.92188 0.69531,0 1.4297,0.05469 2.2031,0.15625 0.78125,0.10547 1.6289,0.27344 2.5469,0.5 z"
         id="path2921" />
    </symbol>
    <symbol
       id="g"
       overflow="visible">
      <path
         d="m 1.7031,-4.6562 v -7.3125 h 3.8438 v 1.2031 c 0,0.64844 -0.00781,1.4609 -0.015625,2.4375 v 1.9688 c 0,0.96094 0.023438,1.6523 0.078125,2.0781 0.050781,0.41797 0.13281,0.72656 0.25,0.92188 0.15625,0.25 0.35938,0.44531 0.60938,0.57812 0.25781,0.13672 0.55078,0.20312 0.875,0.20312 0.80078,0 1.4258,-0.30469 1.875,-0.92188 0.45703,-0.61328 0.6875,-1.4688 0.6875,-2.5625 v -5.9062 h 3.8281 v 11.969 h -3.8281 v -1.7344 c -0.57422,0.69922 -1.1836,1.2148 -1.8281,1.5469 -0.64844,0.33203 -1.3555,0.5 -2.125,0.5 -1.3867,0 -2.4453,-0.42188 -3.1719,-1.2656 -0.71875,-0.85156 -1.0781,-2.0859 -1.0781,-3.7031 z"
         id="path2924" />
    </symbol>
    <symbol
       id="v"
       overflow="visible">
      <path
         d="m 13.109,-15.438 v 3.375 c -0.875,-0.39453 -1.7305,-0.69141 -2.5625,-0.89062 -0.83594,-0.19531 -1.6211,-0.29688 -2.3594,-0.29688 -0.99219,0 -1.7188,0.13672 -2.1875,0.40625 -0.46875,0.27344 -0.70312,0.6875 -0.70312,1.25 0,0.42969 0.15625,0.76172 0.46875,1 0.32031,0.24219 0.89844,0.44922 1.7344,0.625 l 1.75,0.34375 c 1.7695,0.35547 3.0312,0.89844 3.7812,1.625 0.75,0.73047 1.125,1.7617 1.125,3.0938 0,1.7617 -0.52734,3.0742 -1.5781,3.9375 -1.043,0.85547 -2.6328,1.2812 -4.7656,1.2812 -1.0117,0 -2.0273,-0.10156 -3.0469,-0.29688 -1.0234,-0.1875 -2.043,-0.46875 -3.0625,-0.84375 v -3.4688 c 1.0195,0.53125 2.0039,0.9375 2.9531,1.2188 0.95703,0.27344 1.875,0.40625 2.75,0.40625 0.90625,0 1.5938,-0.14453 2.0625,-0.4375 0.47656,-0.30078 0.71875,-0.73438 0.71875,-1.2969 0,-0.48828 -0.16406,-0.86719 -0.48438,-1.1406 C 9.37848,-5.81691 8.73395,-6.063 7.7652,-6.28176 L 6.1714,-6.64114 c -1.5938,-0.33203 -2.7617,-0.875 -3.5,-1.625 -0.74219,-0.75 -1.1094,-1.7578 -1.1094,-3.0312 0,-1.582 0.50781,-2.8008 1.5312,-3.6562 1.0312,-0.85156 2.5078,-1.2812 4.4375,-1.2812 0.875,0 1.7734,0.07031 2.7031,0.20312 0.92578,0.125 1.8828,0.32422 2.875,0.59375 z"
         id="path2927" />
    </symbol>
    <symbol
       id="u"
       overflow="visible">
      <path
         d="m 9.7031,-16.625 v 2.5156 H 7.5937 c -0.54297,0 -0.92188,0.10156 -1.1406,0.29688 -0.21094,0.19922 -0.3125,0.53906 -0.3125,1.0156 v 0.82812 h 3.2656 v 2.7344 H 6.1406 V 0 H 2.3125 V -9.2344 H 0.4219 v -2.7344 h 1.8906 v -0.82812 c 0,-1.3008 0.36328,-2.2656 1.0938,-2.8906 0.72656,-0.625 1.8516,-0.9375 3.375,-0.9375 z"
         id="path2930" />
    </symbol>
    <symbol
       id="t"
       overflow="visible">
      <path
         d="m 12.922,-9.9688 c 0.48828,-0.75 1.0625,-1.3164 1.7188,-1.7031 0.66406,-0.38281 1.3984,-0.57812 2.2031,-0.57812 1.375,0 2.4219,0.42969 3.1406,1.2812 0.71875,0.84375 1.0781,2.0742 1.0781,3.6875 v 7.2812 h -3.8438 v -6.2344 c 0.0078,-0.09375 0.01563,-0.1875 0.01563,-0.28125 v -0.4375 c 0,-0.84375 -0.125,-1.457 -0.375,-1.8438 -0.25,-0.38281 -0.65234,-0.57812 -1.2031,-0.57812 -0.73047,0 -1.293,0.30469 -1.6875,0.90625 -0.38672,0.59375 -0.58984,1.4609 -0.60938,2.5938 v 5.875 h -3.8438 v -6.2344 c 0,-1.3203 -0.11719,-2.1758 -0.34375,-2.5625 -0.23047,-0.38281 -0.63672,-0.57812 -1.2188,-0.57812 -0.73047,0 -1.2969,0.30469 -1.7031,0.90625 -0.39844,0.60547 -0.59375,1.4648 -0.59375,2.5781 v 5.8906 h -3.8438 v -11.969 h 3.8438 v 1.75 c 0.46875,-0.66406 1.0039,-1.1719 1.6094,-1.5156 0.61328,-0.34375 1.2891,-0.51562 2.0312,-0.51562 0.82031,0 1.5508,0.19922 2.1875,0.59375 0.63281,0.39844 1.1133,0.96094 1.4375,1.6875 z"
         id="path2933" />
    </symbol>
    <symbol
       id="s"
       overflow="visible">
      <path
         d="M 13.859,-7.2812 V 0 h -3.8438 v -5.5469 c 0,-1.0508 -0.027344,-1.7695 -0.078125,-2.1562 -0.042969,-0.39453 -0.12109,-0.6875 -0.23438,-0.875 -0.14844,-0.25 -0.35156,-0.44141 -0.60938,-0.57812 -0.25,-0.14453 -0.54297,-0.21875 -0.875,-0.21875 -0.79297,0 -1.418,0.3125 -1.875,0.9375 -0.46094,0.61719 -0.6875,1.4648 -0.6875,2.5469 V 3e-5 h -3.8125 v -16.625 h 3.8125 v 6.4062 c 0.58203,-0.69531 1.1953,-1.207 1.8438,-1.5312 0.64453,-0.33203 1.3594,-0.5 2.1406,-0.5 1.3828,0 2.4297,0.42969 3.1406,1.2812 0.71875,0.84375 1.0781,2.0742 1.0781,3.6875 z"
         id="path2936" />
    </symbol>
    <symbol
       id="r"
       overflow="visible">
      <path
         d="m 2.0156,-15.953 h 4.5781 l 5.8125,10.938 v -10.938 h 3.8906 V 0 H 11.703 L 5.9061,-10.938 V 0 H 2.0155 Z"
         id="path2939" />
    </symbol>
    <symbol
       id="q"
       overflow="visible">
      <path
         d="m 2.0156,-15.953 h 6.8125 c 2.0312,0 3.5859,0.45312 4.6719,1.3594 1.0938,0.89844 1.6406,2.1797 1.6406,3.8438 0,1.6797 -0.54688,2.9688 -1.6406,3.875 -1.0859,0.89844 -2.6406,1.3438 -4.6719,1.3438 H 6.125 V 2e-4 H 2.0156 Z m 4.1094,2.9844 v 4.4531 h 2.2656 c 0.80078,0 1.4141,-0.19141 1.8438,-0.57812 0.4375,-0.38281 0.65625,-0.9375 0.65625,-1.6562 0,-0.70703 -0.21875,-1.2539 -0.65625,-1.6406 -0.42969,-0.38281 -1.043,-0.57812 -1.8438,-0.57812 z"
         id="path2942" />
    </symbol>
    <symbol
       id="p"
       overflow="visible">
      <path
         d="m 1.8438,-11.969 h 3.8125 v 11.75 c 0,1.6016 -0.38672,2.8281 -1.1562,3.6719 C 3.73838,4.29665 2.629,4.7185 1.172,4.7185 h -1.8906 v -2.5 h 0.65625 c 0.72656,0 1.2266,-0.16797 1.5,-0.5 C 1.70718,1.39428 1.8439,0.74975 1.8439,-0.219 Z m 0,-4.6562 h 3.8125 v 3.125 H 1.8438 Z"
         id="path2945" />
    </symbol>
    <symbol
       id="o"
       overflow="visible">
      <path
         d="m 11.5,-11.594 v 3.125 C 10.97656,-8.82056 10.457,-9.08228 9.9375,-9.25025 9.41406,-9.42603 8.875,-9.51587 8.3125,-9.51587 c -1.0742,0 -1.9062,0.3125 -2.5,0.9375 -0.5938,0.625 -0.89062,1.4961 -0.89062,2.6094 0,1.1172 0.29688,1.9844 0.89062,2.6094 0.59374,0.625 1.4258,0.9375 2.5,0.9375 0.59375,0 1.1562,-0.085937 1.6875,-0.26562 0.53906,-0.17578 1.0391,-0.44141 1.5,-0.79688 v 3.125 c -0.59375,0.23047 -1.1992,0.39453 -1.8125,0.5 -0.61719,0.11328 -1.2344,0.17188 -1.8594,0.17188 -2.1562,0 -3.8438,-0.55078 -5.0625,-1.6562 -1.2188,-1.1133 -1.8281,-2.6562 -1.8281,-4.625 0,-1.9688 0.60938,-3.5039 1.8281,-4.6094 1.2188,-1.1133 2.9062,-1.6719 5.0625,-1.6719 0.625,0 1.2383,0.05859 1.8438,0.17188 0.61328,0.10547 1.2227,0.26562 1.8281,0.48438 z"
         id="path2948" />
    </symbol>
  </defs>
  <g
     id="g3047">
    <g
       id="g5948"
       transform="translate(-2.9187085)">
      <path
         style="fill:#678a9b;stroke-width:0.75"
         id="path3170"
         d="m 9.3649875,36.500987 c -0.06774,0.01048 -0.2333662,-0.03013 -0.2032253,0.03144 0.033338,0.06809 0.1511018,0.01315 0.2268323,0.01678 0.067222,0.0032 0.134562,0.0034 0.2018595,0.0037 0.02874,1.4e-4 0.2170777,0.002 0.267582,-0.01217 0.010635,-0.003 0.014737,-0.01645 0.02211,-0.02468 -0.01431,-0.01384 -0.046252,-0.0219 -0.042938,-0.04153 0.00278,-0.0166 0.03165,0.01168 0.04671,0.01919 0.021067,0.01051 0.040028,0.02506 0.061478,0.03477 0.143701,0.065 0.29597,0.100407 0.447835,0.140408 0.369036,0.07647 0.743113,0.13815 1.120075,0.154438 0.162415,9e-4 0.572574,0.0062 0.603932,-0.03534 0.225654,-0.298305 0.110291,-0.776637 0.345216,-1.067697 0.116173,-0.143933 0.101672,0.367489 0.07252,0.550146 -0.0078,0.0487 -0.181351,0.29756 -0.260898,0.412646 0.01241,0.0054 0.02416,0.01272 0.03724,0.01624 0.05897,0.01591 0.175428,0.0157 0.126819,0.01614 -0.564258,0.0051 -0.362299,0.02356 -0.248598,-0.02163 -0.213102,-0.118653 -0.323169,-0.303779 -0.343282,-0.553364 -0.0053,-0.06603 0.01475,-0.131671 0.02213,-0.197506 3.24e-4,-0.01042 0.0088,-0.03817 9.75e-4,-0.03126 -0.02038,0.01805 -0.02879,0.04621 -0.04363,0.06903 -0.02061,0.03171 -0.04514,0.06082 -0.06475,0.09316 -0.003,0.0049 -0.0646,0.118026 -0.07528,0.137617 -0.01238,0.02825 -0.02478,0.0565 -0.03714,0.08476 -0.03488,0.07974 -0.05474,0.15671 -0.07592,0.241505 -0.0013,0.0053 -0.0055,0.02135 -0.0047,0.0159 0.0031,-0.01939 0.0076,-0.03852 0.01138,-0.05778 -0.01246,-0.04918 0.03979,-0.102661 0.05724,-0.141157 0.0014,-0.0031 -0.0073,-5.21e-4 -0.01023,0.0014 -0.01507,0.01022 -0.02576,0.02718 -0.04249,0.03435 -0.0068,0.0029 0.0063,-0.01346 0.0094,-0.02019 -0.149527,0.04191 -0.286095,0.112534 -0.423776,0.183599 -0.03002,0.01144 -0.16858,0.08953 -0.180309,0.11261 -0.0056,0.01104 0.02059,-0.01378 0.03114,-0.02025 0.0017,-10e-4 -0.0065,0.0049 -0.0046,0.0041 0.04026,-0.01919 0.08005,-0.03936 0.120077,-0.05904 -0.05173,0.02494 -0.103458,0.04988 -0.155187,0.07481 -0.01606,-0.01074 0.03781,-0.03256 0.02515,-0.02971 -0.04839,0.01089 -0.08391,0.05331 -0.134774,0.0427 0.01931,-0.085 -0.127668,-0.0449 -0.157535,-0.04154 -0.137132,0.01544 -0.06084,0.0015 -0.218693,0.04541 -0.108002,0.03258 -0.200334,0.0806 -0.292584,0.146 -0.0273,0.01935 -0.05164,0.04257 -0.07759,0.06368 -0.0059,0.0047 -0.02335,0.019 -0.01781,0.0139 0.01968,-0.01814 0.04019,-0.03536 0.06028,-0.05305 0.255744,-0.160689 0.07169,-0.07452 0.588011,-0.08814 0.0071,-1.88e-4 -0.01437,2.59e-4 -0.02134,-0.0012 -0.07087,-0.01501 -0.141856,-0.03503 -0.211414,-0.05492 -0.08892,-0.0425 -0.196595,-0.02083 -0.283739,-0.06016 0.0015,0.0037 0.0079,0.01337 0.0045,0.01118 -0.04378,-0.02833 -0.06202,-0.05838 -0.09692,-0.0984 C 10.060277,36.463442 9.979376,36.3624 9.8981323,36.260091 9.8319293,36.165111 9.768443,36.068144 9.696836,35.97706 9.687796,35.96556 9.682541,35.93854 9.668719,35.94334 c -0.013448,0.0047 0.0018,0.02841 0.00247,0.04264 0.0027,0.06068 0.00495,0.121368 0.00743,0.182053 0.1491817,0.169178 -0.1387215,0.225076 -0.1295325,0.348742 0.00278,0.03772 0.049478,-0.05808 0.066938,-0.09164 0.1149802,-0.220992 0.1321777,-0.320457 0.1165177,-0.560362 -0.00555,-0.05155 -0.00705,-0.05473 -0.00845,-0.09991 -4.289e-4,-0.01419 -0.00413,-0.05633 -5.647e-4,-0.04259 0.028208,0.109317 -0.012472,0.206634 -0.050332,0.306933 -0.031837,0.04451 -0.063683,0.08901 -0.095519,0.133515 -0.00727,0.01182 -0.013777,0.02414 -0.021802,0.03547 -0.0091,0.01283 -0.013875,0.03478 -0.029475,0.03687 -0.1267859,0.017 -0.2554657,0.01425 -0.3833167,0.01849 -0.019837,6.58e-4 0.038903,-0.008 0.05814,-0.01292 -0.00896,-0.01042 0.040538,-0.0013 0.031358,-0.0068 -0.048893,-0.02922 -0.10434,-0.04709 -0.1514783,-0.07906 -0.043162,-0.02927 -0.077626,-0.0697 -0.11748,-0.103348 -0.00902,-0.0076 0.031305,0.0351 0.0249,0.02519 -0.019342,-0.02993 -0.042652,-0.0571 -0.063975,-0.08566 0.00315,0.0079 0.00623,0.0157 0.00935,0.02356 -0.00502,0.0018 -0.015398,2.7e-5 -0.014962,0.0053 0.00292,0.03596 0.0162,0.07034 0.02406,0.105552 0.02931,0.131334 0.05988,0.262233 0.091525,0.393029 0.03411,0.09956 0.060915,0.206482 0.10788,0.301485 0.04125,0.08344 0.048068,0.206089 0.132165,0.246002 0.6758783,0.320778 1.3970185,0.205122 0.4756928,0.2878 0.1292085,0.03925 0.2570877,0.08317 0.3872547,0.119266 0.068,0.01886 0.139139,0.04256 0.210281,0.03183 -0.04801,-0.121194 -0.116954,-0.231546 -0.178,-0.347232 0.02386,0.09809 1.411074,-0.239369 1.387212,-0.33746 v 0 c -0.129384,-0.25552 -0.124,-0.31123 -0.300475,-0.462162 -0.09038,-0.07072 -0.109422,-0.09116 -0.219279,-0.149306 -0.226704,-0.119999 -0.483218,-0.176921 -0.728407,-0.243993 -0.22321,6.87e-4 -0.768226,-0.198194 -0.6696295,0.002 0.1243793,0.25262 0.5527985,0.134533 0.8017025,0.266189 0.06878,0.03638 0.06558,0.141153 0.100177,0.210852 0.0023,0.0047 0.0098,0.01695 0.01032,0.01175 0.0035,-0.03738 -0.01394,-0.167666 -0.01688,-0.193345 -0.06067,-0.341993 -0.150916,-0.689197 -0.351354,-0.978622 -0.03639,-0.05013 -0.07081,-0.101754 -0.109182,-0.150389 -0.0055,-0.007 -0.01509,-0.0099 -0.02191,-0.01578 -0.132529,-0.114226 -0.2214895,-0.210791 -0.401473,-0.2477 -0.262926,-0.06001 -0.5465723,-0.05622 -0.79821,0.04537 -0.05271,0.02128 -0.106881,0.0422 -0.1528253,0.07568 -0.079688,0.05806 -0.1473007,0.131097 -0.2209514,0.196646 -0.04416,0.07219 -0.097861,0.139344 -0.1324868,0.216559 -0.087784,0.195753 -0.1107352,0.431813 -0.041895,0.636622 0.00315,-0.172481 0.030428,-0.240038 0.110889,-0.397824 0.010005,-0.01961 0.050152,-0.07235 0.036757,-0.05488 -0.1640175,0.213903 -0.1010047,0.122826 -0.2071957,0.439862 -2.168e-4,0.08381 -0.00675,0.167853 -6.518e-4,0.251443 0.02049,0.279218 0.1992735,0.566717 0.3527445,0.789779 0.041663,0.05414 0.081029,0.110113 0.1249838,0.1624 0.171375,0.203862 0.3785302,0.372909 0.57894,0.546657 0.1758855,0.111273 0.3577845,0.220739 0.5670562,0.253637 0.2828325,0.0611 -0.1762447,-0.03994 0.1844565,0.04751 0.02469,0.006 0.05022,0.0079 0.07504,0.01333 0.03469,0.0075 0.06794,0.02392 0.103414,0.02546 0.583266,0.02534 0.409011,0.07591 0.742195,-0.08133 0.03293,-0.0233 0.06541,-0.04723 0.09877,-0.0699 0.007,-0.0048 0.02455,-0.02074 0.02243,-0.01246 -0.0089,0.03493 -0.06066,0.04258 -0.07951,0.0733 -0.0091,0.01485 0.06478,-0.0096 0.05161,0.0081 0.04857,0.01723 0.0089,0.0066 0.09587,0.0044 0.137703,-0.0035 0.270848,-0.03301 0.397668,-0.08892 0.0224,-0.0094 0.04489,-0.01871 0.06721,-0.02834 0.01429,-0.0061 0.02735,-0.01603 0.04262,-0.019 0.0091,-0.0018 -0.03181,0.01886 -0.02328,0.01523 0.02576,-0.01099 0.05034,-0.02459 0.07525,-0.03739 0.0099,-0.0051 0.0394,-0.02117 0.0293,-0.01635 -0.04477,0.0214 -0.08893,0.04406 -0.133396,0.0661 0.08318,-0.03644 0.162439,-0.07135 0.245015,-0.10716 0.211422,-0.0917 -0.103705,0.05174 0.106778,-0.03362 0.03727,-0.01511 0.0728,-0.03419 0.109209,-0.05129 0.157425,-0.08245 0.310622,-0.171201 0.456855,-0.272388 0.04699,-0.03689 0.124851,-0.08658 0.167815,-0.131301 0.09937,-0.103435 0.183436,-0.215427 0.231206,-0.35185 0.01283,-0.03997 0.02633,-0.07972 0.03849,-0.119899 0.0045,-0.01498 0.01513,-0.06074 0.01154,-0.0455 -0.028,0.118881 -0.0162,0.04014 0.01351,0.02592 0.08166,-0.126249 0.170319,-0.248658 0.228762,-0.388533 0.02161,-0.09689 0.06355,-0.191414 0.06483,-0.290679 0.0037,-0.282688 -0.113838,-0.526535 -0.335563,-0.695419 -0.09069,-0.06908 -0.166772,-0.09395 -0.269427,-0.137225 -0.224547,-0.06296 -0.362811,-0.04703 -0.637876,-0.04651 -0.13802,2.61e-4 -0.274593,0.03132 -0.405165,0.07335 -0.215959,0.113564 -0.406151,0.179716 -0.480016,0.48423 -0.04763,0.196332 -0.09731,0.739506 0.05236,0.60381 0.266341,-0.241477 0.167992,-0.722987 0.390522,-1.00535 0.06143,-0.07795 0.588497,-0.0047 0.39451,-0.03096 -0.335135,-0.06118 -0.668631,-0.134391 -1.008886,-0.161735 -0.01659,-0.0016 -0.281707,-0.02815 -0.321473,-0.02692 -0.02052,6.29e-4 -0.03958,0.01092 -0.05956,0.01562 -0.01265,0.003 -0.03011,-0.0027 -0.03829,0.0074 -0.0054,0.0067 0.01518,0.0078 0.02278,0.01176 -0.02998,-0.01981 -0.05995,-0.03961 -0.08992,-0.05942 -0.03311,-0.01762 -0.06465,-0.03853 -0.09931,-0.05285 -0.104036,-0.043 -0.227798,-0.06904 -0.337142,-0.08559 -0.3684775,-0.05579 -0.738481,-0.01364 -1.1090642,-0.0014 -0.1020518,0.02865 0.3030787,1.471875 0.4051305,1.443228 z" />
      <path
         style="fill:#678a9b;stroke-width:0.75"
         id="path3172"
         d="m 11.705991,35.551825 c -0.107208,0.191337 -0.17716,0.401094 -0.232368,0.612609 -0.02631,0.100795 -0.06516,0.238558 -0.05762,0.347153 0.289938,-0.458752 -0.0041,-0.0297 1.38111,0.471332 0.0098,0.0035 0.0068,-0.01973 0.0094,-0.02981 0.01289,-0.04894 0.02481,-0.09813 0.03721,-0.1472 0.02008,-0.09897 -1.379546,-0.382954 -1.399627,-0.283985 v 0 c 0.0099,-0.03863 0.02588,-0.07618 0.0296,-0.115869 0.0012,-0.01298 -0.03344,0.02664 -0.02178,0.0325 1.318795,0.662196 1.061741,1.022469 1.362684,0.514295 0.180382,-0.334544 0.30343,-0.699023 0.357318,-1.075811 0.02299,-0.103655 -1.442917,-0.428869 -1.465913,-0.325213 z" />
      <path
         style="fill:#678a9b;stroke-width:0.75"
         id="path3174"
         d="m 25.994408,46.334167 c -0.0609,0.210774 -0.0923,0.427591 -0.11742,0.644956 -0.0061,0.05248 -0.01181,0.105008 -0.01635,0.15764 -0.0094,0.109255 -0.03938,0.115243 0.0039,0.101544 0.07048,-0.150277 0.06267,-0.16417 0.189662,-0.291893 0.03129,-0.03147 0.07276,-0.05118 0.105909,-0.08068 0.0026,-0.0022 -0.0043,-0.0085 -0.0073,-0.007 -0.06167,0.03006 -0.123194,0.06116 -0.180652,0.09866 -0.04601,0.03002 -0.08569,0.06875 -0.128539,0.103125 -0.0615,0.04955 -0.109215,0.131449 -0.185223,0.164416 -0.01073,0.0046 -0.02363,0.0031 -0.03403,0.0085 -0.03574,0.01837 -0.104362,0.07177 -0.134842,0.09448 -0.019,-0.01994 0.02,-0.05063 0.0057,-0.06856 -0.012,-0.01506 -0.03565,-0.01505 -0.05443,-0.01932 -0.106493,-0.02419 -0.21461,-0.0051 -0.322016,0.0023 -0.07967,0.01666 -0.144933,0.029 -0.222568,0.04967 -0.0815,0.0217 -0.09261,0.03368 -0.167355,0.0065 0.10163,-0.0026 0.406553,-0.0073 0.304891,-0.0079 -0.163248,-10e-4 -0.326522,0.002 -0.489707,0.0067 -0.03723,10e-4 -0.07412,0.0075 -0.111252,0.01042 -0.09565,0.0075 -0.191705,0.01162 -0.287533,0.01603 0.110494,-0.0015 0.221041,-0.0082 0.331482,-0.0044 0.02434,8.25e-4 -0.03117,0.02603 -0.02503,0.03466 0.05416,0.0561 0.0313,0.02745 0.07032,0.08455 0.06281,0.09783 0.09499,0.148483 0.01818,-0.0024 -0.07684,-0.150924 -0.159349,-0.262042 -0.265306,-0.393937 -0.139389,-0.137906 -0.285528,-0.289927 -0.466716,-0.374015 0.157624,0.210958 0.06563,0.06133 0.181239,0.354421 0.0018,0.0046 0.008,0.01549 0.01011,0.011 0.0068,-0.01408 0.0052,-0.03083 0.0069,-0.04636 0.0028,-0.02488 0.0049,-0.04984 0.0065,-0.07483 0.0017,-0.02719 0.0023,-0.05444 0.0034,-0.08165 0.0036,-0.111149 0.0029,-0.05548 0.0021,-0.16079 -1.76e-4,-0.02408 -3.51e-4,-0.04816 -5.27e-4,-0.07224 1.79e-4,5.26e-4 3.06e-4,0.0021 5.37e-4,0.0016 7.5e-4,-0.0017 0.0016,-0.0073 0.0012,-0.0055 -0.0079,0.03155 -0.01562,0.06311 -0.02344,0.09467 -0.01179,0.03038 -0.02352,0.06078 -0.03536,0.09114 -0.0053,0.01351 -0.03185,0.05626 -0.005,0.07055 0.0079,0.0042 0.01727,0.0087 0.02598,0.0067 0.02371,-0.0055 0.04487,-0.01895 0.0673,-0.02843 0.06468,-0.01095 0.111549,-0.05957 0.167468,-0.08921 0.003,-0.0016 -0.0038,0.0059 -0.0068,0.0077 -0.03266,0.0208 -0.06115,0.05447 -0.09949,0.05996 -0.146834,0.02104 -0.296423,0.01199 -0.444635,0.01798 0.004,-0.0098 0.0016,-0.0085 0.02044,-0.0028 0.03675,0.01112 0.07251,0.02537 0.109309,0.03633 0.117308,0.03495 0.23821,0.05873 0.357978,0.08317 0.131657,0.01107 0.263075,0.04851 0.395576,0.05078 0.17036,0.0029 0.340756,-0.0063 0.511134,-0.0047 0.03818,3.66e-4 0.152036,0.0068 0.114054,0.01067 -0.08165,0.0084 -0.164143,0.002 -0.246215,0.0029 0.201474,0.01076 0.402077,0.02822 0.603743,0.01361 0.359473,0.04393 -0.206655,-0.01648 0.86722,-0.265497 0.04256,-0.0099 -0.05116,0.07096 -0.07963,0.1041 -0.11981,0.139489 -0.388841,0.238136 -0.54244,0.104223 0.276383,0.07139 0.556703,0.125318 0.83824,0.172227 0.208504,0.02534 0.416941,0.06233 0.627574,0.06547 0.03556,5.3e-4 0.07331,0.0057 0.106437,-0.0073 0.01088,-0.0043 0.0031,-0.02341 0.0017,-0.035 -0.05039,-0.395348 -0.104818,-0.79017 -0.157228,-1.185255 -0.151912,1.09e-4 -0.283919,0.0776 -0.425041,0.122185 -0.08894,0.0281 -0.13977,0.03386 -0.232632,0.05038 -0.109371,0.01135 -0.110818,0.01605 -0.217888,0.01008 -0.03511,-0.0019 -0.140102,-0.0079 -0.105005,-0.01 0.09254,-0.0055 0.185463,-0.0033 0.278126,-3.75e-4 0.06611,0.0021 -0.132107,0.007 -0.198125,0.011 -0.430664,-0.0034 -0.444501,-0.02677 -0.748201,0.12031 -0.0241,0.01167 -0.04804,0.02369 -0.07194,0.03576 -0.02509,0.01268 -0.04737,0.03353 -0.07504,0.03847 -0.0084,0.0015 -0.0076,-0.01536 -0.01141,-0.02304 -0.136279,0.0071 -0.270089,0.04142 -0.406255,0.05197 -0.04365,0.0034 -0.08755,0.0011 -0.131327,0.0017 -0.05504,0.0055 -0.110085,0.01114 -0.165127,0.01671 -0.13746,0.01585 -0.142496,0.01792 -0.273042,0.02776 -0.03227,0.0024 -0.129246,0.0047 -0.09691,0.0061 0.102388,9e-4 0.204776,0.0018 0.307164,0.0027 -0.0073,0.0059 -0.0248,0.0087 -0.02182,0.0176 0.0051,0.01511 0.02511,0.01965 0.03767,0.02948 -0.240767,0.02436 -0.480851,0.05684 -0.722302,0.07309 -0.0245,0.0016 0.04096,-0.03752 0.0073,-0.06175 -0.028,-0.02014 -0.229233,-0.02634 -0.264565,-0.02882 0.09048,0.0014 0.181084,-7.3e-4 0.271454,0.004 0.07372,0.0039 -0.127232,-0.02182 -0.08566,0.0282 0.01447,0.01741 0.03631,0.02706 0.05392,0.04127 0.03925,0.03167 0.07777,0.06424 0.116653,0.09636 -0.07289,-0.07025 -1.066453,0.960562 -0.993563,1.030817 v 0 c 0.127364,0.101644 0.140268,0.127967 0.279732,0.187489 0.227725,0.09719 0.494937,0.05599 0.730643,0.06487 0.140464,-0.0074 0.285309,-0.01097 0.421501,-0.05091 0.266418,-0.07814 0.813795,-0.381697 -0.392947,-0.06742 0.04507,0.01885 0.141487,0.06437 0.193955,0.06691 0.322364,0.01563 0.64592,0.0056 0.966272,-0.03212 0.307838,-0.0463 0.615933,-0.113016 0.903546,-0.234983 0.04465,-0.02405 0.08889,-0.04888 0.13395,-0.07216 0.0092,-0.0047 0.01885,-0.0086 0.02868,-0.01187 0.0066,-0.0022 0.02572,-0.0088 0.0205,-0.0042 -0.01703,0.01502 -0.03981,0.02234 -0.05738,0.03674 -0.0051,0.0042 -0.006,0.01178 -0.009,0.01768 -0.120385,0.0023 -0.240771,0.0045 -0.361156,0.0068 0.451694,0.06573 0.913587,0.05917 1.352823,-0.07127 0.299407,-0.10043 0.604566,-0.204728 0.866293,-0.385662 -0.01852,-0.413509 -0.0021,-0.83007 -0.05556,-1.240528 -0.0058,-0.04446 -0.0743,-0.05099 -0.115062,-0.06966 -0.244082,-0.111823 -0.536934,-0.09996 -0.796293,-0.143577 -0.07384,-0.003 -0.147613,-0.0083 -0.221507,-0.0091 -0.04985,-5.19e-4 -0.09962,0.0061 -0.149472,0.0052 -0.04288,-7.38e-4 -0.08544,-0.0075 -0.128251,-0.01002 -0.09722,-0.0057 -0.194178,-0.0054 -0.288174,-0.03683 -0.05347,-0.01321 -0.105348,-0.04075 -0.160416,-0.03963 -0.305711,0.0062 -0.527433,-0.02023 -0.758172,0.14492 -0.06182,0.04425 -0.2454,0.159842 -0.169744,0.152341 1.201075,-0.119086 0.474615,-0.265004 0.772342,-0.203326 -0.220179,-0.09239 -0.468903,-0.09095 -0.702029,-0.117528 -0.17648,-6.28e-4 -0.352978,-0.0044 -0.529441,-0.0019 -0.05079,7.18e-4 -0.202366,0.0054 -0.151941,0.01152 0.09239,0.01117 0.186432,-0.0041 0.279148,0.0038 0.04399,0.0038 -0.247861,0.03435 -0.185869,0.0084 -0.1121,-0.01637 -0.226472,-0.04487 -0.337039,-0.05938 -0.02699,-0.0035 -0.05476,0.0019 -0.08164,-0.0025 -0.07054,-0.01144 -0.137139,-0.04186 -0.208722,-0.04895 -0.17248,0.0042 -0.346131,-0.0079 -0.517439,0.01263 -0.05758,0.0069 -0.106862,0.04508 -0.159928,0.06847 -0.08707,0.03837 -0.175424,0.06591 -0.260012,0.109774 -0.229654,0.127011 -0.419161,0.297948 -0.528172,0.541188 -0.01822,0.0546 -0.0388,0.108462 -0.05466,0.163791 -0.04016,0.140135 -0.03653,0.290085 -0.04908,0.434004 -0.0089,0.246544 0.0024,0.490898 0.111554,0.719874 0.03299,0.06923 0.09059,0.123761 0.135883,0.185641 0.08663,0.08094 0.179043,0.155361 0.268173,0.2335 0.04537,0.03537 0.156386,0.121955 0.186611,0.170632 0.01897,0.03055 0.03345,0.06366 0.05018,0.09549 0.03673,0.05716 0.07345,0.114316 0.110186,0.171474 0.03238,0.03506 0.06173,0.07318 0.09713,0.105196 0.118792,0.107414 0.250812,0.180416 0.402697,0.229287 0.05467,0.01759 0.108934,0.04129 0.166221,0.04526 0.169695,0.01175 0.340201,0.001 0.510301,0.0016 0.103081,-0.0064 0.205702,-0.01669 0.308674,-0.02396 0.02586,-0.0018 0.103634,-0.0029 0.07771,-0.0034 -0.247345,-0.0051 -0.739228,0.0043 0.154558,-0.0077 0.08369,-0.01274 0.169913,-0.03518 0.254254,-0.04217 0.05695,-0.0047 0.11661,0.0094 0.173232,0.01156 0.0521,-0.0014 0.208384,-0.0047 0.257914,-0.01067 0.257392,-0.03086 0.500942,-0.117791 0.707369,-0.277289 0.089,-0.05928 0.170571,-0.120002 0.249367,-0.193168 0.02678,-0.02487 0.05165,-0.05173 0.07748,-0.0776 0.01534,-0.01601 0.02988,-0.03283 0.04603,-0.04804 0.003,-0.0028 -0.0041,0.007 -0.0062,0.01054 -0.01466,0.01313 -0.02769,0.02833 -0.04398,0.03937 -0.03247,0.02201 -0.07379,0.03169 -0.101642,0.0593 -0.01568,0.01555 0.04316,-0.01092 0.06288,-0.02087 0.243547,-0.123008 0.351451,-0.243183 0.472563,-0.489214 0.05024,-0.116972 0.07925,-0.174134 0.114217,-0.29645 0.08217,-0.287416 0.121363,-0.589455 0.105475,-0.88807 0.01053,-0.105693 -1.484193,-0.254603 -1.494723,-0.14891 z" />
      <path
         style="fill:#678a9b;stroke-width:0.75"
         id="path3176"
         d="m 25.466674,45.906199 c -0.251037,0.469077 -0.439047,0.978982 -0.533884,1.503589 0.361744,0.320413 0.0661,0.0636 1.397317,0.184877 0.007,6.33e-4 0.0017,-0.04717 -0.0028,-0.09983 -0.0061,-0.103049 -1.463386,-0.0175 -1.457337,0.08554 v 0 c 6.86e-4,0.01184 0.0068,0.155007 0.01709,0.157605 1.374084,0.346086 1.104501,0.63429 1.46208,0.182456 0.249702,-0.396504 0.427959,-0.844805 0.543453,-1.298549 0.02696,-0.105924 0.04279,-0.214373 0.06418,-0.321559 0.02787,-0.105365 -1.46222,-0.499496 -1.49009,-0.39413 z" />
      <path
         style="fill:#678a9b;stroke-width:0.75"
         id="path3178"
         d="m 36.233531,26.101078 c -0.141592,0.395473 -0.237913,0.812676 -0.240693,1.234532 -3.47e-4,0.05269 0.0041,0.105316 0.0062,0.157974 0.03582,0.305764 0.105479,0.671656 0.453392,0.804301 0.103805,0.03958 1.512386,-0.0072 0.179859,0.03009 -0.005,-0.0049 -0.01952,-0.0093 -0.01517,-0.0149 0.0047,-0.006 0.01504,0.003 0.02192,0.0062 0.01858,0.0087 0.03631,0.01915 0.05409,0.02941 0.08048,0.04643 0.1437,0.08941 0.229732,0.128856 0.05865,0.02689 0.119681,0.04825 0.17952,0.07237 0.205345,0.0079 0.411367,0.04198 0.616034,0.02356 0.07775,-0.007 0.144711,-0.05965 0.212619,-0.09814 0.119925,-0.06798 0.236039,-0.17664 0.314311,-0.290602 0.0269,-0.03917 0.0496,-0.08106 0.0744,-0.121588 -0.01342,-0.09112 0.02217,-0.04151 0.01888,-0.03012 -0.0046,0.01593 -0.02159,0.05165 -0.0063,0.03314 0.09175,-0.110785 0.08889,-0.130434 0.159177,-0.274522 0.08586,-0.259857 0.09782,-0.534941 0.0335,-0.801245 -0.01357,-0.05617 -0.03341,-0.110634 -0.05011,-0.165951 -0.144612,-0.383909 -0.407744,-0.633918 -0.738428,-0.857644 -0.0168,-0.0096 -0.03135,-0.02548 -0.05042,-0.02885 -0.0071,-0.0013 0.0061,0.01373 0.0055,0.02093 -2.24e-4,0.0032 -0.0058,0.0035 -0.0074,0.0063 -0.0081,0.01418 0.0076,0.03319 -0.01568,-0.01622 -0.01057,-0.02241 -0.02108,-0.04484 -0.03163,-0.06727 -0.124287,-0.241726 -0.318178,-0.445499 -0.577324,-0.539595 0.320406,0.465406 0.255978,0.181624 0.08665,1.038361 -0.0068,0.03428 -0.05448,0.05077 -0.06132,0.08504 -0.0029,0.01448 0.02629,0.01537 0.04099,0.01676 0.02639,0.0025 0.0529,-0.0036 0.07935,-0.0054 0.0376,-0.0098 0.07527,-0.01929 0.112804,-0.02933 0.180096,-0.04813 0.492028,-0.07869 -0.280927,0.0029 -0.01478,0.0016 0.0298,0.0011 0.04445,0.0036 0.03321,0.0056 0.06594,0.01384 0.09891,0.02076 0.130628,0.0287 0.260108,0.07052 0.393425,0.08639 0.180966,0.02153 -0.01871,-0.008 0.08685,-0.009 0.01381,-1.24e-4 0.02721,0.0047 0.04081,0.0071 0.153494,0.0693 0.313867,0.114185 0.478234,0.148706 0.02065,0.0023 0.04163,0.01114 0.06194,0.0068 0.0065,-0.0013 0.0025,-0.0147 -0.0018,-0.0196 -0.0288,-0.03248 -0.07027,-0.05348 -0.0948,-0.0893 -0.174855,-0.255297 -0.18414,-0.291936 -0.18663,-0.576592 0.01265,0.0056 -0.0088,-0.03567 -0.01602,-0.02776 -0.01975,0.02176 -0.03316,0.04853 -0.04981,0.07274 -0.05046,0.07333 -0.09045,0.150129 -0.1314,0.229149 -0.157545,0.312421 -0.203006,0.658071 -0.217454,1.00317 0.0017,0.09807 -7.9e-5,0.196222 0.0022,0.294279 2.91e-4,0.01227 -0.0035,0.04825 9.75e-4,0.0368 0.0073,-0.01882 0.0054,-0.04001 0.0081,-0.06001 0.01177,-0.04012 0.02354,-0.08023 0.03531,-0.120347 -1.84e-4,-0.0032 0.0011,-0.01213 -5.55e-4,-0.0094 -0.08145,0.131146 -0.13773,0.268734 -0.191344,0.412848 -0.04689,0.11214 -0.112215,0.21356 -0.147408,0.331039 -0.01376,0.04593 -0.02396,0.09285 -0.03595,0.139272 -0.01569,0.136446 -0.04062,0.256433 0.0097,0.396026 0.0921,0.255254 0.240359,0.486732 0.528167,0.558414 0.36565,0.09107 0.459998,0.03754 0.725858,-0.05268 0.187146,-0.07639 0.358562,-0.187728 0.506063,-0.324471 -0.0042,0.0066 -0.0176,0.01373 -0.01267,0.01985 0.0048,0.0059 0.01431,-0.0057 0.02071,-0.0099 0.0182,-0.01188 0.03398,-0.02739 0.05285,-0.03816 0.0022,-0.0013 0.004,0.0055 0.0063,0.0044 0.02896,-0.0128 0.08884,-0.06038 0.107708,-0.07441 0.0611,-0.02098 -0.03096,0.01347 0.09595,-0.07513 0.0071,-0.005 -0.01948,0.02732 -0.01176,0.02331 0.05881,-0.03059 0.138873,-0.125293 0.184731,-0.173917 0.02665,-0.03812 0.05113,-0.07786 0.07998,-0.114352 0.01969,-0.02491 0.01352,0.0105 0.03705,-0.0057 0.0781,-0.05373 0.147371,-0.152497 0.215864,-0.221523 0.02512,-0.02951 0.04347,-0.06649 0.07536,-0.0885 0.0097,-0.0067 0.02044,0.01509 0.03214,0.01432 0.0091,-6.02e-4 0.147588,-0.04764 0.147975,-0.04783 0.04514,-0.02269 0.212367,-0.135449 0.248208,-0.159189 0.239487,-0.185864 0.408152,-0.435315 0.494735,-0.72634 0.0434,-0.145887 0.04394,-0.229667 0.05581,-0.374095 0.0043,-0.186502 -0.02185,-0.373557 -0.08534,-0.547961 0.02296,0.09128 -0.0024,-0.0032 0.02585,0.02005 0.0045,0.0037 0.0044,0.01825 0.0091,0.01489 0.0071,-0.005 0.02922,-0.07072 0.03221,-0.07903 0.194637,-0.41429 -0.03084,-0.977018 -0.50512,-1.075595 -0.173576,-0.03608 -0.354086,0.01849 -0.53113,0.02773 -0.216966,0.07049 -0.417404,0.18725 -0.591275,0.333993 -0.133135,0.105969 -0.233594,0.248969 -0.327723,0.389304 -0.157751,0.250862 -0.270271,0.526287 -0.389686,0.796536 -0.0694,0.191288 -0.04535,0.120389 -0.100814,0.288102 -0.0072,0.02173 -0.01389,0.04361 -0.02134,0.06525 -0.0012,0.0036 -0.0068,0.01355 -0.0047,0.01037 0.104937,-0.160565 0.03683,-0.0784 0.154704,-0.202217 0.01836,-0.01546 0.07828,-0.04023 0.05508,-0.0464 -0.03185,-0.0085 -0.06233,0.02196 -0.09183,0.03663 -0.17375,0.08634 -0.327774,0.20762 -0.465965,0.342169 -0.111465,0.10976 -0.181573,0.246968 -0.235702,0.391423 -0.03687,0.09462 1.30129,0.616054 1.338162,0.521432 v 0 c -0.0018,0.02039 -0.0014,0.02435 -0.0081,0.04721 -0.0118,0.04044 -0.02453,0.03936 0.01891,0.01343 0.112231,-0.07019 0.121597,-0.09602 0.249628,-0.146718 0.04944,-0.03905 0.10392,-0.07244 0.148317,-0.117134 0.200139,-0.201475 0.321688,-0.466675 0.428864,-0.724748 0.02143,-0.0607 0.0442,-0.120956 0.06428,-0.182123 0.04532,-0.138084 0.07923,-0.282194 0.151516,-0.409833 0.0052,-0.0088 0.01024,-0.0177 0.01582,-0.02625 0.0076,-0.01157 0.03361,-0.04391 0.0248,-0.03325 -0.0162,0.01961 -0.03479,0.03739 -0.04897,0.0585 -0.0023,0.0034 0.0082,-0.0011 0.01171,-0.0031 0.01287,-0.0068 0.02482,-0.01522 0.03723,-0.02284 0.0011,0.0029 2.79e-4,0.0088 0.0033,0.0085 0.01648,-0.0015 0.173392,-0.08824 0.129601,-0.03596 -0.136785,0.0029 -0.278967,0.0467 -0.410355,0.0085 -0.37061,-0.107615 -0.39352,-0.447334 -0.456895,-0.773077 -0.0082,-0.04226 0.02624,-0.0831 0.02785,-0.126117 0.0019,-0.0504 -0.09951,0.269898 -0.06624,0.136029 -0.102595,0.253752 -0.145076,0.504306 -0.0851,0.774922 0.01053,0.04883 0.02549,0.08905 0.01481,0.137254 -0.0031,0.01761 -0.0062,0.03519 -0.0091,0.05283 -0.002,0.01233 -0.01073,0.04246 7.17e-4,0.03746 0.03838,-0.01676 -0.02155,-0.02124 -0.04307,0.0094 -0.05786,0.03155 -0.119265,0.05626 -0.177066,0.08791 -0.211956,0.116032 -0.393179,0.265674 -0.545034,0.454399 -0.05583,0.06413 -0.114817,0.127491 -0.168445,0.193572 -0.21398,0.263673 0.02686,-0.03049 -0.124995,0.169486 -0.01173,0.01545 0.02116,-0.03252 0.03174,-0.04878 0.0021,-0.007 0.0084,-0.01283 0.0091,-0.02018 2.17e-4,-0.002 -0.0036,-0.0045 -0.0053,-0.0033 -0.02877,0.02071 -0.05345,0.04685 -0.08282,0.0667 -0.006,0.0041 0.01799,-0.02164 0.01147,-0.01847 -0.0208,0.0101 -0.03762,0.02688 -0.05643,0.04032 -0.03145,0.0051 -0.07558,0.04607 -0.09571,0.05905 -0.04283,0.02762 -0.09094,0.04558 -0.125619,0.08754 0.0028,-0.0062 0.01464,-0.02106 0.0083,-0.01859 -0.02249,0.0088 -0.03877,0.02962 -0.06095,0.03915 -0.0038,0.0017 0.0028,-0.01349 -0.0012,-0.01245 -0.153292,0.03946 0.0062,0.02288 -0.08755,0.01893 0.133129,-0.09247 0.139005,-0.104979 0.447661,-0.0015 0.206126,0.06912 0.323736,0.321253 0.379706,0.503209 0.02473,0.08038 0.0119,0.145082 7.5e-4,0.219251 -0.0018,0.0082 -0.01349,0.02669 -0.0054,0.02456 0.0046,-0.0012 0.04866,-0.0859 0.04972,-0.08803 0.04877,-0.09803 0.09289,-0.198502 0.132084,-0.300723 0.0026,-0.0076 0.05085,-0.135889 0.05085,-0.157395 -1e-6,-0.0075 -0.01754,0.02432 -0.01424,0.01755 0.107424,-0.220203 -0.06967,0.212927 0.104507,-0.239388 0.03335,-0.16228 0.07734,-0.322411 0.09326,-0.488092 0.02396,-0.171934 0.04606,-0.346273 0.04621,-0.51975 0.03659,-0.05541 -0.01541,0.02101 0.03235,-0.04039 0.08969,-0.115339 0.169227,-0.239707 0.219465,-0.377695 0.04618,-0.174636 0.09475,-0.29818 0.04038,-0.497091 -0.08671,-0.317196 -0.294995,-0.537009 -0.600242,-0.626919 -0.02928,-0.0058 -0.17991,-0.03657 -0.204527,-0.03892 -0.01903,-0.0018 -0.03814,0.0051 -0.05722,0.0039 -0.02346,-0.0015 -0.0464,-0.0164 -0.06949,-0.01198 -0.0089,0.0017 0.02221,0.01587 0.01576,0.02228 -0.0072,0.0071 -0.01934,-0.0061 -0.02902,-0.0091 -0.07731,-0.04491 -0.152222,-0.08987 -0.237357,-0.119772 -0.123358,-0.04332 -0.256618,-0.05827 -0.383774,-0.08561 -0.04762,-0.01147 -0.30322,-0.07467 -0.337654,-0.07529 -0.370371,-0.0067 -0.607021,0.0081 -0.931796,0.09626 -0.109077,0.038 -0.178367,0.05497 -0.277217,0.120018 -0.05929,0.03901 -0.144878,0.06359 -0.168139,0.130647 -0.232799,0.671092 -0.295469,0.691209 0.04102,1.092107 0.02597,0.03094 0.06499,0.04801 0.09748,0.07202 0.01909,0.0094 0.03749,0.02039 0.05726,0.02828 0.01012,0.004 0.03024,0.01805 0.03185,0.0073 0.0028,-0.0183 -0.01903,-0.03197 -0.02556,-0.04928 -0.01115,-0.02957 0.006,-0.0671 -0.01312,-0.09471 0.03786,0.06359 0.06044,0.132498 0.09308,0.198746 0.06925,0.140522 0.161302,0.268269 0.277465,0.373956 0.173079,0.146097 0.01535,0.0172 0.178445,0.139777 0.03538,0.0266 0.102829,0.09777 0.162062,0.09943 0.0093,2.6e-4 0.01279,-0.01352 0.01918,-0.02029 0.0063,9e-4 0.01264,0.0017 0.01897,0.0026 0.01762,0.03158 0.03565,0.06317 0.04687,0.09777 0.0034,0.01048 -0.0022,0.02876 0.0084,0.03196 0.02492,0.0076 -0.0015,-0.101577 0.02899,-0.07256 0.01412,-0.02614 0.02732,-0.05279 0.04236,-0.0784 0.0075,-0.01277 0.03569,-0.04704 0.02516,-0.03662 -0.0611,0.06057 -0.09785,0.140635 -0.152005,0.20638 0.0098,-0.01767 0.02189,-0.03423 0.0293,-0.05301 0.0011,-0.0028 -0.01062,0.0038 -0.0089,0.0014 0.162618,-0.237055 0.404823,-0.138508 0.675562,-0.10808 0.0087,0.01189 0.03295,0.02268 0.02602,0.03566 -0.0065,0.01229 -0.02816,-0.0023 -0.04114,-0.0074 -0.02564,-0.01001 -0.04973,-0.02374 -0.07358,-0.03749 -0.135382,-0.07801 -0.264082,-0.168761 -0.414139,-0.218716 -0.21912,-0.0042 -0.438202,-0.01388 -0.657359,-0.01262 -0.01821,1.04e-4 -0.07017,0.01513 -0.05203,0.01669 0.199263,0.01718 0.415397,-0.04829 0.599232,0.03049 0.337671,0.144697 0.285749,0.336068 0.354281,0.583111 0.0014,0.005 0.0099,-0.0027 0.01482,-0.004 0.128492,-0.40057 0.195734,-0.820692 0.218356,-1.240141 0.01907,-0.104715 -1.46183,-0.374336 -1.480895,-0.269621 z" />
      <path
         style="fill:#678a9b;stroke-width:0.75"
         id="path3180"
         d="m 23.775652,45.749698 c -0.331478,0.163703 -0.650257,0.374313 -0.873103,0.67575 -0.0289,0.03909 -0.0522,0.08202 -0.0783,0.123032 -0.14657,0.358628 -0.224613,0.422568 0.05137,0.930483 0.06764,0.124475 0.236911,0.155397 0.355366,0.233095 0.09639,0.03383 0.574738,-1.329373 0.478346,-1.363197 v 0 c 0.09327,0.07511 0.231257,0.115853 0.279813,0.225319 0.217459,0.490244 0.17385,0.513786 0.04568,0.822525 0.07339,-0.0067 0.02845,0.0029 0.135183,-0.07103 0.17315,-0.11996 0.347893,-0.240119 0.506441,-0.379038 0.08464,-0.0637 -0.816166,-1.260635 -0.900802,-1.19694 z" />
      <path
         id="path2953"
         d="m 46.329004,24.982436 -1.99317,-4.077854 c -0.48265,-0.971898 -1.37555,-1.675975 -2.43307,-1.918504 v -1.414991 c -7.5e-4,-0.664526 -0.25285,-1.304171 -0.7055,-1.790823 -0.45265,-0.486315 -1.07251,-0.783814 -1.73518,-0.832114 V 5.754222 h 3.29884 c 0.21736,0 0.42594,-0.08636 0.57962,-0.240048 0.15369,-0.153688 0.24005,-0.362267 0.24005,-0.579626 V 3.139322 c -10e-4,-0.832479 -0.33263,-1.630167 -0.9214,-2.219021 C 42.070414,0.331898 41.272314,7.31e-4 40.439894,0 H 9.707284 c -0.83248,0.0011 -1.63054,0.332263 -2.2193,0.921032 -0.5884,0.588779 -0.91957,1.386888 -0.92067,2.219021 v 1.795226 c 0,0.217358 0.0864,0.425939 0.24005,0.579626 0.15405,0.153686 0.36227,0.240047 0.57963,0.240047 h 2.47916 V 24.42665 c -0.67184,0.03586 -1.30455,0.327869 -1.76778,0.815646 -0.46363,0.487776 -0.7227,1.134334 -0.72417,1.80731 v 1.378457 c -0.98323,0.187719 -1.8223,0.824797 -2.26726,1.721314 l -2.10849,4.311671 c -0.12076,0.254689 -0.10356,0.55291 0.0461,0.791861 0.1493,0.238951 0.4102,0.385322 0.6916,0.388244 h 3.4386 c -0.0355,0.954007 0.31835,1.881971 0.98108,2.56956 0.66232,0.687945 1.5764,1.076536 2.53143,1.076536 0.95466,0 1.86877,-0.388609 2.53116,-1.076536 0.66268,-0.68757 1.01686,-1.615553 0.98107,-2.56956 h 3.43861 c 0.28176,-0.0029 0.54267,-0.148927 0.69196,-0.387879 0.14967,-0.238951 0.16686,-0.537546 0.0457,-0.792226 l -2.11101,-4.311671 c -0.45301,-0.914081 -1.31401,-1.55738 -2.31851,-1.733024 v -1.366747 c -7.5e-4,-0.664526 -0.25285,-1.304171 -0.7055,-1.790449 -0.45264,-0.48668 -1.0725,-0.783814 -1.73518,-0.832479 V 5.75498 h 12.74851 v 29.204739 c -0.67185,0.03586 -1.30455,0.327869 -1.76778,0.815645 -0.46363,0.487777 -0.7227,1.134335 -0.72454,1.807311 v 1.41396 c -1.02201,0.237115 -1.88487,0.91884 -2.35148,1.858552 l -2.02389,4.139398 c -0.12076,0.254689 -0.10356,0.55291 0.0457,0.791861 0.1493,0.238952 0.4102,0.384957 0.69197,0.387879 h 3.44881 c -0.0871,0.982485 0.2426,1.956257 0.90859,2.683659 C 23.147444,49.585807 24.088204,50 25.074804,50 c 0.98614,0 1.92731,-0.41423 2.59336,-1.142016 0.66598,-0.727458 0.99569,-1.701174 0.90859,-2.683659 h 3.44778 c 0.28176,-0.0029 0.54267,-0.148927 0.69196,-0.387879 0.1493,-0.238951 0.1665,-0.537181 0.0457,-0.791861 l -2.02323,-4.139398 c -0.47534,-0.955787 -1.35944,-1.643751 -2.403,-1.869137 v -1.401127 c -0.001,-0.664891 -0.25359,-1.304171 -0.70661,-1.790448 -0.45302,-0.486278 -1.07326,-0.783449 -1.73593,-0.831384 V 5.754606 h 11.92883 v 9.192054 c -0.67184,0.03623 -1.30454,0.32787 -1.76815,0.815646 -0.46326,0.487776 -0.72234,1.134709 -0.72417,1.80731 v 1.426701 c -1.03598,0.253949 -1.90717,0.951383 -2.38146,1.906795 l -1.99391,4.077853 c -0.12076,0.254689 -0.10356,0.553275 0.0457,0.792226 0.1493,0.238586 0.4102,0.384956 0.69196,0.387879 h 3.4313 c -0.11674,0.997192 0.19833,1.996819 0.86614,2.746609 0.66745,0.750147 1.62361,1.179019 2.62774,1.179019 1.00374,0 1.95991,-0.428863 2.62773,-1.179019 0.66745,-0.749781 0.98248,-1.749511 0.86615,-2.746609 h 3.48366 c 0.28066,-0.0044 0.53973,-0.150764 0.68831,-0.388975 0.14856,-0.23822 0.16576,-0.535345 0.0461,-0.789303 z m -33.76494,10.788779 c -0.0959,2.572463 -3.84993,2.434477 -3.74595,-0.130633 h 3.73462 c 0.003,0.04355 0.0113,0.08636 0.0113,0.130633 z m 2.22699,-4.903054 1.53143,3.132371 H 5.047524 l 1.53143,-3.132371 c 0.12771,-0.259073 0.32531,-0.477172 0.57011,-0.630128 0.24517,-0.152956 0.52803,-0.234558 0.81675,-0.235654 h 5.15991 c 0.333,-0.04464 0.67148,0.01464 0.96937,0.16979 0.29823,0.154782 0.5412,0.398127 0.69563,0.695992 z m -2.4846,-3.819211 v 1.314757 H 9.013144 V 27.04895 c 3.8e-4,-0.547795 0.44424,-0.991665 0.99204,-0.992414 h 1.30895 c 0.5478,7.49e-4 0.99167,0.4446 0.99242,0.992414 z m 14.64546,19.434228 c -0.11965,2.689186 -4.06726,2.357288 -3.72516,-0.307007 h 3.69069 c 0.0198,0.101358 0.0311,0.203822 0.0344,0.306642 z m 2.31195,-4.906332 1.44684,2.960006 h -11.27496 l 1.44722,-2.960006 v 3.75e-4 c 0.15332,-0.310671 0.39044,-0.572676 0.68428,-0.756002 0.29383,-0.183326 0.63305,-0.281396 0.97958,-0.282492 h 4.96778 c 0.36044,-0.01427 0.71759,0.07648 1.02792,0.260534 0.31031,0.184432 0.56097,0.454118 0.7216,0.777594 z m -2.56918,-3.992607 v 1.314757 l -3.29406,3.74e-4 v -1.315131 c 7.5e-4,-0.547795 0.4446,-0.991665 0.99241,-0.992414 h 1.30895 c 0.5478,7.49e-4 0.99167,0.4446 0.99279,0.992414 z M 8.206594,3.13921 c 7.4e-4,-0.397762 0.15917,-0.77869 0.4402,-1.060049 0.2814,-0.281031 0.66269,-0.439476 1.06043,-0.439842 h 30.73261 -3.8e-4 c 0.39776,3.66e-4 0.77942,0.158811 1.06042,0.440207 0.2814,0.281396 0.43948,0.66269 0.44021,1.060424 V 4.115502 H 8.206064 Z m 28.76258,14.431877 c 7.5e-4,-0.547795 0.4446,-0.991665 0.99241,-0.992414 h 1.30895 c 0.5478,7.49e-4 0.99129,0.4446 0.99204,0.992414 v 1.314756 h -3.29331 z m 3.5246,8.997394 c -0.13942,2.756164 -4.17481,2.311198 -3.71196,-0.406174 h 3.66699 c 0.03,0.133564 0.0454,0.269686 0.0457,0.406174 z m -7.48976,-2.045531 1.41724,-2.89846 v 3.75e-4 c 0.16247,-0.328966 0.4135,-0.606343 0.7249,-0.800648 0.31103,-0.193939 0.67037,-0.297865 1.03738,-0.298961 h 4.89902 c 0.36995,-0.0022 0.73295,0.0999 1.04806,0.294568 0.3147,0.194304 0.56828,0.473143 0.73222,0.805041 l 1.41724,2.898179 z"
         style="stroke-width:0.093677" />
    </g>
  </g>
</svg>
