<?xml version="1.0" encoding="UTF-8" standalone="no"?>
<svg
   width="50pt"
   height="50pt"
   version="1.1"
   viewBox="0 0 50 50"
   id="svg5068"
   sodipodi:docname="light_bulb_active.svg"
   inkscape:version="1.2.2 (b0a8486541, 2022-12-01)"
   xmlns:inkscape="http://www.inkscape.org/namespaces/inkscape"
   xmlns:sodipodi="http://sodipodi.sourceforge.net/DTD/sodipodi-0.dtd"
   xmlns="http://www.w3.org/2000/svg"
   xmlns:svg="http://www.w3.org/2000/svg">
  <sodipodi:namedview
     id="namedview5070"
     pagecolor="#ffffff"
     bordercolor="#000000"
     borderopacity="0.25"
     inkscape:showpageshadow="2"
     inkscape:pageopacity="0.0"
     inkscape:pagecheckerboard="0"
     inkscape:deskcolor="#d1d1d1"
     inkscape:document-units="pt"
     showgrid="false"
     inkscape:zoom="11.183117"
     inkscape:cx="28.525142"
     inkscape:cy="31.341888"
     inkscape:window-width="1836"
     inkscape:window-height="1476"
     inkscape:window-x="3016"
     inkscape:window-y="56"
     inkscape:window-maximized="1"
     inkscape:current-layer="g5066" />
  <defs
     id="defs4960">
    <symbol
       id="y"
       overflow="visible">
      <path
         d="m 18.766,-1.125 c -0.96875,0.5 -1.9805,0.875 -3.0312,1.125 -1.043,0.25781 -2.1367,0.39062 -3.2812,0.39062 -3.3984,0 -6.0898,-0.94531 -8.0781,-2.8438 -1.9922,-1.9062 -2.9844,-4.4844 -2.9844,-7.7344 0,-3.2578 0.99219,-5.8359 2.9844,-7.7344 1.9883,-1.9062 4.6797,-2.8594 8.0781,-2.8594 1.1445,0 2.2383,0.13281 3.2812,0.39062 1.0508,0.25 2.0625,0.625 3.0312,1.125 v 4.2188 c -0.98047,-0.65625 -1.9453,-1.1406 -2.8906,-1.4531 -0.94922,-0.3125 -1.9492,-0.46875 -3,-0.46875 -1.875,0 -3.3516,0.60547 -4.4219,1.8125 -1.0742,1.1992 -1.6094,2.8555 -1.6094,4.9688 0,2.1055 0.53516,3.7617 1.6094,4.9688 1.0703,1.1992 2.5469,1.7969 4.4219,1.7969 1.0508,0 2.0508,-0.14844 3,-0.45312 0.94531,-0.3125 1.9102,-0.80078 2.8906,-1.4688 z"
         id="path4885" />
    </symbol>
    <symbol
       id="d"
       overflow="visible">
      <path
         d="m 13.734,-11.141 c -0.4375,-0.19531 -0.87109,-0.34375 -1.2969,-0.4375 -0.41797,-0.10156 -0.83984,-0.15625 -1.2656,-0.15625 -1.2617,0 -2.2305,0.40625 -2.9062,1.2188 -0.67969,0.80469 -1.0156,1.9531 -1.0156,3.4531 v 7.0625 H 2.3591 v -15.312 h 4.8906 v 2.5156 c 0.625,-1 1.3438,-1.7266 2.1562,-2.1875 0.82031,-0.46875 1.8008,-0.70312 2.9375,-0.70312 0.16406,0 0.34375,0.01172 0.53125,0.03125 0.19531,0.01172 0.47656,0.03906 0.84375,0.07813 z"
         id="path4888" />
    </symbol>
    <symbol
       id="a"
       overflow="visible">
      <path
         d="m 17.641,-7.7031 v 1.4062 H 6.188 c 0.125,1.1484 0.53906,2.0078 1.25,2.5781 0.70703,0.57422 1.7031,0.85938 2.9844,0.85938 1.0312,0 2.082,-0.14844 3.1562,-0.45312 1.082,-0.3125 2.1914,-0.77344 3.3281,-1.3906 v 3.7656 c -1.1562,0.4375 -2.3125,0.76562 -3.4688,0.98438 -1.1562,0.22656 -2.3125,0.34375 -3.4688,0.34375 -2.7734,0 -4.9297,-0.70312 -6.4688,-2.1094 -1.5312,-1.4062 -2.2969,-3.3789 -2.2969,-5.9219 0,-2.5 0.75391,-4.4609 2.2656,-5.8906 1.5078,-1.4375 3.582,-2.1562 6.2188,-2.1562 2.4062,0 4.332,0.73047 5.7812,2.1875 1.4453,1.4492 2.1719,3.3828 2.1719,5.7969 z m -5.0312,-1.625 c 0,-0.92578 -0.27344,-1.6719 -0.8125,-2.2344 -0.54297,-0.57031 -1.25,-0.85938 -2.125,-0.85938 -0.94922,0 -1.7188,0.26562 -2.3125,0.79688 -0.5937,0.53126 -0.96484,1.2969 -1.1094,2.2969 z"
         id="path4891" />
    </symbol>
    <symbol
       id="e"
       overflow="visible">
      <path
         d="m 9.2188,-6.8906 c -1.0234,0 -1.793,0.17188 -2.3125,0.51562 -0.51172,0.34375 -0.76562,0.85547 -0.76562,1.5312 0,0.625 0.20703,1.1172 0.625,1.4688 0.41406,0.34375 0.98828,0.51562 1.7188,0.51562 0.92578,0 1.7031,-0.32812 2.3281,-0.98438 0.63281,-0.66406 0.95312,-1.4922 0.95312,-2.4844 v -0.5625 z m 7.4688,-1.8438 V 0 h -4.9219 v -2.2656 c -0.65625,0.92969 -1.3984,1.6055 -2.2188,2.0312 -0.82422,0.41406 -1.8242,0.625 -3,0.625 -1.5859,0 -2.8711,-0.45703 -3.8594,-1.375 -0.99219,-0.92578 -1.4844,-2.1289 -1.4844,-3.6094 0,-1.7891 0.61328,-3.1016 1.8438,-3.9375 1.2383,-0.84375 3.1797,-1.2656 5.8281,-1.2656 h 2.8906 v -0.39062 c 0,-0.76953 -0.30859,-1.332 -0.92188,-1.6875 -0.61719,-0.36328 -1.5703,-0.54688 -2.8594,-0.54688 -1.0547,0 -2.0312,0.10547 -2.9375,0.3125 -0.89844,0.21094 -1.7305,0.52344 -2.5,0.9375 v -3.7344 c 1.0391,-0.25 2.0859,-0.44141 3.1406,-0.57812 1.0625,-0.13281 2.125,-0.20312 3.1875,-0.20312 2.7578,0 4.75,0.54688 5.9688,1.6406 1.2266,1.0859 1.8438,2.8555 1.8438,5.3125 z"
         id="path4894" />
    </symbol>
    <symbol
       id="c"
       overflow="visible">
      <path
         d="m 7.7031,-19.656 v 4.3438 H 12.75 v 3.5 H 7.7031 v 6.5 c 0,0.71094 0.14062,1.1875 0.42188,1.4375 0.28126,0.25 0.83594,0.375 1.6719,0.375 h 2.5156 v 3.5 h -4.1875 c -1.9375,0 -3.3125,-0.39844 -4.125,-1.2031 -0.80469,-0.8125 -1.2031,-2.1797 -1.2031,-4.1094 v -6.5 h -2.4219 v -3.5 h 2.4219 v -4.3438 z"
         id="path4897" />
    </symbol>
    <symbol
       id="l"
       overflow="visible">
      <path
         d="m 12.766,-13.078 v -8.2031 h 4.9219 V -1e-4 H 12.766 v -2.2188 c -0.66797,0.90625 -1.4062,1.5703 -2.2188,1.9844 -0.8126,0.4141 -1.7578,0.625 -2.8281,0.625 -1.8867,0 -3.4336,-0.75 -4.6406,-2.25 -1.2109,-1.5 -1.8125,-3.4258 -1.8125,-5.7812 0,-2.3633 0.60156,-4.2969 1.8125,-5.7969 1.207,-1.5 2.7539,-2.25 4.6406,-2.25 1.0625,0 2,0.21484 2.8125,0.64062 0.82031,0.42969 1.5664,1.0859 2.2344,1.9688 z m -3.2188,9.9219 c 1.0391,0 1.8359,-0.37891 2.3906,-1.1406 0.55078,-0.76953 0.82812,-1.8828 0.82812,-3.3438 0,-1.457 -0.27734,-2.5664 -0.82812,-3.3281 -0.55469,-0.76953 -1.3516,-1.1562 -2.3906,-1.1562 -1.043,0 -1.8398,0.38672 -2.3906,1.1562 -0.55469,0.76172 -0.82812,1.8711 -0.82812,3.3281 0,1.4609 0.27344,2.5742 0.82812,3.3438 0.55078,0.76172 1.3477,1.1406 2.3906,1.1406 z"
         id="path4900" />
    </symbol>
    <symbol
       id="k"
       overflow="visible">
      <path
         d="m 10.5,-3.1562 c 1.0508,0 1.8516,-0.37891 2.4062,-1.1406 0.55078,-0.76953 0.82812,-1.8828 0.82812,-3.3438 0,-1.457 -0.27734,-2.5664 -0.82812,-3.3281 -0.55469,-0.76953 -1.3555,-1.1562 -2.4062,-1.1562 -1.0547,0 -1.8594,0.38672 -2.4219,1.1562 -0.55469,0.77344 -0.82812,1.8828 -0.82812,3.3281 0,1.4492 0.27344,2.5586 0.82812,3.3281 0.5625,0.77344 1.3672,1.1562 2.4219,1.1562 z m -3.25,-9.9219 c 0.67578,-0.88281 1.4219,-1.5391 2.2344,-1.9688 0.82031,-0.42578 1.7656,-0.64062 2.8281,-0.64062 1.8945,0 3.4453,0.75 4.6562,2.25 1.207,1.5 1.8125,3.4336 1.8125,5.7969 0,2.3555 -0.60547,4.2812 -1.8125,5.7812 -1.2109,1.5 -2.7617,2.25 -4.6562,2.25 -1.0625,0 -2.0078,-0.21094 -2.8281,-0.625 C 8.6719,-0.6602 7.9258,-1.32032 7.25,-2.21882 V -2e-5 H 2.3594 v -21.281 H 7.25 Z"
         id="path4903" />
    </symbol>
    <symbol
       id="j"
       overflow="visible">
      <path
         d="m 0.34375,-15.312 h 4.8906 l 4.125,10.391 3.5,-10.391 h 4.8906 l -6.4375,16.766 c -0.64844,1.6953 -1.4023,2.8828 -2.2656,3.5625 -0.86719,0.6875 -2,1.0312 -3.4062,1.0312 H 2.79685 V 2.8289 h 1.5312 c 0.83203,0 1.4375,-0.13672 1.8125,-0.40625 C 6.52336,2.16093 6.82024,1.69218 7.03117,1.01645 L 7.17179,0.59457 Z"
         id="path4906" />
    </symbol>
    <symbol
       id="i"
       overflow="visible">
      <path
         d="m 2.5781,-20.406 h 6.6875 l 4.6562,10.922 4.6719,-10.922 h 6.6875 V 0 H 20.2968 V -14.938 L 15.5937,-3.922 H 12.2656 L 7.5625,-14.938 V 0 H 2.5781 Z"
         id="path4909" />
    </symbol>
    <symbol
       id="x"
       overflow="visible">
      <path
         d="m 6.2188,-7.8281 -5.5156,-7.4844 h 5.1719 l 3.1406,4.5312 3.1719,-4.5312 h 5.1719 L 11.8439,-7.8594 17.6408,0 H 12.4533 L 9.0158,-4.8438 5.6096,0 H 0.4221 Z"
         id="path4912" />
    </symbol>
    <symbol
       id="h"
       overflow="visible">
      <path
         d="M 2.3594,-15.312 H 7.25 V 0 H 2.3594 Z m 0,-5.9688 H 7.25 v 4 H 2.3594 Z"
         id="path4915" />
    </symbol>
    <symbol
       id="g"
       overflow="visible">
      <path
         d="m 16.547,-12.766 c 0.61328,-0.94531 1.3477,-1.6719 2.2031,-2.1719 0.85156,-0.5 1.7891,-0.75 2.8125,-0.75 1.7578,0 3.0977,0.54688 4.0156,1.6406 0.92578,1.0859 1.3906,2.6562 1.3906,4.7188 V -4e-4 h -4.9219 v -7.9844 -0.35938 c 0.0078,-0.13281 0.01563,-0.32031 0.01563,-0.5625 0,-1.082 -0.16406,-1.8633 -0.48438,-2.3438 -0.3125,-0.48828 -0.82422,-0.73438 -1.5312,-0.73438 -0.92969,0 -1.6484,0.38672 -2.1562,1.1562 -0.51172,0.76172 -0.77344,1.8672 -0.78125,3.3125 v 7.5156 h -4.9219 v -7.9844 c 0,-1.6953 -0.14844,-2.7852 -0.4375,-3.2656 -0.29297,-0.48828 -0.8125,-0.73438 -1.5625,-0.73438 -0.9375,0 -1.6641,0.38672 -2.1719,1.1562 -0.51172,0.76172 -0.76562,1.8594 -0.76562,3.2969 v 7.5312 h -4.9219 v -15.312 h 4.9219 v 2.2344 c 0.60156,-0.86328 1.2891,-1.5156 2.0625,-1.9531 0.78125,-0.4375 1.6406,-0.65625 2.5781,-0.65625 1.0625,0 2,0.25781 2.8125,0.76562 0.8125,0.51172 1.4258,1.2305 1.8438,2.1562 z"
         id="path4918" />
    </symbol>
    <symbol
       id="w"
       overflow="visible">
      <path
         d="m 2.5781,-20.406 h 5.25 v 7.4375 l 7.5938,-7.4375 h 6.1094 l -9.8281,9.6562 10.844,10.75 H 15.9534 L 7.8284,-8.0467 V 2e-4 h -5.25 z"
         id="path4921" />
    </symbol>
    <symbol
       id="f"
       overflow="visible">
      <path
         d="m 2.1875,-5.9688 v -9.3438 h 4.9219 v 1.5312 c 0,0.83594 -0.00781,1.875 -0.015625,3.125 -0.011719,1.25 -0.015625,2.0859 -0.015625,2.5 0,1.2422 0.03125,2.1328 0.09375,2.6719 0.070313,0.54297 0.17969,0.93359 0.32812,1.1719 0.20703,0.32422 0.47266,0.57422 0.79688,0.75 0.32031,0.16797 0.69141,0.25 1.1094,0.25 1.0195,0 1.8203,-0.39062 2.4062,-1.1719 0.58203,-0.78125 0.875,-1.8672 0.875,-3.2656 v -7.5625 h 4.8906 V -6e-4 H 12.6875 V -2.2194 C 11.94531,-1.32096 11.1641,-0.6608 10.3437,-0.235 9.51948,0.17906 8.6093,0.39 7.6093,0.39 5.8476,0.39 4.5038,-0.14906 3.5781,-1.235 2.64841,-2.317 2.1875,-3.8952 2.1875,-5.9694 Z"
         id="path4924" />
    </symbol>
    <symbol
       id="v"
       overflow="visible">
      <path
         d="M 2.3594,-21.281 H 7.25 V 0 H 2.3594 Z"
         id="path4927" />
    </symbol>
    <symbol
       id="u"
       overflow="visible">
      <path
         d="M 2.3594,-21.281 H 7.25 v 11.594 l 5.625,-5.625 h 5.6875 L 11.0937,-8.2808 19.1562,4e-4 H 13.2187 L 7.2499,-6.3902 V 4e-4 H 2.3593 Z"
         id="path4930" />
    </symbol>
    <symbol
       id="b"
       overflow="visible">
      <path
         d="m 9.6406,-12.188 c -1.0859,0 -1.9141,0.39062 -2.4844,1.1719 -0.57422,0.78125 -0.85938,1.9062 -0.85938,3.375 0,1.4688 0.28516,2.5938 0.85938,3.375 0.57031,0.77344 1.3984,1.1562 2.4844,1.1562 1.0625,0 1.875,-0.38281 2.4375,-1.1562 0.57031,-0.78125 0.85938,-1.9062 0.85938,-3.375 0,-1.4688 -0.28906,-2.5938 -0.85938,-3.375 -0.5625,-0.78125 -1.375,-1.1719 -2.4375,-1.1719 z m 0,-3.5 c 2.6328,0 4.6914,0.71484 6.1719,2.1406 1.4766,1.418 2.2188,3.3867 2.2188,5.9062 0,2.5117 -0.74219,4.4805 -2.2188,5.9062 C 14.332,-0.317 12.2734,0.39 9.6406,0.39 6.9922,0.39 4.9258,-0.31703 3.4375,-1.735 1.9453,-3.1608 1.2031,-5.1295 1.2031,-7.6412 c 0,-2.5195 0.74219,-4.4883 2.2344,-5.9062 1.4883,-1.4258 3.5547,-2.1406 6.2031,-2.1406 z"
         id="path4933" />
    </symbol>
    <symbol
       id="t"
       overflow="visible">
      <path
         d="m 0.42188,-15.312 h 4.8906 l 3.8281,10.578 3.7969,-10.578 h 4.9062 L 11.81248,0 h -5.375 z"
         id="path4936" />
    </symbol>
    <symbol
       id="s"
       overflow="visible">
      <path
         d="m 12.422,-21.281 v 3.2188 H 9.7189 c -0.6875,0 -1.1719,0.125 -1.4531,0.375 -0.27344,0.25 -0.40625,0.6875 -0.40625,1.3125 v 1.0625 h 4.1875 v 3.5 H 7.85955 V -2e-4 h -4.8906 v -11.812 h -2.4375 v -3.5 h 2.4375 v -1.0625 c 0,-1.6641 0.46094,-2.8984 1.3906,-3.7031 0.92578,-0.80078 2.3672,-1.2031 4.3281,-1.2031 z"
         id="path4939" />
    </symbol>
    <symbol
       id="r"
       overflow="visible">
      <path
         d="M 17.75,-9.3281 V 0 h -4.9219 v -7.1094 c 0,-1.3438 -0.03125,-2.2656 -0.09375,-2.7656 -0.0625,-0.5 -0.16797,-0.86719 -0.3125,-1.1094 -0.1875,-0.3125 -0.44922,-0.55469 -0.78125,-0.73438 -0.32422,-0.17578 -0.69531,-0.26562 -1.1094,-0.26562 -1.0234,0 -1.8242,0.39844 -2.4062,1.1875 -0.58594,0.78125 -0.875,1.8711 -0.875,3.2656 V -1e-4 H 2.3594 v -21.281 H 7.25 v 8.2031 c 0.73828,-0.88281 1.5195,-1.5391 2.3438,-1.9688 0.83203,-0.42578 1.75,-0.64062 2.75,-0.64062 1.7695,0 3.1133,0.54688 4.0312,1.6406 0.91406,1.0859 1.375,2.6562 1.375,4.7188 z"
         id="path4942" />
    </symbol>
    <symbol
       id="q"
       overflow="visible">
      <path
         d="m 2.5781,-20.406 h 5.875 l 7.4219,14 v -14 h 4.9844 V 0 h -5.875 L 7.5625,-14 V 0 H 2.5781 Z"
         id="path4945" />
    </symbol>
    <symbol
       id="p"
       overflow="visible">
      <path
         d="M 17.75,-9.3281 V 0 h -4.9219 v -7.1406 c 0,-1.3203 -0.03125,-2.2344 -0.09375,-2.7344 -0.0625,-0.5 -0.16797,-0.86719 -0.3125,-1.1094 -0.1875,-0.3125 -0.44922,-0.55469 -0.78125,-0.73438 -0.32422,-0.17578 -0.69531,-0.26562 -1.1094,-0.26562 -1.0234,0 -1.8242,0.39844 -2.4062,1.1875 -0.58594,0.78125 -0.875,1.8711 -0.875,3.2656 V -1e-4 H 2.3594 v -15.312 H 7.25 v 2.2344 c 0.73828,-0.88281 1.5195,-1.5391 2.3438,-1.9688 0.83203,-0.42578 1.75,-0.64062 2.75,-0.64062 1.7695,0 3.1133,0.54688 4.0312,1.6406 0.91406,1.0859 1.375,2.6562 1.375,4.7188 z"
         id="path4948" />
    </symbol>
    <symbol
       id="o"
       overflow="visible">
      <path
         d="m 2.5781,-20.406 h 8.7344 c 2.5938,0 4.582,0.57812 5.9688,1.7344 1.3945,1.1484 2.0938,2.7891 2.0938,4.9219 0,2.1367 -0.69922,3.7812 -2.0938,4.9375 -1.3867,1.1562 -3.375,1.7344 -5.9688,1.7344 H 7.8281 V 3e-4 h -5.25 z m 5.25,3.8125 v 5.7031 H 10.75 c 1.0195,0 1.8047,-0.25 2.3594,-0.75 0.5625,-0.5 0.84375,-1.2031 0.84375,-2.1094 0,-0.91406 -0.28125,-1.6172 -0.84375,-2.1094 -0.55469,-0.48828 -1.3398,-0.73438 -2.3594,-0.73438 z"
         id="path4951" />
    </symbol>
    <symbol
       id="n"
       overflow="visible">
      <path
         d="M 2.3594,-15.312 H 7.25 v 15.031 c 0,2.0508 -0.49609,3.6172 -1.4844,4.7031 -0.98047,1.082 -2.4062,1.625 -4.2812,1.625 H -0.9375 V 2.8283 h 0.85938 c 0.92578,0 1.5625,-0.21094 1.9062,-0.625 0.35156,-0.41797 0.53125,-1.2461 0.53125,-2.4844 z m 0,-5.9688 H 7.25 v 4 H 2.3594 Z"
         id="path4954" />
    </symbol>
    <symbol
       id="m"
       overflow="visible">
      <path
         d="m 14.719,-14.828 v 3.9844 c -0.65625,-0.45703 -1.3242,-0.79688 -2,-1.0156 -0.66797,-0.21875 -1.3594,-0.32812 -2.0781,-0.32812 -1.3672,0 -2.4336,0.40234 -3.2031,1.2031 -0.76172,0.79297 -1.1406,1.9062 -1.1406,3.3438 0,1.4297 0.37891,2.543 1.1406,3.3438 0.76953,0.79297 1.8359,1.1875 3.2031,1.1875 0.75781,0 1.4844,-0.10938 2.1719,-0.32812 0.6875,-0.22656 1.3203,-0.56641 1.9062,-1.0156 v 4 c -0.76172,0.28125 -1.5391,0.48828 -2.3281,0.625 -0.78125,0.14453 -1.5742,0.21875 -2.375,0.21875 -2.7617,0 -4.9219,-0.70703 -6.4844,-2.125 -1.5547,-1.4141 -2.3281,-3.3828 -2.3281,-5.9062 0,-2.5312 0.77344,-4.5039 2.3281,-5.9219 1.5625,-1.4141 3.7227,-2.125 6.4844,-2.125 0.80078,0 1.5938,0.07422 2.375,0.21875 0.78125,0.13672 1.5547,0.35156 2.3281,0.64062 z"
         id="path4957" />
    </symbol>
  </defs>
  <g
     id="g5066">
    <g
       id="g3034"
       transform="translate(-10.085103)">
      <path
         style="fill:#678a9b;stroke-width:0.75"
         id="path5412"
         d="m 16.430036,7.6447545 c -0.05361,0.1368308 -0.116385,0.2704147 -0.16082,0.410493 -0.10576,0.3334057 -0.167066,0.6963578 -0.232909,1.0383683 -0.07932,0.412029 -0.140855,0.826008 -0.222975,1.2373412 -0.03311,0.100207 -0.0093,0.206917 -0.02756,0.30855 -0.02233,0.124308 -0.02118,0.04455 -0.06311,0.125346 -0.111252,0.21435 -0.150248,0.323884 -0.244248,0.551572 -0.105284,0.26496 -0.160613,0.543133 -0.204628,0.823702 -0.01002,0.06386 -0.01377,0.320202 -0.08155,0.374092 -0.0074,0.02934 -0.02259,0.05774 -0.02238,0.08801 1.78e-4,0.02604 0.01258,-0.05072 0.02247,-0.07481 0.04462,-0.108661 0.07179,-0.22802 0.140903,-0.323006 0.179675,-0.24695 0.312746,-0.586284 0.598697,-0.693521 1.442979,-0.541143 1.502605,-0.431697 2.405513,-0.07862 -0.03101,-0.103081 -0.03946,-0.215885 -0.09305,-0.309243 C 18.05092,10.786014 17.582843,10.250818 17.32635,9.979674 17.213164,9.860022 16.700731,9.3481372 16.492566,9.2280795 c -0.04063,-0.02343 -0.09379,-0.00157 -0.140682,-0.00232 0.14302,1.1769265 0.211397,0.7801315 -0.594895,2.3534495 -0.07352,0.143447 -0.249316,0.210309 -0.340922,0.342936 -0.07764,0.112412 0.190505,0.08383 0.327396,0.04476 0.173315,-0.04947 0.33719,-0.127454 0.505786,-0.191182 0.254064,-0.182151 0.534193,-0.332577 0.762194,-0.546456 0.562609,-0.52776 0.992925,-1.382404 1.191419,-2.1297242 0.02099,-0.079034 0.03125,-0.1605353 0.04688,-0.2408033 0.01383,-0.2686057 0.0391,-0.1753905 -0.08754,-0.031898 C 17.83153,9.2015168 17.418295,9.5127518 17.155721,9.937935 17.071171,10.07484 17.454309,9.8165963 17.596954,9.7421415 17.997457,9.533097 18.028111,9.4703363 18.377292,9.1698 c 0.324688,-0.3105262 0.634942,-0.636741 0.9217,-0.9827782 0.07343,-0.088604 0.14026,-0.1825613 0.21434,-0.270618 0.123188,-0.1464323 0.188185,-0.201126 0.325675,-0.331917 -0.135508,0.2524147 0.140172,-0.1721594 0.11682,-0.1211508 -0.03187,0.06962 -0.123169,0.099768 -0.155269,0.1692828 -0.0084,0.018262 0.02861,0.036652 0.04869,0.03564 0.06499,-0.0033 0.126195,-0.031778 0.189293,-0.047663 0.283503,-0.07302 0.548305,-0.201633 0.786543,-0.3717497 0.116802,-0.083404 0.352871,-0.2989534 0.492575,-0.3837026 0.03024,-0.018346 0.06718,-0.022184 0.100768,-0.033277 0.02813,-0.0012 0.05733,0.00418 0.08439,-0.00359 0.06389,-0.018365 0.122884,-0.05087 0.185247,-0.073904 0.150101,-0.055439 0.304968,-0.097377 0.454977,-0.1530632 0.756663,-0.2808884 -0.140977,0.033046 0.378753,-0.1468459 -0.04008,-0.099609 0.169539,-0.072233 0.167868,-0.013529 -3.61e-4,0.012672 -0.03336,0.029968 -0.02082,0.031826 0.03881,0.00575 0.07835,-0.00801 0.116385,-0.017673 0.0891,-0.022637 0.176156,-0.052684 0.264234,-0.079027 0.280904,-0.1369262 0.590442,-0.1688096 0.890322,-0.2368447 0.105338,-0.023898 0.208336,-0.05737 0.313575,-0.081696 0.203314,-0.046996 0.408684,-0.084697 0.612292,-0.1303984 0.111156,0.00209 0.214173,-0.081899 0.326667,-0.085412 0.01022,-3.189e-4 -0.01212,0.021146 -0.02234,0.020998 -0.419503,-0.00607 -0.841324,0.00932 -1.25802,-0.039506 -0.09002,-0.010549 -0.439764,-0.2914596 -0.487579,-0.3276398 -0.05815,-0.059604 -0.123994,-0.112564 -0.174441,-0.1788118 -0.03979,-0.052248 0.09132,0.094837 0.142153,0.1364113 0.108645,0.088849 0.2178,0.1779704 0.33559,0.2542826 0.263912,0.1709811 0.550761,0.2552124 0.851802,0.3286842 0.444174,0.00816 0.888291,0.028433 1.332522,0.024476 0.115649,-0.00103 0.226273,-0.053503 0.341749,-0.059911 0.0707,-0.00392 0.281171,0.025239 0.210456,0.028901 -0.370797,0.019202 -0.742295,0.020852 -1.113442,0.031279 0.07367,-0.027248 0.166358,0.032075 0.238191,-0.00175 0.01741,-0.0082 -0.0359,-0.04319 -0.02006,-0.054112 0.03245,-0.022385 0.400265,0.1138336 0.434446,0.1244433 0.02523,-0.00269 0.05045,-0.00537 0.07568,-0.00806 0.0026,-0.011362 -0.0033,-0.031058 0.008,-0.034088 0.03989,-0.010726 0.146088,0.066778 0.157361,0.07394 0.384116,0.2440427 0.151145,0.1065776 0.471738,0.2893633 0.09872,0.054311 0.196913,0.109583 0.296154,0.1629322 0.127661,0.068626 0.252893,0.1423216 0.384526,0.2029819 0.376367,0.1734408 0.783929,0.2698713 1.191325,0.3330313 0.01463,-0.00534 0.04969,-0.00156 0.0439,-0.016023 -0.0089,-0.022203 -0.361121,-0.3785812 -0.129769,-0.2103672 0.217681,0.2666564 0.472285,0.4473901 0.752216,0.6357666 -0.08335,-0.1110859 0.115057,0.098516 0.129465,0.05403 0.0045,-0.01395 -0.03297,-0.044588 -0.01919,-0.03957 0.03785,0.013793 0.237559,0.2013915 0.241677,0.2051888 -0.0023,-0.00502 -0.01121,-0.018548 -0.0069,-0.015105 0.03849,0.030593 0.07375,0.065048 0.110626,0.09757 0.05681,0.047243 0.112407,0.095965 0.170404,0.1417327 0.102182,0.080635 0.188771,0.1354275 0.287515,0.2189018 0.103723,0.091029 0.201514,0.1862077 0.312258,0.2691472 0.06034,0.045195 0.118778,0.093545 0.183399,0.1323855 0.02164,0.013005 0.07067,0.046665 0.07262,0.021495 0.0035,-0.045563 -0.04328,-0.080501 -0.06493,-0.1207522 C 30.654249,8.441231 30.400131,7.9304005 30.45798,8.0830825 30.582788,8.4124937 30.81,8.769961 31.041811,9.036751 c 0.06442,0.074138 0.138045,0.1397497 0.207068,0.2096242 0.187535,0.150942 0.372332,0.318642 0.577923,0.445971 0.03963,0.02454 0.11526,0.051127 0.103815,0.00202 -0.0077,-0.032925 -0.03027,-0.060465 -0.04541,-0.090701 0.03491,0.039487 0.05223,0.1139018 0.104746,0.1184745 0.04599,0.00397 -0.0513,-0.076775 -0.07572,-0.115947 -0.0057,-0.00916 -0.02106,-0.037553 -0.01459,-0.028913 0.07211,0.096257 0.133521,0.2025225 0.203656,0.3005648 0.104049,0.1090935 0.163719,0.2464265 0.248761,0.3687695 0.115799,0.166589 0.157136,0.210196 0.286775,0.367691 0.05989,0.04848 0.115744,0.101675 0.174882,0.151023 0.07299,0.06091 0.05821,0.06074 0.01052,-0.0357 0.07316,0.196447 0.158861,0.390577 0.256569,0.576259 0.01221,0.02321 0.02855,0.044 0.04282,0.06599 0.01337,0.0266 0.02674,0.0532 0.0401,0.0798 -0.06719,-0.279147 0.124109,0.440753 0.08495,0.18535 -0.02042,-0.161641 -0.0044,-0.02101 -0.01961,-0.206833 -0.002,-0.02428 -0.006,-0.09701 -0.0073,-0.0727 -0.01094,0.195244 4.82e-4,0.385269 0.02175,0.578778 0.01306,0.294679 0.06242,0.585894 0.105764,0.877193 0.01004,0.06743 0.01616,0.135635 0.03121,0.202127 0.02272,0.100374 0.05461,0.198449 0.08191,0.297674 0.05584,0.179724 0.125995,0.356988 0.205467,0.52773 0.01702,0.03657 0.01998,0.09355 0.05834,0.106009 0.02795,0.0091 -0.0012,-0.05878 -0.0032,-0.0881 -0.0062,-0.09113 -0.01412,-0.182138 -0.02118,-0.273207 -0.01876,0.128952 0.02857,0.251888 0.03539,0.378382 2.52e-4,0.0047 -0.0206,0.01586 -0.02065,0.01756 -0.0035,0.119871 0.0058,0.239812 0.005,0.359732 0.02585,0.159762 0.01448,0.340564 0.07776,0.493245 -0.0046,-0.004 0.02154,0.02737 0.01331,0.02363 -0.01215,-0.0056 -0.01937,-0.02986 -0.03161,-0.02455 -0.02404,0.01045 -0.03286,0.0409 -0.05055,0.06024 -0.13398,0.146496 -0.04356,0.0034 -0.160804,0.298778 -0.02004,0.0556 -0.04274,0.110327 -0.06012,0.166825 -0.04963,0.16134 -0.08277,0.332302 -0.121328,0.496439 -0.03318,0.14122 -0.04873,0.170891 -0.019,0.105849 -0.08988,0.241343 -0.152119,0.489434 -0.205486,0.740935 -0.01014,-0.06692 0.01727,-0.132313 0.01846,-0.200361 3e-4,-0.01698 0.01418,-0.06421 0.0038,-0.0508 -0.09274,0.119304 -0.161033,0.255761 -0.243717,0.382242 -0.01125,0.01198 -0.113497,0.119487 -0.126343,0.138306 -0.02627,0.04492 -0.05252,0.08983 -0.07879,0.134747 0.0055,-0.007 0.02097,-0.02877 0.01675,-0.02089 -0.03126,0.05836 -0.157298,0.217642 -0.160982,0.222554 -0.110228,0.154113 -0.198705,0.321965 -0.303877,0.479264 -0.02093,0.03131 -0.04585,0.06006 -0.06445,0.09281 -0.04554,0.08018 -0.115637,0.229061 -0.16004,0.321762 -0.0074,0.01319 -0.01589,0.02585 -0.02226,0.03958 -0.01506,0.03247 -0.235653,0.570031 -0.118747,0.252334 -0.117579,0.217692 -0.228069,0.439807 -0.379133,0.637202 -0.123485,0.171238 -0.216317,0.3427 -0.294724,0.540233 -0.02151,0.04171 -0.03538,0.08837 -0.06454,0.125156 -0.0066,0.0084 -0.02395,-0.01087 -0.03179,-0.0037 -0.04708,0.0434 -0.08193,0.09844 -0.123698,0.146982 -0.0455,0.05288 -0.09738,0.100605 -0.138094,0.157254 -0.145296,0.202174 -0.159446,0.271743 -0.257189,0.501768 -0.0309,0.114185 -0.08137,0.224805 -0.0927,0.342552 -0.102175,1.062003 -0.16154,1.970987 1.116805,2.656187 1.129219,0.605267 2.001956,0.198948 2.846215,-0.349462 0.09725,-0.04239 0.184837,-0.10423 0.2815,-0.147611 0.03978,-0.01785 0.08577,-0.02066 0.124032,-0.04157 0.105423,-0.05763 0.198622,-0.135258 0.296717,-0.204628 0.711695,-0.746711 0.3921,-0.228497 0.93579,-1.71773 0.04493,-0.123066 0.0053,-0.26899 0.05868,-0.388626 0.0062,-0.0139 0.02822,0.01138 0.04233,0.01708 0.05479,-0.217933 0.138934,-0.429274 0.170923,-0.652547 0.02044,-0.142637 0.05716,-0.144374 0.0018,-0.136679 0.0057,-0.02808 0.0091,-0.05675 0.01712,-0.08425 0.08447,-0.288033 -0.0065,0.122919 0.09885,-0.316158 0.04821,-0.200948 0.0896,-0.405851 0.119001,-0.610529 0.03577,-0.345643 0.04804,-0.72959 -0.0038,-1.074019 -0.0236,-0.156765 -0.06394,-0.310548 -0.09591,-0.465822 -0.227545,-0.649356 -0.531385,-1.133901 -1.06791,-1.566111 -0.186999,-0.150642 -0.361669,-0.24858 -0.566772,-0.374967 -0.790946,-0.399558 -0.854943,-0.49771 -2.185295,-0.36471 -0.284179,0.02841 -0.485212,0.312274 -0.755881,0.403394 -0.107094,0.03605 0.178496,-0.142298 0.247074,-0.232108 0.09395,-0.123034 -0.03628,-0.175603 -0.108846,-0.243359 0.276506,-0.02725 0.56583,0.0058 0.829518,-0.08176 0.140307,-0.04659 -0.293536,-0.03669 -0.440999,-0.04725 -0.145463,-0.01042 -0.291502,-0.01001 -0.437229,-0.01567 -0.156769,-0.0061 -0.313369,-0.01969 -0.470257,-0.01958 -0.129601,9e-5 -0.258837,0.01379 -0.388281,0.02018 -0.510471,0.02517 -1.020976,0.04966 -1.531464,0.07449 -0.303756,0.03923 -0.592393,0.149247 -0.892752,0.203483 -0.518589,0.09364 -0.154865,-0.02522 -0.655224,0.08325 -0.235506,0.05105 -0.33316,0.09561 -0.544449,0.175932 -0.03728,0.02074 -0.08112,0.03262 -0.111823,0.06223 -0.03069,0.02959 0.141835,-0.01859 0.03121,-0.04308 -0.09938,-0.022 -0.202107,-0.02499 -0.30359,-0.03288 -0.483851,-0.03761 -0.445145,-0.02658 -0.937201,-0.01893 -0.604074,0.03272 -1.197026,0.140445 -1.764978,0.349965 -0.06599,0.02435 -0.129429,0.05508 -0.194143,0.08263 -0.07135,0.02622 -0.1427,0.05244 -0.214049,0.07866 -0.258958,-0.186492 -0.0768,-0.07959 -0.615605,-0.201057 -0.309604,-0.06979 -0.614719,-0.164604 -0.929093,-0.208138 -0.939044,-0.13004 -1.907835,-0.137644 -2.850949,-0.06192 -0.492835,0.03957 -0.980281,0.129838 -1.470421,0.194757 -0.83696,0.196889 -1.318874,0.247809 -2.060762,0.621812 -1.666936,0.840341 -1.168096,2.992354 -0.256024,4.645589 0.27084,0.490929 1.120999,0.02867 1.6815,0.04301 0.124047,-0.0234 0.250694,-0.03576 0.37214,-0.0702 1.378964,-0.391026 1.4899,-1.895156 1.320818,-3.277288 -0.07547,-0.616931 -0.907771,-0.958122 -1.391899,-1.19902 -0.507269,-0.178527 -1.041816,-0.257494 -1.569948,-0.348579 -0.04528,-0.0028 -0.125342,-0.0524 -0.135842,-0.0083 -0.01419,0.05963 0.06718,0.102557 0.101291,0.153484 0.444318,0.66329 0.115472,0.113015 0.433071,0.792137 0.0088,0.01873 -0.0041,-0.04138 -0.0099,-0.06124 -0.03065,-0.105238 -0.06615,-0.209004 -0.09922,-0.313506 -0.1095,-0.292852 -0.262224,-0.559725 -0.44511,-0.811683 -0.0604,-0.08322 -0.192051,-0.27056 -0.291142,-0.348634 -0.0093,-0.0074 -0.02362,-10e-4 -0.03543,-0.0016 0.02131,0.06869 0.0524,0.133891 0.07502,0.202093 0.02699,0.08136 0.04958,0.288199 0.09416,0.196773 0.136464,-0.525142 0.08758,-1.099944 -0.04792,-1.621325 -0.02663,-0.102478 -0.06505,-0.201523 -0.09759,-0.302286 0.03299,0.261404 -0.18254,-0.576428 -0.190439,-0.422233 -0.01738,0.339211 0.08474,0.681123 0.04214,1.018096 -0.03201,0.253147 -0.188665,0.474869 -0.261815,0.719322 -0.0043,0.01432 0.03158,0.01681 0.04402,0.0085 0.06171,-0.04116 0.110515,-0.09897 0.165773,-0.148452 0.08924,-0.102975 0.183184,-0.202054 0.267721,-0.308925 0.135315,-0.171067 0.332451,-0.473422 0.446353,-0.655242 0.196794,-0.314141 0.381953,-0.631889 0.548219,-0.963016 0.135426,-0.214531 0.232287,-0.456375 0.387599,-0.65869 0.0063,-0.0082 0.142672,-0.187095 0.214847,-0.185923 0.04304,6.99e-4 0.0812,0.02864 0.121798,0.04295 0.309646,-0.0292 0.166309,-0.0015 0.554056,-0.128818 0.105831,-0.03475 0.212851,-0.06673 0.315811,-0.109229 0.112987,-0.04664 0.218234,-0.110674 0.331019,-0.157803 0.153946,-0.06433 0.583402,-0.199771 0.721002,-0.244513 0.505277,-0.204384 1.004428,-0.415324 1.47919,-0.684405 0.145646,-0.08255 0.283417,-0.178714 0.430493,-0.258687 0.120891,-0.06574 0.248919,-0.117417 0.372501,-0.177943 0.123237,-0.06036 0.245279,-0.123125 0.367918,-0.184688 0.211089,-0.06994 0.402912,-0.21688 0.623811,-0.262195 0.01081,-0.0023 0.0217,0.0054 0.03272,0.005 0.27122,-0.0095 -0.0056,-0.02652 0.345376,0.01166 0.447101,-0.0063 0.881469,-0.07729 1.313715,-0.1893536 0.237436,-0.06156 0.556877,-0.1581975 0.782897,-0.2716515 0.09805,-0.049222 0.186987,-0.114819 0.280482,-0.1722277 0.173679,-0.113877 0.29747,-0.2904105 0.46803,-0.407424 0.07624,-0.052305 -0.161142,0.1078275 -0.200796,0.1913482 -0.01707,0.035955 0.02608,0.083932 0.06131,0.1024523 0.109808,0.057728 0.412679,0.050985 0.511415,0.054165 0.193948,0.011198 0.387416,-0.019245 0.581177,-0.015607 0.0937,0.00173 0.374049,0.016493 0.280411,0.020333 -0.310916,0.012742 -0.622333,0.00577 -0.933509,0.00645 -0.151574,3.247e-4 0.303091,-0.00727 0.454482,-0.014708 0.221546,0.00157 0.430451,0.073905 0.643855,0.1215562 0.08039,0.017948 0.161456,0.032993 0.242834,0.045713 0.04977,0.00779 0.101825,0.0021 0.150308,0.01575 0.111347,0.031425 0.217436,0.079143 0.326154,0.1187145 0.644497,0.2782056 1.323665,0.4625266 2.02931,0.4444246 0.04625,-0.0093 0.136545,0.01918 0.138763,-0.02795 0.0031,-0.06507 -0.08454,-0.09932 -0.130603,-0.145383 -0.131291,-0.1313106 -0.278679,-0.2469396 -0.401184,-0.3864831 -0.08366,-0.095293 -0.138766,-0.212442 -0.214131,-0.3144195 -0.0033,-0.0045 -0.009,0.01008 -0.0069,0.015292 0.03382,0.08694 0.07503,0.1708185 0.112542,0.2562285 0.103567,0.1990455 0.110145,0.2252003 0.240135,0.4167541 0.05225,0.077 0.127062,0.140044 0.165661,0.224723 0.03436,0.07537 0.05867,0.194683 0.07613,0.261822 0.13224,0.413467 0.27829,0.822583 0.373761,1.246332 0.08012,0.267705 0.03464,0.453779 -0.06062,0.710778 -0.11848,0.38002 -0.338117,0.712543 -0.50803,1.069189 -0.03789,0.07953 -0.06959,0.161857 -0.10438,0.242786 -0.02278,0.07124 -0.04729,0.14195 -0.06836,0.213717 -0.01329,0.04527 -0.01011,0.09694 -0.03465,0.137235 -0.01377,0.02261 -0.0048,-0.0533 -5.49e-4,-0.07942 0.0093,-0.05699 0.06972,-0.118253 0.04096,-0.168333 -0.02281,-0.03973 -0.09169,-0.0022 -0.137424,3.41e-4 -0.05814,0.0032 -0.115913,0.01126 -0.17387,0.01688 -0.36356,-0.02459 -0.73417,-0.05661 -1.098826,-0.04126 -0.429196,0.01806 -0.861273,0.08724 -1.284767,0.156687 0.324197,0.01494 0.650784,0.0028 0.97259,0.04481 0.05978,0.0078 -0.0931,0.09128 -0.202953,0.08918 -0.123123,-0.0024 -0.335409,-0.06138 -0.441692,-0.0833 -0.09656,-0.01991 -0.193751,-0.03668 -0.290627,-0.05501 -0.760198,-0.103588 -0.207824,-0.04 -1.707929,-0.06724 -0.389362,-0.007 -0.776664,0.0079 -1.165745,0.01873 -0.09719,-0.005 -0.194476,-0.0083 -0.291562,-0.01492 -0.06946,-0.0048 -0.711308,-0.06082 -0.7485,-0.06182 -0.499268,-0.01335 -0.993259,0.04867 -1.488333,0.101913 -0.42126,0.04041 -0.831205,0.148655 -1.238566,0.258146 -0.140579,0.03779 -0.335576,0.114662 -0.483785,0.13116 0.0089,-0.0071 0.03799,-0.02183 0.02664,-0.0213 -0.215849,0.01011 -0.04037,0.04261 -0.236885,0.03335 -0.09343,-0.0044 -0.184119,-0.03338 -0.276763,-0.04624 -0.06833,-0.0095 -0.137147,-0.01512 -0.20572,-0.02268 -0.59832,-0.05317 -0.104359,-9e-4 0.620822,-0.03323 0.09621,-0.0043 -0.192297,-0.01149 -0.288558,-0.01448 -0.236308,-0.0073 -0.473569,-0.0055 -0.709872,5.6e-5 -0.09585,0.02848 -0.480235,-0.09267 -0.52056,-0.02122 -0.0119,0.02109 0.0055,0.04813 0.0082,0.07219 -0.043,0.06939 -10e-4,-0.0097 -0.01835,0.05967 -0.0013,0.0051 -0.01172,0.0069 -0.01039,0.01201 0.0062,0.02393 0.02705,0.04295 0.03112,0.06734 0.0025,0.01516 -0.01747,-0.02531 -0.0262,-0.03796 0.01803,0.04397 0.03605,0.08795 0.05408,0.13192 -0.01051,0.208487 -0.03184,-0.187384 -0.0095,-0.14425 0.0361,0.06984 0.04208,0.197666 0.05037,0.261097 -4.95e-4,0.0588 -0.0077,0.117927 -0.0015,0.176401 0.0059,0.05567 0.03614,0.08347 0.08624,0.100984 0.03646,0.01275 0.07505,0.03075 0.113198,0.02471 0.112069,-0.01775 0.362859,-0.154557 0.448659,-0.197478 0.411592,-0.193638 0.07193,-0.05081 0.483076,-0.180448 0.102599,-0.03235 0.200535,-0.07969 0.304882,-0.105854 0.130058,-0.03262 0.265345,-0.04036 0.396126,-0.06994 0.2985,-0.0675 0.689702,-0.189579 0.982975,-0.277088 0.317421,-0.0997 0.609583,-0.255887 0.907374,-0.399687 0.05906,-0.02852 0.148633,-0.07066 0.2179,-0.07614 0.05181,-0.0041 0.103891,0.0031 0.155836,0.0046 0.177878,-0.03167 0.357798,-9.75e-4 0.536151,-0.01317 0.111614,-0.0076 0.222067,-0.0274 0.333035,-0.04162 0.09606,-0.01231 0.19326,-0.01805 0.288035,-0.03794 0.20743,-0.04354 0.40447,-0.123257 0.602671,-0.195294 0.09996,-0.0312 0.196421,-0.07748 0.299892,-0.09361 0.114309,-0.01782 0.231718,0.0025 0.346989,-0.0072 0.149707,-0.01274 0.297776,-0.04033 0.446691,-0.06029 0.160639,-0.02153 0.322169,-0.03712 0.481971,-0.06416 0.177421,-0.03002 0.744094,-0.154316 0.940545,-0.196769 0.0528,-0.0132 0.562432,-0.13918 0.663688,-0.169049 0.047,-0.01387 0.09716,-0.0233 0.138239,-0.05001 0.01433,-0.0093 -0.03394,-0.0041 -0.05082,-0.0068 -0.539733,-0.08699 -1.075411,-0.203907 -1.618981,-0.262297 -0.07707,-0.0083 0.136454,0.07358 0.204681,0.110375 0.454905,0.22237 0.921821,0.371815 1.425571,0.428275 0.496973,0.0557 0.998042,0.02495 1.49576,0.0043 0.02072,-0.0025 0.500469,-0.05452 0.560227,-0.08296 0.134576,-0.06406 -0.159128,-0.180604 -0.263694,-0.279498 -0.197811,-0.187082 -0.418248,-0.361717 -0.56132,-0.593361 -0.149327,-0.24177 -0.19893,-0.532383 -0.298395,-0.798576 0.01028,-0.264865 0.02055,-0.529731 0.03083,-0.794596 0.0436,-0.128909 0.119224,-0.251136 0.130795,-0.386725 0.0065,-0.07676 -0.08058,0.131554 -0.114904,0.200522 -0.03957,0.07951 -0.07652,0.160635 -0.106455,0.244255 -0.130416,0.364337 -0.115702,0.361409 -0.176937,0.714305 0.02194,-0.20637 -0.0072,0.274602 -0.07718,0.232509 -0.02881,-0.01732 -0.0077,-0.08473 -0.0404,-0.0924 -0.03185,-0.0075 -0.0481,0.04438 -0.07276,0.06588 -0.07782,0.06784 -0.0597,0.05205 -0.142186,0.106888 -0.03121,2.23e-4 -0.207767,0.172502 -0.143573,0.06177 0.03615,-0.06236 0.07936,-0.120334 0.119038,-0.1805 -0.06098,-0.03874 -0.11512,-0.09133 -0.182947,-0.116214 -0.630783,-0.231375 -1.035167,-0.280949 -1.740827,-0.325082 -0.713715,-0.04464 -1.432531,-0.02545 -2.141347,0.07177 -0.252684,0.03466 -0.499771,0.102131 -0.749658,0.153197 -0.962625,0.254921 -0.374547,0.03571 0.335662,0.219432 0.07441,0.01925 -0.263527,0.02759 -0.324774,0.142282 -0.03899,0.07301 0.168326,0.157778 0.278834,0.226042 1.157396,0.922149 0.52425,0.294877 -2.286564,0.01922 -0.05985,-0.0058 -0.117835,0.02422 -0.176334,0.03817 -0.250324,0.05969 -0.483743,0.138715 -0.722913,0.23357 -0.330648,0.12297 -0.660123,0.253025 -0.947618,0.462021 -0.173536,0.126152 -0.342646,0.294574 -0.495677,0.43478 -0.05128,0.03918 -0.105041,0.07531 -0.153841,0.117532 -0.219721,0.190123 -0.259479,0.255651 -0.477727,0.436132 -0.116509,0.09635 -0.245267,0.177172 -0.362152,0.273065 -0.08739,0.07169 -0.171666,0.147095 -0.257498,0.220643 -0.102423,0.06712 -0.207903,0.129792 -0.307266,0.201361 -0.155934,0.112316 -0.305118,0.233721 -0.458154,0.349955 -0.492974,0.374425 -0.985485,0.740871 -1.390728,1.214417 -0.09763,0.114083 -0.178558,0.241457 -0.267837,0.362186 -0.03771,0.07971 -0.08493,0.155585 -0.113124,0.239136 -0.01409,0.04174 -0.008,0.08776 -0.01201,0.131637 -0.166097,0.338996 -0.300614,0.695383 -0.498292,1.016989 -0.02922,0.04754 0.0038,-0.11773 -0.02506,-0.165525 -0.01295,-0.02149 -0.05535,-0.01623 -0.07529,-9.75e-4 -0.05332,0.04078 -0.08493,0.103978 -0.127393,0.155967 -0.231972,0.319577 -0.448041,0.663103 -0.585984,1.03537 -0.04141,0.111747 -0.07144,0.227387 -0.107155,0.341081 -0.07471,0.337606 -0.132422,0.680773 -0.13404,1.02703 0.0026,0.210404 -0.01496,0.419141 0.0087,0.62902 0.05839,0.446879 0.148137,0.860226 0.369723,1.292956 0.124171,0.24249 0.360237,0.409554 0.555845,0.599178 0.0574,0.05564 0.133018,0.08872 0.199527,0.133083 0.0659,0.01934 0.115986,0.08638 0.184598,0.09361 0.03104,0.0033 -0.04428,-0.04401 -0.06674,-0.06569 -0.189489,-0.182826 -0.248756,-0.266787 -0.403732,-0.496025 -0.241304,-0.07955 -0.09227,-0.334298 -0.187634,-0.475506 -0.0242,-0.03582 0.01948,0.08428 0.03189,0.125688 0.02733,0.09121 0.05161,0.183708 0.08727,0.272 0.176132,0.436131 0.198665,0.408813 0.500094,0.833383 0.114303,0.108713 0.22374,0.232039 0.358926,0.317017 0.0064,0.004 0.01673,-6.39e-4 0.02223,0.0046 0.05105,0.0481 0.09488,0.103327 0.143259,0.154108 0.01183,0.01178 0.02368,0.02354 0.03549,0.03535 0.103623,0.103598 0.09254,0.101628 0.181929,0.169754 0.01648,0.01255 0.04522,0.05624 0.0505,0.0362 0.0091,-0.03432 -0.05827,-0.126403 -0.03334,-0.101131 0.05197,0.05269 0.07911,0.125092 0.118664,0.187638 0.193015,0.272844 0.170659,0.254683 0.439013,0.553094 0.03167,0.03522 0.0683,0.06571 0.104028,0.09681 0.191818,0.166983 0.172915,0.243181 0.202483,0.139071 0.01487,-0.0054 0.109051,0.141278 0.157192,0.203093 0.169008,0.329515 0.380114,0.638517 0.625221,0.916229 0.207386,0.247866 0.350914,0.544087 0.600755,0.755135 0.140636,0.183791 0.02575,-0.09001 0.01814,-0.106258 -0.0016,-0.0033 -0.0061,0.0076 -0.0093,0.0058 -0.03508,-0.01997 -0.07608,-0.236841 0.02227,0.117488 0.0911,0.26983 0.191489,0.535501 0.291469,0.802094 0.097,0.198308 -0.03885,-0.08127 0.137076,0.295383 0.01099,0.02353 -0.01665,-0.04978 -0.0308,-0.07156 -0.0062,-0.0095 0.0035,0.02236 0.006,0.03337 0.03058,0.132343 0.02407,0.05651 0.02462,0.175479 0.05119,0.403832 0.169129,0.796437 0.296739,1.181902 0.07842,-0.07826 0.03114,0.219307 0.108606,0.208155 0.02297,-0.0033 0.0128,-0.04513 0.01341,-0.06833 0.0029,-0.111478 -0.02144,-0.224579 -0.0028,-0.334536 0.0464,-0.274581 0.07948,-0.559306 0.196584,-0.811959 0.117215,-0.252889 0.328575,-0.450342 0.492863,-0.675513 -0.428722,0.336226 -0.6306,0.843563 -0.742976,1.348531 -0.04834,0.217212 -0.05252,0.449384 -0.07297,0.670618 -0.03397,0.462658 0.03823,0.920461 0.124841,1.373089 0.0481,0.194256 0.02865,0.394811 0.05347,0.59165 0.03055,0.242361 0.04162,0.26147 0.09678,0.482137 0.07593,0.194811 0.132203,0.389589 0.198562,0.589438 0.01045,0.03147 0.07121,0.08762 0.03832,0.09181 -0.115523,0.01472 -0.0049,-0.201302 -0.07788,-0.02883 0.02501,0.456295 0.104516,0.904665 0.245685,1.339982 0.09639,0.297238 0.184006,0.476471 0.310246,0.763928 0.117416,0.2475 0.276512,0.466983 0.438291,0.685607 0.07786,0.10522 0.131633,0.231644 0.229318,0.318772 0.07386,0.06587 -0.104213,-0.168765 -0.146491,-0.258247 0.0027,0.01165 0.0089,0.02301 0.0081,0.03494 -4.68e-4,0.0072 -0.0066,-0.01281 -0.0091,-0.01954 -0.0118,-0.03143 -0.0058,-0.07638 -0.03382,-0.09487 -0.02269,-0.01497 0.0062,0.05413 0.01223,0.08062 0.0441,0.191734 0.04679,0.188819 0.101144,0.348376 0.02371,0.08387 0.04858,0.167426 0.07113,0.251617 0.01572,0.0587 0.02531,0.119062 0.04367,0.176989 0.0829,0.261612 0.213589,0.505935 0.331421,0.752871 0.16876,0.338568 0.37067,0.662388 0.62511,0.943875 0.06807,0.07531 0.132206,0.157593 0.216472,0.214193 0.05437,0.03652 -0.08282,-0.101491 -0.124229,-0.152237 -0.110196,-0.161386 -0.01792,-0.01068 -0.01792,-0.01951 -1.5e-5,-0.0191 -0.03587,-0.0668 -0.02354,-0.05222 0.03308,0.0391 0.05681,0.08525 0.08668,0.126849 0.19007,0.264778 0.118006,0.18441 0.265699,0.33265 0.282268,0.267777 0.64414,0.697721 1.071883,0.7621 0.505309,0.07605 1.022461,0.04266 1.532889,0.0185 0.125601,-0.0059 0.374241,-0.149174 0.513863,-0.198475 -0.0064,0.0077 -0.02822,0.02702 -0.01901,0.02316 0.07184,-0.03016 0.138982,-0.07058 0.209729,-0.103236 0.02022,-0.0093 0.04234,-0.0312 0.06288,-0.0226 0.01464,0.0062 -0.04708,0.03287 -0.03146,0.03575 0.03783,0.007 0.08086,-0.0408 0.113574,-0.02055 0.02481,0.01536 -0.0038,0.05824 -0.0056,0.08737 0.132175,-0.02106 0.266401,0.01652 0.398526,0.0027 0.312571,-0.03268 0.617755,-0.143912 0.905946,-0.262394 0.21699,-0.09811 0.404376,-0.247435 0.588419,-0.395599 0.0037,-0.0029 -0.0093,0.002 -0.01346,0.0043 -0.240516,0.131629 -0.453164,0.335236 -0.720229,0.397291 -0.356089,0.08274 -0.730964,0.01655 -1.096445,0.02482 0.275055,0.0511 0.557967,0.04833 0.837106,0.06305 0.735464,0.333113 0.918339,-0.0044 1.425241,-0.03722 0.02666,-0.0017 0.05413,0.0061 0.08015,-2.7e-5 0.163449,-0.03824 0.322123,-0.09459 0.483513,-0.140754 0.333333,-0.09775 0.611118,-0.307437 0.889884,-0.505775 0.07254,-0.05161 0.147772,-0.09996 0.215693,-0.157521 0.17851,-0.15128 0.316293,-0.305196 0.475984,-0.473781 0.315979,-0.356712 0.551286,-0.760803 0.68754,-1.219078 0.02832,-0.09525 0.04241,-0.194158 0.06361,-0.291238 0.01273,-0.159893 0.02548,-0.319787 0.03821,-0.479681 -0.0109,-0.132978 -0.03678,-0.265571 -0.03271,-0.398934 6.69e-4,-0.02196 0.04045,0.265872 0.08595,0.279795 0.02788,0.0085 0.04475,-0.04052 0.05548,-0.06763 0.03672,-0.09287 0.05658,-0.191553 0.08487,-0.287328 0.05909,-0.245759 0.124031,-0.491909 0.156672,-0.743139 0.0053,-0.04091 0.0095,-0.143739 -0.01475,-0.15289 -0.01405,-0.0053 -0.02528,0.01624 -0.03791,0.02436 -0.02897,0.05 -0.09915,0.206474 -0.08691,0.149999 0.08808,-0.406521 0.105183,-0.255898 0.187976,-0.498864 0.06484,-0.190293 0.09517,-0.387293 0.15254,-0.579349 0.07895,-0.250375 0.03787,-0.517114 0.111067,-0.766925 0.0099,-0.0451 0.05276,-0.268621 0.0847,-0.331593 0.184002,-0.362738 -0.01023,0.170644 0.180512,-0.308737 0.08815,-0.221541 0.100962,-0.319581 0.152832,-0.549546 0.117113,-0.483456 0.14442,-0.977987 0.145763,-1.473466 0.0029,-0.214651 -0.0066,-0.429145 -0.01546,-0.643541 -0.0054,-0.131035 -0.03408,-0.09177 0.02344,-0.144015 0.06362,-0.238743 0.08841,-0.479157 0.08298,-0.725891 -0.0058,0.0036 -0.106721,0.324352 -0.07315,0.335832 0.04442,0.01519 0.06642,-0.06641 0.100972,-0.0982 0.0509,-0.04682 0.103535,-0.09171 0.155303,-0.13756 0.241958,-0.282847 0.413601,-0.612009 0.588033,-0.937737 0.127471,-0.238036 0.257742,-0.472792 0.376869,-0.715096 0.04382,-0.104069 0.08397,-0.188871 0.11202,-0.299203 0.0044,-0.017 -0.0035,-0.03577 0.0014,-0.0526 0.01286,-0.04396 0.0339,-0.0851 0.05126,-0.127486 0.0068,-0.01668 0.02908,-0.06599 0.02131,-0.04971 -0.01907,0.03995 -0.03682,0.08052 -0.05524,0.120774 -0.02671,-0.09987 0.07068,-0.06192 0.09848,-0.09936 0.04013,-0.05404 0.06785,-0.116484 0.107059,-0.171188 0.03129,-0.04366 0.14142,-0.138843 0.168022,-0.170705 0.05136,-0.06151 0.09533,-0.128832 0.142991,-0.193249 0.215568,-0.350822 0.400923,-0.723954 0.527313,-1.116834 0.07083,-0.220178 0.132266,-0.443285 0.201585,-0.663943 0.0281,-0.07602 0.05259,-0.153469 0.08431,-0.228047 0.03863,-0.09082 0.09098,-0.175621 0.126559,-0.267685 0.196219,-0.507805 0.306958,-1.046466 0.387587,-1.582479 0.02687,-0.299038 0.0793,-0.804761 0.06405,-1.07429 -0.03405,-0.601665 -0.117758,-0.995912 -0.344455,-1.545035 -0.184359,-0.44657 -0.351422,-0.656338 -0.614255,-1.049004 -0.320858,-0.368709 -0.370702,-0.468739 -0.745898,-0.750485 -0.190642,-0.143158 -0.357446,-0.352027 -0.590084,-0.404161 -0.70342,-0.15764 -1.432078,-0.239955 -2.152341,-0.210429 -0.09447,0.0039 -0.652458,0.346947 -0.848246,0.46516 -0.19377,-0.02468 0.144226,-0.154516 -0.14018,-0.213697 -0.135581,-0.02822 -0.277033,-0.0115 -0.415411,-0.0061 -0.554036,0.02179 -0.598305,0.05031 -1.148144,0.1509 -0.885085,0.189665 -1.741295,0.492141 -2.532488,0.934677 -1.496253,0.836892 0.380297,-0.125271 -1.191029,0.661608 -0.380887,0.252651 -0.615907,0.38069 -0.93795,0.687815 -0.101588,0.09688 -0.186608,0.209771 -0.279291,0.315206 -0.03015,0.03429 -0.120613,0.137095 -0.08919,0.103969 0.04871,-0.05134 0.09404,-0.105764 0.141058,-0.158646 0.06847,-0.07139 0.136935,-0.14279 0.205403,-0.214186 0.329444,-0.03049 0.662123,-0.03622 0.988331,-0.09145 0.09749,-0.01651 -0.197076,-0.01652 -0.295516,-0.02585 -0.3202,-0.03036 -0.535487,-0.06217 -0.858001,-0.06444 -0.298767,-0.0021 -0.389057,0.01787 -0.668807,0.05372 -0.442417,0.01627 -0.963967,-0.20423 -1.327252,0.04879 -0.320712,0.223375 0.780363,0.04667 1.17097,0.06005 0.01507,5.17e-4 -0.02556,-0.01669 -0.03992,-0.0213 -0.06525,-0.02094 -0.131638,-0.03828 -0.198078,-0.05508 -0.06531,-0.01652 -0.130916,-0.03208 -0.197062,-0.04484 -0.0751,-0.0145 -0.150978,-0.0246 -0.226467,-0.03691 -0.815973,-0.137824 -1.541594,-0.189295 -2.393178,-0.01738 -0.181278,0.03659 -0.321463,0.182934 -0.482194,0.274401 -0.04608,0.03379 -0.08544,0.07954 -0.138245,0.101375 -0.0405,0.01675 0.134904,-0.111852 0.09988,-0.08551 -0.103961,0.0782 -0.20044,0.166296 -0.306822,0.241162 -0.144002,0.101339 -0.07874,0.0252 -0.213848,0.08321 -0.04919,0.02112 -0.09416,0.05098 -0.141232,0.07647 -0.304571,0.162186 -0.809806,0.513892 -0.917737,0.830008 -0.193669,0.567231 -0.244542,1.173556 -0.366813,1.760333 0.08324,0.281822 0.145415,0.570743 0.24972,0.845468 0.172138,0.45339 0.399518,0.777456 0.67935,1.166636 0.408082,0.567547 0.598325,0.821734 1.106526,1.316315 0.236592,0.230252 0.492622,0.439647 0.738934,0.659471 0.742076,0.521052 1.524589,1.032014 2.392139,1.322354 0.125078,0.04186 0.317422,0.06862 0.454529,0.09051 0.0854,-1.116121 0.142016,-1.821519 -0.130078,-3.330669 -0.03337,-0.185104 -0.288141,0.253864 -0.377569,0.419333 -0.175517,0.324757 -0.333569,0.668388 -0.405938,1.030377 -0.0724,0.362148 0.03254,0.903347 0.09464,1.292195 0.123984,0.614195 0.352217,1.195565 0.608026,1.764741 0.02092,0.02858 0.02736,0.08432 0.06274,0.08573 0.0283,0.0011 0.01754,-0.05425 0.02066,-0.08241 0.01188,-0.107284 0.0044,-0.21681 0.02423,-0.322912 0.03469,-0.185579 0.08125,-0.3693 0.138787,-0.549115 0.05804,-0.181426 0.183281,-0.33404 0.09471,-0.222904 -0.390481,0.635506 -0.417393,1.332116 -0.450784,2.049143 -0.0662,0.661286 -0.05044,1.328397 -0.04294,1.99219 0.0052,0.318701 0.01504,0.644018 0.107728,0.951851 0.01429,0.04747 0.03608,0.09239 0.05166,0.139449 0.01305,0.05143 0.0243,0.106552 0.0202,0.160038 -1.78e-4,0.0023 -0.003,0.0035 -0.0045,0.0053 -0.0023,0.0055 -0.007,0.0105 -0.0069,0.01645 0.002,0.111963 0.0089,0.223787 0.01337,0.335681 0.01315,0.455613 0.103002,0.910506 0.220689,1.349937 0.111999,0.328439 0.239072,0.652783 0.413559,0.953768 0.01049,0.0181 0.02725,0.03175 0.04087,0.04763 0.04597,0.08536 0.09193,0.170713 0.137899,0.256071 0.975394,1.275135 0.256574,0.624757 3.061933,0.961861 0.01078,0.0013 0.253218,-0.08555 0.259164,-0.08948 0.179763,-0.118839 0.349532,-0.252146 0.524298,-0.378219 0.150163,-0.15592 0.312559,-0.300922 0.450491,-0.467759 0.561658,-0.679363 1.018163,-1.751339 1.268392,-2.586568 0.08362,-0.279103 0.139493,-0.565777 0.20924,-0.848665 0.06165,-0.450556 0.173071,-1.182171 0.19256,-1.642572 0.0097,-0.229071 -0.0032,-0.458677 -0.01447,-0.687675 -0.0074,-0.150051 -0.02591,-0.299358 -0.04143,-0.448785 -0.009,-0.087 -0.03658,-0.173064 -0.03221,-0.260426 0.0032,-0.06499 0.0364,-0.124944 0.05459,-0.187416 0.08956,-0.245073 0.162071,-0.499234 0.264361,-0.739472 0.05612,-0.131791 0.128332,-0.256331 0.184443,-0.388122 0.15005,-0.352432 0.252611,-0.675732 0.376994,-1.03934 0.183335,-0.588701 0.330375,-1.19328 0.354756,-1.812108 0.006,-0.152274 -0.0034,-0.304895 -0.01273,-0.456998 -0.03035,-0.20946 -0.02489,-0.123065 -0.0292,-0.258055 -0.02577,-0.0094 -0.0251,0.182297 0.03862,0.187971 0.02894,0.0025 0.05099,-0.03041 0.07958,-0.03558 0.02228,-0.004 0.04745,0.01985 0.06733,0.009 0.229165,-0.182137 0.111952,-0.113713 0.344162,-0.217576 0.499477,-0.308226 1.01924,-0.597531 1.47199,-0.974644 0.116997,-0.09745 0.225372,-0.204812 0.338058,-0.307219 0.378699,-0.359693 0.655901,-0.799289 0.956749,-1.220718 0.0088,-0.0054 0.02053,-0.0077 0.02651,-0.01609 0.987909,-1.390787 -2.307303,-2.422749 -3.157881,-3.041894 -0.08267,-0.06017 -0.187798,0.08115 -0.283556,0.116993 -0.110207,0.04126 -0.222697,0.07614 -0.334046,0.114204 -0.510539,0.213627 -1.025846,0.414395 -1.54442,0.60761 -0.257161,0.09581 -0.511862,0.198751 -0.772363,0.285073 -2.19585,0.727626 0.333302,-0.193995 -1.911431,0.645523 -0.338271,0.152628 -0.684766,0.2882 -1.014811,0.457883 -0.814815,0.418914 -1.657346,0.964299 -2.238935,1.685025 -0.446052,0.552762 -0.461619,0.775009 -0.738137,1.477808 0.0311,1.454603 -0.203859,1.292108 0.581813,2.391111 0.09188,0.128524 0.230207,0.21707 0.354477,0.314626 0.04528,0.03555 0.181315,0.131997 0.151622,0.08268 -0.77322,-1.284233 -0.216399,0.399607 -0.694883,-1.703003 -0.282256,-0.427412 0.261929,-0.635245 0.287031,-0.97221 0.0041,-0.05519 -0.08005,0.0765 -0.118232,0.116569 -0.191551,0.201015 -0.319096,0.43382 -0.454072,0.674537 -0.04426,0.110903 -0.08851,0.221805 -0.132769,0.332708 -0.104456,0.291831 4.022659,1.769071 4.127116,1.47724 v 0 c -0.01314,0.03916 -0.02628,0.07831 -0.03942,0.117464 -0.02682,0.06419 -0.04513,0.104704 -0.03401,0.09794 0.01082,-0.0066 0.13076,-0.14484 0.13596,-0.152403 0.445818,-0.64835 0.273721,-0.371679 0.556778,-1.311101 -0.08179,-0.439829 -0.084,-0.902236 -0.245369,-1.319488 -0.10627,-0.274779 -0.352055,-0.472653 -0.536566,-0.702333 -0.01722,-0.02144 -0.07387,-0.07511 -0.06667,-0.04858 0.08644,0.318775 0.773501,0.377507 0.42054,0.897193 0.05401,0.38477 -0.03874,0.776118 -0.05812,1.164177 -0.06555,0.173834 -0.180927,0.336386 -0.19665,0.521502 -0.0044,0.05207 0.09609,0.05827 0.147951,0.05186 0.238301,-0.02944 0.878276,-0.304388 1.033488,-0.363951 1.362972,-0.523039 0.305761,-0.09284 1.789238,-0.716204 0.349302,-0.159781 0.707873,-0.300681 1.047905,-0.479342 0.331336,-0.174091 0.644837,-0.380311 0.963102,-0.577286 0.735813,-0.455399 1.448233,-0.950541 2.137022,-1.474019 0.08359,-0.07328 0.169211,-0.144319 0.250777,-0.219853 0.03308,-0.03064 0.125016,-0.06677 0.09286,-0.09837 -0.999295,-0.982077 -2.084183,-1.874015 -3.091129,-2.848245 -0.02792,-0.02701 0.02612,-0.07377 0.03119,-0.112285 0.0011,-0.0083 -0.0076,-0.02668 -0.01365,-0.02098 -0.04628,0.04337 -0.08054,0.098 -0.120816,0.147007 -0.01538,-0.05971 5.27e-4,-0.02354 -0.10014,0.0554 -0.132136,0.103623 -0.271559,0.194202 -0.413837,0.283494 -0.05594,0.03511 -0.113879,0.06691 -0.170819,0.10036 -0.609242,0.380962 -1.164682,0.834665 -1.7403,1.263265 -0.133604,0.123316 -0.465522,0.422026 -0.603233,0.574231 -0.49015,0.541743 -0.816787,1.094389 -1.007048,1.805576 -0.09656,0.325282 -0.0991,0.348052 -0.210764,0.667738 -0.0321,0.09189 -0.07246,0.180949 -0.100554,0.274142 -0.121157,0.401955 -0.09751,0.416117 -0.186694,0.828919 -0.03393,0.157036 -0.07367,0.312759 -0.110504,0.469139 -0.329085,1.353751 0.104679,-0.416677 -0.221682,0.872527 -0.03539,0.139805 -0.06171,0.281937 -0.101155,0.420652 -0.07421,0.260978 -0.181166,0.511805 -0.257503,0.77217 -0.04539,0.154826 -0.08111,0.312326 -0.121671,0.468488 -0.02917,0.164724 -0.05059,0.331011 -0.08752,0.494169 -0.03157,0.139472 -0.08058,0.27444 -0.117723,0.412532 -0.04187,0.155663 -0.08304,0.311577 -0.11928,0.468646 -0.157848,0.684079 -0.07418,0.38645 -0.197413,1.14727 -0.03486,0.215224 -0.07787,0.42905 -0.116798,0.643574 -0.247677,1.667521 0.0176,-0.203939 -0.15204,1.231589 -3.9e-4,0.0033 -0.098,0.476958 -0.05782,0.594815 0.03319,0.09736 0.560809,-0.405095 0.259156,-0.167535 0.118774,-0.08519 0.239505,-0.167726 0.356323,-0.255584 0.0028,-0.0022 -0.0057,-0.0067 -0.0091,-0.0055 -0.03399,0.01131 -0.06546,0.02927 -0.09911,0.04156 -0.0043,0.0016 -0.0185,-0.0011 -0.01392,-2.95e-4 2.725254,0.43414 2.01094,-0.291278 2.893031,0.944614 0.0228,0.04635 0.01691,0.134765 0.06838,0.139044 0.04733,0.0039 -0.02905,-0.09052 -0.04018,-0.136698 -0.0013,-0.0057 0.0043,-0.01154 0.0031,-0.01726 -0.02655,-0.123205 -0.07659,-0.237379 -0.102411,-0.36052 -0.06458,-0.232725 -0.122173,-0.474405 -0.209034,-0.699924 -0.0159,-0.04128 -0.04187,-0.07794 -0.0628,-0.116915 -0.01295,-0.0093 -0.03066,-0.01414 -0.03887,-0.02779 -0.01773,-0.02951 -0.02399,-0.06454 -0.03599,-0.09681 -0.01885,0.358832 -0.0099,0.181438 -0.02458,0.08359 -0.0018,-0.01195 -9.75e-4,0.02543 0.005,0.0359 0.0021,0.0036 0.0083,-6.78e-4 0.01242,-0.001 0.167294,-0.345294 0.164161,-0.748982 0.182812,-1.122945 0.01162,-0.716091 0.0206,-1.438559 -0.09757,-2.147235 -0.0042,-0.03085 -0.03737,-0.293781 -0.05299,-0.353628 -0.0041,-0.0159 -0.01175,-0.05442 -0.02376,-0.0432 -0.02474,0.02311 -0.022,0.06404 -0.03288,0.0961 -0.152482,0.448981 -0.05971,0.232277 -0.269734,0.640645 0.465774,-0.623921 0.493728,-1.451136 0.421916,-2.193782 -0.13154,-0.715421 -0.34278,-1.426377 -0.744658,-2.040558 -0.322925,0.02789 0.07062,-0.03479 -0.11286,0.657616 -0.08241,0.311012 -0.225548,0.605115 -0.380626,0.887021 -0.06788,0.123379 -0.268176,0.455761 -0.280899,0.315522 -0.367656,-4.052299 0.566507,-2.353369 -0.0523,-3.452635 -0.09097,-0.185646 -0.256287,-0.310754 -0.41219,-0.441327 -0.428695,-0.359043 -0.867586,-0.706238 -1.313842,-1.043135 -1.340117,-0.892088 0.158874,0.119928 -1.139388,-0.800306 -0.153613,-0.108885 -0.317067,-0.203594 -0.469128,-0.314636 -0.10881,-0.07946 -0.199308,-0.183318 -0.312612,-0.256224 -0.06337,-0.04078 -0.159838,-0.135987 -0.211137,-0.08079 -0.07728,0.08315 -0.01941,0.226209 -0.02912,0.339312 -0.143839,0.472409 -0.287677,0.944817 -0.431516,1.417226 -0.08601,0.105781 -0.195413,0.196239 -0.258028,0.317345 -0.01963,0.03799 0.08151,-0.02741 0.118877,-0.04821 0.181163,-0.100834 0.349273,-0.22978 0.511833,-0.357348 0.112019,-0.09429 0.168566,-0.135114 0.267194,-0.246754 0.0136,-0.01539 0.04881,-0.06426 0.03181,-0.05276 -0.08431,0.05704 -0.165808,0.1197 -0.237537,0.191932 -0.137108,0.138068 0.396868,-0.310969 0.07148,-0.0397 -0.141724,0.08261 -0.264213,0.216173 -0.425172,0.247831 -0.422749,0.08315 -0.859135,0.06797 -1.28945,0.08941 -0.02294,0.0011 -0.04624,-0.0092 -0.06534,-0.02192 -0.0095,-0.0064 0.02291,-3.92e-4 0.03422,0.0011 0.118087,0.01569 0.15975,0.03008 0.289308,0.0609 0.223239,0.05417 0.315463,0.0822 0.551567,0.11369 0.0809,0.01079 0.162833,0.01166 0.244046,0.01975 0.105002,0.01046 0.209245,0.02874 0.314525,0.03587 0.460632,0.03116 0.943915,-0.06432 1.382801,0.07897 0.318892,0.104115 -0.670269,0.0295 -1.005404,0.04424 0.220131,0.04904 0.252492,0.06295 0.50493,0.08253 0.310773,0.0241 0.458258,0.0088 0.772237,0.02118 1.279655,0.05027 -0.511291,0.07276 2.158135,-0.04686 0.233551,-0.08477 0.474167,-0.152153 0.700654,-0.254311 0.434847,-0.196141 0.455497,-0.302375 0.836514,-0.448121 0.0875,-0.03347 0.184081,-0.03929 0.271214,-0.07371 0.339925,-0.134275 0.574051,-0.286794 0.891832,-0.470682 0.14415,-0.101442 0.279497,-0.21672 0.43245,-0.304329 0.101009,-0.05785 0.215039,-0.08942 0.324435,-0.129198 0.571585,-0.207843 1.164688,-0.361203 1.759981,-0.48227 0.172152,-0.0356 0.345926,-0.0641 0.516456,-0.106798 0.715783,-0.17922 1.412455,-0.464159 2.024588,-0.878112 0.145197,0.002 -0.232203,0.219206 -0.377403,0.217579 -0.64249,-0.0072 -1.286898,-0.09535 -1.912187,-0.24319 -0.138517,-0.03275 -0.211276,-0.190814 -0.31864,-0.284264 -0.0055,-0.0047 -0.02366,-0.01573 -0.01934,-0.0099 0.01383,0.01863 0.03254,0.03308 0.04881,0.04961 0.08373,0.121167 0.155947,0.250378 0.244828,0.367821 0.03412,0.04508 0.06325,0.103271 0.115922,0.123807 0.04957,0.01933 0.137385,-0.113854 0.136526,-0.02443 -5.77e-4,0.06016 -0.03035,0.116433 -0.04553,0.17465 -0.178583,0.619413 -0.318858,1.248249 -0.425313,1.883977 -0.0035,0.03289 -0.0019,0.06674 -0.01052,0.09867 -0.0028,0.01065 -0.01718,0.01451 -0.02276,0.02404 -0.09154,0.15656 -0.183809,0.328162 -0.252314,0.496212 -0.0082,0.02021 -0.0092,0.04265 -0.01387,0.06397 -0.105748,0.205772 -0.189905,0.387052 -0.277962,0.556015 -0.03544,0.06394 -0.06908,0.128907 -0.106334,0.1918 -0.0053,0.0088 -0.01235,0.02865 -0.02078,0.02278 -0.01046,-0.0073 0.01013,-0.04367 -0.0014,-0.03822 -0.03494,0.01655 -0.0554,0.05401 -0.08484,0.07907 -0.1896,0.161331 0.0038,-0.04426 -0.249546,0.262287 -0.196566,0.266283 -0.368119,0.539756 -0.535969,0.824864 -0.16055,0.272708 -0.319679,0.544988 -0.43043,0.84311 -0.151751,0.40523 -0.284907,0.816652 -0.417765,1.227873 -0.07561,0.110892 -0.112068,0.24888 -0.142815,0.377929 -0.06841,0.287136 -0.105454,0.582445 -0.104162,0.877713 0.0111,0.330234 0.0064,0.669288 0.07235,0.994253 0.0022,-0.01448 0.01214,-0.0551 0.0028,-0.04385 -0.01293,0.01549 -0.01155,0.04024 -0.02533,0.05498 -0.005,0.0054 -0.01692,-0.0103 -0.02172,-0.0046 -0.07133,0.08373 -0.03276,0.240639 -0.13627,0.300535 -0.122213,0.304786 -0.220812,0.609496 -0.27144,0.93594 -0.01862,0.120058 -0.02193,0.241998 -0.03359,0.36293 -0.0234,0.242565 -0.01739,0.118809 -0.02255,0.263809 -0.05316,0.307834 -0.172963,0.602926 -0.182341,0.918688 -0.0054,0.06586 -0.01528,0.131514 -0.01612,0.197591 -7.3e-4,0.05706 0.01897,0.01637 0.0356,0.01499 0.0062,-5.08e-4 0.01284,0.01587 0.01529,0.01024 0.243504,-0.557676 0.09714,-0.277193 2.04e-4,-0.10808 -0.08685,0.149755 -0.139928,0.232257 -0.210717,0.397749 -0.174816,0.408692 -0.270435,0.848592 -0.319121,1.289025 -0.0048,0.341694 -0.029,0.678504 0.0016,1.020149 0.01032,0.115282 -0.0212,0.250272 0.04658,0.344093 0.134957,0.186805 -0.226725,-1.014695 0.02471,-0.690924 0.05996,-0.301441 0.0061,-0.06964 0.114228,-0.416687 0.0083,-0.0268 0.04597,-0.0695 0.02066,-0.08163 -0.0025,-0.0012 -0.209724,0.184436 -0.231181,0.206353 -0.01649,0.01564 -0.03299,0.03129 -0.04949,0.04693 -4.81e-4,-0.0028 9.75e-4,-0.0097 -0.0014,-0.0083 -0.01453,0.0086 -0.05258,0.04242 -0.03906,0.03229 0.09402,-0.07047 0.183651,-0.146962 0.280582,-0.213534 -0.03231,-0.06466 0.01576,0.0413 0.144282,-0.07743 0.02046,-0.0189 -0.0556,0.0047 -0.08345,0.0041 -0.02218,-4.14e-4 -0.04435,-0.0031 -0.0662,-0.0069 -0.02314,-0.004 -0.09194,-0.01615 -0.06845,-0.0167 0.334313,-0.0078 0.668796,-0.0033 1.003194,-0.005 -0.243375,0.0153 -0.484639,-0.01603 -0.727911,0.0041 -0.426774,0.0057 -0.861864,-0.06688 -1.280321,0.01716 -0.289634,0.05817 -0.527419,0.2663 -0.791399,0.398913 -0.01293,0.0065 -0.04997,0.02819 -0.03931,0.0184 0.06461,-0.05932 0.135235,-0.111749 0.202421,-0.168139 0.04319,-0.03625 0.119059,-0.05422 0.128711,-0.109785 0.0062,-0.03604 -0.07315,3.84e-4 -0.109738,5.76e-4 -0.08157,-0.0013 -0.163109,-0.01118 -0.24461,-0.0077 -0.323159,0.01388 -0.638974,0.08521 -0.939818,0.203259 -0.104633,0.04928 -0.209636,0.09777 -0.313901,0.147819 -0.199371,0.09571 0.134664,-0.05052 -0.221948,0.107893 -0.01766,0.0078 -0.068,0.03383 -0.05436,0.02015 0.02698,-0.02705 0.133001,-0.05164 0.09628,-0.06217 -0.04533,-0.013 -0.0877,0.0347 -0.131551,0.05206 -0.01748,0.0044 -0.04471,0.02941 -0.05243,0.01313 -0.0078,-0.01644 0.02623,-0.02593 0.04226,-0.03458 0.05225,-0.02821 0.102053,-0.07367 0.161408,-0.07537 0.9498,-0.02718 1.260108,-0.188789 1.882749,0.315556 0.147032,0.119096 0.259764,0.275193 0.389645,0.412791 5.4e-5,-0.0012 1.07e-4,-0.0024 1.61e-4,-0.0036 0.02776,0.04603 0.05552,0.09206 0.08328,0.138082 0.006,0.01037 -0.01429,-0.01928 -0.02051,-0.02952 -0.120875,-0.198843 -0.239972,-0.388426 -0.401739,-0.558263 -0.07597,-0.0857 -0.147079,-0.175973 -0.227911,-0.257106 -0.03608,-0.03622 0.06389,0.07993 0.09315,0.121848 0.0332,0.04756 0.06454,0.09647 0.09409,0.146381 0.0191,0.03227 0.03511,0.06627 0.05171,0.09989 0.0029,0.0059 0.0098,0.02402 0.0067,0.01831 -0.0087,-0.01606 -0.01567,-0.03299 -0.02351,-0.04948 -0.101276,-0.236694 -0.176039,-0.4901 -0.316223,-0.708264 -0.0068,-0.01045 -0.02149,-0.01247 -0.03224,-0.0187 -0.02756,-0.101623 -0.06181,-0.189459 -0.09224,-0.292548 -0.06442,-0.218265 -0.119972,-0.441156 -0.242114,-0.636321 -0.02487,-0.04907 -0.04786,-0.09915 -0.07462,-0.147222 -0.06415,-0.115243 -0.148248,-0.220424 -0.198018,-0.342567 -0.03446,-0.08457 0.09295,0.158168 0.151452,0.228286 0.06433,0.07711 -0.06013,-0.569879 -0.04122,-0.284883 -0.174831,-0.498479 0.07902,0.233665 -0.143896,-0.448172 -0.119219,-0.364659 -0.270191,-0.719622 -0.418304,-1.073018 -0.139884,-0.343181 -0.06997,-0.170673 -0.20972,-0.517533 -0.03439,-0.08443 0.03754,0.179512 0.07252,0.263694 0.01872,0.04505 -0.0068,-0.193722 0.01165,-0.145869 -7.44e-4,-0.205612 -0.04193,-0.403239 -0.06775,-0.606221 -0.01041,-0.08187 -0.01217,-0.164644 -0.02155,-0.246634 -0.0088,-0.07672 -0.02193,-0.152865 -0.03289,-0.229298 -0.02348,-0.146629 -0.03711,-0.294787 -0.06036,-0.441156 -0.0088,-0.05568 -0.02358,-0.110259 -0.03537,-0.165388 -0.0062,-0.01357 -0.0154,-0.02613 -0.01843,-0.04072 -0.0093,-0.04472 -0.01218,-0.09054 -0.01827,-0.135812 -0.0072,-0.02514 -0.0062,-0.05423 -0.02152,-0.07543 -0.0055,-0.0077 -0.01348,0.01431 -0.01605,0.02341 -0.01159,0.04108 -0.01458,0.08426 -0.02594,0.125406 -0.121226,0.439068 -0.284155,0.817665 -0.657727,1.145609 0.175204,-0.232225 0.399505,-0.434527 0.525612,-0.696676 0.277193,-0.576228 0.254238,-1.216278 0.169425,-1.826106 -0.102197,-0.46029 -0.241011,-0.910832 -0.386755,-1.359186 -0.07627,-0.170181 -0.160193,-0.335232 -0.236776,-0.505014 -0.03137,-0.06954 -0.05648,-0.142098 -0.09254,-0.209325 -0.01607,-0.02996 0.02246,0.06418 0.03217,0.09676 0.0054,0.01808 -0.0128,-0.0355 -0.0192,-0.05325 0.0057,0.02201 0.02336,0.08782 0.01703,0.06601 -0.04406,-0.15167 -0.07501,-0.306371 -0.107146,-0.461726 -0.145107,-0.480976 -0.328725,-0.958672 -0.605458,-1.38063 -0.04627,-0.06382 -0.187798,-0.268593 -0.258247,-0.335353 -0.01762,-0.0167 -0.04325,-0.02205 -0.06488,-0.03308 -0.03861,-0.03947 -0.07723,-0.07894 -0.11584,-0.118416 -0.0515,-0.05944 -0.09136,-0.128922 -0.146804,-0.184701 -0.01156,-0.01163 0.0073,0.03198 0.01091,0.04797 -0.111237,-0.160955 -0.228897,-0.316891 -0.339069,-0.478588 -0.244581,-0.46082 -0.519267,-0.911268 -0.911123,-1.26394 -0.06893,-0.06618 -0.246903,-0.243858 -0.32935,-0.296226 -0.01514,-0.0096 0.03904,0.04219 0.02241,0.0489 -0.02142,0.0086 -0.06987,-0.05465 -0.06069,-0.03346 0.04481,0.103434 0.13741,0.181512 0.174822,0.289483 0.01892,0.129717 -0.0012,-0.02017 -0.149424,-0.286477 -0.106184,-0.190801 -0.244676,-0.368976 -0.389744,-0.531522 -0.07216,-0.08085 -0.146375,-0.159837 -0.219563,-0.239755 -0.07425,-0.06816 -0.148501,-0.136315 -0.222752,-0.204473 -0.03402,-0.01663 -0.07174,-0.02719 -0.10206,-0.04987 -0.136606,-0.102219 -0.26997,-0.290052 -0.284544,-0.203364 0.123385,0.225313 0.246711,0.427833 0.28623,0.684322 0.0011,0.0074 -0.0083,-0.01257 -0.01026,-0.01969 -0.140082,-0.495193 0.0055,-0.08979 -0.276732,-0.75359 -0.08604,-0.125427 -0.163679,-0.257053 -0.258123,-0.37628 -0.182916,-0.230916 -0.440564,-0.446006 -0.698328,-0.589052 -0.04394,-0.02438 -0.130088,0.168777 -0.1442,-0.04394 0.171459,0.207159 0.404078,0.375826 0.515443,0.620593 0.434914,0.95589 0.268271,1.499995 0.311343,0.865803 0.0045,-0.119523 0.0113,-0.243438 -0.02082,-0.359125 -6.46e-4,-0.0023 0.003,0.0038 0.0046,0.0056 0.01215,-0.02851 0.0125,-0.06151 0.01534,-0.09198 0.0023,-0.02491 0.0122,-0.09913 0.0065,-0.07477 -0.03705,0.158739 -0.03779,0.125547 -0.02657,0.214433 -0.02117,0.08418 -0.04868,0.160419 -0.02925,0.166398 0.02656,0.0082 0.10905,-0.07797 0.121475,-0.09054 0.15888,-0.160793 0.197118,-0.219776 0.352317,-0.411647 0.186955,-0.279414 0.276782,-0.386865 0.409045,-0.727004 0.06853,-0.176224 0.311243,-0.662161 0.164571,-0.542837 -0.223842,0.182105 -0.319954,0.485482 -0.424615,0.754394 -0.01596,0.04101 0.08956,0.0091 0.131997,-0.0026 0.09046,-0.02481 0.173991,-0.07015 0.260986,-0.10523 0.400311,-0.240386 0.453966,-0.252366 0.845243,-0.592743 0.563079,-0.48983 1.004352,-1.087036 1.50296,-1.637408 0.158144,-0.16135 0.323979,-0.315446 0.475136,-0.48336 0.08647,-0.09606 0.217836,-0.261036 0.296763,-0.384092 0.002,-0.0032 -0.0024,-0.0085 3.4e-5,-0.01136 0.01573,-0.01846 0.03501,-0.03357 0.05251,-0.05035 -0.05199,0.05656 -0.126202,0.09885 -0.155975,0.169671 -0.01054,0.02508 0.05438,0.01278 0.08119,0.0082 0.06576,-0.01117 0.128583,-0.03556 0.192466,-0.05473 0.237302,-0.07124 0.460812,-0.172982 0.685264,-0.277313 0.190572,-0.08327 0.379542,-0.169304 0.558666,-0.275762 0.03394,-0.02017 0.137351,-0.05861 0.09852,-0.06572 -2.881513,-0.528085 -3.1849,-0.89031 -2.097637,-0.02707 0.248782,0.140147 0.725352,0.420993 1.014855,0.447179 2.496313,0.2258 0.814926,-0.06219 2.21701,0.201085 0.280797,0.03746 0.559815,0.09235 0.842391,0.112378 1.125864,0.0798 2.27279,-0.0031 3.355414,-0.339114 0.326641,-0.101377 0.96646,-0.405828 1.323181,-0.57081 0.64983,-0.386428 1.312982,-0.766689 1.778955,-1.380143 0.08943,-0.12597 0.185558,-0.247441 0.268286,-0.377909 0.349237,-0.550779 0.577991,-1.182686 0.588451,-1.839387 -0.02885,0.0948 -0.01742,0.06297 -0.07439,0.198432 -0.0077,0.0184 -0.01547,0.03692 -0.02545,0.05421 -0.0081,0.01395 -0.03413,0.05416 -0.0284,0.0391 0.32463,-0.854154 0.181932,-0.204267 0.272805,-1.415685 -0.106867,-0.307412 -0.15295,-0.642959 -0.319798,-0.9222474 -0.335444,-0.5615062 -0.8914,-0.9442207 -1.497446,-1.1434927 -0.222351,-0.07311 -0.436152,-0.098621 -0.667374,-0.1377765 -0.628128,-0.049268 -1.25157,-0.1080008 -1.879862,-0.01986 -0.133869,0.01878 -0.294463,-0.00705 -0.397467,0.080515 -0.05259,0.0447 0.0508,0.1283573 0.07619,0.1925363 0.367328,0.5537062 0.04024,0.02445 -1.666353,-0.2263598 -0.107437,-0.015788 -0.217155,-0.00383 -0.325744,-0.00428 -0.357388,-0.00165 -0.398665,-0.00442 -0.775208,0.036105 -0.155552,0.016755 -0.310261,0.04059 -0.465391,0.060885 -0.177594,0.033007 -0.356165,0.06114 -0.532785,0.099022 -0.405438,0.08695 -0.630276,0.1538205 -1.023468,0.286722 -1.311309,0.4432327 0.401916,-0.1306388 -0.751995,0.312096 -0.04505,0.01728 -0.09522,0.015645 -0.14283,0.023475 -0.537527,-0.056828 -1.074219,0.0901 -1.584668,0.244686 -0.07794,0.023272 -0.154667,0.05106 -0.233814,0.069817 -0.103646,0.024563 -0.395001,0.062363 -0.488435,0.074145 -0.33141,0.041813 -0.400379,0.038378 -0.752095,0.1122367 -0.160642,0.033735 -0.319008,0.07752 -0.478512,0.1162808 -0.448051,0.1517406 -0.622222,0.1988816 -1.052401,0.3909856 -0.173398,0.07743 -0.340275,0.16878 -0.512162,0.249513 -0.144199,0.06773 -0.293428,0.124693 -0.435984,0.195817 -0.366186,0.182698 -0.57753,0.319368 -0.923698,0.528431 -0.365536,0.263188 -0.537156,0.361656 -0.853926,0.6973 -0.387264,0.41034 -0.725898,0.905742 -0.921154,1.43839 -0.0692,0.188764 -0.110912,0.386495 -0.166367,0.579742 -0.0169,0.191856 -0.04757,0.382995 -0.05072,0.575569 -0.0078,0.477773 0.129028,0.933438 0.296879,1.373948 0.04322,0.106363 0.08313,0.214123 0.129638,0.319089 0.152405,0.34399 0.388741,0.646884 0.608878,0.948245 0.08442,0.09696 0.163047,0.199281 0.253264,0.29087 0.569018,0.577676 1.310092,0.901953 2.089846,1.086433 0.365893,0.06706 0.729068,0.121118 1.102302,0.126533 0.101264,0.0015 0.202276,-0.01171 0.303541,-0.01315 1.610585,-0.02294 0.91662,0.03373 1.659683,-0.03462 0.07367,-0.0087 0.147618,-0.01542 0.22102,-0.02621 0.109747,-0.01612 0.217317,-0.04651 0.327593,-0.05849 0.346391,-0.03763 -0.139691,0.02359 0.152358,0.02053 0.09136,-9.75e-4 0.182046,-0.0159 0.273069,-0.02385 0.594352,-0.05169 1.191408,-0.056 1.787198,-0.08034 1.147515,-0.05515 -0.424117,0.01567 0.786768,-0.02266 0.504733,-0.01598 1.005929,-0.07991 1.508839,-0.120603 0.274351,-0.0108 0.548885,-0.0178 0.82278,-0.03777 0.06965,-0.0051 0.27842,-0.01382 0.208715,-0.01798 -0.902312,-0.05371 -1.3105,0.04469 -0.871071,-0.05146 0.287423,-0.04781 0.438737,0.02747 0.718994,0.120343 0.924576,0.30638 0.103894,0.117559 2.001348,0.199088 0.183766,0.007 0.36742,0.02394 0.551298,0.02109 1.236078,-0.01916 2.388765,-0.363505 3.419575,-1.04959 0.381983,-0.277031 0.485978,-0.322626 0.801417,-0.663075 0.139464,-0.150522 0.273404,-0.306872 0.394999,-0.472164 0.09408,-0.127885 0.162232,-0.27312 0.250387,-0.405156 0.109788,-0.164436 0.257004,-0.3024 0.345323,-0.48227 0.068,-0.129195 0.144037,-0.254462 0.203975,-0.387584 0.08455,-0.187775 0.220038,-0.60716 0.283858,-0.80168 0.127204,-0.387711 0.249287,-0.777339 0.318303,-1.180639 0.01602,-0.134795 0.0377,-0.269037 0.04807,-0.404384 0.0087,-0.113622 0.0063,-0.227823 0.0091,-0.341743 0.0095,-0.384993 0.02081,-0.770702 -7.12e-4,-1.155497 -0.02804,-0.369044 -0.05623,-0.745206 -0.135119,-1.107586 C 34.838228,9.7375605 34.674242,9.3369533 34.47399,8.953086 34.233442,8.52357 34.02366,8.0703188 33.703513,7.6920825 33.565863,7.615893 33.670467,7.6872937 33.517072,7.4455304 33.415431,7.2853345 33.32815,7.1139371 33.205332,6.9693355 32.917606,6.6305753 32.568837,6.3513186 32.185078,6.1320213 32.083654,6.0881313 31.984441,6.0387324 31.880806,6.0003514 31.386715,5.8173633 30.847798,5.7281166 30.320792,5.7494278 c -0.06933,0.0028 -0.1375,0.018743 -0.20625,0.028114 -0.08188,0.090483 -0.01364,0.036742 -0.233385,-0.069137 C 29.471641,5.511088 29.030403,5.383119 28.598896,5.2447126 28.357617,5.1772904 27.990085,5.0604752 27.737015,5.046728 26.737983,4.9924595 25.742697,4.974437 24.75692,5.1512143 c -0.350793,0.091222 -0.488023,0.1071709 -0.811952,0.267423 -0.118535,0.05864 -0.229597,0.1315428 -0.340805,0.2031093 -0.124621,0.080198 -0.228906,0.196425 -0.36631,0.2519446 -0.08284,0.033471 0.267838,-0.1758097 0.118817,-0.2402539 -0.05606,-0.00809 -0.111579,-0.026372 -0.168181,-0.024279 -0.107564,0.00397 -0.214038,0.024125 -0.320123,0.042335 -0.411343,0.070609 -0.809704,0.1979429 -1.219698,0.2742651 -0.102708,0.028465 -0.204505,0.060446 -0.308122,0.085397 C 20.532994,6.205614 21.778169,5.8716819 20.696197,6.1481516 20.248926,6.26244 19.814949,6.4196643 19.398846,6.6200459 18.834605,6.894271 19.117789,6.749747 18.549769,7.0545434 c -0.08621,0.043062 -0.650433,0.2922574 -0.729669,0.3292732 -0.125331,0.058549 -0.24718,0.12446 -0.373228,0.1814495 -0.106862,0.048315 -0.216788,0.089545 -0.325183,0.1343182 -0.349076,0.1408913 -0.447814,0.185226 -0.809293,0.3121823 -0.143396,0.050363 -0.291621,0.0873 -0.43252,0.144273 -0.590387,0.2387257 -1.119153,0.5759317 -1.60106,0.9919605 -0.294603,0.3160027 -0.532711,0.5502375 -0.785863,0.8904389 -0.08139,0.109376 -0.149525,0.228019 -0.224641,0.341795 -0.194789,0.295044 -0.394867,0.587029 -0.56962,0.894739 -0.05893,0.09731 -0.12174,0.192373 -0.17681,0.291919 -0.102272,0.184872 -0.192945,0.375931 -0.290771,0.563194 -0.06116,0.117084 -0.130578,0.23003 -0.185914,0.349979 -0.0112,0.02428 -0.01388,0.05164 -0.02083,0.07746 -0.208986,0.366297 -0.445823,0.640432 -0.526112,1.106688 -0.0624,0.362378 0.02583,0.735247 0.02126,1.10293 -3.17e-4,0.02547 -0.0464,-0.07851 -0.06711,-0.03655 -0.05735,0.431407 0.102311,0.849563 0.139273,1.274921 0.05709,0.606224 0.167829,1.207724 0.489838,1.736891 0.06041,0.102383 0.129407,0.234996 0.211831,0.327117 0.01622,0.01813 0.0404,0.02735 0.05868,0.0434 0.02211,0.0194 0.04065,0.04258 0.06217,0.06264 0.02143,0.01998 0.03892,0.06704 0.06658,0.0574 0.02614,-0.0091 0.0043,-0.05522 0.0064,-0.08283 0.0018,-0.02701 -0.01525,-0.09844 0.0055,-0.08102 0.03547,0.02985 0.03447,0.08608 0.05171,0.129122 0.07331,0.183147 0.12614,0.375891 0.21993,0.549445 0.206867,0.382795 0.388599,0.586866 0.694885,0.864665 0.0727,0.06594 0.154342,0.1213 0.231512,0.181949 0.11175,0.06814 0.219331,0.14363 0.335248,0.204405 0.573981,0.300935 1.2132,0.510704 1.864538,0.520957 0.255119,-0.56499 -0.473301,1.134262 -0.466443,-0.911542 0.01416,-4.223967 -0.04007,-1.737548 0.905108,-2.893801 0.04744,-0.05803 -0.303068,-0.0045 -0.224455,-0.01334 0.411824,0.02927 1.086044,-0.297061 1.235472,0.08781 0.477332,1.22944 0.231559,2.627601 0.329426,3.942816 0.0061,0.08197 -0.0815,0.194096 -0.01773,0.245958 0.21389,0.173945 1.287611,0.188166 1.363135,0.188611 0.394883,0.0023 0.789256,-0.02878 1.183884,-0.04316 1.279036,-0.117793 2.558476,-0.22908 3.810543,-0.533324 0.490956,-0.119299 0.960802,-0.289541 1.437369,-0.451373 0.138406,-0.047 0.277,-0.09345 0.415501,-0.140173 0.656397,0.06593 1.320841,0.02961 1.969903,-0.08436 0.147822,-0.02839 0.297364,-0.04895 0.443464,-0.08517 0.624467,-0.154818 0.06989,-0.04324 0.483074,-0.169873 0.215777,-0.06614 0.441648,-0.08325 0.666022,-0.07085 0.225448,-0.01257 0.37556,-0.01411 0.602692,-0.05801 0.418201,-0.08084 0.390376,-0.100856 0.783886,-0.228343 0.163863,-0.05308 0.114137,-0.06708 0.193515,-0.03343 -0.368447,0.01651 -0.738811,0.0085 -1.105341,0.04951 -0.08046,0.009 0.158155,0.03529 0.23819,0.04751 0.115892,0.01768 0.233149,0.02527 0.349171,0.04207 0.16269,0.02356 0.323429,0.06068 0.486792,0.07899 0.75822,0.08498 1.580573,0.02192 2.316422,0.0099 0.350509,-0.09115 0.581417,-0.128038 0.900602,-0.294645 0.161451,-0.08427 0.637967,-0.342049 0.463806,-0.288791 -0.234349,0.07166 -0.404741,0.32543 -0.648987,0.345419 -1.312233,0.107391 -1.240902,0.104941 -1.841281,-0.308688 -0.114558,-0.131052 0.114035,0.109117 0.160806,0.01705 0.04629,-0.09112 -4.64e-4,-0.241177 -0.01374,-0.321425 -0.0024,-0.201118 -0.0074,-0.151098 0.0064,-0.313604 0.0044,-0.05231 -0.02339,0.137283 -0.0127,0.09191 -9.75e-4,0.0062 -0.02839,0.169256 -0.02096,0.160093 0.02504,-0.03086 0.02079,-0.07675 0.02911,-0.11561 0.0012,-0.0054 0.0019,-0.02157 -7.5e-4,-0.01666 -0.03464,0.06461 -0.04495,0.141119 -0.09621,0.197791 -0.06371,0.152045 -0.137201,0.300079 -0.19536,0.45433 -0.152739,0.405102 -0.222309,0.840727 -0.23299,1.272115 4.75e-4,0.136369 -0.007,0.272997 0.0014,0.409105 0.0024,0.0384 0.0074,0.08072 0.03081,0.111241 0.0089,0.01166 0.0234,-0.01948 0.02929,-0.03295 0.176075,-0.402212 0.305742,-0.826435 0.515718,-1.212034 0.175568,-0.322414 0.502414,-0.355137 0.248938,-0.317899 -0.136209,0.06854 -0.211892,0.109629 -0.346201,0.167517 -0.03557,0.01533 -0.0744,0.02352 -0.108129,0.04256 -0.169713,0.0958 -0.321793,0.222987 -0.494556,0.314275 0.02355,-0.109075 0.03012,-0.163092 0.272101,-0.164601 1.877863,-0.01172 2.120847,-0.193516 2.868323,1.721811 0.115168,0.295107 -0.116126,0.636649 -0.05173,0.948942 0.187696,-0.235966 0.25491,-0.517943 0.373702,-0.788675 0.0016,-0.0036 -0.0013,0.0078 -0.002,0.01174 0.01358,-0.01505 0.02716,-0.0301 0.04074,-0.04515 0.0032,0.0092 0.002,0.03371 0.0096,0.02757 0.03584,-0.0292 0.06175,-0.06913 0.08807,-0.107141 0.11305,-0.163233 0.206339,-0.337234 0.29567,-0.514051 0.01729,-0.03565 0.215232,-0.456247 0.216863,-0.501111 8.25e-4,-0.02347 -0.07096,0.126043 -0.02797,0.06465 0.03606,-0.07029 0.07244,-0.140417 0.108183,-0.210873 0.01667,-0.03286 0.02603,-0.07027 0.04902,-0.09905 0.01204,-0.01507 -0.02844,0.06945 -0.01462,0.05599 0.0281,-0.02737 0.03732,-0.06931 0.06067,-0.100833 0.0043,-0.0058 0.01337,-0.0055 0.02006,-0.0082 0.02774,-0.04577 0.05548,-0.09155 0.08322,-0.137319 0.01758,-0.02607 0.03516,-0.05214 0.05274,-0.07821 0.0082,-0.0073 0.01851,-0.01273 0.02467,-0.02182 0.07451,-0.10985 0.146403,-0.22939 0.209656,-0.346326 0.005,-0.0091 -0.01191,0.01696 -0.01787,0.02545 0.261555,-0.260801 0.485342,-0.559271 0.646044,-0.893048 0.02335,-0.04849 0.04995,-0.09555 0.07004,-0.145476 0.002,-0.0048 -0.0079,-0.0099 -0.0056,-0.01454 0.03937,-0.08054 0.08895,-0.15582 0.128311,-0.23637 0.108986,-0.223055 0.190091,-0.460856 0.243009,-0.703192 0.02036,-0.06191 0.06034,-0.229706 0.07727,-0.210188 0.0272,-0.06414 0.05273,-0.129023 0.08162,-0.192426 0.106059,-0.232797 -0.01767,0.04828 0.08706,-0.136869 0.125925,-0.22261 0.225197,-0.461906 0.303657,-0.704759 0.06668,-0.268021 0.08515,-0.316393 0.126574,-0.614447 0.04472,-0.321813 0.006,-0.178811 0.02882,-0.489794 0.0058,-0.07897 0.04076,-0.154228 0.03768,-0.23455 0.03966,-0.378823 0.05231,-0.763131 -0.0085,-1.140576 -0.01459,-0.06233 -0.02918,-0.124653 -0.04377,-0.18698 -0.01016,-0.01933 -0.02519,-0.03681 -0.03049,-0.05799 -0.177941,-0.709401 0.08804,0.235264 -0.06233,-0.333035 -5.98e-4,-0.0023 -0.0044,0.0016 -0.0066,0.0023 0.0016,0.05255 0.0031,0.105113 0.0046,0.157669 -0.0081,-0.120633 -0.01624,-0.241265 -0.02437,-0.361898 -0.0099,-0.07034 -0.0236,-0.140253 -0.02964,-0.211029 -0.0041,-0.04852 0.01979,-0.09703 0.0075,-0.145913 -0.02011,-0.206357 -0.03778,-0.254141 -0.08391,-0.458383 -0.03249,-0.111164 -0.10895,-0.376814 -0.14025,-0.460172 -0.01995,-0.05313 -0.04336,-0.105753 -0.07515,-0.15276 -0.03101,-0.04585 -0.03753,0.03618 -0.0544,-0.03137 -0.01043,-0.04177 -0.01109,-0.08539 -0.01663,-0.128079 -0.0035,-0.0263 -0.0096,-0.103062 -0.01738,-0.0777 -0.0084,0.02722 -0.01012,0.112802 -0.01303,0.08446 -0.0075,-0.07339 0.0012,-0.147592 -9.75e-4,-0.22134 -0.0077,-0.254988 -0.01119,-0.23374 -0.04442,-0.481493 C 37.437797,10.476283 37.384709,10.298945 37.268297,9.9418525 37.170553,9.7022627 37.083871,9.4562365 36.961762,9.227977 36.912269,9.1189255 36.868032,9.0073345 36.813289,8.9008225 36.74933,8.7763765 36.653418,8.6536412 36.578596,8.5355822 36.407731,8.265976 36.617304,8.5827797 36.473032,8.3352347 36.437452,8.2741847 36.397066,8.2160717 36.359083,8.1564895 36.251341,8.0302412 36.140463,7.9064342 36.034256,7.7789057 35.930376,7.654171 35.832695,7.502473 35.690884,7.4137702 c -0.01756,-0.00774 -0.03857,-0.0087 -0.05388,-0.020268 -0.06151,-0.046476 -0.232863,-0.3156347 -0.266035,-0.3588704 -0.0081,-0.0106 0.01273,0.023487 0.01911,0.03523 -0.214044,-0.2985343 -0.441507,-0.5791847 -0.738136,-0.8009922 -0.0419,-0.028381 -0.17391,-0.148993 -0.259541,-0.123666 -0.02188,0.00647 -0.03913,0.036452 -0.03492,0.05888 0.01747,0.093207 0.152641,0.3439084 0.09614,0.2677526 C 34.312618,6.282004 34.264828,6.0347527 34.116948,5.8475851 33.981768,5.6757226 33.918181,5.5743611 33.763985,5.4378913 33.734521,5.4118138 33.699077,5.3933839 33.667169,5.3703598 33.50937,5.2564937 33.347566,5.1564083 33.184935,5.0497595 c -0.13514,-0.059367 -0.01114,0.00163 -0.193331,-0.1255336 -0.003,-0.00209 -0.0096,-0.00256 -0.01091,8.475e-4 -0.0022,0.00563 0.009,0.02072 0.0038,0.017679 -0.100961,-0.058952 -0.157092,-0.1841508 -0.262056,-0.2331291 -0.09626,-0.028174 -0.02197,5.22e-4 -0.154031,-0.105437 -0.150639,-0.1208636 -0.28622,-0.2609789 -0.44944,-0.3664005 -0.0632,-0.022165 -0.199346,-0.1514628 -0.253881,-0.1431617 -0.03394,0.00517 0.04763,0.1117442 0.01473,0.1019341 -0.03203,-0.00955 -0.04901,-0.045442 -0.07351,-0.068162 C 31.51813,3.7517794 31.117561,3.4781159 30.700486,3.2623211 30.459262,3.0997109 30.183215,2.9688504 29.906338,2.8812414 c -0.09922,-0.031394 -0.203885,-0.042386 -0.304362,-0.069472 -0.09195,-0.024787 -0.18162,-0.057345 -0.27243,-0.086017 -0.09624,-0.036725 -0.192483,-0.07345 -0.288724,-0.1101757 -0.04097,0.00166 -0.08331,0.015582 -0.122916,0.00497 -0.07008,-0.018781 -0.132978,-0.05827 -0.197786,-0.090898 C 28.502012,2.4198425 28.303986,2.2733922 28.076782,2.1809671 27.955761,2.150565 27.83219,2.1298008 27.712777,2.0935939 27.527536,2.0374282 27.355309,1.9435547 27.170711,1.8853107 27.040055,1.8440863 26.76289,1.8111322 26.638095,1.793349 c -0.493152,0.00437 -0.986516,-0.002 -1.479456,0.013114 -0.02992,9.15e-4 -0.283304,0.060085 -0.33378,0.066775 -0.02019,0.00268 -0.04219,0.00592 -0.06108,-0.0017 -0.0073,-0.00292 -0.009,-0.023427 -0.0012,-0.023395 0.376244,0.00158 0.752261,0.018757 1.128391,0.028135 0.16397,0.1240858 0.319855,0.264393 0.454626,0.4198834 0.01637,0.018878 0.05645,0.080907 0.03709,0.065122 C 26.293003,2.2881871 26.215269,2.2015558 26.131568,2.1216875 25.959847,2.0026031 25.57924,1.7072045 25.355847,1.6777351 24.419684,1.5542387 23.61987,1.5868888 22.729494,1.7875464 c -0.518962,0.1605647 -0.29836,0.0789 -0.783556,0.279916 -0.213129,0.088299 -0.424036,0.1720135 -0.61577,0.30192 -0.02189,0.014833 0.04391,-0.029476 0.06587,-0.044215 0.01571,-0.014506 0.06527,-0.032188 0.04714,-0.043516 -0.03345,-0.020892 -0.07916,-0.00572 -0.118304,-9.376e-4 -0.09678,0.011827 -0.192862,0.029692 -0.288095,0.050603 -0.300765,0.066044 -0.593035,0.168102 -0.889248,0.2508037 -0.240933,0.092107 -0.414323,0.1511299 -0.643574,0.2660948 -0.377637,0.1893779 -0.726124,0.4340583 -1.070793,0.6762848 -0.06789,0.054658 -0.134394,0.1110863 -0.203671,0.1639764 -0.0158,0.012059 -0.04658,0.049919 -0.05117,0.030586 -0.0066,-0.027628 0.0393,-0.046509 0.04064,-0.074875 0.0034,-0.071295 -0.28956,0.048512 -0.292123,0.045744 -0.415922,0.1435185 -0.785985,0.3728078 -1.147547,0.6207961 -0.09844,0.067519 -0.198611,0.1328511 -0.292809,0.2061733 -0.10752,0.083692 -0.207824,0.1762636 -0.311736,0.2643954 -0.276258,0.2910614 -0.550179,0.5837404 -0.797644,0.9002585 -0.06563,0.083944 -0.252156,0.3326677 -0.315128,0.4504395 -0.004,0.00756 0.0044,0.016568 0.0066,0.024852 0.06793,-0.067137 0.08505,-0.092568 0.168117,-0.1410629 0.05753,-0.03359 0.223998,-0.1398774 0.177183,-0.092477 -0.393826,0.3987486 -0.832819,0.751342 -1.224153,1.1525357 -0.120328,0.12336 -0.155797,0.3126674 -0.285568,0.4309525 -0.13134,0.241605 -0.157172,0.2708497 -0.257039,0.5274383 -0.02996,0.076981 -0.06559,0.1532917 -0.07952,0.2347139 -0.0022,0.01284 0.02744,0.019478 0.03745,0.011152 0.855641,-0.7113607 -0.593107,0.3453031 0.650648,-0.5310232 0.02963,-0.02853 0.122985,-0.06258 0.08889,-0.085584 -0.05783,-0.039015 -0.140428,-0.00705 -0.209246,0.00435 -0.369335,0.061447 -0.998082,0.240741 -1.21365,0.520953 -1.155801,1.5024 -0.968585,1.4500448 -0.847114,2.8658914 0.175784,0.584905 0.18165,0.732673 0.508594,1.27262 0.657621,1.086061 1.633921,1.909363 2.738152,2.514388 0.305106,0.155533 0.573907,0.439784 0.915318,0.466598 0.721623,0.05668 1.47423,0.007 2.15984,-0.225069 0.334812,-0.113366 0.521011,-0.481716 0.742107,-0.757519 0.214657,-0.267773 0.327517,-0.680491 0.417913,-1.010779 0.0175,-0.10266 0.03978,-0.204619 0.0525,-0.307981 0.0064,-0.05183 0.001,-0.104498 0.0047,-0.156593 0.001,-0.01547 0.01115,-0.06099 0.0094,-0.04558 -0.01379,0.118371 -0.0264,0.142588 0.0471,-0.0068 0.12484,-0.197471 0.236184,-0.402423 0.354926,-0.604113 0.322837,-0.548364 0.05599,-0.03664 0.40076,-0.746166 0.12546,-0.360268 0.255315,-0.706713 0.346069,-1.07842 0.141051,-0.5777144 0.24184,-1.2300329 0.226986,-1.8265582 -0.004,-0.1606672 -0.0343,-0.3195982 -0.05146,-0.479397 0.0296,-0.319428 -4.487795,-0.7380594 -4.517397,-0.4186312 z" />
      <path
         style="fill:#678a9b;stroke-width:0.75"
         id="path5414"
         d="m 19.338664,19.791659 c -0.12156,-0.100633 -0.235179,-0.211715 -0.364682,-0.301899 -0.399142,-0.277959 -0.869437,-0.504911 -1.334725,-0.648057 -0.292287,-0.08992 -0.25412,-0.126129 -0.249435,0.06695 0.441459,0.785735 0.03724,0.002 0.430636,1.036365 0.0046,0.01211 0.03862,0.01526 0.03878,0.0023 0.0059,-0.488435 -0.121488,-0.913722 -0.280086,-1.367699 -0.08725,0.0032 -0.03064,-0.163516 -0.0958,-0.195341 -0.0103,-0.005 -0.007,0.02179 -0.01062,0.03269 -0.03392,-0.313393 -4.465958,0.166234 -4.432043,0.479627 v 0 c 0.03451,0.376503 0.07358,0.750409 0.208467,1.107678 0.02655,0.05263 0.03708,0.117108 0.07964,0.157886 0.0011,0.0011 0.08567,-0.08794 0.08698,-0.08381 0.03513,0.111514 0.02423,0.233203 0.05089,0.34704 0.227117,0.969786 0.134279,0.687764 0.585411,1.466149 0.232055,0.285146 0.328112,0.434553 0.604871,0.664026 0.433836,0.359714 0.951316,0.645092 1.485373,0.824332 0.173847,0.05835 0.356028,0.08805 0.534041,0.132077 0.263068,0.188253 2.92537,-3.532079 2.662302,-3.720333 z" />
      <path
         id="path4986"
         d="m 28.225807,48.98221 c 0,-0.56238 -0.4554,-1.01778 -1.01779,-1.01778 h -4.41719 c -0.56238,0 -1.01778,0.4554 -1.01778,1.01778 0,0.56239 0.4554,1.01779 1.01778,1.01779 h 4.41719 c 0.56239,0 1.01779,-0.4554 1.01779,-1.01779 z m 2.20926,-3.21633 c 0,-0.56239 -0.4554,-1.01779 -1.01779,-1.01779 l -8.83486,-4.8e-4 c -0.56239,0 -1.01779,0.4554 -1.01779,1.01778 0,0.56239 0.4554,1.01779 1.01779,1.01779 h 8.83535 c 0.56191,4.8e-4 1.01731,-0.4554 1.01731,-1.01731 z m -1.01798,-4.23432 h -8.83438 c -0.56238,0 -1.01779,0.4554 -1.01779,1.01779 0,0.56239 0.45541,1.01779 1.01779,1.01779 h 8.83535 c 0.56239,0 1.01779,-0.4554 1.01779,-1.01779 0,-0.56239 -0.45588,-1.01779 -1.01874,-1.01779 z m 4.07071,-26.61535 c 0,0.56238 0.4554,1.01779 1.01779,1.01779 0.56238,0 1.01779,-0.45541 1.01779,-1.01779 0,-1.30084 -0.23622,-2.57198 -0.70158,-3.77865 -0.20214,-0.52404 -0.79055,-0.78442 -1.31598,-0.58275 -0.52451,0.20215 -0.78583,0.79199 -0.58274,1.31599 0.37493,0.97139 0.56476,1.99585 0.56476,3.04534 z m -8.48802,-8.48802 c 2.03184,0 3.99921,0.73234 5.53963,2.06262 0.19267,0.16616 0.4289,0.24759 0.66512,0.24759 0.28593,0 0.56949,-0.1193 0.77116,-0.35269 0.36783,-0.42557 0.32048,-1.06797 -0.1051,-1.43583 -1.91065,-1.64925 -4.35005,-2.55768 -6.87076,-2.55768 -0.56239,0 -1.01779,0.4554 -1.01779,1.01779 0,0.56238 0.4554,1.01826 1.01779,1.01826 z m -14.89161,7.64091 c -0.2400099,4.32921 1.40215,8.53953 4.50626,11.55069 2.44607,2.37263 3.8487,5.6395 3.8487,8.96369 v 1.91623 c 0,2.03511 1.65543,3.69054 3.69054,3.69054 h 5.69209 c 2.03512,0 3.69055,-1.65543 3.69055,-3.69054 v -1.91538 c 0,-3.36625 1.36761,-6.60003 3.75211,-8.87183 2.98329,-2.84271 4.62648,-6.67723 4.62648,-10.79666 C 39.914897,6.69116 33.223967,0 24.999047,0 c -0.56144,0 -1.1314,0.0312 -1.69385,0.0937 -7.1255,0.7882 -12.79868,6.79648 -13.19739,13.97543 z M 23.603687,2.7929 c 0.46439,-0.0516 0.934,-0.0772 1.39609,-0.0772 6.7274,0 12.20123,5.47286 12.20123,12.20123 0,3.36964 -1.34398,6.50538 -3.78435,8.8311 -2.91942,2.78164 -4.59424,6.73165 -4.59424,10.83738 v 1.91538 c 0,0.53825 -0.43836,0.97614 -0.97614,0.97614 h -5.69208 c -0.53825,0 -0.97614,-0.43837 -0.97614,-0.97614 v -1.91623 c 0,-4.05362 -1.7033,-8.03065 -4.67326,-10.91215 -2.53877,-2.46303 -3.88275,-5.90841 -3.68582,-9.45171 0.3257,-5.87096 4.96254,-10.78332 10.78527,-11.4272 z"
         style="stroke-width:0.121188" />
    </g>
  </g>
</svg>
