<?xml version="1.0" encoding="UTF-8" standalone="no"?>
<svg
   width="50pt"
   height="50pt"
   version="1.1"
   viewBox="0 0 50 50"
   id="svg5959"
   sodipodi:docname="litter.svg"
   inkscape:version="1.2.2 (b0a8486541, 2022-12-01)"
   xmlns:inkscape="http://www.inkscape.org/namespaces/inkscape"
   xmlns:sodipodi="http://sodipodi.sourceforge.net/DTD/sodipodi-0.dtd"
   xmlns="http://www.w3.org/2000/svg"
   xmlns:svg="http://www.w3.org/2000/svg">
  <defs
     id="defs5963" />
  <sodipodi:namedview
     id="namedview5961"
     pagecolor="#ffffff"
     bordercolor="#000000"
     borderopacity="0.25"
     inkscape:showpageshadow="2"
     inkscape:pageopacity="0.0"
     inkscape:pagecheckerboard="0"
     inkscape:deskcolor="#d1d1d1"
     inkscape:document-units="pt"
     showgrid="false"
     inkscape:zoom="8.6788396"
     inkscape:cx="32.838491"
     inkscape:cy="53.175312"
     inkscape:window-width="3740"
     inkscape:window-height="1476"
     inkscape:window-x="1112"
     inkscape:window-y="56"
     inkscape:window-maximized="1"
     inkscape:current-layer="svg5959" />
  <g
     id="g5957"
     transform="matrix(0.08928576,0,0,0.08928576,-6.2505475,-0.0031575)">
    <path
       d="m 614.45,468.38 h -12.91 c -4.8203,-23.488 -27.379,-124.75 -61.445,-179.36 -26.297,-40.613 -38.84,-88.605 -35.777,-136.89 0.15625,-36.246 0.3125,-70.465 -50.246,-87.422 -22.766,-7.4062 -47.609,-4.7461 -68.289,7.3125 -40.133,21.465 -77.156,72.488 -108.89,131.6 l 0.004,-0.004 c -18.832,-1.5625 -37.715,2.2656 -54.445,11.047 -84.777,43.867 -115.73,205.02 -123.200004,253.71 h -13.691 c -5.5547,0 -10.691,2.9648 -13.469,7.7773 -2.7812,4.8125 -2.7812,10.742 0,15.555 2.7773,4.8125 7.9141,7.7773 13.469,7.7773 H 614.45091 c 5.5547,0 10.691,-2.9648 13.469,-7.7773 2.7812,-4.8125 2.7812,-10.742 0,-15.555 -2.7773,-4.8125 -7.9141,-7.7773 -13.469,-7.7773 z M 400.41,99.4 400.406,99.3961 c 13.23,-7.8633 29.18,-9.7305 43.867,-5.1328 27.844,9.332 29.09,20.379 28.934,57.711 -3.1914,54.199 11.035,108 40.602,153.54 11.266,19.262 20.492,39.645 27.535,60.82 -21.523,-19.281 -50.766,-27.496 -79.18,-22.242 -36.555,6.2227 -39.82,-2.0234 -50.555,-29.246 -12.98,-40.508 -41.594,-74.16 -79.488,-93.488 -7.6875,-4.1445 -15.637,-7.7852 -23.801,-10.887 27.688,-50.867 59.109,-93.492 92.086,-111.07 z M 205.66,468.38 h -74.98 c 10.422,-65.023 42.934,-193.51 106.09,-226.02 h -0.004 c 7.5547,-3.9766 15.785,-6.5078 24.27,-7.4648 10.969,-1.0625 22.035,0.15625 32.512,3.5781 8.2617,2.6055 16.234,6.0469 23.801,10.266 31.453,15.805 55.062,43.797 65.332,77.465 11.512,28.934 23.18,58.957 84.621,48.688 58.488,-9.8008 88.355,59.109 99.398,93.488 z"
       id="path5947" />
    <path
       d="m 252.11,286.27 c -2.918,-2.918 -6.875,-4.5586 -11,-4.5586 -4.125,0 -8.082,1.6406 -10.996,4.5586 -11.832,10.953 -19.027,26.02 -20.113,42.109 0.008,4.0352 1.6055,7.9062 4.4414,10.777 2.8398,2.8672 6.6914,4.5078 10.727,4.5664 h 0.38672 c 4.0117,-0.0469 7.8555,-1.6211 10.746,-4.4062 2.8906,-2.7852 4.6094,-6.5664 4.8008,-10.574 1.1641,-7.9023 5.0586,-15.148 11.008,-20.477 2.918,-2.918 4.5586,-6.875 4.5586,-11 0,-4.125 -1.6406,-8.082 -4.5586,-10.996 z"
       id="path5949" />
    <path
       d="m 276.78,332.94 c -11.832,10.957 -19.031,26.023 -20.113,42.109 0.008,4.0391 1.6055,7.9102 4.4414,10.777 2.8359,2.8711 6.6914,4.5117 10.727,4.5664 h 0.38672 c 4.0117,-0.043 7.8555,-1.6211 10.746,-4.4023 2.8906,-2.7852 4.6055,-6.5664 4.8008,-10.574 1.1602,-7.9023 5.0547,-15.148 11.008,-20.477 3.8867,-3.9375 5.3906,-9.6445 3.9453,-14.988 -1.4414,-5.3398 -5.6133,-9.5156 -10.957,-10.957 -5.3398,-1.4453 -11.047,0.0586 -14.984,3.9453 z"
       id="path5951" />
    <path
       d="m 409.95,173.77 c 0,5.5547 2.9648,10.691 7.7773,13.469 4.8125,2.7812 10.742,2.7812 15.555,0 4.8125,-2.7773 7.7773,-7.9141 7.7773,-13.469 0.62109,-16.113 -4.9453,-31.852 -15.555,-43.996 -2.8633,-2.8438 -6.7266,-4.4531 -10.762,-4.4727 -4.0352,-0.0234 -7.918,1.5391 -10.809,4.3516 -2.9258,2.8438 -4.6328,6.7109 -4.7578,10.789 -0.12891,4.0781 1.332,8.043 4.0742,11.062 4.7656,6.4102 7.1367,14.289 6.6992,22.266 z"
       id="path5953" />
    <path
       d="m 469.13,396.91 c -4.0234,-0.44531 -8.0586,0.73047 -11.215,3.2695 -3.1562,2.5352 -5.168,6.2266 -5.5938,10.25 -0.47266,4.0547 0.64844,8.1328 3.1211,11.375 2.4766,3.2422 6.1133,5.3984 10.145,6.0117 7.75,1.9609 14.562,6.5742 19.258,13.043 2.5977,3.2109 6.3711,5.2578 10.48,5.6836 4.1133,0.42578 8.2227,-0.80078 11.43,-3.4102 3.2031,-2.6094 5.2383,-6.3867 5.6523,-10.5 0.41406,-4.1094 -0.82422,-8.2188 -3.4414,-11.414 -9.6914,-12.891 -23.941,-21.586 -39.836,-24.309 z"
       id="path5955" />
  </g>
</svg>
