<?xml version="1.0" encoding="UTF-8" standalone="no"?>
<svg
   width="50pt"
   height="50pt"
   version="1.1"
   viewBox="0 0 50 50"
   id="svg11261"
   sodipodi:docname="tv_active.svg"
   inkscape:version="1.2.2 (b0a8486541, 2022-12-01)"
   xmlns:inkscape="http://www.inkscape.org/namespaces/inkscape"
   xmlns:sodipodi="http://sodipodi.sourceforge.net/DTD/sodipodi-0.dtd"
   xmlns="http://www.w3.org/2000/svg"
   xmlns:svg="http://www.w3.org/2000/svg">
  <sodipodi:namedview
     id="namedview11263"
     pagecolor="#ffffff"
     bordercolor="#000000"
     borderopacity="0.25"
     inkscape:showpageshadow="2"
     inkscape:pageopacity="0.0"
     inkscape:pagecheckerboard="0"
     inkscape:deskcolor="#d1d1d1"
     inkscape:document-units="pt"
     showgrid="false"
     inkscape:zoom="8.6261189"
     inkscape:cx="20.866858"
     inkscape:cy="33.444937"
     inkscape:window-width="1836"
     inkscape:window-height="1476"
     inkscape:window-x="3016"
     inkscape:window-y="56"
     inkscape:window-maximized="1"
     inkscape:current-layer="g11259" />
  <defs
     id="defs11209">
    <symbol
       id="o"
       overflow="visible">
      <path
         d="m 36.078,-2.1562 c -1.8672,0.96875 -3.8086,1.6992 -5.8281,2.1875 -2.0117,0.48828 -4.1094,0.73438 -6.2969,0.73438 -6.543,0 -11.727,-1.8281 -15.547,-5.4844 -3.8125,-3.6562 -5.7188,-8.6133 -5.7188,-14.875 0,-6.2695 1.9062,-11.234 5.7188,-14.891 3.8203,-3.6562 9.0039,-5.4844 15.547,-5.4844 2.1875,0 4.2852,0.25 6.2969,0.75 2.0195,0.49219 3.9609,1.2148 5.8281,2.1719 v 8.125 c -1.875,-1.2812 -3.7266,-2.2188 -5.5469,-2.8125 -1.8242,-0.59375 -3.7461,-0.89062 -5.7656,-0.89062 -3.6172,0 -6.4609,1.1562 -8.5312,3.4688 -2.0625,2.3125 -3.0938,5.5 -3.0938,9.5625 0,4.0547 1.0312,7.2344 3.0938,9.5469 2.0703,2.3125 4.9141,3.4688 8.5312,3.4688 2.0195,0 3.9414,-0.29688 5.7656,-0.89062 1.8203,-0.59375 3.6719,-1.5312 5.5469,-2.8125 z"
         id="path11164" />
    </symbol>
    <symbol
       id="i"
       overflow="visible">
      <path
         d="m 26.391,-21.422 c -0.82422,-0.38281 -1.6406,-0.67188 -2.4531,-0.85938 -0.8125,-0.1875 -1.6328,-0.28125 -2.4531,-0.28125 -2.4297,0 -4.293,0.77734 -5.5938,2.3281 -1.3047,1.5547 -1.9531,3.7773 -1.9531,6.6719 v 13.562 H 4.516 v -29.453 h 9.4219 v 4.8438 c 1.207,-1.9258 2.5938,-3.332 4.1562,-4.2188 1.5703,-0.88281 3.4531,-1.3281 5.6406,-1.3281 0.32031,0 0.66406,0.01563 1.0312,0.04687 0.36328,0.02344 0.89844,0.07422 1.6094,0.15625 z"
         id="path11167" />
    </symbol>
    <symbol
       id="b"
       overflow="visible">
      <path
         d="m 33.922,-14.797 v 2.6719 H 11.906 c 0.22656,2.2109 1.0234,3.8672 2.3906,4.9688 1.375,1.1055 3.2852,1.6562 5.7344,1.6562 1.9766,0 4.0039,-0.28906 6.0781,-0.875 2.082,-0.58203 4.2188,-1.4727 6.4062,-2.6719 v 7.2656 c -2.2188,0.83594 -4.4453,1.4648 -6.6719,1.8906 -2.2305,0.4375 -4.4531,0.65625 -6.6719,0.65625 -5.3359,0 -9.4805,-1.3516 -12.438,-4.0625 -2.9492,-2.707 -4.4219,-6.5078 -4.4219,-11.406 0,-4.8008 1.4453,-8.5781 4.3438,-11.328 2.9062,-2.75 6.8984,-4.125 11.984,-4.125 4.625,0 8.3281,1.3984 11.109,4.1875 2.7812,2.7812 4.1719,6.5078 4.1719,11.172 z m -9.6875,-3.1406 c 0,-1.7812 -0.52344,-3.2188 -1.5625,-4.3125 -1.043,-1.0938 -2.4023,-1.6406 -4.0781,-1.6406 -1.8242,0 -3.3086,0.51172 -4.4531,1.5312 -1.1367,1.0234 -1.8438,2.4961 -2.125,4.4219 z"
         id="path11170" />
    </symbol>
    <symbol
       id="h"
       overflow="visible">
      <path
         d="m 17.719,-13.25 c -1.9609,0 -3.4375,0.33594 -4.4375,1 -0.99219,0.66797 -1.4844,1.6484 -1.4844,2.9375 0,1.1992 0.39844,2.1367 1.2031,2.8125 0.80078,0.66797 1.9102,1 3.3281,1 1.7695,0 3.2578,-0.63281 4.4688,-1.9062 1.207,-1.2695 1.8125,-2.8594 1.8125,-4.7656 v -1.0781 z m 14.375,-3.5469 V 1e-4 h -9.4844 v -4.3594 c -1.2617,1.7812 -2.6836,3.0859 -4.2656,3.9062 -1.5742,0.8125 -3.4922,1.2188 -5.75,1.2188 -3.0547,0 -5.5312,-0.89062 -7.4375,-2.6719 -1.8984,-1.7812 -2.8438,-4.0859 -2.8438,-6.9219 0,-3.457 1.1875,-5.9883 3.5625,-7.5938 2.375,-1.6133 6.1016,-2.4219 11.188,-2.4219 h 5.5469 v -0.75 c 0,-1.4883 -0.58984,-2.5781 -1.7656,-3.2656 -1.168,-0.6875 -2.9961,-1.0312 -5.4844,-1.0312 -2.0234,0 -3.9023,0.20312 -5.6406,0.60938 -1.7305,0.39844 -3.3398,0.99609 -4.8281,1.7969 v -7.1719 c 2.0078,-0.48828 4.0312,-0.85938 6.0625,-1.1094 2.0391,-0.25781 4.0781,-0.39062 6.1094,-0.39062 5.3125,0 9.1445,1.0469 11.5,3.1406 2.3516,2.0938 3.5312,5.5 3.5312,10.219 z"
         id="path11173" />
    </symbol>
    <symbol
       id="a"
       overflow="visible">
      <path
         d="m 14.797,-37.812 v 8.3594 h 9.7031 v 6.7344 H 14.797 v 12.484 c 0,1.375 0.26953,2.3047 0.8125,2.7812 0.55078,0.48047 1.6289,0.71875 3.2344,0.71875 h 4.8438 v 6.7344 h -8.0781 c -3.7109,0 -6.3398,-0.77344 -7.8906,-2.3281 -1.5547,-1.5508 -2.3281,-4.1875 -2.3281,-7.9062 v -12.484 H 0.7034 v -6.7344 h 4.6875 v -8.3594 z"
         id="path11176" />
    </symbol>
    <symbol
       id="g"
       overflow="visible">
      <path
         d="m 24.562,-25.141 v -15.766 h 9.4531 V -0.001 H 24.562 v -4.2656 c -1.3047,1.7422 -2.7344,3.0156 -4.2969,3.8281 -1.5547,0.80078 -3.3555,1.2031 -5.4062,1.2031 -3.6367,0 -6.6211,-1.4414 -8.9531,-4.3281 -2.3242,-2.8828 -3.4844,-6.5977 -3.4844,-11.141 0,-4.5312 1.1602,-8.2383 3.4844,-11.125 2.332,-2.8828 5.3164,-4.3281 8.9531,-4.3281 2.0312,0 3.8281,0.41406 5.3906,1.2344 1.5703,0.8125 3.0078,2.0742 4.3125,3.7812 z m -6.2188,19.062 c 2.0195,0 3.5625,-0.73438 4.625,-2.2031 1.0625,-1.46872 1.5938,-3.6094 1.5938,-6.4219 0,-2.8008 -0.53125,-4.9375 -1.5938,-6.4062 -1.06255,-1.4687 -2.6055,-2.2031 -4.625,-2.2031 -1.9922,0 -3.5156,0.73438 -4.5781,2.2031 -1.0625,1.46872 -1.5938,3.6055 -1.5938,6.4062 0,2.8125 0.53125,4.9531 1.5938,6.4219 1.06255,1.4688 2.5859,2.2031 4.5781,2.2031 z"
         id="path11179" />
    </symbol>
    <symbol
       id="f"
       overflow="visible">
      <path
         d="m 20.188,-6.0781 c 2.0195,0 3.5547,-0.73438 4.6094,-2.2031 1.0625,-1.4688 1.5938,-3.6094 1.5938,-6.4219 0,-2.8008 -0.53125,-4.9375 -1.5938,-6.4062 -1.0547,-1.4688 -2.5898,-2.2031 -4.6094,-2.2031 -2.0117,0 -3.5586,0.74219 -4.6406,2.2188 -1.0742,1.4805 -1.6094,3.6094 -1.6094,6.3906 0,2.793 0.53516,4.9297 1.6094,6.4062 1.082,1.4805 2.6289,2.2188 4.6406,2.2188 z m -6.25,-19.062 c 1.2891,-1.707 2.7227,-2.9688 4.2969,-3.7812 1.582,-0.82031 3.3984,-1.2344 5.4531,-1.2344 3.625,0 6.6016,1.4453 8.9375,4.3281 2.332,2.8867 3.5,6.5938 3.5,11.125 0,4.543 -1.168,8.2578 -3.5,11.141 -2.3359,2.8867 -5.3125,4.3281 -8.9375,4.3281 -2.0547,0 -3.8711,-0.40625 -5.4531,-1.2188 -1.5742,-0.82031 -3.0078,-2.0938 -4.2969,-3.8125 V 8e-4 H 4.5161 v -40.906 h 9.4219 z"
         id="path11182" />
    </symbol>
    <symbol
       id="e"
       overflow="visible">
      <path
         d="m 0.65625,-29.453 h 9.4062 l 7.9219,19.984 6.7344,-19.984 h 9.4062 l -12.375,32.234 c -1.25,3.2812 -2.7031,5.5703 -4.3594,6.875 -1.6562,1.3125 -3.8438,1.9688 -6.5625,1.9688 H 5.39055 V 5.4373 h 2.9375 c 1.6016,0 2.7656,-0.25781 3.4844,-0.76562 0.72656,-0.5 1.2969,-1.4062 1.7031,-2.7188 l 0.26562,-0.82812 z"
         id="path11185" />
    </symbol>
    <symbol
       id="d"
       overflow="visible">
      <path
         d="m 15.062,-31.609 v 23.953 h 3.625 c 4.1328,0 7.2891,-1.0195 9.4688,-3.0625 2.1875,-2.0508 3.2812,-5.0352 3.2812,-8.9531 0,-3.8828 -1.0898,-6.8438 -3.2656,-8.875 -2.168,-2.0391 -5.3281,-3.0625 -9.4844,-3.0625 z M 4.937,-39.2496 h 10.672 c 5.9688,0 10.41,0.42969 13.328,1.2812 2.9141,0.84375 5.4141,2.2812 7.5,4.3125 1.8438,1.7734 3.207,3.8125 4.0938,6.125 0.89453,2.3125 1.3438,4.9336 1.3438,7.8594 0,2.9688 -0.44922,5.6172 -1.3438,7.9375 -0.88672,2.3242 -2.25,4.3711 -4.0938,6.1406 -2.1055,2.0312 -4.6328,3.4766 -7.5781,4.3281 C 25.9214,-0.42155 21.5034,3e-4 15.6089,3e-4 H 4.9369 Z"
         id="path11188" />
    </symbol>
    <symbol
       id="n"
       overflow="visible">
      <path
         d="m 4.5156,-29.453 h 9.4219 V 0 H 4.5156 Z m 0,-11.453 h 9.4219 v 7.6719 H 4.5156 Z"
         id="path11191" />
    </symbol>
    <symbol
       id="m"
       overflow="visible">
      <path
         d="M 34.125,-17.938 V 0 h -9.4688 v -13.719 c 0,-2.5391 -0.05859,-4.2891 -0.17188,-5.25 -0.11719,-0.96875 -0.3125,-1.6797 -0.59375,-2.1406 -0.36719,-0.61328 -0.86719,-1.0938 -1.5,-1.4375 -0.625,-0.34375 -1.3398,-0.51562 -2.1406,-0.51562 -1.9688,0 -3.5156,0.76172 -4.6406,2.2812 -1.1172,1.5117 -1.6719,3.6094 -1.6719,6.2969 v 14.484 h -9.4219 v -29.453 h 9.4219 v 4.3125 c 1.4141,-1.707 2.9219,-2.9688 4.5156,-3.7812 1.5938,-0.82031 3.3516,-1.2344 5.2812,-1.2344 3.4062,0 5.9883,1.0469 7.75,3.1406 1.7578,2.0859 2.6406,5.1094 2.6406,9.0781 z"
         id="path11194" />
    </symbol>
    <symbol
       id="c"
       overflow="visible">
      <path
         d="m 18.531,-23.422 c -2.0859,0 -3.6719,0.75 -4.7656,2.25 -1.0937,1.5 -1.6406,3.6562 -1.6406,6.4688 0,2.8242 0.54688,4.9844 1.6406,6.4844 1.09372,1.5 2.6797,2.25 4.7656,2.25 2.0508,0 3.6172,-0.75 4.7031,-2.25 1.0938,-1.5 1.6406,-3.6602 1.6406,-6.4844 0,-2.8125 -0.54688,-4.9688 -1.6406,-6.4688 -1.0859,-1.5 -2.6523,-2.25 -4.7031,-2.25 z m 0,-6.7344 c 5.0703,0 9.0312,1.3711 11.875,4.1094 2.8438,2.7305 4.2656,6.5117 4.2656,11.344 0,4.8438 -1.4219,8.6367 -4.2656,11.375 -2.8438,2.7305 -6.8047,4.0938 -11.875,4.0938 -5.0859,0 -9.0586,-1.3633 -11.922,-4.0938 -2.8672,-2.7383 -4.2969,-6.5312 -4.2969,-11.375 0,-4.832 1.4297,-8.6133 4.2969,-11.344 2.8633,-2.7383 6.8359,-4.1094 11.922,-4.1094 z"
         id="path11197" />
    </symbol>
    <symbol
       id="l"
       overflow="visible">
      <path
         d="m 27.531,-28.531 v 7.1562 c -2.0234,-0.84375 -3.9688,-1.4727 -5.8438,-1.8906 -1.875,-0.41406 -3.6484,-0.625 -5.3125,-0.625 -1.7812,0 -3.1094,0.22656 -3.9844,0.67188 -0.86719,0.4375 -1.2969,1.1211 -1.2969,2.0469 0,0.76172 0.32812,1.3438 0.98438,1.75 0.65625,0.39844 1.832,0.69531 3.5312,0.89062 l 1.6562,0.23438 c 4.8203,0.61719 8.0664,1.625 9.7344,3.0312 1.6641,1.3984 2.5,3.5938 2.5,6.5938 0,3.1367 -1.1562,5.4961 -3.4688,7.0781 -2.3125,1.5742 -5.7656,2.3594 -10.359,2.3594 -1.9492,0 -3.9648,-0.15625 -6.0469,-0.46875 -2.0742,-0.30078 -4.2031,-0.75781 -6.3906,-1.375 v -7.1562 c 1.875,0.91797 3.7969,1.6055 5.7656,2.0625 1.9766,0.44922 3.9844,0.67188 6.0156,0.67188 1.832,0 3.2109,-0.25 4.1406,-0.75 0.9375,-0.50781 1.4062,-1.2656 1.4062,-2.2656 0,-0.84375 -0.32422,-1.4688 -0.96875,-1.875 -0.63672,-0.41406 -1.9062,-0.73828 -3.8125,-0.96875 l -1.6562,-0.20312 c -4.1992,-0.53125 -7.1406,-1.5039 -8.8281,-2.9219 -1.6797,-1.4141 -2.5156,-3.5703 -2.5156,-6.4688 0,-3.125 1.0664,-5.4375 3.2031,-6.9375 2.1445,-1.5078 5.4258,-2.2656 9.8438,-2.2656 1.7383,0 3.5625,0.13672 5.4688,0.40625 1.9062,0.26172 3.9844,0.66797 6.2344,1.2188 z"
         id="path11200" />
    </symbol>
    <symbol
       id="k"
       overflow="visible">
      <path
         d="m 23.891,-40.906 v 6.1719 h -5.2031 c -1.3359,0 -2.2617,0.24609 -2.7812,0.73438 -0.52344,0.48047 -0.78125,1.3125 -0.78125,2.5 v 2.0469 h 8.0312 v 6.7344 h -8.0312 v 22.719 h -9.4219 v -22.719 h -4.6719 v -6.7344 h 4.6719 v -2.0469 c 0,-3.207 0.89062,-5.5781 2.6719,-7.1094 1.7891,-1.5312 4.5625,-2.2969 8.3125,-2.2969 z"
         id="path11203" />
    </symbol>
    <symbol
       id="j"
       overflow="visible">
      <path
         d="m 4.9375,-39.25 h 10.125 v 31.594 h 17.781 V 2e-4 H 4.9375 Z"
         id="path11206" />
    </symbol>
  </defs>
  <g
     id="g11259">
    <g
       id="g5475">
      <path
         style="fill:#678a9b;stroke-width:0.75"
         id="path11519"
         d="m 8.1848752,19.517137 c -0.1186214,0.15657 -0.2489647,0.304914 -0.3558652,0.46971 -0.455799,0.702654 -0.8659108,1.676252 -1.0493926,2.492751 -0.040351,0.179565 -0.060173,0.363134 -0.09026,0.544701 -0.00622,0.132166 -0.017707,0.26419 -0.018659,0.3965 -0.00257,0.357035 0.01016,0.591821 0.090868,0.944731 0.029878,0.13065 0.1017937,0.515841 0.1214974,0.383274 0.3484047,-2.344084 0.2726736,-2.068593 -0.1337181,-1.311381 -0.3762028,0.944292 -0.5039119,1.922505 -0.3168741,2.926788 0.029856,0.160308 0.079346,0.316329 0.1190188,0.474493 0.1098148,0.313143 0.2037454,0.635455 0.3596087,0.93019 0.019334,0.03656 -0.029796,-0.148745 -0.053012,-0.196083 -0.063857,0.286517 -0.066836,0.583637 -0.060181,0.87592 0.00259,0.05098 -0.035932,0.179328 0.00776,0.152937 0.046858,-0.0283 0.022749,-0.110571 0.010384,-0.163898 -0.007,-0.03017 -0.020626,0.05851 -0.027836,0.08863 -0.066163,0.276386 -0.099824,0.555467 -0.1315163,0.83739 -0.05128,0.413101 0.029621,0.825551 0.013336,1.238618 -0.013809,0.350255 -0.011222,0.186865 -0.010557,0.136939 -0.00227,-0.01576 0.00267,-0.06008 -0.00682,-0.04729 -0.030294,0.04086 -0.043244,0.09217 -0.061622,0.139593 -0.1372211,0.354106 -0.1840405,0.713121 -0.2191805,1.089173 -0.01225,0.395437 0.074094,0.768994 0.2280623,1.129515 0.021256,0.04977 -0.04217,-0.09977 -0.060036,-0.150855 -0.028459,-0.08138 -0.050083,-0.165021 -0.077674,-0.246699 -0.010465,0.02234 -0.026318,0.04288 -0.031397,0.06702 -0.061971,0.29457 -0.031886,0.723096 -0.027587,1.030269 -0.00611,0.327346 0.010111,0.655305 0.035524,0.981652 0.020516,0.230572 0.007,0.456245 0.03352,0.688205 0.01384,0.121048 0.037294,0.240803 0.055942,0.361204 0.078047,0.472315 0.2373997,0.923946 0.4706298,1.341584 0.04933,0.08833 0.2494538,0.386252 0.2992313,0.461305 0.1434342,-0.01542 0.095676,0.239004 0.2037996,0.277392 0.048188,0.01711 -0.2259588,-0.343371 0.04905,0.04779 0.07407,0.105347 0.136308,0.220817 0.2255528,0.313655 0.1705335,0.177401 0.366447,0.328523 0.5496705,0.492783 2.1957794,0.366407 1.1673157,0.484609 2.2431164,0.155625 0.0391,-0.01196 0.0793,-0.02587 0.120161,-0.02457 0.01673,5.32e-4 0.02628,0.02083 0.04049,0.02968 0.01936,0.01205 0.03867,0.02479 0.05999,0.03289 0.03152,0.01197 0.06501,0.01794 0.09752,0.02691 0.444612,0.05009 0.561278,0.05869 -0.9938087,0.01458 -0.013988,-3.96e-4 0.013815,-0.02797 0.027225,-0.03194 0.028628,-0.0085 0.074348,0.02308 0.089521,-0.0026 0.01343,-0.02276 -0.04032,-0.03566 -0.053362,-0.05864 -0.00532,-0.0094 0.00113,-0.02158 0.00173,-0.03236 0.1490457,-0.01533 0.3276137,0.133303 0.4330457,0.176815 0.145798,0.06017 0.296641,0.10755 0.446924,0.155435 0.01672,0.0053 0.04833,0.02075 0.05253,0.0037 0.0045,-0.01835 -0.02993,-0.02309 -0.0449,-0.03464 0.282449,0.05609 0.557263,0.167595 0.848783,0.178336 0.01574,5.81e-4 0.02739,-0.01557 0.04108,-0.02335 0.05691,0.0123 0.113816,0.0246 0.170724,0.0369 0.794097,0.200841 1.615412,0.151376 2.427794,0.13269 -2.185607,0.02098 -0.300098,0.08298 0.197412,0.08828 0.482899,-0.01297 0.966418,0.01752 1.449079,-0.0013 0.128532,-0.005 0.252511,-0.05065 0.380263,-0.06564 0.233978,-0.02746 0.285038,0.0121 0.51684,-0.03138 0.104597,-0.01962 0.205348,-0.05599 0.308021,-0.08399 0.113472,-0.04093 0.224526,-0.08931 0.340416,-0.122778 0.214092,-0.06184 0.685251,-0.144179 0.886675,-0.189394 0.453638,-0.101831 0.900054,-0.228046 1.342625,-0.369446 4.2e-4,0.0097 0.598386,-0.261461 0.615027,-0.189563 0.0058,0.0249 -0.03419,0.04894 -0.05973,0.04808 -0.429098,-0.01441 -0.863801,-0.0082 -1.284641,-0.09324 -0.148855,-0.03007 -0.256498,-0.162655 -0.384747,-0.243982 0.165047,0.09798 0.406948,0.243389 0.542677,0.300018 0.625842,0.261115 1.188083,0.160855 1.903036,0.121309 0.120975,-0.0067 0.410298,-0.133177 0.528423,-0.181023 0.01279,0.04514 0.0018,0.106025 0.03838,0.135423 0.414252,0.333046 0.579748,-0.255659 -0.498066,0.157958 -0.148895,0.05714 0.316522,0.03943 0.474986,0.05742 0.578038,0.06564 0.443136,0.05032 1.00224,0.08939 0.09372,-0.0054 0.18822,-0.003 0.281168,-0.01618 0.04786,-0.0068 0.09878,-0.01559 0.138386,-0.0433 0.05213,-0.03648 -0.02162,-0.144527 0.02731,-0.140001 0.765525,0.07083 1.529906,0.153531 2.294859,0.230295 0.057,0.01877 0.111705,0.04705 0.170997,0.05629 0.361439,0.05638 0.729336,-0.02482 1.05833,-0.170882 0.437722,-0.147221 0.853516,-0.355675 1.291989,-0.499269 0.07096,-0.03168 0.139134,-0.07053 0.21288,-0.09503 0.05363,-0.01782 0.111117,-0.02072 0.166674,-0.03108 0.101883,-0.02783 0.205905,-0.04877 0.305649,-0.0835 0.335039,-0.116643 0.615713,-0.270954 0.912618,-0.460158 0.02315,-0.01621 0.453771,-0.322638 0.535689,-0.365639 0.04122,-0.02164 0.08887,-0.02777 0.133299,-0.04165 0.246732,-0.196421 -2.531083,-3.68574 -2.777815,-3.489319 v 0 c -0.140702,0.09239 -0.340395,0.265263 -0.520633,0.293764 -0.501321,0.08511 -0.926254,0.382351 -1.390545,0.569926 -0.1511,0.0707 -0.379693,0.201627 -0.546508,0.244433 -0.06171,0.01583 0.406183,-0.204154 0.164949,-0.09656 -0.09678,-0.06796 -0.253426,-0.0851 -0.366584,-0.08548 -0.388429,-0.0013 -0.772147,0.07535 -1.135384,0.210144 0.637788,0.101947 1.274255,0.212539 1.913365,0.305842 0.0092,0.0014 6.27e-4,-0.02073 -0.0059,-0.02738 -0.03923,-0.03976 -0.08318,-0.0748 -0.127909,-0.108258 -0.307785,-0.230237 -0.646511,-0.400364 -1.015764,-0.51116 -0.590276,-0.133593 -1.196368,-0.265263 -1.803919,-0.285134 -0.847145,-0.0277 -1.566398,-0.124655 -2.348267,0.101511 -0.163152,0.0472 -0.316779,0.122618 -0.475168,0.183928 0.342667,-0.577702 1.213529,-0.200235 1.521322,0.208535 0.0096,0.0128 -0.03153,-0.0057 -0.04729,-0.0086 -0.171521,-0.102594 -0.31923,-0.265472 -0.514562,-0.307782 -0.496223,-0.107487 -1.010135,-0.111335 -1.517431,-0.132363 -0.136142,-0.0056 -0.270651,0.03223 -0.405371,0.05266 -0.374703,0.05682 -0.740282,0.156882 -1.116954,0.201234 -0.512817,0.116261 -1.015889,0.252785 -1.504805,0.45023 -0.133553,0.05393 -0.261267,0.121329 -0.392144,0.181464 -0.07204,0.0331 -0.140388,0.07638 -0.216591,0.09824 -0.02594,0.0074 -0.05324,-0.0088 -0.07985,-0.0132 -0.21064,-0.0027 -0.151464,-0.01132 -0.410106,0.0431 -0.06878,0.01448 -0.135064,0.04008 -0.204293,0.05224 -0.01882,0.0033 0.03231,-0.02497 0.05142,-0.02538 0.881104,-0.01884 1.384754,0.04459 0.926117,-0.0096 -0.910136,-0.09995 -1.811557,-0.182042 -2.732747,-0.08268 -0.504959,0.03809 0.02552,-0.0056 0.886062,0.01546 0.01384,3.39e-4 -0.02342,0.01602 -0.03694,0.019 -0.09848,0.0218 -0.204704,-0.0081 -0.303678,0.0029 -0.428387,-0.06268 0.167804,0.03268 -0.44149,-0.10575 -0.126799,-0.02881 -0.267519,0.0035 -0.394894,-0.01323 -0.07259,-0.0095 -0.142946,-0.03174 -0.214418,-0.04761 -0.112908,-0.02985 -0.224079,-0.06728 -0.338721,-0.08955 -0.413937,-0.08041 -0.09259,0.03856 0.06598,0.133751 0.0661,0.03968 0.128849,0.08468 0.193074,0.127311 0.01633,0.01085 -0.03275,-0.02157 -0.04939,-0.03193 -0.04478,-0.02786 -0.08991,-0.05515 -0.134859,-0.08272 -0.215569,-0.117895 -0.307127,-0.176015 -0.552953,-0.268756 -0.07271,-0.02744 -0.14954,-0.04241 -0.224533,-0.06282 -0.102831,-0.02797 -0.202545,-0.07603 -0.308929,-0.08232 -1.191927,-0.07043 -1.055774,-0.07542 -1.7329977,0.0069 -0.2435812,0.05245 -0.2806665,0.05317 -0.5143222,0.131575 -0.068355,0.02293 -0.1346228,0.0517 -0.2021708,0.07692 -0.01839,0.0069 -0.073972,0.0263 -0.05562,0.01933 0.8445983,-0.32053 0.2482538,-0.128499 2.0167777,0.185201 0.50989,0.501618 0.354387,0.278226 0.606015,0.684676 0.04725,0.07633 -0.08612,-0.157589 -0.132294,-0.234573 -0.101814,-0.169752 -0.05496,-0.07547 -0.04302,-0.05054 0.04199,0.04707 0.02915,0.03763 -0.02242,-0.09736 -0.07192,-0.188247 -0.14269,-0.393529 -0.264636,-0.556328 -0.01928,-0.02575 -0.04971,-0.04083 -0.07456,-0.06124 -0.0064,0.02416 -0.01652,0.04763 -0.01933,0.07247 -0.0051,0.04478 0.01503,0.09436 -0.0042,0.135117 -0.01608,0.03412 -0.0051,-0.07527 -0.0062,-0.112972 -0.002,-0.06494 -0.0031,-0.129973 -0.0011,-0.194918 9e-4,-0.02887 0.0042,-0.05762 0.0063,-0.08643 0.01333,-0.267214 0.02804,-0.534362 0.03918,-0.80169 0.03895,-0.514279 0.07708,-1.03207 -0.01731,-1.543445 -0.05455,-0.322643 -0.112863,-0.619427 -0.240256,-0.922287 -0.01587,-0.03772 0.02821,0.07703 0.03783,0.116808 0.09288,0.383787 0.06838,0.283813 0.08217,0.68978 -0.008,0.07679 -0.01749,0.153453 -0.02412,0.230381 -0.002,0.02325 -0.02386,0.06247 -0.0018,0.06998 0.02201,0.0075 0.02917,-0.03649 0.0404,-0.05685 0.14706,-0.266492 0.233045,-0.562719 0.325856,-0.85028 0.03499,-0.156184 0.07775,-0.310828 0.104965,-0.468551 0.08996,-0.521291 0.08909,-1.070929 -0.01084,-1.589822 -0.01513,-0.227175 -0.0838,-0.632589 0.02483,-0.829314 0.09889,-0.393339 0.109773,-0.803709 0.113556,-1.20711 -0.0088,-0.128542 -0.0091,-0.257936 -0.02632,-0.385628 -0.02063,-0.153334 -0.05409,-0.304741 -0.08688,-0.455942 -0.0424,-0.195526 -0.09493,-0.329585 -0.0815,-0.527726 -0.01335,-0.210855 -0.01804,-0.335499 -0.04714,-0.552272 -0.01229,-0.09153 -0.03364,-0.181677 -0.04638,-0.273146 -0.01367,-0.09817 -0.0097,-0.199148 -0.0328,-0.295532 -0.0065,-0.02707 -0.0276,-0.07457 -0.05344,-0.06419 -0.04213,0.01694 -0.04866,0.07668 -0.07299,0.115012 -0.396766,0.625635 -0.33243,0.567675 0.104082,-1.727496 0.02193,-0.115322 0.07642,0.222516 0.101883,0.33711 0.02585,0.116283 0.03324,0.235921 0.05163,0.353615 0.0073,0.04649 -0.02167,0.136552 0.02533,0.138875 0.05311,0.0026 0.05842,-0.08886 0.08762,-0.133292 0.18004,-0.360014 0.330105,-0.730701 0.497046,-1.096639 0.230969,-0.50629 0.500614,-0.999061 0.62862,-1.546054 0.132244,-0.291534 -3.9906702,-2.161755 -4.1229147,-1.870221 z" />
      <path
         style="fill:#678a9b;stroke-width:0.75"
         id="path11521"
         d="m 16.649021,39.145186 c 0.192818,0.06381 0.382258,0.138916 0.578452,0.191437 1.275753,0.341511 2.622674,0.454594 3.939626,0.443479 0.306396,-0.0025 0.612248,-0.02633 0.918373,-0.0395 0.982048,-0.06406 1.654579,0.06809 2.461799,-0.304172 0.143832,-0.06633 0.311786,-0.11791 0.407817,-0.243867 0.437258,-0.573521 1.135547,-1.101311 1.167078,-1.821815 0.07074,-1.616508 -0.585064,-1.835581 -1.462813,-2.286006 -0.07743,-0.0176 -0.282264,-0.114504 -0.232286,-0.0528 0.107947,0.133269 0.418902,0.118983 0.424728,0.290387 0.114585,3.37095 -1.493363,3.994985 0.553675,3.639738 0.101763,0.0047 0.203495,0.01015 0.305291,0.01408 0.227861,0.0088 0.498167,0.01759 0.725691,0.01312 0.107191,-0.0021 0.428194,-0.0075 0.321269,-0.01535 -0.814079,-0.05963 -1.951631,0.01512 0.425842,-0.07797 0.08715,-0.04072 0.243187,-0.116416 0.33048,-0.144252 0.07106,-0.02267 -0.04973,0.02665 -0.0297,0.06038 0.02068,0.03483 0.158123,0.04263 0.170012,0.04428 -1.819253,0.08551 -0.988121,0.01004 -0.572864,-0.0371 0.766635,-0.224421 1.533271,-0.448843 2.299906,-0.673264 0.02591,-0.02296 0.04531,-0.05671 0.07772,-0.06888 0.05926,-0.02224 -0.108735,0.158823 -0.03125,0.163528 0.06542,0.004 0.130158,-0.01544 0.195237,-0.02315 0.09782,-0.03124 0.199084,-0.05325 0.293461,-0.09372 0.30207,-0.12953 0.726654,-0.373831 0.961892,-0.615562 0.118469,-0.121739 0.226413,-0.253292 0.33962,-0.379938 0.514982,-1.457184 0.64636,-1.063255 0.14712,-2.508141 -0.04099,-0.11864 -0.212902,-0.434721 -0.214916,-0.309215 -0.0021,0.132901 0.152711,0.218465 0.214483,0.336157 0.140598,0.267874 0.131284,0.34817 0.183325,0.642336 0.0055,0.0341 -0.01067,0.123361 0.01672,0.102296 0.0317,-0.02438 0.07877,-0.311141 0.09123,-0.365458 0.04847,-0.211152 0.09062,-0.415804 0.123151,-0.630697 0.08992,-0.569846 0.09828,-1.137672 -0.0058,-1.704626 -0.08309,-0.265975 -0.08717,-0.543409 -0.102192,-0.819554 0.0061,-0.06537 0.01963,-0.130461 0.01831,-0.196099 -0.0073,-0.36814 -0.08026,-0.735172 -0.139923,-1.096986 -0.03847,-0.233292 -0.07505,-0.466891 -0.113228,-0.700231 -0.02503,-0.104859 -0.0469,-0.210525 -0.0751,-0.314577 -0.0206,-0.07599 -0.04422,-0.15125 -0.07119,-0.225222 -0.01525,-0.04181 -0.02762,-0.08667 -0.05525,-0.121559 -0.007,-0.0088 -0.02997,0.001 -0.03138,0.01216 -0.01934,0.152311 -0.0053,0.307949 -0.02855,0.459718 -0.02441,0.159557 -0.07587,0.313786 -0.113807,0.470679 0.223552,-0.541478 0.298969,-1.120781 0.27508,-1.701851 0.02722,-0.285031 -0.102163,-0.552656 -0.125444,-0.830303 -0.0079,-0.09467 0.0031,-0.190301 -0.005,-0.284959 -0.03366,-0.395073 -0.08079,-0.581701 -0.156576,-0.975764 -0.147636,-0.595675 -0.30107,-1.194413 -0.539871,-1.761593 -0.07011,-0.166523 -0.221744,-0.471887 -0.3065,-0.645251 -0.132487,-0.302094 -0.319488,-0.57318 -0.499389,-0.847667 -0.1614,-0.268194 -3.95424,2.014342 -3.79284,2.282536 v 0 c 0.02557,0.02676 0.128381,0.176826 0.137413,0.08803 0.04532,0.153555 0.05407,0.329115 0.08263,0.484747 0.08901,0.485091 0.191184,0.968905 0.35991,1.433738 0.05311,0.145809 0.101301,0.293508 0.159338,0.437428 0.09184,0.227745 0.219139,0.432689 0.278793,0.671444 0.0049,0.01941 -0.01999,-0.09985 -0.0023,-0.05997 -0.0098,0.143455 -0.03323,0.305286 -0.0057,0.448035 0.003,0.01571 0.01808,0.05226 0.02749,0.03932 0.07048,-0.09688 0.05008,-0.242404 0.12898,-0.335473 -0.04643,0.174778 -0.109004,0.34605 -0.139307,0.524334 -0.0286,0.168273 -0.02418,0.340515 -0.03663,0.510746 -0.02169,0.296634 -0.02687,0.592684 0.02648,0.887356 0.123985,0.687313 0.18258,1.387774 0.386956,2.058707 0.01998,0.0496 0.04263,0.09822 0.05995,0.148823 0.01666,0.04869 -0.0075,0.133929 0.04185,0.148617 0.04395,0.01309 -0.01467,-0.18221 -0.0045,-0.137495 0.02209,0.09715 0.0056,0.216653 0.0014,0.315488 -0.0092,0.117854 -0.01384,0.235494 -0.01,0.35378 0.0014,0.04249 0.0036,0.085 0.008,0.12728 0.0023,0.02248 0.01353,0.04417 0.01211,0.06674 -0.002,0.03285 -0.01488,0.06412 -0.02232,0.09619 -0.129385,0.525094 -0.213565,1.056303 -0.223478,1.59856 0.01991,0.202223 0.01706,0.407996 0.05972,0.606671 0.09437,0.43965 0.24702,0.675918 0.494136,1.044765 0.04133,0.0617 -0.08462,-0.125457 -0.103491,-0.197278 -0.373454,-1.421236 -0.328239,-0.883576 0.211682,-2.314301 0.07724,-0.09171 0.165489,-0.175182 0.231712,-0.275138 0.01013,-0.0153 0.004,-0.05517 -0.0142,-0.05318 -0.07745,0.0084 -0.147301,0.05089 -0.220081,0.07869 -0.256083,0.09782 -0.511545,0.200581 -0.743515,0.348873 -0.160661,0.111959 -0.327404,0.21542 -0.483741,0.333341 -0.264397,0.199426 -0.207357,0.16886 -0.412835,0.369986 -0.01335,0.01306 -0.02837,0.02431 -0.04256,0.03646 0.729032,-0.192349 1.458063,-0.384697 2.187093,-0.577045 -0.59418,-0.11915 -1.197036,-0.09115 -1.803098,-0.06888 -0.17077,0.0187 -0.326077,0.05238 -0.491111,0.10045 -0.03428,0.01 -0.108294,0.06587 -0.102629,0.03062 0.0067,-0.04134 0.07201,-0.04274 0.108011,-0.0641 -0.0028,-0.01997 -0.0056,-0.03994 -0.0085,-0.05992 0.321111,-0.01574 1.281132,0.0014 0.963333,-0.04724 -0.483462,-0.07397 -0.977932,-0.02228 -1.466963,-0.02983 -0.600048,-0.0093 -1.197469,0.05258 -1.778501,0.207816 -0.09527,0.01058 -0.834093,0.09868 -0.847208,0.148665 -0.902441,3.439621 -1.771839,3.175884 -0.189194,4.135494 0.0096,0.0058 0.02225,-0.0035 0.03337,-0.0053 -0.500516,-0.585406 -1.013599,-1.150561 -0.915094,-2.107508 0.07049,-0.684784 0.784035,-1.132168 1.154067,-1.712663 0.0274,-0.04298 0.07201,-0.116707 0.03285,-0.149338 -0.08647,-0.07206 -0.424094,-0.04135 -0.324429,-0.09365 0.195513,-0.102612 0.438284,-0.05408 0.657426,-0.08112 -1.690968,-0.113088 -3.394845,-0.149462 -5.083493,0.01888 -0.298407,-0.115356 -1.929794,4.104762 -1.631387,4.220118 z" />
      <path
         style="fill:#678a9b;stroke-width:0.75"
         id="path11523"
         d="m 25.711154,31.907239 c -0.539768,0.08001 -0.486764,0.08633 -1.052073,0.10914 -0.22918,0.0092 -0.458922,0.02747 -0.687941,0.01484 -0.285673,-0.01576 -0.581516,-0.008 -0.852499,-0.09983 -0.105966,-0.0359 0.436896,-0.0611 0.326359,-0.0784 -0.310383,-0.04856 -0.628202,-0.01198 -0.942303,-0.01796 -1.017785,-0.17343 -2.016505,-0.437212 -3.038027,-0.590636 -0.229655,-0.03449 -0.460158,-0.06966 -0.692202,-0.07895 -0.39506,-0.01582 -0.335978,-0.04166 -0.328649,0.217797 -0.432039,-0.0014 -0.734475,-0.405938 -1.134981,-0.517835 -0.543574,-0.151869 -1.102775,-0.173457 -1.662976,-0.183338 0.06578,0.09422 -0.344509,-0.07474 -0.391462,0.04806 -0.0096,0.02516 0.02128,0.05222 0.04261,0.06867 0.09366,0.07225 0.200123,0.126279 0.297381,0.193595 0.02627,0.01819 0.100841,0.07759 0.07266,0.06253 -0.177793,-0.09499 -0.348804,-0.202157 -0.523206,-0.303235 -0.240414,-0.128457 -0.511962,-0.18257 -0.775816,-0.239245 -0.332387,-0.0714 -0.52831,-0.114254 -0.868854,-0.142479 -0.133521,-0.01107 -0.267793,-0.0094 -0.40169,-0.01409 -1.250989,-0.0029 -1.525579,-0.09248 -2.421132,0.483861 -0.10056,0.06472 -0.17749,0.16577 -0.28531,0.217495 -0.04787,0.02296 0.04549,-0.111565 0.09634,-0.126839 0.508845,-0.152846 1.033911,-0.245297 1.550865,-0.367945 -1.147814,-0.359103 -3.281972,-0.67058 -4.1432562,0.290589 -0.5819083,0.649393 -0.350937,1.708261 -0.5264052,2.562392 0.1686874,0.291853 0.3061354,0.60415 0.5060637,0.875558 0.543771,0.738187 1.607565,1.299382 2.4778757,1.52983 0.223105,0.05908 0.453499,0.08604 0.68025,0.129054 1.202812,-0.036 1.387856,0.111688 2.203576,-0.184139 0.172398,-0.06252 0.386787,-0.177498 0.564326,-0.249447 0.03117,-0.01263 0.07045,-0.0517 0.09628,-0.03016 0.02201,0.01834 -0.02913,0.04933 -0.0437,0.074 -2.085925,0.118172 -1.458099,0.02232 -0.951617,0.133201 0.348978,0.0764 0.6954,0.146296 1.048662,0.200205 0.250199,0.04831 0.504973,0.02901 0.757147,0.04296 0.07267,0.004 0.145761,0.03436 0.217317,0.02107 0.719028,-0.133477 1.414643,-0.427429 2.145245,-0.459648 0.191435,-0.0084 -0.285251,0.255943 -0.427877,0.383915 -2.436286,0.218931 -1.289879,0.06806 -0.951274,0.103783 0.288349,0.03043 0.569827,0.08808 0.860182,0.103782 0.873675,0.209461 0.714107,0.323345 2.091474,0.170911 0.188665,-0.02088 0.341397,-0.166041 0.512095,-0.249062 0.255866,-0.163956 -2.062829,-3.782444 -2.318695,-3.618488 v 0 c 0.137996,-0.06999 0.259974,-0.195081 0.413986,-0.209963 1.285555,-0.124223 1.034575,-0.174752 1.581159,0.111655 0.02122,0.01111 -0.04198,-0.02305 -0.06298,-0.03459 -0.464736,-0.25857 -0.952072,-0.428601 -1.475252,-0.531839 -0.179147,-0.03535 -0.358919,-0.08294 -0.54152,-0.08273 -0.553536,6.6e-4 -1.105609,0.0569 -1.658414,0.08535 -0.279388,0.1453 -1.151603,0.405468 -0.838165,0.4359 0.648734,0.06299 1.283379,-0.229086 1.92728,-0.330153 0.02883,-0.0045 0.08222,0.04297 0.0864,0.01408 0.0044,-0.02993 -0.05466,-0.02619 -0.0832,-0.03622 -0.195104,-0.06864 -0.270281,-0.08017 -0.487806,-0.133354 -0.35185,-0.06576 -0.703076,-0.106313 -1.056975,-0.158801 -0.0514,-0.0076 -0.737824,-0.117906 -0.806004,-0.117008 -0.537918,0.007 -1.074654,0.05239 -1.61198,0.07858 -0.114266,0.03904 -0.396819,0.144618 -0.550269,0.173969 -0.169117,0.03235 -0.07688,0.01472 -0.198112,-0.02783 -0.03859,-0.01355 -0.15983,-0.02908 -0.118942,-0.03016 0.372729,-0.0098 0.745713,0.0025 1.118571,0.0038 -0.02444,0.0224 -0.04222,0.0557 -0.07331,0.0672 -0.221216,0.08182 -0.459388,-0.06176 -0.667082,-0.104529 -0.06874,-0.01415 -0.174356,-0.07538 -0.210023,-0.01493 -0.06068,0.102825 0.005,0.238729 0.0075,0.358094 -0.229444,0.731062 -0.135691,1.662449 -0.688334,2.193187 -0.508287,0.488141 -1.3779827,0.296282 -2.0654192,0.451423 -0.024427,0.0055 0.050775,-0.0082 0.075101,-0.0022 0.1849028,0.04531 0.3635933,0.114754 0.5495933,0.155327 0.3833872,0.08363 0.9687239,0.142333 1.3496309,0.187335 4.236898,-0.665447 1.206934,0.128697 2.501565,-0.568991 0.04345,-0.02341 -0.06539,0.0748 -0.10452,0.104896 -0.09104,0.07 -0.200526,0.115951 -0.284537,0.194246 -0.01776,0.01655 -0.0014,0.04853 -0.002,0.07279 -0.33863,0.009 -0.67726,0.01805 -1.01589,0.02708 0.287504,0.0086 0.571485,-0.0116 0.858414,-0.01115 0.250028,3.96e-4 0.500799,0.02939 0.751241,0.02181 -0.118029,-0.09094 -0.236193,-0.181697 -0.354087,-0.272806 -0.03312,-0.0256 0.06466,0.05348 0.09977,0.07627 0.301138,0.195507 0.60905,0.386382 0.971448,0.435539 0.560066,0.10648 1.047112,0.170066 1.621376,0.169115 0.154246,-2.56e-4 0.526399,0.132396 0.462667,-0.0081 -0.108306,-0.238704 -0.440124,-0.284838 -0.660186,-0.427256 0.08422,0.109882 0.15455,0.231953 0.252642,0.329647 0.359146,0.357683 0.753054,0.585241 1.220641,0.792231 1.223342,0.541546 2.540575,0.793886 3.862995,0.941806 0.399486,0.04213 0.796803,0.120276 1.198458,0.126384 0.849682,0.01292 1.701497,5.19e-4 2.548395,-0.0694 0.405078,-0.03344 0.800306,-0.144997 1.195574,-0.239704 0.665373,-0.159426 1.319991,-0.386861 1.925054,-0.707818 C 28.08137,35.7332 25.992104,31.75949 25.71112,31.907224 Z" />
      <path
         style="fill:#678a9b;stroke-width:0.75"
         id="path11525"
         d="m 14.092043,28.660582 c -0.02471,-0.217202 -0.0464,-0.434767 -0.07411,-0.651605 -0.0343,-0.268336 -0.07505,-0.535809 -0.111909,-0.803805 C 13.784315,26.32025 13.676492,25.433017 13.48056,24.56041 13.44219,24.389532 13.3912,24.221736 13.346521,24.0524 c -0.03387,-0.0497 -0.06888,-0.199569 -0.101608,-0.149109 -1.407816,2.170491 4.070963,-1.40358 -3.717627,1.388685 -0.1815255,0.06508 0.2884837,0.261069 0.457182,0.35449 1.198423,0.663661 1.143714,0.281138 2.909141,-0.01871 0.463381,-0.297337 0.761615,-0.725727 1.082919,-1.154444 0.03241,-0.04325 0.06017,-0.09052 0.09781,-0.129304 0.0055,-0.0056 0.02741,-0.002 0.02315,0.0046 -0.08023,0.124731 -0.172598,0.241229 -0.258897,0.361843 -0.06541,0.08409 -0.193371,0.145781 -0.196218,0.252276 -0.0021,0.07766 0.538257,0.108598 0.481543,0.117955 -0.246278,0.04064 -0.503236,-0.01796 -0.748229,0.02982 -0.151319,0.02951 0.307741,0.01957 0.461775,0.02604 0.155656,0.0065 0.311466,0.0086 0.4672,0.01295 0.964851,-0.02168 1.929729,-0.0042 2.895046,-0.01272 0.303075,-0.0027 -0.606172,-0.0015 -0.909259,-0.0023 0.05121,-0.0031 0.102709,-0.0156 0.153627,-0.0093 0.117406,0.01448 0.231312,0.0499 0.347682,0.07114 0.214914,0.03926 0.758584,0.124097 0.95697,0.146635 0.454099,0.05159 0.620301,0.04916 1.074454,0.0659 0.650188,-0.03602 1.30218,-0.03478 1.952015,-0.07648 0.212153,-0.01361 0.286099,-0.08355 0.48724,-0.102089 0.06973,-0.0064 0.35595,0.02282 0.412163,0.02785 0.421777,0.01834 1.446591,0.04495 -0.457617,0.0025 -0.06364,-0.0014 0.127356,-0.0036 0.190964,-0.0011 0.204128,0.008 0.314382,0.02899 0.523851,0.05762 0.719123,0.0894 1.456396,0.05 2.176663,0.02819 0.06482,-0.002 0.257694,-0.0243 0.192855,-0.02574 -0.370205,-0.0082 -0.740583,0.0036 -1.110875,0.0054 -0.0048,-0.0064 -0.02164,-0.02216 -0.01432,-0.01907 0.04637,0.01955 0.08774,0.04976 0.13401,0.06954 0.438987,0.187701 0.894971,0.339245 1.344177,0.500162 0.147825,0.03932 0.28258,0.120331 0.430307,0.160482 0.08443,0.02295 0.05999,-0.03541 0.14068,0.03687 0.15711,0.140722 0.288487,0.307766 0.432542,0.461827 0.05634,0.05617 0.111037,0.114043 0.169019,0.168519 0.04611,0.04332 0.09095,0.08887 0.143085,0.124716 0.02086,0.01434 0.07021,0.04856 0.07228,0.02333 0.0054,-0.06643 -0.03905,-0.127444 -0.05857,-0.191167 -0.04299,-0.216792 -0.158136,-0.431298 -0.128965,-0.650377 0.06132,-0.460554 0.262399,-0.891419 0.393598,-1.337127 0.146569,-0.154676 0.293138,-0.309353 0.439707,-0.464028 0.01732,-0.0211 0.07599,-0.07627 0.05196,-0.06332 -0.135069,0.0728 -0.275045,0.143096 -0.389531,0.245249 -0.208236,0.185803 -0.412146,0.382787 -0.571273,0.612054 -0.199035,0.286765 -0.347415,0.722503 -0.47458,1.065227 -0.03794,0.111677 -0.07589,0.223355 -0.113834,0.335032 -0.03864,0.124891 -0.07424,0.250762 -0.115919,0.374672 -0.0463,0.13766 -0.105082,0.271058 -0.147936,0.409828 -0.153298,0.496401 -0.280053,1.031062 -0.39622,1.537466 -0.208637,0.815808 -0.271666,1.666277 -0.143142,2.50072 0.03118,0.202437 0.07397,0.402913 0.110961,0.60437 0.139803,0.561524 0.386406,1.084589 0.591505,1.622287 -0.0054,-0.184982 -0.01591,-0.353396 0.0457,-0.54348 0.160423,-0.494835 0.491544,-1.192482 1.054153,-1.367749 0.478645,-0.149109 1.996757,-0.139006 1.503118,-0.0515 -0.573039,-0.257276 -1.166754,-0.472419 -1.787944,-0.578364 -0.386437,-0.06591 -0.604952,-0.06556 -0.987038,-0.08359 -0.129154,-0.01072 -0.25986,-0.0095 -0.387461,-0.03214 -0.0934,-0.01658 -0.180946,-0.05705 -0.271633,-0.08488 -0.149539,-0.04589 -0.298974,-0.09214 -0.449041,-0.13627 -0.41603,-0.122334 -0.826103,-0.237132 -1.25504,-0.3013 -0.181642,0.02569 -0.114322,0.04081 -0.329749,-0.130068 -0.274155,-0.21746 -0.520625,-0.470558 -0.808032,-0.670175 -0.696659,-0.48386 -1.421507,-0.81975 -2.21325,-1.118029 -0.345238,-0.130064 -0.703334,-0.223037 -1.055001,-0.334556 -1.316419,-0.28581 -0.360083,-0.112485 -1.419098,-0.238377 -0.2004,-0.02382 -0.400166,-0.115188 -0.599565,-0.08408 -0.782204,0.122028 -1.530765,0.417591 -2.313145,0.538482 -0.07311,0.0113 0.101271,-0.122919 0.102418,-0.196888 5.75e-4,-0.03705 -0.06571,-0.03427 -0.09857,-0.05141 -0.05409,-0.0068 -0.108195,-0.01346 -0.162265,-0.02041 -0.20751,-0.02667 -0.449531,-0.0585 -0.408925,-0.06526 0.456521,-0.07594 1.391164,-0.03803 0.450402,-0.09616 -0.131189,-0.0081 -0.262659,-0.01071 -0.393989,-0.01607 -0.112897,-0.0018 -0.225795,-0.0037 -0.338692,-0.0055 -0.08527,-0.0037 -0.170484,-0.0089 -0.255805,-0.01095 -0.02695,-6.61e-4 -0.05879,0.01821 -0.08082,0.0027 -0.04723,-0.03326 -0.06536,-0.09653 -0.107909,-0.135613 -0.225031,-0.206691 -0.754367,-0.611653 -0.972716,-0.782421 -0.02807,-0.01999 -0.753449,-0.561147 -0.899856,-0.591348 -0.04502,-0.0093 -0.03841,0.08834 -0.03277,0.133956 0.06144,0.496716 0.320369,0.990563 0.232803,1.483344 -0.296384,1.667913 -1.2730603,1.078629 -0.50985,1.465032 1.660016,-0.07719 3.233865,-0.654772 4.753049,-1.285338 0.105504,-0.04182 0.407445,-0.205256 0.580143,-0.169229 0.04405,0.0092 0.15446,0.0731 0.109793,0.07855 -0.316571,0.03864 -0.650492,-0.06524 -0.956438,0.0248 -0.149869,0.04411 0.300419,0.08612 0.452073,0.123638 0.184977,0.04576 0.371715,0.08407 0.557573,0.126105 0.179448,0.03198 0.35955,0.06048 0.538344,0.09593 0.610667,0.121081 0.667592,0.164747 1.297777,0.249106 0.545209,0.07298 1.092974,0.08507 1.641756,0.07787 0.123898,-0.01003 0.248157,-0.01631 0.371695,-0.03009 0.08854,-0.0099 0.176093,-0.0272 0.26414,-0.04081 0.418612,-0.01419 0.83809,-0.01213 1.255835,-0.04256 0.05044,-0.0037 0.09163,-0.04355 0.139752,-0.05911 0.423025,-0.136832 0.278791,-0.164739 0.526373,-0.06581 0.06557,0.04263 0.269977,0.100542 0.196707,0.127897 -0.240208,0.08968 -0.533109,-0.02612 -0.764598,0.08413 -0.15415,0.07342 0.340472,0.02647 0.510908,0.0367 0.145998,0.0088 0.772692,0.03057 0.929993,0.05639 0.160245,0.02631 0.315196,0.07832 0.472794,0.117476 0.319981,0.08171 0.703585,0.187845 1.03328,0.242871 0.09816,0.01638 0.202351,0.05831 0.297204,0.02821 0.03792,-0.01203 0.008,-0.0843 -0.01186,-0.118748 -0.136926,-0.236973 -0.369321,-0.424348 -0.45259,-0.685061 -0.116151,-0.363664 -0.08644,-0.758617 -0.129655,-1.137926 -0.831678,0.228616 0.61187,-0.882898 0.303494,-1.022157 -0.05804,-0.02621 -0.373494,0.0041 -0.437109,0.0091 -0.42243,-0.02242 -0.834594,-0.07032 -1.257634,-0.01293 -0.332996,0.04517 -0.584693,0.123201 -0.903118,0.209682 -0.127198,0.03485 -0.251574,0.08243 -0.381594,0.104523 -1.583839,0.269127 0.65028,-0.213979 -1.115424,0.150551 -0.579751,0.119689 -0.47106,0.130953 -1.025775,0.267193 -0.124954,0.03069 -0.252079,0.05175 -0.378118,0.07762 -0.322757,0.03271 -0.243801,0.01836 -0.557697,0.07479 -0.0513,0.0092 -0.205353,0.02719 -0.153343,0.03062 0.42157,0.02773 0.845527,0.0097 1.266727,0.04262 0.04217,0.0033 0.146936,0.08376 0.109129,0.06479 -0.04677,-0.02348 -0.09072,-0.05221 -0.136084,-0.07831 -0.14309,-0.066 -0.33616,-0.166409 -0.496872,-0.204362 -0.03756,-0.0089 -0.13382,-0.03799 -0.115719,-0.0039 0.100429,0.189117 0.366585,0.300081 0.386232,0.513307 0.213431,2.31632 0.30205,1.94558 -0.720327,3.030199 -0.408597,0.06488 -0.847555,0.02701 -1.225791,0.194631 -0.144102,0.06386 0.298779,0.100537 0.448485,0.14985 0.209827,0.06911 0.42173,0.132069 0.630109,0.205435 0.260483,0.09171 0.516605,0.195406 0.77617,0.289682 0.824033,0.299298 0.851265,0.300991 1.683842,0.574107 0.620442,0.147129 1.214051,0.385696 1.823801,0.567037 0.451551,0.134292 0.383187,0.08796 0.805167,0.182182 0.195299,0.04361 0.389118,0.0936 0.583677,0.140405 0.635335,-1.269453 1.399582,-2.4822 1.906006,-3.808358 0.05186,-0.135811 -0.229506,-0.179927 -0.354894,-0.253493 -0.438936,-0.257523 -0.49666,-0.246735 -0.959194,-0.385536 -0.292741,-0.116852 -1.945285,4.023133 -1.652544,4.139985 v 0 c 0.01501,-0.103505 0.01551,-0.04441 -0.02139,-0.175998 0.0015,-0.02401 0.02751,-0.03946 0.04126,-0.05918 0.730256,-1.207978 1.46051,-2.415956 2.190765,-3.623935 0.140359,0.04565 0.276569,0.106905 0.421077,0.136925 0.03,0.0062 -0.04117,-0.04628 -0.06664,-0.0633 -0.09246,-0.06179 -0.188283,-0.118632 -0.285737,-0.172198 -0.603655,-0.331802 -1.220743,-0.642017 -1.839964,-0.94338 -0.687456,-0.266868 -1.111318,-0.445513 -1.82639,-0.662489 -0.318919,-0.09677 -0.642893,-0.176179 -0.965982,-0.257957 -0.36167,-0.09154 -1.314325,-0.330603 -1.703775,-0.337827 -0.716405,-0.01329 -1.432159,0.05073 -2.148239,0.07609 -0.344939,0.239068 -0.878487,0.327719 -1.034818,0.717202 -0.316873,0.789456 -0.340096,1.689624 -0.271576,2.537535 0.02402,0.297246 0.338866,0.492362 0.534602,0.71735 0.240757,0.276737 0.67432,0.449287 1.006537,0.576738 0.146016,0.0511 0.292651,0.100483 0.438049,0.153324 0.166976,0.06068 0.322832,0.164371 0.499016,0.187228 0.436992,0.05669 1.675483,0.135639 2.328057,0.06395 0.174556,-0.01918 0.347409,-0.05155 0.521113,-0.07732 0.520177,-0.09674 1.050045,-0.175365 1.563537,-0.304274 0.178265,-0.04475 0.352829,-0.103136 0.529244,-0.154704 0.145272,-0.05327 0.28652,-0.119161 0.435814,-0.159817 0.08678,-0.02363 0.178628,-0.02122 0.267941,-0.03183 0.336849,-0.01444 0.671848,-0.02101 1.006268,-0.06956 0.543954,-0.07898 0.27228,-0.05608 0.739645,-0.140364 0.110523,-0.01994 0.221994,-0.03419 0.332991,-0.05128 0.584966,-0.117755 1.148418,-0.274614 1.643073,-0.627647 0.176917,-0.126264 0.368077,-0.24711 0.497017,-0.422087 0.242078,-0.328512 0.400168,-0.711304 0.600251,-1.066957 -0.01173,-0.490245 0.08819,-0.996123 -0.03518,-1.470737 -0.10055,-0.386835 -0.374088,-0.710371 -0.614714,-1.029511 -0.132298,-0.175467 -0.31591,-0.307392 -0.492204,-0.438586 -0.548146,-0.407923 -1.212158,-0.602261 -1.865676,-0.760072 -0.881955,-0.177449 -1.766078,-0.40281 -2.672533,-0.389721 -1.868832,0.02698 -1.278183,-0.09348 -2.384201,0.227294 -0.09676,0.0403 -0.19824,0.07076 -0.290295,0.12089 -0.05936,0.03233 0.132011,-0.03473 0.191388,-0.06703 0.01754,-0.0095 0.0087,-0.05083 0.02859,-0.05264 0.333161,-0.03033 0.670268,-0.0044 1.00277,-0.04124 0.180509,-0.02001 -0.91438,-0.118097 -0.536996,-0.09215 -0.430512,-0.0297 -0.860426,-0.03851 -1.291701,-0.05346 -0.136295,-0.0047 -0.273169,0.0029 -0.409036,-0.0088 -0.450523,-0.03909 -0.528419,-0.09066 -0.988145,-0.227661 -0.219086,-0.05078 -0.436458,-0.109628 -0.657258,-0.15234 -0.888163,-0.17181 -1.675395,-0.213128 -2.620573,-0.219136 -0.222125,-0.0014 -0.441281,0.05231 -0.660681,0.08703 -0.147287,0.02331 -1.037801,0.196818 -1.194053,0.227043 -0.567288,0.128809 -0.82957,0.182673 -1.406376,0.339098 -0.963026,0.261163 -1.9075512,0.585045 -2.8551245,0.89618 -0.9125737,0.39334 -1.4790746,0.516513 -1.9088156,1.815636 -0.3313283,1.001618 0.191299,2.175213 0.8737479,2.880226 0.1814627,0.187463 0.3868787,0.350157 0.580318,0.525235 0.2358645,0.173172 0.4643925,0.35681 0.707595,0.519516 0.9041047,0.604862 1.8954522,1.081488 2.9629512,1.306179 0.161977,0.03047 0.322726,0.06841 0.485929,0.09143 1.215386,0.171417 2.484388,0.137001 3.655388,-0.244648 0.137092,-0.06203 0.281708,-0.109592 0.411277,-0.186107 0.168522,-0.09952 0.674444,-0.348984 0.478956,-0.339609 -0.722386,0.03464 -1.415983,0.296864 -2.128856,0.418735 -0.04814,0.0082 -0.175253,-0.06726 -0.143347,-0.03028 0.154536,0.17908 0.887275,0.534739 0.965757,0.576853 0.93435,0.412656 1.034658,0.4895 2.047491,0.795096 0.350095,0.105633 0.701342,0.214242 1.061791,0.275896 0.213216,0.03647 0.43815,-0.03282 0.648723,0.01668 0.13537,0.03182 0.691443,0.497585 0.747611,0.542291 0.148968,0.09619 0.291497,0.203175 0.446903,0.288574 0.94599,0.519844 2.044756,0.778473 3.117612,0.810389 0.340864,0.04765 0.679415,0.107432 1.022672,0.137253 0.136756,0.01188 0.274804,0.0079 0.411098,0.02419 0.256999,0.0308 0.507056,0.107594 0.765022,0.133094 0.775458,0.220118 1.157038,0.367295 2.216785,0.102903 0.39051,-0.09743 0.712893,-0.40051 0.987593,-0.694667 0.40915,-0.438129 0.573661,-1.03875 0.628823,-1.612145 0.01782,-0.185227 -0.0095,-0.372043 -0.01423,-0.558065 -0.07974,-0.439943 -0.167906,-0.855377 -0.344862,-1.268443 -0.029,-0.0677 -0.227333,-0.472544 -0.289207,-0.55555 -0.009,-0.01207 -0.03009,-6.99e-4 -0.04514,-0.001 -0.0012,0.05872 -0.01184,0.118003 -0.0037,0.17616 0.0025,0.01754 0.01633,-0.03164 0.02164,-0.04856 0.01758,-0.05603 0.03186,-0.113052 0.04687,-0.169829 0.104493,-0.395339 0.18677,-0.795495 0.246473,-1.200229 0.0213,-0.09073 0.227299,-0.967335 0.237317,-1.014556 0.103972,-0.490094 0.166915,-0.988148 0.255283,-1.481076 6.2e-5,-0.267461 0.0164,-0.01791 -0.214984,0.275083 -0.120467,0.15254 -0.265169,0.284846 -0.408673,0.415945 -0.06397,0.05843 -0.282639,0.101066 -0.211697,0.1508 0.298922,0.209554 0.764764,-1.392625 0.872945,-0.661344 0.169128,-0.484106 0.425477,-0.946103 0.507387,-1.452318 0.04513,-0.278899 -0.06751,-0.56259 -0.137055,-0.836423 -0.0413,-0.162635 -0.119167,-0.314274 -0.193397,-0.46476 -0.187009,-0.379118 -0.468748,-0.693487 -0.784384,-0.969748 -0.17147,-0.106967 -0.227415,-0.128434 -0.372565,-0.274178 -0.08369,-0.08403 -0.156107,-0.17867 -0.237526,-0.264909 -0.306809,-0.324976 -0.635878,-0.622638 -1.014626,-0.863317 -0.166598,-0.09893 -0.328339,-0.206547 -0.499794,-0.296802 -0.79547,-0.418737 -1.624715,-0.589661 -2.499218,-0.747713 -0.465045,-0.0027 -0.930127,-0.0016 -1.395135,-0.0081 -0.03171,-4.4e-4 -0.126015,-0.01163 -0.09431,-0.01257 0.333904,-0.01 0.668134,-0.005 1.002052,-0.01448 0.04707,-0.0013 -0.0939,-0.0074 -0.140919,-0.01 -0.21238,-0.01157 -0.200932,-0.0085 -0.423745,-0.0091 -0.304654,-0.01447 -0.191406,-0.0016 -0.515107,-0.05087 -0.110588,-0.01685 -0.219675,-0.0469 -0.331369,-0.05306 -0.707888,-0.039 -1.402502,-0.07737 -2.105294,-0.01637 -0.225755,0.02924 -0.446615,0.08247 -0.673136,0.04743 -0.06619,-0.01024 -0.264445,-0.02696 -0.197914,-0.03465 0.617452,-0.07145 1.308036,-0.01523 0.50556,-0.065 -0.577931,-0.005 -1.156056,0.0057 -1.733694,-0.01141 -0.128904,-0.0038 -0.258425,0.0013 -0.386695,-0.01209 -0.142291,-0.0148 -0.282048,-0.04808 -0.423072,-0.07211 -2.156234,-0.03144 -1.741251,-0.01916 -0.607253,-0.01986 0.08222,-5.1e-5 -0.164497,0.0012 -0.246651,-0.0021 -0.345654,-0.0139 -0.682641,-0.0893 -1.028202,-0.107262 -0.898284,-0.06286 -1.783574,-0.0683 -2.6882,-0.04601 -0.264381,0.0065 -0.769644,0.07701 -1.015008,0.165988 -0.256656,0.09307 -0.496294,0.227658 -0.744442,0.341487 -0.212479,0.182877 -0.433361,0.356422 -0.637438,0.54863 -0.173175,0.163105 -0.375555,0.430097 -0.519422,0.630137 -0.082458,0.114654 0.719388,-0.966792 0.310154,-0.288633 0.601188,-0.07207 1.198627,-0.24218 1.803565,-0.216231 0.190282,0.0082 0.329967,0.193388 0.477307,0.314072 0.06284,0.05147 0.224862,0.180176 0.145139,0.195765 -1.241045,0.242662 -2.559604,0.110463 -3.759082,0.510874 -0.1534155,0.05121 -0.4120387,1.17385 -0.4720147,1.411847 -0.02397,0.251857 -0.066187,0.502641 -0.071903,0.755571 -0.032325,1.431162 0.2903085,2.935495 0.8566395,4.247894 0.09743,0.225781 0.228645,0.435429 0.3429667,0.653144 0.088138,0.31204 4.5010495,-0.934409 4.4129115,-1.246449 z" />
      <path
         style="fill:#678a9b;stroke-width:0.75"
         id="path11527"
         d="m 13.591814,22.918881 c -0.07415,-0.542075 -0.298838,-1.040479 -0.487275,-1.548087 -0.02089,-0.05627 -0.03047,-0.1169 -0.05656,-0.170962 -0.0053,-0.0109 -0.0073,0.02319 -0.009,0.03517 -0.01661,0.118837 -0.03055,0.238028 -0.04583,0.357042 -0.215188,0.519477 -0.160169,0.527403 -0.607277,0.950424 -0.09975,0.09437 -0.203865,0.210115 -0.339107,0.233896 -0.388453,0.06831 -0.788562,0.02066 -1.182759,0.03371 -0.0528,0.0017 0.105745,0.0032 0.158487,2.14e-4 0.503998,-0.02887 1.007622,-0.06392 1.511433,-0.09588 0.469695,-0.200076 0.833785,-0.488343 1.143129,-0.885507 0.03698,-0.04747 0.141497,-0.194275 0.10155,-0.149267 -0.799143,0.900416 0.333498,0.18182 -2.227568,0.872531 -0.04991,-0.01698 -0.103252,-0.02605 -0.149733,-0.05092 -0.02789,-0.01493 0.06617,-0.0032 0.09422,0.01147 0.09991,0.05216 0.193948,0.1155 0.295706,0.163955 0.423951,0.201877 0.475921,0.200111 0.9209,0.336591 0.448619,0.09765 0.380182,0.08879 0.821537,0.161923 0.141026,0.02337 0.280763,0.06314 0.423674,0.06641 0.510205,0.01164 1.022458,0.02264 1.530856,-0.02181 0.04458,-0.0039 0.535154,-0.20248 0.639762,-0.244314 0.05037,-0.02053 0.102902,-0.08676 0.151109,-0.06158 0.03704,0.01935 -0.0614,0.07866 -0.0449,0.117059 0.01549,0.03606 0.07313,0.02954 0.111489,0.03787 0.359153,0.07794 1.118722,0.0353 -0.616189,0.04131 0.630962,0.02939 0.818404,0.04107 1.731039,0.02614 0.107147,-0.0017 0.212051,-0.03124 0.318398,-0.04443 0.237342,-0.02942 0.474051,-0.04997 0.710353,-0.08749 0.20993,-0.01562 0.40951,-0.09321 0.611369,-0.148553 0.04424,-0.01213 0.08816,-0.0255 0.132809,-0.03599 0.02291,-0.0054 0.04718,-0.01856 0.06964,-0.01155 0.01017,0.0032 -0.0042,0.02088 -0.0063,0.03132 0.0054,0.01874 0.03565,0.05453 0.01622,0.05624 -0.324662,0.02855 -0.651719,0.01439 -0.977338,0.0283 -0.05677,0.0024 0.113582,0.004 0.170367,0.0061 0.207701,0.0079 0.41397,0.0151 0.621844,0.01288 1.494695,-0.03761 0.953404,0.08948 1.668277,-0.10825 0.176498,-0.04882 0.252359,-0.09226 0.417261,-0.02446 0.225579,-0.03776 0.44385,-0.102943 0.670629,-0.132548 0.04896,-0.0064 0.152574,-0.03085 0.204712,-0.0053 -0.362286,0.01059 -0.72873,-0.02397 -1.086857,0.03178 -0.09911,0.01543 0.188771,0.06908 0.286207,0.09286 0.143728,0.03509 0.290284,0.05747 0.435935,0.08344 0.204759,0.03653 0.408865,0.07814 0.615233,0.104058 0.471279,0.0592 0.847165,0.06536 1.319135,0.08499 0.477635,0.02507 0.952592,0.0041 1.428453,-0.02896 1.017689,-0.07082 1.784959,0.150944 2.44984,-0.824813 0.290408,-0.426192 0.338623,-0.974289 0.507934,-1.461434 -1.422188,2.281131 -0.509707,2.056325 -2.497325,2.123538 -0.01439,4.87e-4 -0.01855,-0.02203 -0.02803,-0.03287 -0.0052,-0.0058 -0.02323,-0.01985 -0.01586,-0.01728 0.02736,0.0095 0.05087,0.02807 0.07776,0.03887 0.08015,0.03224 0.162004,0.06009 0.243006,0.09013 0.232157,0.04685 0.450926,0.161961 0.685928,0.180773 0.02375,0.01218 0.0667,0.06285 0.07127,0.03655 0.0091,-0.05273 -0.03482,-0.101232 -0.0512,-0.152187 -0.02869,-0.08925 -0.06276,-0.177089 -0.084,-0.268396 -0.01558,-0.067 0.04151,0.131304 0.06697,0.195214 0.134229,0.336928 0.125335,0.29422 0.310246,0.611763 0.273285,0.337131 0.243104,0.336172 0.546007,0.590931 0.01525,0.01283 0.06052,0.04533 0.05352,0.02666 -0.01615,-0.04306 -0.05815,-0.07138 -0.08444,-0.109123 -0.197957,-0.284082 -0.149623,-0.202226 -0.262673,-0.439425 -0.04141,-0.12065 -0.07604,-0.24384 -0.124217,-0.36195 -0.01403,-0.03441 -0.0066,0.07475 -9.75e-4,0.111483 0.04487,0.294075 0.123847,0.57402 0.212615,0.857264 0.121892,0.353086 0.29473,0.688916 0.505456,0.997356 0.102174,0.149553 0.05659,0.128618 0.14595,0.155473 -0.185953,-0.538167 -0.190139,-0.453963 -0.159651,-1.28475 0.0048,-0.131759 0.07584,-0.253209 0.09835,-0.383119 0.0055,-0.0316 -0.03517,0.05423 -0.04655,0.08422 -0.05289,0.139383 -0.103808,0.279762 -0.14583,0.422796 -0.02855,0.09716 -0.04369,0.197769 -0.06554,0.296653 -0.08884,0.469797 -0.06785,0.947696 -0.03376,1.421357 0.04635,0.279959 0.05899,0.591402 0.18687,0.852532 0.0016,0.0034 0.0082,-0.0042 0.008,-0.0079 -0.0025,-0.04279 -0.01061,-0.08507 -0.01591,-0.127603 -0.0037,-0.05731 -0.0087,-0.114556 -0.01099,-0.17194 -0.0014,-0.03564 6.75e-4,-0.07134 -1.98e-4,-0.106998 -1.14e-4,-0.0047 -0.0015,-0.01828 -0.0028,-0.01377 -0.05469,0.196538 -0.01554,0.516169 -0.01254,0.665645 0.01031,0.08027 0.02442,0.160144 0.03092,0.240812 0.0042,0.05177 -0.01819,0.117918 -0.01742,0.16786 0.0048,0.311282 0.05909,0.615995 0.120947,0.919811 0.13448,-0.143671 0.0016,0.446081 0.12242,0.38597 0.05417,-0.02694 -0.0038,-0.121172 9.75e-4,-0.181482 0.01218,-0.155742 -0.0038,-0.31923 0.04965,-0.466016 0.119685,-0.328633 0.308653,-0.627717 0.46298,-0.941575 -0.203651,0.226015 2.992694,3.106082 3.196345,2.880066 v 0 c 0.184162,-0.338871 0.41102,-0.657815 0.552485,-1.016614 0.147305,-0.373611 0.0841,-0.988986 0.03892,-1.402143 -0.04118,-0.209712 -0.10404,-0.409478 -0.149948,-0.617746 -0.01426,-0.06472 -0.072,-0.394268 -0.109878,-0.482861 -0.0074,-0.01732 -0.0055,0.03727 -0.0082,0.0559 -0.02141,0.931372 0.03694,-0.248934 0.01271,-0.373722 -0.05683,-0.450327 -0.0053,-0.06511 -0.05297,-0.379105 -0.0033,-0.02154 -0.0056,-0.04322 -0.0083,-0.06484 -0.002,-0.01598 -0.0055,-0.06353 -0.0081,-0.04763 -0.0021,0.01312 -6.12e-4,0.02656 -9e-4,0.03983 -0.0059,-0.19957 0.0029,-0.408042 -0.02707,-0.603389 -0.06455,0.09807 -7.5e-4,-0.0028 -0.10974,0.24565 -0.0043,0.0098 0.0059,-0.02059 0.009,-0.03085 0.0468,-0.155637 0.129171,-0.304726 0.140622,-0.466843 0.02408,-0.340925 0.0064,-0.685488 -0.03526,-1.024717 -0.01739,-0.141719 -0.09346,-0.269837 -0.140196,-0.404755 -0.0822,-0.21219 -0.167043,-0.429567 -0.327225,-0.596339 -0.01407,-0.01603 -0.02465,-0.03598 -0.04221,-0.04807 -0.01079,-0.0074 -0.02913,0.01928 -0.03564,-0.0066 -0.07492,-0.29809 -0.111006,-0.602221 -0.24423,-0.886485 -0.164637,-0.331615 -0.34659,-0.632509 -0.615673,-0.891437 -0.03449,-0.03319 -0.07534,-0.118973 -0.112695,-0.08903 -0.104188,0.08351 0.48259,0.27077 0.213861,0.338706 0.0482,0.129216 0.0634,0.159159 0.0973,0.294196 0.003,0.01195 0.0072,0.04847 0.0032,0.03681 -0.12499,-0.368081 -0.223525,-0.728272 -0.463599,-1.044601 -0.09088,-0.11691 -0.174263,-0.240048 -0.27263,-0.35073 -0.48747,-0.548499 -1.116843,-0.931261 -1.801918,-1.181023 -0.677471,-0.210506 -2.28204,-0.714315 -2.852366,-0.297437 -0.685093,0.500766 -0.983522,1.38317 -1.475283,2.074755 0.375329,-1.01168 0.323876,-1.648453 1.434899,-2.048631 0.36131,-0.13014 0.76942,-0.01965 1.149827,-0.07229 0.0826,-0.01143 -0.162344,-0.03868 -0.244497,-0.05299 -0.303533,-0.05291 -0.611239,-0.07991 -0.91425,-0.136124 -0.486929,-0.06247 -0.864672,-0.121644 -1.361058,-0.138185 -0.249988,-0.0083 -0.500343,-5.23e-4 -0.750343,0.0074 -0.197984,0.0063 -0.395466,0.02359 -0.593199,0.03538 -0.126694,0.02738 -0.250753,0.07348 -0.380081,0.08215 -0.434632,0.02914 -0.870972,0.02062 -1.306458,0.03094 -0.194451,0.0227 -0.387833,0.04828 -0.580704,0.08223 -0.09226,0.01624 -0.191742,0.04438 -0.28786,0.0404 -0.01273,-5.26e-4 -0.02404,-0.0085 -0.03606,-0.01273 -0.186005,0.03619 -0.382755,0.102406 -0.571975,0.118084 -0.01906,0.0016 -0.04147,0.0016 -0.05643,-0.0103 -0.01,-0.0079 -0.01704,-0.03737 -0.0043,-0.03803 0.361263,-0.01886 0.723407,-0.01227 1.08511,-0.01841 -0.732623,-0.05473 -1.501367,-0.04577 -2.22562,-0.0047 -0.09458,0.0053 -0.184375,0.04365 -0.276563,0.06547 -0.0658,0.01664 -0.444113,0.130166 -0.524663,0.08393 -0.01078,-0.0062 0.0087,-0.03506 -0.0036,-0.03711 -0.0627,-0.01046 -0.1271,0.0032 -0.19065,0.0047 -0.211254,-1.89e-4 -0.42475,0.02018 -0.635654,0.01308 -0.06144,-0.0021 -0.244967,-0.0188 -0.183493,-0.01853 0.356067,0.0016 1.453531,0.03929 0.64029,0.01207 -0.572782,-0.0042 -1.710418,-0.09305 -2.368538,0.127501 -0.683356,0.229005 -0.234048,0.14617 -0.514243,0.193721 -0.0343,-0.04948 -0.07605,-0.09497 0.111357,-0.107297 0.395257,-0.026 0.792357,-0.01013 1.188335,1.45e-4 0.01196,3.11e-4 -0.0075,0.03074 -0.01941,0.03018 -0.05539,-0.0026 -0.10848,-0.02341 -0.161783,-0.03868 -0.09765,-0.02797 -0.193881,-0.06067 -0.290822,-0.091 -0.125125,-0.03351 -0.249092,-0.07168 -0.375376,-0.100521 -0.04316,-0.0099 -0.733653,-0.137523 -0.778005,-0.149839 -0.137173,-0.03809 -0.266299,-0.101246 -0.402155,-0.143797 -0.213028,-0.06672 -0.441487,-0.07742 -0.651807,-0.15376 -0.707069,0.17462 -1.439083,0.268625 -2.121208,0.523861 -0.169985,0.06361 -0.236598,0.275594 -0.36312,0.40572 -0.01524,0.01568 0.0148,-0.0416 0.02684,-0.05986 0.177501,-0.269331 0.426156,-0.436713 0.71641,-0.575914 0.429019,-0.02072 0.858317,-0.0363 1.287056,-0.06217 0.03886,-0.0023 -0.07755,-0.0087 -0.116481,-0.0085 -0.501013,0.0037 -1.006218,-0.04523 -1.502943,0.02029 -0.511098,0.06742 -1.1209083,0.533386 -1.4296263,0.888414 -0.2031525,0.233627 -0.3219187,0.52894 -0.4828785,0.79341 -0.078553,0.293953 -0.1901917,0.581008 -0.2356597,0.88186 -0.1412168,0.934407 0.1339305,1.903904 0.5911087,2.713961 0.075703,0.134137 0.1725878,0.255165 0.2588813,0.382747 0.096186,0.303212 4.3842575,-1.057061 4.2880715,-1.360273 z" />
      <path
         style="fill:#678a9b;stroke-width:0.75"
         id="path11529"
         d="m 23.118756,23.005619 c 0.808945,0.06743 1.698567,0.09201 2.482153,-0.157462 0.891963,-0.721431 0.835755,-0.650805 -2.693989,-1.897863 -0.32632,-0.115288 0.197273,0.663466 0.295909,0.995199 0.141436,0.275272 4.034365,-1.724931 3.89293,-2.000202 v 0 c 0.04716,0.250534 0.369546,0.865505 0.141472,0.751603 -5.629797,-2.811584 -1.532261,-1.743587 -2.88796,-2.091015 -0.77384,-0.137152 -1.579238,-0.102906 -2.348664,0.04483 -0.307938,0.07906 0.810211,4.43397 1.118149,4.354905 z" />
      <path
         id="path11221"
         d="M 41.64722,37.514262 H 39.5662 c -0.62423,0 -1.04056,0.416282 -1.04056,1.040559 0,1.560548 2.18517,0.936348 3.12158,1.040559 0.62423,0 1.04056,-0.416282 1.04056,-1.040559 0,-0.624277 -0.41628,-1.040559 -1.04056,-1.040559 z m -1.04056,-9.364061 c -1.76895,0 -3.12158,1.352629 -3.12158,3.121579 0,1.76895 1.35263,3.121579 3.12158,3.121579 1.76895,0 3.12158,-1.352629 3.12158,-3.121579 0,-1.76895 -1.35263,-3.121579 -3.12158,-3.121579 z m 0,4.161655 c -0.62423,0 -1.04056,-0.416282 -1.04056,-1.040559 0,-0.624229 0.41628,-1.040559 1.04056,-1.040559 0.62423,0 1.04056,0.416282 1.04056,1.040559 0,0.624606 -0.41628,1.040559 -1.04056,1.040559 z m 0,-13.526683 c -1.76895,0 -3.12158,1.352629 -3.12158,3.121579 0,1.76895 1.35263,3.121579 3.12158,3.121579 1.76895,0 3.12158,-1.352629 3.12158,-3.121579 0,-1.76895 -1.35263,-3.121579 -3.12158,-3.121579 z m 0,4.162041 c -0.62423,0 -1.04056,-0.416281 -1.04056,-1.040559 0,-0.624229 0.41628,-1.040558 1.04056,-1.040558 0.62423,0 1.04056,0.416281 1.04056,1.040558 0,0.624229 -0.41628,1.040559 -1.04056,1.040559 z m -16.64797,1.93e-4 c -0.62423,0 -1.04056,0.416282 -1.04056,1.040559 0,0.624229 0.41628,1.040559 1.04056,1.040559 1.14471,0 2.08102,0.936348 2.08102,2.08102 0,0.624229 0.41628,1.040559 1.04056,1.040559 0.62422,0 1.04055,-0.416281 1.04055,-1.040559 0,-2.288939 -1.8731,-4.162041 -4.16204,-4.162041 z M 27.08036,17.74558 H 11.47295 c -3.433652,0 -6.243063,2.809412 -6.243063,6.243062 v 10.404621 c 0,3.43365 2.809411,6.243062 6.243063,6.243062 h 15.60741 c 3.43365,0 6.24306,-2.809412 6.24306,-6.243062 l -3.8e-4,-10.405587 c 0,-3.43365 -2.80903,-6.242676 -6.24268,-6.242676 z m 4.16204,16.647006 c 0,2.28894 -1.87271,4.162042 -4.16204,4.162042 H 11.47295 c -2.28894,0 -4.162043,-1.872716 -4.162043,-4.162042 v -10.40462 c 0,-2.288939 1.872713,-4.162042 4.162043,-4.162042 h 15.60741 c 2.28894,0 4.16204,1.872716 4.16204,4.162042 z M 44.76889,12.542787 H 26.87264 L 35.82096,1.7217489 c 0.41628,-0.416281 0.31212,-1.14471103 -0.10416,-1.45678203 -0.41628,-0.416281 -1.14471,-0.312119 -1.45679,0.104163 L 24.99991,11.606583 15.73942,0.47347487 c -0.41628,-0.416281 -1.04056,-0.520067 -1.45678,-0.104162 -0.41628,0.416282 -0.52007,1.04055903 -0.10416,1.45678203 L 23.12719,12.542787 H 5.23093 c -2.913178,0 -5.2026,2.288939 -5.2026,5.2026 v 22.890358 c 0,2.913178 2.288939,5.2026 5.2026,5.2026 v 2.601107 C 5.23093,49.271638 5.959331,50 6.791865,50 h 5.202595 c 2.28894,0 1.35263,-3.121579 1.56055,-4.162041 H 36.44537 C 36.65332,46.878518 35.71697,50 38.00592,50 h 5.2026 c 2.28894,0 1.35263,-3.121579 1.56055,-4.162041 2.91318,0 5.2026,-2.288939 5.2026,-5.2026 V 17.745 c 0,-2.913564 -2.28894,-5.2026 -5.20222,-5.2026 z M 11.47295,47.918883 H 7.310907 v -2.081021 h 4.162043 z m 31.21483,0 h -4.16204 v -2.081021 h 4.16204 z m 5.20221,-7.283234 c 0,1.768949 -1.35263,3.121579 -3.12158,3.121579 H 5.23008 c -1.76895,0 -3.12158,-1.35263 -3.12158,-3.121579 L 2.108887,17.74529 c 0,-1.76895 1.35263,-3.121579 3.121579,-3.121579 H 44.7688 c 1.76895,0 3.12158,1.352629 3.12158,3.121579 z"
         style="stroke-width:0.0966164" />
    </g>
  </g>
</svg>
