<?xml version="1.0" encoding="UTF-8" standalone="no"?>
<svg
   width="50pt"
   height="50pt"
   version="1.1"
   viewBox="0 0 50 50"
   id="svg11662"
   sodipodi:docname="water_drops.svg"
   inkscape:version="1.2.2 (b0a8486541, 2022-12-01)"
   xmlns:inkscape="http://www.inkscape.org/namespaces/inkscape"
   xmlns:sodipodi="http://sodipodi.sourceforge.net/DTD/sodipodi-0.dtd"
   xmlns="http://www.w3.org/2000/svg"
   xmlns:svg="http://www.w3.org/2000/svg">
  <defs
     id="defs11666" />
  <sodipodi:namedview
     id="namedview11664"
     pagecolor="#ffffff"
     bordercolor="#000000"
     borderopacity="0.25"
     inkscape:showpageshadow="2"
     inkscape:pageopacity="0.0"
     inkscape:pagecheckerboard="0"
     inkscape:deskcolor="#d1d1d1"
     inkscape:document-units="pt"
     showgrid="false"
     inkscape:zoom="9.4776733"
     inkscape:cx="19.308536"
     inkscape:cy="42.468229"
     inkscape:window-width="1836"
     inkscape:window-height="1476"
     inkscape:window-x="3016"
     inkscape:window-y="56"
     inkscape:window-maximized="1"
     inkscape:current-layer="svg11662" />
  <g
     fill-rule="evenodd"
     id="g11660"
     transform="matrix(0.10204005,0,0,0.10204005,-15.476208,-3.5713609)">
    <path
       d="m 358.96,249.19 -8.957,7.4805 -8.957,-7.4805 c 2.2188,-2.6523 5.5,-4.1875 8.957,-4.1875 3.457,0 6.7383,1.5352 8.957,4.1875 z m -8.957,26.051 c -1.6211,2.0469 -3.418,4.3398 -5.3633,6.8516 -8.6523,11.152 -20.16,26.531 -31.648,43.465 -11.516,16.973 -22.859,35.285 -31.277,52.344 -8.6172,17.461 -13.379,32.062 -13.379,42.102 0,45.102 36.566,81.668 81.668,81.668 45.102,0 81.668,-36.566 81.668,-81.668 0,-10.039 -4.7617,-24.641 -13.379,-42.102 -8.4219,-17.059 -19.762,-35.371 -31.277,-52.344 -11.488,-16.934 -22.996,-32.312 -31.648,-43.465 -1.9453,-2.5117 -3.7422,-4.8047 -5.3633,-6.8516 z m 0,-18.57 c -8.957,-7.4805 -8.9531,-7.4805 -8.957,-7.4805 l -0.0781,0.0977 -0.21484,0.26172 -0.80858,0.97656 c -0.70312,0.85547 -1.72661,2.1094 -3.0234,3.7148 -2.5938,3.2109 -6.293,7.8398 -10.719,13.551 -8.8516,11.414 -20.676,27.203 -32.52,44.664 -11.816,17.418 -23.809,36.715 -32.891,55.117 -8.8828,17.996 -15.789,36.695 -15.789,52.43 0,57.992 47.012,105 105,105 57.992,0 105,-47.008 105,-105 0,-15.734 -6.9062,-34.434 -15.789,-52.43 -9.0781,-18.402 -21.074,-37.699 -32.891,-55.117 -11.844,-17.461 -23.668,-33.25 -32.52,-44.664 -4.4258,-5.7109 -8.125,-10.34 -10.719,-13.551 -1.2969,-1.6055 -2.3203,-2.8594 -3.0234,-3.7148 l -0.80859,-0.97656 -0.21484,-0.26172 -0.0781,-0.0977 c -0.004,0 0,0 -8.957,7.4805 z"
       id="path11654" />
    <path
       d="m 473.5,39.191 -8.9531,7.4766 -8.957,-7.4766 c 2.2188,-2.6562 5.4961,-4.1914 8.957,-4.1914 3.457,0 6.7383,1.5352 8.9531,4.1914 z m -8.9531,26.133 c -0.45312,0.57422 -0.91406,1.168 -1.3867,1.7812 -6.2656,8.0781 -14.594,19.203 -22.898,31.449 -8.3359,12.281 -16.496,25.465 -22.527,37.688 -6.2305,12.629 -9.4023,22.688 -9.4023,29.211 0,31.047 25.168,56.215 56.215,56.215 31.043,0 56.211,-25.168 56.211,-56.215 0,-6.5234 -3.168,-16.582 -9.4023,-29.211 -6.0312,-12.223 -14.191,-25.406 -22.523,-37.688 -8.3086,-12.246 -16.637,-23.371 -22.898,-31.449 -0.47656,-0.61328 -0.94141,-1.207 -1.3867,-1.7812 z m 0,-18.656 c -8.957,-7.4766 -8.957,-7.4805 -8.957,-7.4766 l -0.0625,0.07422 -0.16016,0.19141 -0.59766,0.72266 c -0.51562,0.62891 -1.2656,1.543 -2.2148,2.7188 -1.8984,2.3516 -4.5977,5.7344 -7.8359,9.9102 -6.4609,8.3359 -15.102,19.875 -23.766,32.645 -8.6367,12.727 -17.449,26.895 -24.141,40.461 -6.4961,13.16 -11.812,27.32 -11.812,39.539 0,43.934 35.613,79.547 79.547,79.547 43.93,0 79.543,-35.613 79.543,-79.547 0,-12.219 -5.3125,-26.379 -11.809,-39.539 -6.6953,-13.566 -15.508,-27.734 -24.141,-40.461 -8.6641,-12.77 -17.305,-24.309 -23.77,-32.645 -3.2344,-4.1758 -5.9375,-7.5586 -7.8359,-9.9102 -0.94922,-1.1758 -1.6992,-2.0898 -2.2148,-2.7188 l -0.59766,-0.72266 -0.16016,-0.19141 -0.0625,-0.07422 c 0,-0.0039 0,0 -8.9531,7.4766 z"
       id="path11656" />
    <path
       d="m 223.2,109.19 -8.957,7.4766 -8.957,-7.4766 c 2.2188,-2.6562 5.5,-4.1914 8.957,-4.1914 3.457,0 6.7383,1.5352 8.957,4.1914 z m -8.957,26.23 c -4.4961,5.8516 -10.156,13.48 -15.801,21.797 -6.2109,9.1562 -12.25,18.922 -16.691,27.922 -4.6406,9.4023 -6.75,16.438 -6.75,20.617 0,21.672 17.57,39.242 39.242,39.242 21.672,0 39.242,-17.57 39.242,-39.242 0,-4.1797 -2.1094,-11.215 -6.75,-20.617 -4.4414,-9 -10.48,-18.766 -16.691,-27.922 -5.6406,-8.3164 -11.305,-15.945 -15.801,-21.797 z m 0,-18.754 c -8.957,-7.4766 -8.9531,-7.4805 -8.957,-7.4766 l -0.0469,0.0586 -0.125,0.14844 -0.45312,0.55078 c -0.39453,0.47656 -0.96094,1.1719 -1.6797,2.0586 -1.4336,1.7734 -3.4727,4.3281 -5.9141,7.4766 -4.8711,6.2852 -11.391,14.992 -17.934,24.633 -6.51169,9.6016 -13.203,20.352 -18.309,30.695 -4.9023,9.9375 -9.1562,21.066 -9.1562,30.945 0,34.559 28.016,62.574 62.574,62.574 34.559,0 62.57401,-28.016 62.57401,-62.574 0,-9.8789 -4.2539,-21.008 -9.15621,-30.945 -5.1055,-10.344 -11.793,-21.094 -18.309,-30.695 -6.543,-9.6406 -13.062,-18.348 -17.934,-24.633 -2.44139,-3.1484 -4.4805,-5.7031 -5.91409,-7.4766 -0.71875,-0.88672 -1.2852,-1.582 -1.6797,-2.0586 l -0.45313,-0.55078 -0.12109,-0.14844 -0.0352,-0.043 c -0.004,0 -0.0156,-0.0156 -8.9727,7.4609 z"
       id="path11658" />
  </g>
</svg>
