<?xml version="1.0" encoding="UTF-8" standalone="no"?>
<svg
   width="50pt"
   height="50pt"
   version="1.1"
   viewBox="0 0 50 50"
   id="svg3970"
   sodipodi:docname="cleaver.svg"
   inkscape:version="1.2.2 (b0a8486541, 2022-12-01)"
   xmlns:inkscape="http://www.inkscape.org/namespaces/inkscape"
   xmlns:sodipodi="http://sodipodi.sourceforge.net/DTD/sodipodi-0.dtd"
   xmlns="http://www.w3.org/2000/svg"
   xmlns:svg="http://www.w3.org/2000/svg">
  <defs
     id="defs3974" />
  <sodipodi:namedview
     id="namedview3972"
     pagecolor="#ffffff"
     bordercolor="#000000"
     borderopacity="0.25"
     inkscape:showpageshadow="2"
     inkscape:pageopacity="0.0"
     inkscape:pagecheckerboard="0"
     inkscape:deskcolor="#d1d1d1"
     inkscape:document-units="pt"
     showgrid="false"
     inkscape:zoom="1.005"
     inkscape:cx="466.66667"
     inkscape:cy="467.16418"
     inkscape:window-width="3740"
     inkscape:window-height="1476"
     inkscape:window-x="1112"
     inkscape:window-y="56"
     inkscape:window-maximized="1"
     inkscape:current-layer="svg3970" />
  <g
     id="g3968"
     transform="matrix(0.10203725,0,0,0.10203725,-10.71261,-3.5735967)">
    <path
       d="m 122.04,517.74 c 6.418,4.3164 13.812,6.5586 21.398,6.5586 2.4961,0 5.0156,-0.25781 7.5117,-0.74609 10.102,-1.9844 18.809,-7.7695 24.547,-16.309 l 98.211,-146.32 123.64,82.973 c 5.2969,3.5703 12.555,2.1914 16.172,-3.1719 l 179.5,-267.42 c 1.7266,-2.5664 2.3789,-5.7148 1.75,-8.75 -0.58203,-3.0352 -2.3789,-5.7148 -4.9453,-7.4219 l -177.89,-119.4 c -5.2734,-3.5469 -12.555,-2.1914 -16.172,3.1719 l -284.23,423.41 c -5.7383,8.5391 -7.793,18.809 -5.8086,28.887 1.9805,10.082 7.7891,18.809 16.309,24.547 z m 286.6,-454.16 116.57,78.238 -113.17,168.58 c -2.6836,4.0117 -1.6094,9.4492 2.4023,12.156 1.4922,1.0039 3.1953,1.4688 4.875,1.4688 2.8008,0 5.5781,-1.3516 7.2812,-3.875 l 113.17,-168.58 27.418,18.41 -166.55,248.06 -27.418,-18.387 23.426,-34.883 c 2.6836,-4.0117 1.6094,-9.4492 -2.4023,-12.156 -4.0117,-2.6836 -9.4258,-1.6562 -12.156,2.4023 l -23.426,34.883 -81.668,-54.832 -34.883,-23.426 z m -277.74,413.75 98.211,-146.32 25.199,16.918 -98.211,146.3 c -2.2617,3.3828 -5.6914,5.6484 -9.6836,6.4414 -4.0117,0.76953 -8.0039,-0.0469 -11.387,-2.2852 -3.3828,-2.2617 -5.6484,-5.6914 -6.4414,-9.6836 -0.74219,-3.9688 0.0742,-8.0039 2.3125,-11.367 z"
       id="path3964" />
    <path
       d="m 400.26,151.43 c 5.9258,3.9648 12.762,6.043 19.762,6.043 2.3086,0 4.6211,-0.23437 6.9531,-0.67578 9.3086,-1.8438 17.383,-7.1875 22.68,-15.074 5.3203,-7.8867 7.2109,-17.383 5.3672,-26.715 -1.8437,-9.332 -7.2109,-17.383 -15.074,-22.68 -16.238,-10.875 -38.406,-6.5586 -49.398,9.7305 -10.918,16.285 -6.5781,38.426 9.7109,49.371 z m 4.8047,-39.645 c 3.4766,-5.2031 9.2383,-8.0039 15.074,-8.0039 3.4531,0 6.9766,0.98047 10.059,3.0586 4.0117,2.6836 6.7188,6.7891 7.6523,11.527 0.93359,4.7383 -0.0234,9.5664 -2.7305,13.578 -2.6836,4.0117 -6.7656,6.7422 -11.504,7.6758 -4.8086,0.95703 -9.5898,-0.0469 -13.578,-2.7305 -8.2852,-5.5742 -10.527,-16.82 -4.9727,-25.105 z"
       id="path3966" />
  </g>
</svg>
