<?xml version="1.0" encoding="UTF-8" standalone="no"?>
<svg
   width="50pt"
   height="50pt"
   version="1.1"
   viewBox="0 0 50 50"
   id="svg1106"
   sodipodi:docname="fan_active.svg"
   inkscape:version="1.2.2 (b0a8486541, 2022-12-01)"
   xmlns:inkscape="http://www.inkscape.org/namespaces/inkscape"
   xmlns:sodipodi="http://sodipodi.sourceforge.net/DTD/sodipodi-0.dtd"
   xmlns="http://www.w3.org/2000/svg"
   xmlns:svg="http://www.w3.org/2000/svg">
  <sodipodi:namedview
     id="namedview1108"
     pagecolor="#ffffff"
     bordercolor="#000000"
     borderopacity="0.25"
     inkscape:showpageshadow="2"
     inkscape:pageopacity="0.0"
     inkscape:pagecheckerboard="0"
     inkscape:deskcolor="#d1d1d1"
     inkscape:document-units="pt"
     showgrid="false"
     inkscape:zoom="15.298605"
     inkscape:cx="29.970053"
     inkscape:cy="34.74173"
     inkscape:window-width="1836"
     inkscape:window-height="1476"
     inkscape:window-x="3016"
     inkscape:window-y="56"
     inkscape:window-maximized="1"
     inkscape:current-layer="svg1106" />
  <defs
     id="defs1062">
    <symbol
       id="e"
       overflow="visible">
      <path
         d="m 31.266,-1.875 c -1.6172,0.84375 -3.2969,1.4766 -5.0469,1.8906 -1.7422,0.42578 -3.5586,0.64062 -5.4531,0.64062 -5.668,0 -10.156,-1.582 -13.469,-4.75 -3.3125,-3.1641 -4.9688,-7.4609 -4.9688,-12.891 0,-5.4375 1.6562,-9.7383 4.9688,-12.906 3.3125,-3.1641 7.8008,-4.75 13.469,-4.75 1.8945,0 3.7109,0.21484 5.4531,0.64062 1.75,0.42969 3.4297,1.0586 5.0469,1.8906 v 7.0469 c -1.625,-1.1133 -3.2305,-1.9258 -4.8125,-2.4375 -1.5742,-0.51953 -3.2344,-0.78125 -4.9844,-0.78125 -3.1367,0 -5.6016,1.0078 -7.3906,3.0156 -1.793,2 -2.6875,4.7617 -2.6875,8.2812 0,3.5117 0.89453,6.2734 2.6875,8.2812 1.7891,2 4.2539,3 7.3906,3 1.75,0 3.4102,-0.25391 4.9844,-0.76562 1.582,-0.51953 3.1875,-1.332 4.8125,-2.4375 z"
         id="path1023" />
    </symbol>
    <symbol
       id="d"
       overflow="visible">
      <path
         d="m 22.875,-18.578 c -0.71094,-0.33203 -1.418,-0.57812 -2.125,-0.73438 -0.71094,-0.15625 -1.418,-0.23438 -2.125,-0.23438 -2.1055,0 -3.7266,0.67188 -4.8594,2.0156 -1.125,1.3438 -1.6875,3.2656 -1.6875,5.7656 V 4.4e-4 H 3.9219 v -25.531 h 8.1562 v 4.2031 c 1.0508,-1.6758 2.2539,-2.8945 3.6094,-3.6562 1.3633,-0.76953 2.9922,-1.1562 4.8906,-1.1562 0.26953,0 0.56641,0.01172 0.89062,0.03125 0.32031,0.02344 0.78516,0.07422 1.3906,0.15625 z"
         id="path1026" />
    </symbol>
    <symbol
       id="c"
       overflow="visible">
      <path
         d="m 29.391,-12.828 v 2.3281 H 10.329 c 0.19531,1.9062 0.88281,3.3398 2.0625,4.2969 1.1875,0.96094 2.8438,1.4375 4.9688,1.4375 1.7188,0 3.4766,-0.25391 5.2812,-0.76562 1.8008,-0.50781 3.6484,-1.2812 5.5469,-2.3125 v 6.2969 c -1.9297,0.73047 -3.8594,1.2773 -5.7969,1.6406 -1.9297,0.375 -3.8555,0.5625 -5.7812,0.5625 -4.6172,0 -8.2031,-1.1719 -10.766,-3.5156 -2.5629,-2.3437 -3.8438,-5.6328 -3.8438,-9.875 0,-4.1641 1.2539,-7.4414 3.7656,-9.8281 2.5195,-2.3828 5.9844,-3.5781 10.391,-3.5781 4.0078,0 7.2188,1.2109 9.625,3.625 2.4062,2.418 3.6094,5.6484 3.6094,9.6875 z m -8.375,-2.7188 c 0,-1.5391 -0.45312,-2.7852 -1.3594,-3.7344 -0.90625,-0.95703 -2.0898,-1.4375 -3.5469,-1.4375 -1.5859,0 -2.8711,0.44922 -3.8594,1.3438 -0.98047,0.88672 -1.5898,2.1641 -1.8281,3.8281 z"
         id="path1029" />
    </symbol>
    <symbol
       id="b"
       overflow="visible">
      <path
         d="m 15.359,-11.484 c -1.6992,0 -2.9805,0.29297 -3.8438,0.875 -0.85547,0.57422 -1.2812,1.4219 -1.2812,2.5469 0,1.0312 0.34375,1.8398 1.0312,2.4219 0.69531,0.58594 1.6602,0.875 2.8906,0.875 1.5312,0 2.8164,-0.54688 3.8594,-1.6406 1.0508,-1.1016 1.5781,-2.4844 1.5781,-4.1406 v -0.9375 z m 12.469,-3.0781 V -1e-4 h -8.2344 v -3.7812 c -1.0938,1.5547 -2.3242,2.6836 -3.6875,3.3906 -1.3672,0.69531 -3.0273,1.0469 -4.9844,1.0469 -2.6484,0 -4.7969,-0.76953 -6.4531,-2.3125 -1.6484,-1.5391 -2.4688,-3.5391 -2.4688,-6 0,-2.9883 1.0312,-5.1797 3.0938,-6.5781 2.0625,-1.4062 5.2969,-2.1094 9.7031,-2.1094 h 4.7969 v -0.64062 c 0,-1.2891 -0.51172,-2.2344 -1.5312,-2.8281 -1.0117,-0.60156 -2.5938,-0.90625 -4.75,-0.90625 -1.75,0 -3.3828,0.17969 -4.8906,0.53125 -1.5,0.34375 -2.8984,0.86719 -4.1875,1.5625 v -6.2188 c 1.75,-0.42578 3.5039,-0.75 5.2656,-0.96875 1.7578,-0.21875 3.5234,-0.32812 5.2969,-0.32812 4.5938,0 7.9102,0.91406 9.9531,2.7344 2.0508,1.8125 3.0781,4.7617 3.0781,8.8438 z"
         id="path1032" />
    </symbol>
    <symbol
       id="a"
       overflow="visible">
      <path
         d="m 12.828,-32.766 v 7.2344 h 8.4062 v 5.8438 H 12.828 v 10.828 c 0,1.1797 0.23438,1.9805 0.70312,2.4062 0.47656,0.41797 1.4141,0.625 2.8125,0.625 h 4.1875 V -5e-4 h -7 c -3.2188,0 -5.5,-0.67188 -6.8438,-2.0156 -1.3438,-1.34372 -2.0156,-3.625 -2.0156,-6.8438 v -10.828 h -4.0625 v -5.8438 h 4.0625 v -7.2344 z"
         id="path1035" />
    </symbol>
    <symbol
       id="i"
       overflow="visible">
      <path
         d="m 21.281,-21.781 v -13.672 h 8.2031 V 0 H 21.281 v -3.6875 c -1.125,1.5 -2.3672,2.6016 -3.7188,3.2969 -1.3438,0.69531 -2.9062,1.0469 -4.6875,1.0469 -3.1484,0 -5.7305,-1.25 -7.75,-3.75 -2.0234,-2.5 -3.0312,-5.7109 -3.0312,-9.6406 0,-3.9375 1.0078,-7.1562 3.0312,-9.6562 2.0195,-2.5 4.6016,-3.75 7.75,-3.75 1.7578,0 3.3164,0.35547 4.6719,1.0625 1.3633,0.71094 2.6094,1.8086 3.7344,3.2969 z m -5.375,16.516 c 1.75,0 3.082,-0.63281 4,-1.9062 0.91406,-1.2812 1.375,-3.1328 1.375,-5.5625 0,-2.4375 -0.46094,-4.2891 -1.375,-5.5625 -0.91797,-1.2812 -2.25,-1.9219 -4,-1.9219 -1.7305,0 -3.0586,0.64062 -3.9844,1.9219 -0.91797,1.2734 -1.375,3.125 -1.375,5.5625 0,2.4297 0.45703,4.2812 1.375,5.5625 0.92578,1.2734 2.2539,1.9062 3.9844,1.9062 z"
         id="path1038" />
    </symbol>
    <symbol
       id="h"
       overflow="visible">
      <path
         d="m 17.5,-5.2656 c 1.75,0 3.082,-0.63281 4,-1.9062 0.91406,-1.2812 1.375,-3.1328 1.375,-5.5625 0,-2.4375 -0.46094,-4.2891 -1.375,-5.5625 -0.91797,-1.2812 -2.25,-1.9219 -4,-1.9219 -1.75,0 -3.0938,0.64844 -4.0312,1.9375 -0.92969,1.2812 -1.3906,3.1328 -1.3906,5.5469 0,2.418 0.46094,4.2656 1.3906,5.5469 0.9375,1.2812 2.2812,1.9219 4.0312,1.9219 z m -5.4219,-16.516 c 1.125,-1.4883 2.3672,-2.5859 3.7344,-3.2969 1.3633,-0.70703 2.9375,-1.0625 4.7188,-1.0625 3.1445,0 5.7266,1.25 7.75,3.75 2.0195,2.5 3.0312,5.7188 3.0312,9.6562 0,3.9297 -1.0117,7.1406 -3.0312,9.6406 -2.0234,2.5 -4.6055,3.75 -7.75,3.75 -1.7812,0 -3.3555,-0.35156 -4.7188,-1.0469 -1.3672,-0.70703 -2.6094,-1.8047 -3.7344,-3.2969 V -5e-4 H 3.9219 v -35.453 h 8.1562 z"
         id="path1041" />
    </symbol>
    <symbol
       id="g"
       overflow="visible">
      <path
         d="m 0.5625,-25.531 h 8.1719 l 6.8594,17.328 5.8281,-17.328 h 8.1562 L 18.8441,2.422 C 17.7699,5.254 16.516,7.2384 15.0785,8.3751 13.641,9.5079 11.7426,10.0782 9.391,10.0782 H 4.6722 V 4.7188 h 2.5469 c 1.3828,0 2.3906,-0.22656 3.0156,-0.67188 0.63281,-0.4375 1.1289,-1.2266 1.4844,-2.3594 L 11.93785,0.9844 Z"
         id="path1044" />
    </symbol>
    <symbol
       id="f"
       overflow="visible">
      <path
         d="m 4.2812,-34.031 h 8.7812 V 0 H 4.2812 Z"
         id="path1047" />
    </symbol>
    <symbol
       id="m"
       overflow="visible">
      <path
         d="m 24.547,-24.719 v 6.6406 c -1.1172,-0.75781 -2.2305,-1.3203 -3.3438,-1.6875 -1.1172,-0.36328 -2.2734,-0.54688 -3.4688,-0.54688 -2.2812,0 -4.0586,0.66797 -5.3281,2 -1.2734,1.3359 -1.9062,3.1953 -1.9062,5.5781 0,2.3867 0.63281,4.2461 1.9062,5.5781 1.2695,1.3242 3.0469,1.9844 5.3281,1.9844 1.2695,0 2.4766,-0.1875 3.625,-0.5625 1.1445,-0.38281 2.207,-0.94531 3.1875,-1.6875 v 6.6719 C 23.2657,-0.28153 21.9688,0.06613 20.6563,0.29662 19.3438,0.5349 18.0235,0.656 16.7032,0.656 c -4.6055,0 -8.2109,-1.1758 -10.812,-3.5312 -2.5938,-2.3633 -3.8906,-5.6484 -3.8906,-9.8594 0,-4.207 1.2969,-7.4922 3.8906,-9.8594 2.6016,-2.3633 6.207,-3.5469 10.812,-3.5469 1.332,0 2.6484,0.12109 3.9531,0.35938 1.3008,0.23047 2.5977,0.58594 3.8906,1.0625 z"
         id="path1050" />
    </symbol>
    <symbol
       id="l"
       overflow="visible">
      <path
         d="m 16.062,-20.312 c -1.8047,0 -3.1836,0.65234 -4.1406,1.9531 -0.94922,1.3047 -1.4219,3.1797 -1.4219,5.625 0,2.4492 0.47266,4.3242 1.4219,5.625 0.95703,1.293 2.3359,1.9375 4.1406,1.9375 1.7812,0 3.1406,-0.64453 4.0781,-1.9375 0.94531,-1.3008 1.4219,-3.1758 1.4219,-5.625 0,-2.4453 -0.47656,-4.3203 -1.4219,-5.625 -0.9375,-1.3008 -2.2969,-1.9531 -4.0781,-1.9531 z m 0,-5.8281 c 4.3945,0 7.8281,1.1875 10.297,3.5625 2.4688,2.3672 3.7031,5.6484 3.7031,9.8438 0,4.1875 -1.2344,7.4688 -3.7031,9.8438 -2.4688,2.3672 -5.9023,3.5469 -10.297,3.5469 -4.4062,0 -7.8555,-1.1797 -10.344,-3.5469 -2.4805,-2.375 -3.7188,-5.6562 -3.7188,-9.8438 0,-4.1953 1.2383,-7.4766 3.7188,-9.8438 2.4883,-2.375 5.9375,-3.5625 10.344,-3.5625 z"
         id="path1053" />
    </symbol>
    <symbol
       id="k"
       overflow="visible">
      <path
         d="M 29.578,-15.547 V 0 h -8.2031 v -11.891 c 0,-2.207 -0.05469,-3.7266 -0.15625,-4.5625 -0.09375,-0.83203 -0.26172,-1.4453 -0.5,-1.8438 -0.32422,-0.53125 -0.76172,-0.94141 -1.3125,-1.2344 -0.54297,-0.30078 -1.1641,-0.45312 -1.8594,-0.45312 -1.6992,0 -3.0391,0.65625 -4.0156,1.9688 -0.96875,1.3125 -1.4531,3.1328 -1.4531,5.4531 v 12.562 h -8.1562 v -25.531 h 8.1562 v 3.75 c 1.2266,-1.4883 2.5352,-2.5859 3.9219,-3.2969 1.3828,-0.70703 2.9102,-1.0625 4.5781,-1.0625 2.9453,0 5.1797,0.90625 6.7031,2.7188 1.5312,1.8047 2.2969,4.4297 2.2969,7.875 z"
         id="path1056" />
    </symbol>
    <symbol
       id="j"
       overflow="visible">
      <path
         d="m 23.859,-24.719 v 6.1875 c -1.75,-0.72656 -3.4375,-1.2734 -5.0625,-1.6406 -1.625,-0.36328 -3.1562,-0.54688 -4.5938,-0.54688 -1.5547,0 -2.7109,0.19922 -3.4688,0.59375 -0.75,0.38672 -1.125,0.98047 -1.125,1.7812 0,0.65625 0.28516,1.1641 0.85938,1.5156 0.57031,0.34375 1.5938,0.60156 3.0625,0.76562 l 1.4375,0.20312 c 4.1758,0.53125 6.9844,1.4062 8.4219,2.625 1.4453,1.2109 2.1719,3.1172 2.1719,5.7188 0,2.7188 -1.0078,4.7617 -3.0156,6.125 -2,1.3672 -4.9922,2.0469 -8.9688,2.0469 -1.6875,0 -3.4336,-0.13672 -5.2344,-0.40625 -1.793,-0.25781 -3.6406,-0.65625 -5.5469,-1.1875 v -6.2031 c 1.625,0.79297 3.2891,1.3867 5,1.7812 1.7188,0.39844 3.457,0.59375 5.2188,0.59375 1.5938,0 2.7891,-0.21875 3.5938,-0.65625 0.8125,-0.4375 1.2188,-1.0938 1.2188,-1.9688 0,-0.72656 -0.28125,-1.2695 -0.84375,-1.625 -0.55469,-0.35156 -1.6562,-0.62891 -3.3125,-0.82812 l -1.4375,-0.1875 c -3.625,-0.44531 -6.168,-1.2852 -7.625,-2.5156 -1.4609,-1.2383 -2.1875,-3.1094 -2.1875,-5.6094 0,-2.707 0.92188,-4.7109 2.7656,-6.0156 1.8516,-1.3125 4.6953,-1.9688 8.5312,-1.9688 1.5,0 3.0781,0.11719 4.7344,0.34375 1.6562,0.23047 3.457,0.58984 5.4062,1.0781 z"
         id="path1059" />
    </symbol>
  </defs>
  <path
     id="path8588"
     style="stroke-width:0.0653654"
     transform="scale(0.75)"
     d="m 26.554836,29.873537 c -0.683724,0.127315 -1.377904,0.206725 -2.071035,0.203739 -0.530214,0.139314 -0.581992,0.811628 -0.879221,1.20796 -1.282295,2.273098 -3.071651,4.206087 -4.993655,5.951826 -0.648608,0.633862 -1.424781,1.14699 -2.020102,1.825525 -0.30986,0.52231 0.375569,0.864528 0.7031,1.168054 1.725556,1.325122 3.93879,1.961192 6.10052,1.935428 1.478824,-0.08667 3.033699,-0.368187 4.25603,-1.255349 0.671928,-0.550162 1.034485,-1.429678 0.953526,-2.294554 0.05393,-2.034157 -0.09794,-4.088818 -0.705138,-6.041125 -0.25696,-0.839202 -0.501852,-1.693216 -0.884807,-2.48396 -0.13699,-0.117712 -0.262656,-0.243305 -0.459218,-0.217544 z m 11.116082,-8.506571 c -2.569212,0.06385 -5.153545,0.569096 -7.505024,1.619326 -0.529733,0.384915 -0.07483,1.061282 -0.103269,1.575039 0.07649,0.500826 -0.142304,1.228413 0.476584,1.442669 3.236065,1.619974 5.827065,4.262169 8.105937,7.002298 0.217339,0.344704 0.707656,0.655976 1.061421,0.310031 1.371724,-1.358009 2.100896,-3.25832 2.382044,-5.140151 0.09066,-1.53021 0.127757,-3.124162 -0.485017,-4.563859 C 41.288416,22.526595 40.396388,21.558341 39.23088,21.43731 38.714841,21.36247 38.191104,21.36454 37.670918,21.36697 Z M 26.655183,7.8518954 c -1.532052,0.044848 -3.150875,0.3587339 -4.38523,1.3189264 -0.965379,0.8428522 -0.905426,2.2472752 -0.883498,3.4141362 0.06156,2.513872 0.624621,5.019577 1.637116,7.317158 0.418771,0.488999 1.065468,0.0112 1.589053,0.05605 0.492177,-0.05506 1.216928,0.162902 1.414501,-0.460945 1.434059,-2.969543 3.8127,-5.390788 6.280891,-7.519129 0.37791,-0.387751 0.961035,-0.64397 1.154573,-1.171038 C 33.501849,10.18003 32.803775,9.8789484 32.401979,9.5257388 30.740728,8.3560092 28.672139,7.8287372 26.655183,7.8518984 Z M 10.641544,16.54486 c -0.581591,0.186853 -0.8681687,0.813426 -1.234914,1.25952 -1.6341445,2.555877 -2.0314774,5.917753 -0.9175492,8.754542 0.3191442,1.014634 1.1812653,1.835845 2.2411922,2.016243 2.981258,0.249034 6.002208,-0.300331 8.777863,-1.392846 0.40069,-0.109027 0.770647,-0.486857 0.596204,-0.926861 -0.17662,-0.61522 -0.121886,-1.265085 -0.196215,-1.886367 -0.161269,-0.452135 -0.753176,-0.463878 -1.103944,-0.736932 -2.963774,-1.653157 -5.338967,-4.156411 -7.499407,-6.718597 -0.173046,-0.193696 -0.375616,-0.407994 -0.66323,-0.368702 z" />
</svg>
