<?xml version="1.0" encoding="UTF-8" standalone="no"?>
<svg
   width="50pt"
   height="50pt"
   version="1.1"
   viewBox="0 0 50 50"
   id="svg1106"
   sodipodi:docname="fan_active.svg"
   inkscape:version="1.2.2 (b0a8486541, 2022-12-01)"
   xmlns:inkscape="http://www.inkscape.org/namespaces/inkscape"
   xmlns:sodipodi="http://sodipodi.sourceforge.net/DTD/sodipodi-0.dtd"
   xmlns="http://www.w3.org/2000/svg"
   xmlns:svg="http://www.w3.org/2000/svg">
  <sodipodi:namedview
     id="namedview1108"
     pagecolor="#ffffff"
     bordercolor="#000000"
     borderopacity="0.25"
     inkscape:showpageshadow="2"
     inkscape:pageopacity="0.0"
     inkscape:pagecheckerboard="0"
     inkscape:deskcolor="#d1d1d1"
     inkscape:document-units="pt"
     showgrid="false"
     inkscape:zoom="15.298605"
     inkscape:cx="21.701325"
     inkscape:cy="34.545633"
     inkscape:window-width="1836"
     inkscape:window-height="1476"
     inkscape:window-x="3016"
     inkscape:window-y="56"
     inkscape:window-maximized="1"
     inkscape:current-layer="g1104" />
  <defs
     id="defs1062">
    <symbol
       id="e"
       overflow="visible">
      <path
         d="m 31.266,-1.875 c -1.6172,0.84375 -3.2969,1.4766 -5.0469,1.8906 -1.7422,0.42578 -3.5586,0.64062 -5.4531,0.64062 -5.668,0 -10.156,-1.582 -13.469,-4.75 -3.3125,-3.1641 -4.9688,-7.4609 -4.9688,-12.891 0,-5.4375 1.6562,-9.7383 4.9688,-12.906 3.3125,-3.1641 7.8008,-4.75 13.469,-4.75 1.8945,0 3.7109,0.21484 5.4531,0.64062 1.75,0.42969 3.4297,1.0586 5.0469,1.8906 v 7.0469 c -1.625,-1.1133 -3.2305,-1.9258 -4.8125,-2.4375 -1.5742,-0.51953 -3.2344,-0.78125 -4.9844,-0.78125 -3.1367,0 -5.6016,1.0078 -7.3906,3.0156 -1.793,2 -2.6875,4.7617 -2.6875,8.2812 0,3.5117 0.89453,6.2734 2.6875,8.2812 1.7891,2 4.2539,3 7.3906,3 1.75,0 3.4102,-0.25391 4.9844,-0.76562 1.582,-0.51953 3.1875,-1.332 4.8125,-2.4375 z"
         id="path1023" />
    </symbol>
    <symbol
       id="d"
       overflow="visible">
      <path
         d="m 22.875,-18.578 c -0.71094,-0.33203 -1.418,-0.57812 -2.125,-0.73438 -0.71094,-0.15625 -1.418,-0.23438 -2.125,-0.23438 -2.1055,0 -3.7266,0.67188 -4.8594,2.0156 -1.125,1.3438 -1.6875,3.2656 -1.6875,5.7656 V 4.4e-4 H 3.9219 v -25.531 h 8.1562 v 4.2031 c 1.0508,-1.6758 2.2539,-2.8945 3.6094,-3.6562 1.3633,-0.76953 2.9922,-1.1562 4.8906,-1.1562 0.26953,0 0.56641,0.01172 0.89062,0.03125 0.32031,0.02344 0.78516,0.07422 1.3906,0.15625 z"
         id="path1026" />
    </symbol>
    <symbol
       id="c"
       overflow="visible">
      <path
         d="m 29.391,-12.828 v 2.3281 H 10.329 c 0.19531,1.9062 0.88281,3.3398 2.0625,4.2969 1.1875,0.96094 2.8438,1.4375 4.9688,1.4375 1.7188,0 3.4766,-0.25391 5.2812,-0.76562 1.8008,-0.50781 3.6484,-1.2812 5.5469,-2.3125 v 6.2969 c -1.9297,0.73047 -3.8594,1.2773 -5.7969,1.6406 -1.9297,0.375 -3.8555,0.5625 -5.7812,0.5625 -4.6172,0 -8.2031,-1.1719 -10.766,-3.5156 -2.5629,-2.3437 -3.8438,-5.6328 -3.8438,-9.875 0,-4.1641 1.2539,-7.4414 3.7656,-9.8281 2.5195,-2.3828 5.9844,-3.5781 10.391,-3.5781 4.0078,0 7.2188,1.2109 9.625,3.625 2.4062,2.418 3.6094,5.6484 3.6094,9.6875 z m -8.375,-2.7188 c 0,-1.5391 -0.45312,-2.7852 -1.3594,-3.7344 -0.90625,-0.95703 -2.0898,-1.4375 -3.5469,-1.4375 -1.5859,0 -2.8711,0.44922 -3.8594,1.3438 -0.98047,0.88672 -1.5898,2.1641 -1.8281,3.8281 z"
         id="path1029" />
    </symbol>
    <symbol
       id="b"
       overflow="visible">
      <path
         d="m 15.359,-11.484 c -1.6992,0 -2.9805,0.29297 -3.8438,0.875 -0.85547,0.57422 -1.2812,1.4219 -1.2812,2.5469 0,1.0312 0.34375,1.8398 1.0312,2.4219 0.69531,0.58594 1.6602,0.875 2.8906,0.875 1.5312,0 2.8164,-0.54688 3.8594,-1.6406 1.0508,-1.1016 1.5781,-2.4844 1.5781,-4.1406 v -0.9375 z m 12.469,-3.0781 V -1e-4 h -8.2344 v -3.7812 c -1.0938,1.5547 -2.3242,2.6836 -3.6875,3.3906 -1.3672,0.69531 -3.0273,1.0469 -4.9844,1.0469 -2.6484,0 -4.7969,-0.76953 -6.4531,-2.3125 -1.6484,-1.5391 -2.4688,-3.5391 -2.4688,-6 0,-2.9883 1.0312,-5.1797 3.0938,-6.5781 2.0625,-1.4062 5.2969,-2.1094 9.7031,-2.1094 h 4.7969 v -0.64062 c 0,-1.2891 -0.51172,-2.2344 -1.5312,-2.8281 -1.0117,-0.60156 -2.5938,-0.90625 -4.75,-0.90625 -1.75,0 -3.3828,0.17969 -4.8906,0.53125 -1.5,0.34375 -2.8984,0.86719 -4.1875,1.5625 v -6.2188 c 1.75,-0.42578 3.5039,-0.75 5.2656,-0.96875 1.7578,-0.21875 3.5234,-0.32812 5.2969,-0.32812 4.5938,0 7.9102,0.91406 9.9531,2.7344 2.0508,1.8125 3.0781,4.7617 3.0781,8.8438 z"
         id="path1032" />
    </symbol>
    <symbol
       id="a"
       overflow="visible">
      <path
         d="m 12.828,-32.766 v 7.2344 h 8.4062 v 5.8438 H 12.828 v 10.828 c 0,1.1797 0.23438,1.9805 0.70312,2.4062 0.47656,0.41797 1.4141,0.625 2.8125,0.625 h 4.1875 V -5e-4 h -7 c -3.2188,0 -5.5,-0.67188 -6.8438,-2.0156 -1.3438,-1.34372 -2.0156,-3.625 -2.0156,-6.8438 v -10.828 h -4.0625 v -5.8438 h 4.0625 v -7.2344 z"
         id="path1035" />
    </symbol>
    <symbol
       id="i"
       overflow="visible">
      <path
         d="m 21.281,-21.781 v -13.672 h 8.2031 V 0 H 21.281 v -3.6875 c -1.125,1.5 -2.3672,2.6016 -3.7188,3.2969 -1.3438,0.69531 -2.9062,1.0469 -4.6875,1.0469 -3.1484,0 -5.7305,-1.25 -7.75,-3.75 -2.0234,-2.5 -3.0312,-5.7109 -3.0312,-9.6406 0,-3.9375 1.0078,-7.1562 3.0312,-9.6562 2.0195,-2.5 4.6016,-3.75 7.75,-3.75 1.7578,0 3.3164,0.35547 4.6719,1.0625 1.3633,0.71094 2.6094,1.8086 3.7344,3.2969 z m -5.375,16.516 c 1.75,0 3.082,-0.63281 4,-1.9062 0.91406,-1.2812 1.375,-3.1328 1.375,-5.5625 0,-2.4375 -0.46094,-4.2891 -1.375,-5.5625 -0.91797,-1.2812 -2.25,-1.9219 -4,-1.9219 -1.7305,0 -3.0586,0.64062 -3.9844,1.9219 -0.91797,1.2734 -1.375,3.125 -1.375,5.5625 0,2.4297 0.45703,4.2812 1.375,5.5625 0.92578,1.2734 2.2539,1.9062 3.9844,1.9062 z"
         id="path1038" />
    </symbol>
    <symbol
       id="h"
       overflow="visible">
      <path
         d="m 17.5,-5.2656 c 1.75,0 3.082,-0.63281 4,-1.9062 0.91406,-1.2812 1.375,-3.1328 1.375,-5.5625 0,-2.4375 -0.46094,-4.2891 -1.375,-5.5625 -0.91797,-1.2812 -2.25,-1.9219 -4,-1.9219 -1.75,0 -3.0938,0.64844 -4.0312,1.9375 -0.92969,1.2812 -1.3906,3.1328 -1.3906,5.5469 0,2.418 0.46094,4.2656 1.3906,5.5469 0.9375,1.2812 2.2812,1.9219 4.0312,1.9219 z m -5.4219,-16.516 c 1.125,-1.4883 2.3672,-2.5859 3.7344,-3.2969 1.3633,-0.70703 2.9375,-1.0625 4.7188,-1.0625 3.1445,0 5.7266,1.25 7.75,3.75 2.0195,2.5 3.0312,5.7188 3.0312,9.6562 0,3.9297 -1.0117,7.1406 -3.0312,9.6406 -2.0234,2.5 -4.6055,3.75 -7.75,3.75 -1.7812,0 -3.3555,-0.35156 -4.7188,-1.0469 -1.3672,-0.70703 -2.6094,-1.8047 -3.7344,-3.2969 V -5e-4 H 3.9219 v -35.453 h 8.1562 z"
         id="path1041" />
    </symbol>
    <symbol
       id="g"
       overflow="visible">
      <path
         d="m 0.5625,-25.531 h 8.1719 l 6.8594,17.328 5.8281,-17.328 h 8.1562 L 18.8441,2.422 C 17.7699,5.254 16.516,7.2384 15.0785,8.3751 13.641,9.5079 11.7426,10.0782 9.391,10.0782 H 4.6722 V 4.7188 h 2.5469 c 1.3828,0 2.3906,-0.22656 3.0156,-0.67188 0.63281,-0.4375 1.1289,-1.2266 1.4844,-2.3594 L 11.93785,0.9844 Z"
         id="path1044" />
    </symbol>
    <symbol
       id="f"
       overflow="visible">
      <path
         d="m 4.2812,-34.031 h 8.7812 V 0 H 4.2812 Z"
         id="path1047" />
    </symbol>
    <symbol
       id="m"
       overflow="visible">
      <path
         d="m 24.547,-24.719 v 6.6406 c -1.1172,-0.75781 -2.2305,-1.3203 -3.3438,-1.6875 -1.1172,-0.36328 -2.2734,-0.54688 -3.4688,-0.54688 -2.2812,0 -4.0586,0.66797 -5.3281,2 -1.2734,1.3359 -1.9062,3.1953 -1.9062,5.5781 0,2.3867 0.63281,4.2461 1.9062,5.5781 1.2695,1.3242 3.0469,1.9844 5.3281,1.9844 1.2695,0 2.4766,-0.1875 3.625,-0.5625 1.1445,-0.38281 2.207,-0.94531 3.1875,-1.6875 v 6.6719 C 23.2657,-0.28153 21.9688,0.06613 20.6563,0.29662 19.3438,0.5349 18.0235,0.656 16.7032,0.656 c -4.6055,0 -8.2109,-1.1758 -10.812,-3.5312 -2.5938,-2.3633 -3.8906,-5.6484 -3.8906,-9.8594 0,-4.207 1.2969,-7.4922 3.8906,-9.8594 2.6016,-2.3633 6.207,-3.5469 10.812,-3.5469 1.332,0 2.6484,0.12109 3.9531,0.35938 1.3008,0.23047 2.5977,0.58594 3.8906,1.0625 z"
         id="path1050" />
    </symbol>
    <symbol
       id="l"
       overflow="visible">
      <path
         d="m 16.062,-20.312 c -1.8047,0 -3.1836,0.65234 -4.1406,1.9531 -0.94922,1.3047 -1.4219,3.1797 -1.4219,5.625 0,2.4492 0.47266,4.3242 1.4219,5.625 0.95703,1.293 2.3359,1.9375 4.1406,1.9375 1.7812,0 3.1406,-0.64453 4.0781,-1.9375 0.94531,-1.3008 1.4219,-3.1758 1.4219,-5.625 0,-2.4453 -0.47656,-4.3203 -1.4219,-5.625 -0.9375,-1.3008 -2.2969,-1.9531 -4.0781,-1.9531 z m 0,-5.8281 c 4.3945,0 7.8281,1.1875 10.297,3.5625 2.4688,2.3672 3.7031,5.6484 3.7031,9.8438 0,4.1875 -1.2344,7.4688 -3.7031,9.8438 -2.4688,2.3672 -5.9023,3.5469 -10.297,3.5469 -4.4062,0 -7.8555,-1.1797 -10.344,-3.5469 -2.4805,-2.375 -3.7188,-5.6562 -3.7188,-9.8438 0,-4.1953 1.2383,-7.4766 3.7188,-9.8438 2.4883,-2.375 5.9375,-3.5625 10.344,-3.5625 z"
         id="path1053" />
    </symbol>
    <symbol
       id="k"
       overflow="visible">
      <path
         d="M 29.578,-15.547 V 0 h -8.2031 v -11.891 c 0,-2.207 -0.05469,-3.7266 -0.15625,-4.5625 -0.09375,-0.83203 -0.26172,-1.4453 -0.5,-1.8438 -0.32422,-0.53125 -0.76172,-0.94141 -1.3125,-1.2344 -0.54297,-0.30078 -1.1641,-0.45312 -1.8594,-0.45312 -1.6992,0 -3.0391,0.65625 -4.0156,1.9688 -0.96875,1.3125 -1.4531,3.1328 -1.4531,5.4531 v 12.562 h -8.1562 v -25.531 h 8.1562 v 3.75 c 1.2266,-1.4883 2.5352,-2.5859 3.9219,-3.2969 1.3828,-0.70703 2.9102,-1.0625 4.5781,-1.0625 2.9453,0 5.1797,0.90625 6.7031,2.7188 1.5312,1.8047 2.2969,4.4297 2.2969,7.875 z"
         id="path1056" />
    </symbol>
    <symbol
       id="j"
       overflow="visible">
      <path
         d="m 23.859,-24.719 v 6.1875 c -1.75,-0.72656 -3.4375,-1.2734 -5.0625,-1.6406 -1.625,-0.36328 -3.1562,-0.54688 -4.5938,-0.54688 -1.5547,0 -2.7109,0.19922 -3.4688,0.59375 -0.75,0.38672 -1.125,0.98047 -1.125,1.7812 0,0.65625 0.28516,1.1641 0.85938,1.5156 0.57031,0.34375 1.5938,0.60156 3.0625,0.76562 l 1.4375,0.20312 c 4.1758,0.53125 6.9844,1.4062 8.4219,2.625 1.4453,1.2109 2.1719,3.1172 2.1719,5.7188 0,2.7188 -1.0078,4.7617 -3.0156,6.125 -2,1.3672 -4.9922,2.0469 -8.9688,2.0469 -1.6875,0 -3.4336,-0.13672 -5.2344,-0.40625 -1.793,-0.25781 -3.6406,-0.65625 -5.5469,-1.1875 v -6.2031 c 1.625,0.79297 3.2891,1.3867 5,1.7812 1.7188,0.39844 3.457,0.59375 5.2188,0.59375 1.5938,0 2.7891,-0.21875 3.5938,-0.65625 0.8125,-0.4375 1.2188,-1.0938 1.2188,-1.9688 0,-0.72656 -0.28125,-1.2695 -0.84375,-1.625 -0.55469,-0.35156 -1.6562,-0.62891 -3.3125,-0.82812 l -1.4375,-0.1875 c -3.625,-0.44531 -6.168,-1.2852 -7.625,-2.5156 -1.4609,-1.2383 -2.1875,-3.1094 -2.1875,-5.6094 0,-2.707 0.92188,-4.7109 2.7656,-6.0156 1.8516,-1.3125 4.6953,-1.9688 8.5312,-1.9688 1.5,0 3.0781,0.11719 4.7344,0.34375 1.6562,0.23047 3.457,0.58984 5.4062,1.0781 z"
         id="path1059" />
    </symbol>
  </defs>
  <g
     id="g1104">
    <g
       id="g1697"
       transform="translate(-6.25013)">
      <path
         style="fill:#678a9b;fill-opacity:1;stroke-width:0.75"
         id="path2071"
         d="m 24.051865,6.4813282 c -0.325485,0.1559819 -0.627526,0.355293 -0.915049,0.5724301 -0.189288,0.1429507 -0.370119,0.2915797 -0.528088,0.4682002 -0.271705,0.4201852 -0.07379,0.057758 0.152507,1.1917238 0.0011,0.00563 -0.0065,-0.00942 -0.01037,-0.01365 -0.01951,-0.02151 -0.04336,-0.039465 -0.05962,-0.063533 C 22.513287,8.3729955 22.56127,8.453976 22.5193,8.1350955 c 0.0023,-0.026843 0.0046,-0.053685 0.0069,-0.080525 -0.0044,0.00323 -0.0092,0.013365 -0.01338,0.00973 -0.0058,-0.0051 0.0044,-0.02757 -0.0018,-0.02307 -0.05884,0.042322 -0.134273,0.2254252 -0.162708,0.281865 -0.148998,0.3683497 -0.282519,0.7432912 -0.417423,1.1172315 -0.08093,0.2675077 -0.171877,0.535053 -0.207999,0.8135 -0.02052,0.158191 -0.01366,0.192408 -0.009,0.346475 -0.0146,0.161808 0.07741,0.307932 0.08545,0.464751 -0.0085,0.239295 0.05925,0.468505 0.12621,0.695277 0.131467,0.417795 0.319514,0.812706 0.49433,1.213063 0.08143,0.171938 0.14969,0.345506 0.195547,0.529555 0.05249,0.298799 0.205148,0.562438 0.333151,0.832981 0.119533,0.210993 0.240371,0.426141 0.394237,0.614915 0.03848,0.0472 0.07372,0.09827 0.120312,0.137482 0.09367,0.07883 0.198698,0.143085 0.298047,0.214626 1.028874,-0.176741 0.6452,0.08484 1.010156,-0.348648 0.0048,-0.0057 0.01495,-0.0046 0.01985,-0.01022 0.02026,-0.02314 0.03035,-0.05534 0.05436,-0.07456 0.02667,-0.02135 -0.01273,0.04477 -0.03995,0.09334 0.04246,0.07779 0.281856,-0.035 0.334323,-0.05794 0.137935,-0.04097 -0.05508,0.01966 0.152785,-0.06437 0.01308,-0.0053 0.02833,-0.0033 0.04151,-0.0083 0.08429,-0.03214 0.162738,-0.0797 0.245904,-0.114918 0.148884,-0.04608 0.246033,-0.180654 0.340689,-0.295548 0.01788,-0.02171 0.03362,-0.04566 0.05485,-0.06408 0.02251,-0.01952 0.05001,-0.03239 0.07502,-0.04858 0.0475,-0.04096 0.09434,-0.08272 0.142523,-0.122886 0.195531,-0.162998 0.206317,-0.157984 0.402125,-0.342536 0.18662,-0.175893 0.352504,-0.365587 0.514174,-0.563933 0.180306,-0.257541 0.281997,-0.548234 0.327618,-0.85657 0.0023,-0.03765 0.0052,-0.07527 0.007,-0.112948 2.6e-4,-0.0052 -0.004,0.02027 -0.003,0.0152 0.0011,-0.0056 -0.0017,-0.01965 0.0033,-0.01675 0.0058,0.0034 -0.0022,0.02505 0.002,0.0199 0.01458,-0.01765 0.02119,-0.0406 0.03179,-0.0609 0.135939,-0.258066 0.275661,-0.513093 0.43057,-0.760366 0.223486,-0.314353 0.454785,-0.623204 0.687255,-0.930984 0.03426,-0.03412 0.05317,-0.07962 0.08312,-0.116886 0.0055,-0.0069 0.02431,-0.02558 0.01938,-0.01821 -0.01407,0.02109 -0.07117,0.06769 -0.04709,0.05974 0.03385,-0.01119 0.05169,-0.04936 0.08025,-0.0707 0.01037,-0.0077 0.02366,-0.01048 0.03548,-0.01573 0.01232,-6.06e-4 0.02541,0.0025 0.03697,-0.0018 0.04848,-0.01815 0.1705,-0.0965 0.202319,-0.116812 0.158039,-0.100883 0.311234,-0.206058 0.462041,-0.317425 0.365699,-0.254829 0.746655,-0.4874753 1.090657,-0.7719083 0.09531,-0.091979 0.198189,-0.1824945 0.269615,-0.2960085 0.03496,-0.055552 0.06007,-0.1168132 0.09343,-0.1733377 0.002,-0.0033 -5e-4,0.01383 0.0023,0.011213 0.01453,-0.01374 0.02424,-0.031815 0.03636,-0.047723 0.0089,0.00473 0.03136,0.01872 0.0416,0.012802 0.02673,-0.015458 0.04706,-0.039998 0.07043,-0.06018 C 31.193002,8.5496517 31.269209,8.473949 31.372415,8.3506445 31.568191,8.0669592 31.649283,7.7683437 31.609789,7.4231686 31.588209,7.2346599 31.546919,7.166318 31.476482,6.9826827 31.424292,6.9049027 31.380372,6.8208754 31.3199,6.7493439 30.994434,6.3643713 30.605764,6.3109485 30.114595,6.3292774 c -0.06718,0.00251 -0.127876,0.041519 -0.191814,0.062279 -0.148413,0.090122 -0.200237,0.1102446 -0.316674,0.2118244 -0.05107,0.044551 -0.09161,0.1013565 -0.14688,0.1405747 -0.0025,0.00174 1.1e-5,-0.00833 -0.003,-0.00852 -0.0068,-4.185e-4 -0.01273,0.00477 -0.0191,0.00716 0.06737,-0.087885 0.01047,-0.00101 -0.0065,-0.022213 -0.0071,-0.00894 0.02662,-0.023546 0.01703,-0.029762 -2.37e-4,-1.535e-4 -0.155578,0.00713 -0.168367,0.00731 -0.03558,0.00803 -0.07093,0.017209 -0.106748,0.024085 -0.04421,0.00848 -0.110286,0.017774 -0.15664,0.015881 -0.0268,-0.0011 -0.106485,-0.00592 -0.07991,-0.00954 0.234865,-0.032049 0.441686,-0.00667 0.155201,-0.03188 -0.60856,-0.1917039 -1.204305,-0.42302 -1.827953,-0.5646187 -0.09283,-0.021076 -0.187024,-0.035564 -0.280537,-0.053347 -0.106245,0.033942 -0.212259,-0.055272 -0.317096,-0.037004 -0.265315,0.046231 -0.51715,0.1786011 -0.786377,0.1854105 -0.08173,0.00207 0.100681,-0.1401725 0.176805,-0.1699928 0.08277,-0.032424 0.50374,-0.022703 0.234721,-0.027121 -0.215973,-0.00972 -0.429976,-0.042106 -0.645481,-0.059231 -0.323149,0.021923 -0.652175,-0.026318 -0.975929,7.339e-4 -0.157563,0.013166 -0.2106,0.031757 -0.367013,0.068115 -0.2066,0.052225 -0.443833,0.095877 -0.628657,0.2082996 -0.04647,0.028265 -0.08915,0.06233 -0.133731,0.093494 -0.154979,0.1088182 -0.3053,0.2435361 -0.417942,0.3975616 -0.0854,0.1167759 -0.110871,0.1747427 -0.175152,0.2969487 -0.10317,0.2451726 -0.15155,0.5190452 -0.09791,0.7834367 0.01828,0.090091 0.03705,0.1822358 0.0781,0.2644905 0.05886,0.1179615 0.145608,0.2198115 0.218412,0.3297172 0.09112,0.072638 0.173143,0.1584503 0.273356,0.2179193 0.345927,0.2052862 0.627846,0.1970062 1.05349,0.181641 0.141156,-0.0051 0.423976,-0.1241715 0.548462,-0.189222 0.07524,-0.039315 0.144235,-0.089576 0.216352,-0.1343647 0.158105,-0.1113233 0.315523,-0.2237325 0.475079,-0.3329843 0.08537,-0.058455 0.153452,-0.1063403 0.254606,-0.126189 0.0025,0.00577 0.01125,0.012128 0.0077,0.017385 -0.08738,0.1298205 -0.390704,0.025125 -0.438878,0.026122 -0.02474,5.122e-4 0.04821,0.012037 0.07099,0.021683 0.06034,0.025545 0.118598,0.055755 0.177877,0.083675 0.113645,0.053527 0.227263,0.107112 0.340895,0.160668 0.184548,0.078863 0.365606,0.1664528 0.553644,0.236589 0.662881,0.2472473 1.46487,0.4635915 2.177793,0.4791188 0.08054,0.00173 0.16093,-0.00761 0.241395,-0.011423 0.257555,-0.4007573 0.56975,-0.7712648 0.772665,-1.202271 0.02915,-0.06192 -0.08686,-0.1058633 -0.133006,-0.1564065 -0.02678,-0.02934 -0.05607,-0.05634 -0.08554,-0.082984 -0.01499,-0.013553 -0.03337,-0.051712 -0.04768,-0.03744 -0.01573,0.015705 0.02043,0.040725 0.02219,0.062887 0.01373,0.1735403 0.01603,0.3477945 0.02404,0.5216918 -0.07318,0.112245 -0.16265,0.215418 -0.219537,0.336735 -0.0079,0.016913 0.03431,0.015885 0.05273,0.018997 0.03591,0.00607 0.189315,0.0094 0.217854,0.01002 0.03822,8.25e-4 0.152886,4.072e-4 0.114675,0.00157 -0.08699,0.00263 -0.17404,0.00188 -0.26106,0.00285 0.01823,-0.00375 0.04589,0.00517 0.05467,-0.011228 0.0072,-0.013462 -0.01939,-0.023677 -0.03021,-0.034455 -0.08204,-0.081685 -0.182079,-0.1478895 -0.248305,-0.2428507 -0.05112,-0.073298 -0.0473,-0.175305 -0.09571,-0.250425 -0.01145,-0.017775 -0.04605,-0.00858 -0.06334,0.0036 -0.04916,0.03465 -0.08372,0.086369 -0.12558,0.1295535 -0.26255,0.18999 -0.560509,0.5061 -0.890096,0.567177 -0.0276,0.0051 -0.05603,0.00345 -0.08405,0.00517 -0.290021,-0.065302 -0.649908,0.1214265 -0.911171,0.2296822 -0.08806,0.036487 -0.177671,0.069112 -0.266507,0.1036718 -0.555602,0.2048872 -1.126273,0.384732 -1.645682,0.6751522 -0.06768,0.037845 -0.131347,0.082451 -0.197021,0.1236758 -0.207843,0.1474747 -0.346674,0.3465401 -0.440219,0.5817151 -0.02895,0.07278 -0.04645,0.149605 -0.06968,0.224407 -0.06905,0.222392 -0.03236,0.112594 -0.110216,0.330137 -0.188977,0.507624 -0.335356,1.042469 -0.369333,1.585641 -0.0072,0.114699 -0.0047,0.2298 -0.007,0.344701 0.0087,0.259471 0.05593,0.513496 0.140675,0.75851 0.02312,0.06683 0.06421,0.186519 0.111053,0.24857 -0.02341,-0.271759 -0.04879,-0.254094 0.129745,-0.58289 0.03376,-0.06217 0.10477,-0.09574 0.149988,-0.150147 0.0043,-0.0052 -0.0045,-0.01753 -0.01119,-0.01685 -0.04368,0.0044 -0.0852,0.02129 -0.128034,0.03093 -0.05184,0.01168 -0.103969,0.02203 -0.155954,0.03304 -0.486624,0.121564 0.137685,-0.03516 -0.311732,0.07995 -0.02834,0.0073 -0.111526,0.0077 -0.0853,0.0207 0.325703,0.160967 0.682399,0.256715 1.000772,0.431733 0.0702,0.03859 0.06194,0.213581 0.139948,0.195355 0.128848,-0.0301 0.179912,-0.194073 0.269868,-0.29111 0.354241,-0.412425 0.722984,-0.813877 1.038385,-1.257966 0.189744,-0.267161 0.361158,-0.529389 0.47536,-0.838308 0.04737,-0.128139 0.0691,-0.264349 0.103641,-0.396524 0.001,-0.38511 0.042,-0.432593 -0.129981,-0.799449 -0.0428,-0.09131 -0.114593,-0.166011 -0.174606,-0.247051 -0.01121,-0.01514 -0.04501,-0.05889 -0.03879,-0.04111 0.01539,0.04397 0.04556,0.08129 0.06728,0.122494 0.01776,0.03368 0.03412,0.06808 0.05117,0.102128 0.04057,-0.02812 0.08703,-0.04922 0.12169,-0.08435 0.07393,-0.07494 0.134055,-0.162361 0.201472,-0.2432174 0.251797,-0.301995 0.511261,-0.6040155 0.731799,-0.9303135 0.07975,-0.1179907 0.14873,-0.2429092 0.223095,-0.3643635 0.16578,-0.3379057 0.358686,-0.7079482 0.338601,-1.099455 C 28.30825,7.4316138 28.32155,7.2790561 28.24376,7.1701582 28.087185,6.9508718 27.90504,6.697664 27.644989,6.6271786 27.354347,6.5484017 27.04987,6.7196265 26.75231,6.7658505 26.051281,7.08146 25.420396,7.534323 24.879671,8.0797785 c -0.07909,0.079784 -0.151658,0.1657845 -0.227487,0.2486775 -0.05665,0.076205 -0.108453,0.1562752 -0.169967,0.2286173 -0.24764,0.2912325 -0.551664,0.533553 -0.830002,0.7936424 -0.447762,0.4257961 -0.223188,0.2145923 -0.673692,0.6336436 -0.424488,0.4158237 -0.839828,0.8692027 -0.997287,1.4602667 -0.124066,0.465718 -0.08035,0.568228 -0.05059,1.035816 0.03894,0.150819 0.0656,0.30535 0.116811,0.452456 0.140012,0.402244 0.413864,0.82769 0.799861,1.035468 0.09275,0.04993 0.195938,0.07741 0.293906,0.116113 0.701847,-0.116779 0.583713,0.0429 0.923423,-0.328225 0.02605,-0.02846 0.04346,-0.06376 0.06608,-0.09501 0.0036,-0.005 0.01567,-0.01849 0.01239,-0.01338 -0.04516,0.07021 -0.04612,0.06618 -0.10203,0.127967 -0.03026,0.0233 -0.06674,0.04025 -0.09079,0.06991 -0.0073,0.009 0.02323,-0.0024 0.03465,-6.48e-4 0.103329,0.01551 -0.116015,0.03782 0.140571,-0.01159 0.145528,-0.02803 0.05606,-0.0043 0.225106,-0.06276 0.207253,-0.09118 0.458933,-0.196893 0.581973,-0.400985 0.05734,-0.09512 0.09461,-0.200982 0.141915,-0.301473 0.01477,-0.100376 0.03787,-0.199874 0.0443,-0.301127 0.0058,-0.09142 -0.0025,-0.183243 -0.0078,-0.274696 -0.02105,-0.369386 -0.08699,-0.730496 -0.183049,-1.087674 -0.03573,-0.132857 -0.07996,-0.263279 -0.119942,-0.394918 -0.08982,-0.374005 -0.311464,-0.703552 -0.386107,-1.0803598 -0.03093,-0.2385697 -0.08732,-0.4726762 -0.11404,-0.711942 -0.01061,-0.1150147 -0.0031,-0.235557 -0.03219,-0.3484402 -0.0035,-0.013597 -0.0093,0.035445 0.0031,0.042015 0.01063,0.00563 0.008,-0.022695 0.01197,-0.034035 0.03741,-0.068468 0.06829,-0.2055518 0.127398,-0.2553203 0.0042,-0.00353 0.01223,0.00783 0.01026,0.012982 -0.01351,0.035295 -0.03567,0.066637 -0.0535,0.09995 -0.214271,0.2057475 -0.161285,0.202521 -0.665494,0.10617 -0.08005,-0.0153 -0.131639,-0.096188 -0.195746,-0.1465163 -0.02314,-0.018165 -0.03962,-0.072218 -0.0658,-0.058815 -0.02622,0.013425 0.0066,0.058552 0.009,0.087914 0.0039,0.048232 0.0066,0.096548 0.0099,0.1448228 1.12e-4,0.2688795 0.0052,0.540519 -0.01647,0.8089327 -0.0053,0.065003 -0.04359,0.3326091 -0.05117,0.3869591 -0.0986,0.572518 -0.09464,1.166811 0.114352,1.715875 0.03208,0.0843 0.07706,0.163118 0.11559,0.244677 0.09575,0.143478 0.263566,0.428054 0.430844,0.467811 0.269147,0.06397 0.55717,0.0389 0.829896,-0.0075 0.08534,-0.01451 0.132381,-0.111565 0.198503,-0.167427 0.0037,-0.0031 0.01573,-0.0094 0.01091,-0.0095 -0.356735,-0.007 -0.71357,-0.0076 -1.070354,-0.01137 0.07065,0.1937 0.141585,0.387105 0.219185,0.578194 0.03643,0.108901 0.08093,0.214531 0.130089,0.318176 0.03053,0.09887 1.428811,-0.332869 1.398283,-0.431743 v 0 c -0.02604,-0.0982 -0.05614,-0.1951 -0.08351,-0.292956 -0.05102,-0.174997 -0.112672,-0.335834 -0.188229,-0.501644 -0.04182,-0.09177 -0.117133,-0.266354 -0.165104,-0.348382 -0.03265,-0.05582 -0.07372,-0.106265 -0.110593,-0.159396 -0.393079,-0.04472 -0.784869,-0.102766 -1.179237,-0.134147 -0.01972,-0.0016 -0.0617,0.04951 -0.04672,0.03659 0.266909,-0.230267 0.275291,-0.235226 0.862229,-0.07378 0.09923,0.02729 0.106445,0.193987 0.201822,0.23364 -0.127611,-0.414825 -0.172147,-0.853888 -0.138613,-1.2863 0.06559,-0.5148023 0.141001,-1.0325948 0.06705,-1.5516406 -0.05585,-0.3054127 -0.110387,-0.631299 -0.318735,-0.8796652 -0.08829,-0.1052535 -0.182499,-0.227628 -0.3142,-0.2667338 -0.552541,-0.164067 -0.598984,-0.084116 -0.971954,0.1042478 -0.07141,0.067913 -0.149355,0.1295482 -0.214229,0.2037255 -0.211191,0.2414805 -0.302503,0.5692822 -0.337276,0.880425 -0.01092,0.1907512 -0.0087,0.3811612 -0.0099,0.5721007 0.01102,0.2831468 0.05908,0.5588145 0.124097,0.8343276 0.06054,0.433458 0.133994,0.864747 0.266981,1.28314 0.03666,0.118445 0.07333,0.236891 0.10999,0.355336 0.03684,0.114894 0.07462,0.229491 0.110522,0.34468 0.05539,0.177697 0.100452,0.358533 0.157229,0.535791 0.01002,0.03128 0.0064,0.08159 0.03785,0.09098 0.0251,0.0075 0.02636,-0.04526 0.03954,-0.06788 0.03353,-0.0599 0.065,-0.121006 0.100596,-0.179709 0.01241,-0.02045 0.05934,-0.0621 0.03542,-0.06241 -0.0489,-6.32e-4 -0.09223,0.03816 -0.141839,0.03679 -0.180072,0.01899 -0.3537,0.07455 -0.507291,0.171177 -0.03822,0.03075 -0.0789,0.05869 -0.114669,0.09226 -0.03667,0.03441 -0.06803,0.07407 -0.102031,0.111107 -0.01536,0.01847 -0.02905,0.03846 -0.04608,0.05541 -0.002,0.002 -0.0032,-0.0063 -0.0013,-0.0083 0.04064,-0.04129 0.07051,-0.104647 0.126624,-0.119071 0.193062,-0.04963 0.396222,-0.04417 0.594332,-0.06625 0.03095,0.02191 0.169013,0.09277 0.184007,0.165173 0.0025,0.01242 -0.02411,-0.0107 -0.03196,-0.02066 -0.114605,-0.145236 -0.169659,-0.32999 -0.221277,-0.503661 -0.01953,-0.108447 -0.0642,-0.289018 -0.04376,-0.406541 0.06068,-0.348965 0.558589,-0.643388 0.775226,-0.887762 0.349856,-0.33137 0.704936,-0.661043 1.021368,-1.025449 0.09555,-0.1100368 0.184802,-0.2254468 0.273627,-0.3409791 0.0586,-0.07622 0.104888,-0.1620037 0.168505,-0.23409 0.03941,-0.044647 0.09207,-0.075558 0.138104,-0.113337 0.559301,-0.4360072 1.110965,-0.8849115 1.711385,-1.2642007 -0.574287,-0.05721 -0.460377,0.06669 -0.797307,-0.5624505 -0.02516,-0.04699 0.02289,-0.1142843 -0.0048,-0.1598387 -0.0171,-0.028147 -0.02352,0.061546 -0.03655,0.091794 -0.107049,0.2485316 -0.09138,0.2061851 -0.226215,0.4684609 -0.182148,0.2663257 -0.208299,0.3132135 -0.414973,0.5770702 -0.08489,0.1083833 -0.177498,0.2106555 -0.260733,0.3203175 -0.278542,0.3669825 -0.526961,0.7478183 -0.645659,1.1990464 -0.0085,0.14801 -0.04276,0.296793 -0.02543,0.444031 0.01266,0.107617 0.107693,0.413278 0.224892,0.520307 0.01371,0.01252 9e-4,-0.03713 3.94e-4,-0.0557 -0.0013,-0.05125 -0.0052,-0.102421 -0.006,-0.153681 -1.18e-4,-0.0073 0.0022,-0.01462 0.0032,-0.02192 -0.136177,0.261365 -0.325725,0.487022 -0.512874,0.713603 -0.354266,0.428908 -0.385406,0.430221 -0.72741,0.896576 -0.119258,0.162618 -0.22874,0.332182 -0.343111,0.498274 -0.109418,0.216569 -0.542254,0.947901 -0.361564,1.202679 0.54734,0.77177 0.967309,0.678285 1.565125,0.470799 0.169433,-0.07202 0.418536,-0.152646 0.522862,-0.314648 0.215768,-0.335054 0.178846,-0.360802 0.163775,-0.673012 -0.04649,-0.204246 -0.08825,-0.409707 -0.08831,-0.620535 0.0016,-0.06307 -0.0022,-0.126544 0.005,-0.189234 0.01293,-0.112854 0.086,-0.434304 0.107171,-0.532188 0.06405,-0.296103 0.130047,-0.591821 0.188721,-0.889053 0.02368,-0.104363 0.06974,-0.277379 0.07507,-0.393389 0.0029,-0.06246 -0.05129,0.05867 -0.06225,0.07751 -0.05544,0.09525 -0.08253,0.08195 0.0061,0.07608 0.641519,-0.185249 1.260329,-0.438038 1.846363,-0.759087 0.150776,-0.07991 0.195928,-0.115834 0.340212,-0.160615 0.186245,-0.0578 0.38237,-0.02978 0.571021,-0.0786 0.08627,-0.02257 0.174383,-0.03904 0.258824,-0.067725 C 29.42181,9.841407 29.848096,9.552465 30.173182,9.1894275 30.271801,9.0792952 30.35418,8.9556337 30.444679,8.8387365 30.55882,8.61711 30.711955,8.3783812 30.722526,8.11704 30.729576,7.9436437 30.726201,7.7593777 30.655896,7.6007077 30.54262,7.3449668 30.363107,7.1993836 30.12325,7.1158494 30.0652,7.0956309 30.003196,7.0893331 29.943168,7.0760754 c -0.357642,-5.053e-4 -0.731546,-0.028322 -1.079306,0.081119 -0.06066,0.019089 -0.12893,0.028453 -0.177801,0.069139 -0.138851,0.1155992 -0.250099,0.2608092 -0.375149,0.3912136 -0.01055,0.4661648 -0.103431,0.590145 0.163744,0.903465 0.03277,0.03843 0.0671,0.076168 0.106482,0.10779 0.01748,0.01404 0.04618,0.043455 0.06155,0.027135 0.315972,-0.3356145 0.6005,-0.6995002 0.90075,-1.0492507 C 29.295359,7.4988372 29.004933,7.4289234 28.748212,7.3580733 28.155847,7.1945912 27.559649,7.0417903 26.955978,6.9257049 26.301023,6.7682418 26.794255,6.8859946 26.271349,6.7628228 c -0.05857,-0.013796 -0.115847,-0.034812 -0.175617,-0.041722 -0.184254,-0.021301 -0.36932,-0.043088 -0.5548,-0.04272 -0.104344,2.066e-4 -0.287696,0.072458 -0.385988,0.1067239 -0.05767,0.027431 -0.11669,0.052201 -0.173021,0.082293 -0.239671,0.1280355 -0.453385,0.2979359 -0.684988,0.4386269 -0.06534,0.021878 -0.08947,0.033917 -0.159369,0.040895 -0.0266,0.00265 -0.106428,-0.00413 -0.08019,9.525e-4 0.341691,0.066117 0.413551,-0.037324 0.289106,0.1547019 -0.0014,0.033713 0.0043,0.068505 -0.0043,0.1011278 -0.0093,0.03543 -0.02863,6.817e-4 -0.04193,0.00988 -0.0085,0.00585 -0.02589,0.04653 -0.02395,0.054832 0.0016,0.00683 0.0085,-0.011175 0.01281,-0.016762 0.04867,-0.073425 0.104056,-0.1534446 0.18035,-0.193395 -0.0079,0.00984 -0.0264,0.017155 -0.02381,0.029532 0.0021,0.00995 0.02036,0.00351 0.03043,0.00209 0.132591,-0.018785 0.263742,-0.050682 0.397029,-0.067175 0.171798,-0.00466 0.343082,-0.0042 0.514905,-0.01262 0.04606,-0.00226 0.183855,-6.907e-4 0.138164,-0.00691 -0.08405,-0.011442 -0.169538,-0.00593 -0.254307,-0.0089 0.18663,-0.021639 0.367404,0.00906 0.550671,0.047673 0.246829,0.029143 0.445714,0.060991 0.717685,-0.00155 0.128301,-0.029501 0.47831,-0.1712532 0.347655,-0.187405 -0.244201,-0.030188 -0.481851,0.1007373 -0.724626,0.1408032 -0.0206,0.0034 -0.0757,-0.026483 -0.06165,-0.011042 0.03019,0.03317 0.07671,0.046493 0.11506,0.069739 0.760526,0.349774 1.574561,0.5764577 2.405042,0.6821185 0.329234,0.022665 0.309318,0.027157 0.774515,0.00263 0.143461,-0.00757 0.281451,-0.06912 0.424961,-0.078339 0.210112,-0.04692 0.413566,-0.1155833 0.588141,-0.2458133 0.0997,-0.073125 0.04107,-0.027623 0.152258,-0.121998 0.01604,-0.013612 0.03098,-0.028695 0.04832,-0.040605 0.0038,-0.00263 0.01288,0.00742 0.0093,0.010372 -0.02588,0.02142 -0.05489,0.038737 -0.08235,0.05811 -0.13637,0.1078905 -0.0573,0.058463 -0.436436,-0.00879 -0.02156,-0.00382 0.007,-0.145545 0.0029,-0.1677225 0.0037,-0.010928 -8.1e-5,-0.029438 0.01094,-0.03279 9e-4,-2.67e-4 0.01337,0.042495 0.02452,0.0291 0.03265,-0.039246 0.03946,-0.060524 0.01684,-0.039852 -0.169635,0.1655433 -0.356381,0.3193795 -0.477335,0.526471 -0.02285,0.04227 -0.09096,0.1693223 -0.06818,0.1270185 0.02034,-0.037755 0.04241,-0.074648 0.06076,-0.1134157 0.0045,-0.00944 0.0175,-0.032805 0.0073,-0.030457 -0.07357,0.016972 -0.121642,0.099931 -0.1957,0.1140885 -0.381603,0.2421045 -0.74719,0.5078272 -1.101887,0.7877977 -0.120368,0.093341 -0.238685,0.190416 -0.362839,0.2787593 -0.0549,0.039067 -0.114009,0.07206 -0.168286,0.1119862 -0.03724,0.02739 -0.07229,0.05763 -0.10844,0.08645 -0.09794,0.088475 -0.233991,0.204639 -0.363492,0.3201075 -0.34434,0.3366943 -0.623178,0.7297823 -0.866552,1.1445573 -0.17,0.315962 -0.316534,0.645594 -0.426084,0.987604 -0.03213,0.131994 -0.07508,0.261855 -0.09035,0.39741 -0.0025,0.0128 -0.0064,0.03477 -0.0107,0.04514 -0.0025,0.0062 -0.105364,0.09111 -0.110574,0.09662 -0.369783,0.335898 -0.755895,0.662454 -1.040583,1.077996 -0.02923,0.04481 -0.05876,0.08945 -0.08771,0.134445 -0.0055,0.0086 -0.02245,0.03386 -0.01568,0.02625 0.01697,-0.01907 0.02948,-0.04181 0.04646,-0.06086 0.09204,-0.103215 0.104135,-0.09214 -0.03047,-0.03794 -0.106324,0.0507 -0.214521,0.0923 -0.327282,0.121326 -0.05578,-0.0064 -0.01702,-0.005 -0.114137,0.01934 -0.163194,0.04094 -0.315658,0.108415 -0.453682,0.205797 -0.184133,0.15956 -0.107332,0.07863 -0.252973,0.257879 -0.01015,0.01249 -0.109651,0.138246 -0.08195,0.115368 0.414451,-0.342311 -0.671566,-0.02029 0.889721,-0.22317 0.07398,0.06499 0.150402,0.127285 0.221929,0.194957 0.0097,0.0091 0.02623,0.04631 0.02042,0.03433 -0.08931,-0.183942 -0.193648,-0.361655 -0.304725,-0.533081 -0.03427,-0.05596 -0.143688,-0.240814 -0.195357,-0.306307 -0.01179,-0.01494 -0.03022,-0.02341 -0.04325,-0.03727 -0.02536,-0.02698 -0.04021,-0.06145 -0.04796,-0.09686 -0.04144,-0.262146 -0.09047,-0.523897 -0.17906,-0.774958 -0.144279,-0.394958 -0.318932,-0.778232 -0.508521,-1.153483 -0.01791,-0.0436 -0.03551,-0.08732 -0.05373,-0.130788 -0.01329,-0.0317 -0.01669,-0.07019 -0.0408,-0.09469 -0.0092,-0.0093 -0.01,0.02457 -0.01793,0.03498 -0.0014,0.0019 -0.0046,-0.0031 -0.0047,-0.0055 -4.75e-4,-0.03171 0.0021,-0.0634 0.0032,-0.0951 -0.0011,-0.03505 -0.0022,-0.07011 -0.0033,-0.105166 -0.0084,-0.07781 -0.02453,-0.270147 -0.06406,-0.336887 -0.0016,-0.0026 0.0028,0.01772 -9e-4,0.009 0.0607,-0.248415 0.119078,-0.498058 0.227689,-0.7315011 0.122238,-0.334578 0.224715,-0.6756368 0.293251,-1.025559 9e-4,-0.01506 -0.0015,-9.75e-4 0.01418,-0.02085 0.0148,-0.018743 0.02974,-0.037462 0.04264,-0.05757 0.08792,-0.13713 0.153126,-0.269955 0.184216,-0.4322678 C 23.942,8.2265773 23.96216,8.0979808 23.92949,7.9777941 23.883117,7.8072043 23.775469,7.6638598 23.640607,7.5572083 23.607667,7.5311608 23.531892,7.4498665 23.53291,7.4918466 c 0.0089,0.364541 0.117971,0.721295 0.13356,1.0857605 0.216101,-0.094255 0.410955,-0.2204392 0.605899,-0.352935 0.294474,-0.2001435 0.583742,-0.410787 0.840879,-0.658143 0.07673,-0.075057 -0.984728,-1.16024 -1.061462,-1.0851833 z" />
      <path
         style="fill:#678a9b;fill-opacity:1;stroke-width:0.75"
         id="path2123"
         d="m 22.725432,6.9003589 c -0.06557,0.05054 -0.134933,0.096509 -0.196712,0.1516173 -0.301619,0.2690468 -0.574638,0.6039525 -0.727821,0.9811808 -0.04009,0.098726 -0.06613,0.2025923 -0.09919,0.303888 -0.09692,0.4553243 -0.02455,0.9071565 0.06281,1.355745 0.01054,0.077138 0.0061,0.04488 0.01315,0.096769 -0.0033,0.1039582 1.466861,0.1509952 1.470187,0.04704 v 0 c 0.01541,-0.2210685 0.01344,-0.1069643 0.0036,-0.342345 -0.03127,-0.2500582 -0.07595,-0.5010045 -0.07504,-0.7534162 0.04808,-0.140673 0.13171,-0.2221725 0.229473,-0.3356468 0.163958,-0.1903072 0.337653,-0.3724162 0.490499,-0.5721202 0.06596,-0.082799 -1.105005,-1.0155094 -1.170958,-0.9327102 z" />
      <path
         style="fill:#678a9b;fill-opacity:1;stroke-width:0.75"
         id="path2125"
         d="m 28.380634,17.647279 c -0.07972,0.42509 -0.09351,0.861276 -0.05356,1.291405 0.01283,0.161645 0.05115,0.317926 0.09076,0.474445 0.08058,0.224653 0.203322,0.437134 0.393754,0.588039 0.06132,0.04859 0.132596,0.08307 0.198893,0.124607 0.388539,0.128034 0.09622,0.05698 0.690583,0.0705 0.117014,0.0027 -0.234227,0.0099 -0.35111,0.0038 -0.01614,-8.25e-4 -0.02853,-0.01531 -0.04188,-0.02442 -0.0074,-0.005 -0.02852,-0.01582 -0.01985,-0.0177 0.01351,-0.0029 0.02612,0.009 0.03918,0.01352 0.682995,0.294485 0.888587,0.18626 1.258979,-0.395536 0.05988,-0.09405 0.05245,-0.217358 0.06458,-0.328191 0.01991,-0.181917 -0.004,-0.379925 -0.01838,-0.561058 -0.05602,-0.442618 -0.164888,-0.875544 -0.262893,-1.309939 -0.12665,-0.595898 -0.320562,-1.036733 -1.268752,-0.811809 0.127567,-0.136906 0.380675,-0.111653 0.529469,-0.0146 0.04678,0.03051 0.103075,0.05505 0.132563,0.102485 0.08828,0.142005 0.190344,0.288367 0.21338,0.453982 0.01909,0.13722 -0.06261,0.269915 -0.09392,0.404872 0.06983,0.0094 -0.09952,0.105073 -0.06017,0.134427 0.01785,0.01332 0.04349,-0.0097 0.06542,-0.01363 0.03315,-0.03026 0.06818,0.0028 0.101596,-0.0027 0.03111,-0.0052 0.06024,-0.01871 0.09036,-0.02807 -0.04853,-0.04119 0.131529,0.0019 0.09692,0.0047 -0.283674,0.02357 -0.458339,1.2e-5 -0.236529,0.02212 0.04618,0.0046 0.09235,0.0093 0.138522,0.01402 0.384344,0.0176 0.766576,0.06251 1.150392,0.08675 0.146902,0.0108 0.293815,0.0053 0.440565,-0.0028 0.149961,-0.0083 0.30677,0.0208 0.449892,-0.02473 0.157535,-0.05012 0.280233,-0.171461 0.397785,-0.281847 -0.01868,0.03168 -0.04425,0.0602 -0.05604,0.09505 -0.01348,0.03985 0.0542,0.04852 0.06799,0.04871 0.04519,6.48e-4 0.08996,-0.0086 0.134972,-0.01266 0.206553,-0.01841 0.07276,-0.0021 0.301915,-0.03619 0.234587,-0.03382 0.468326,-0.08544 0.695546,-0.153194 0.09507,-0.02834 0.187444,-0.0652 0.282397,-0.09392 0.542818,-0.164197 0.02715,0.01753 0.553035,-0.177003 0.163466,-0.03463 0.312095,-0.157715 0.483686,-0.162318 0.025,-6.7e-4 0.09797,0.01074 0.07341,0.01549 -0.139866,0.02704 -0.43932,0.02165 -0.146741,0.02332 0.0969,0.0036 0.195618,5.27e-4 0.292184,0.01117 0.03529,0.0039 0.06971,0.01552 0.105195,0.01678 0.0044,1.58e-4 -0.004,-0.009 -0.0023,-0.01311 0.0016,-0.0037 0.0069,-0.0041 0.01036,-0.0061 -0.01004,-0.007 -0.04201,-0.0236 -0.0301,-0.02089 0.05465,0.01247 0.10288,0.04455 0.154788,0.0657 0.115148,0.04693 0.231886,0.0898 0.347917,0.134465 0.03392,0.0086 0.350709,0.175753 0.364877,0.154808 0.006,-0.0088 -0.0031,-0.02142 -0.0078,-0.031 -0.01986,-0.04076 -0.04359,-0.0795 -0.06538,-0.119254 -0.01884,-0.06328 -0.01902,-0.13549 -0.05652,-0.189827 -0.0072,-0.01048 0.0501,0.225478 0.0571,0.251385 0.06874,0.254686 0.16813,0.496143 0.264754,0.741324 0.13572,0.352726 0.297379,0.694878 0.478677,1.026346 0.03739,0.06836 0.07602,0.136079 0.117133,0.202256 0.0191,0.03073 0.02805,0.09637 0.06329,0.08817 0.03348,-0.0078 6.45e-4,-0.06874 9.75e-4,-0.10312 0.367851,-0.220911 0.743207,-0.429781 1.103554,-0.662732 0.01374,-0.0089 -0.02909,-0.01498 -0.04363,-0.02247 -0.05768,-0.02971 -0.10827,-0.08546 -0.173052,-0.08913 -0.253141,-0.01436 -0.520546,-0.04774 -0.759782,0.03624 -0.239671,0.08413 -0.323436,0.374362 -0.404371,0.576748 -0.12513,0.391597 -0.126633,0.805006 -0.116112,1.21166 0.0079,0.26913 0.0365,0.536599 0.06735,0.803767 0.0016,0.01121 0.0027,0.04472 0.0049,0.03361 0.0055,-0.02773 0.01074,-0.05693 0.0052,-0.08465 -0.0025,-0.01272 -0.01114,0.02354 -0.01495,0.03594 -0.01004,0.03263 -0.01899,0.06563 -0.02653,0.09893 -0.03105,0.137232 -0.02915,0.150922 -0.04664,0.291831 -0.0253,0.393403 -0.03004,0.788428 -0.03112,1.18266 0.0041,0.162258 -0.0056,0.324366 -0.01996,0.48588 -5.06e-4,0.0057 -0.0043,0.02237 -0.0026,0.01691 0.03719,-0.122857 -0.01193,-0.01099 0.07913,-0.178293 0.02707,-0.03085 0.06902,-0.05337 0.0812,-0.09257 0.0071,-0.02284 -0.04288,0.02141 -0.06308,0.03424 -0.03237,0.02054 -0.0647,0.04147 -0.09439,0.06572 -0.11578,0.09451 -0.209095,0.199617 -0.299565,0.317474 -0.05194,0.05736 -0.11407,0.106944 -0.164914,0.165103 -0.04254,0.04866 -0.07718,0.110675 -0.128282,0.152388 -0.02549,0.01588 0.05659,-0.06754 0.03124,-0.08234 -0.04527,-0.02645 -0.33529,0.06735 -0.39143,0.08292 -0.09351,0.02622 -0.177571,0.07944 -0.269533,0.109564 -0.0016,5.19e-4 0.0031,-0.0055 0.0016,-0.0047 -0.108844,0.06131 -0.09211,0.05539 -0.196202,0.139236 0.0587,-0.04712 0.130533,-0.08145 0.176095,-0.141373 0.01414,-0.01861 -0.04673,0.0019 -0.0701,0.002 -0.02698,1.27e-4 -0.05442,0.0037 -0.08094,-0.0013 -0.02154,-0.004 -0.08235,-0.02173 -0.06071,-0.02523 0.246857,-0.03988 0.434398,0.02467 0.161559,-0.04843 -0.176745,-0.05408 -0.348106,-0.123563 -0.522028,-0.185633 -0.02088,-0.0074 -0.04116,-0.01972 -0.06332,-0.02036 -0.01884,-5.49e-4 0.0093,0.04118 0.0386,0.09655 -0.01892,-0.0571 0.0192,0.04666 0.02063,0.03359 0.01244,-0.11355 -0.03187,-0.295028 -0.05374,-0.404105 -0.08351,-0.303126 -0.282223,-0.549867 -0.453066,-0.807457 -0.144811,-0.207381 -0.31064,-0.399261 -0.491786,-0.575549 -0.09331,-0.09081 -0.06056,-0.0647 -0.131885,-0.115169 -0.200526,-0.271292 -0.423817,-0.508225 -0.662688,-0.746808 -0.311625,-0.357337 -0.666777,-0.672899 -1.033011,-0.972667 -0.215619,-0.176487 -0.430354,-0.34215 -0.674728,-0.47544 -0.537149,-0.303213 -0.116824,-0.117264 -1.124171,0.9705 -0.0069,0.0075 0.01296,0.02023 0.02317,0.02003 0.0068,-1.34e-4 -0.0057,-0.01619 -4.17e-4,-0.02047 0.373187,-0.301941 0.779791,-0.564519 1.129668,-0.893186 0.0298,-0.028 -0.05215,-0.06302 -0.07822,-0.09452 -0.149977,-0.230254 -0.367155,-0.419526 -0.483563,-0.67095 -0.0044,-0.01072 -0.0062,-0.02295 -0.01319,-0.03215 -0.0029,-0.0039 -1.13e-4,0.0097 -2.18e-4,0.0146 -5.2e-4,0.02429 7.11e-4,0.04869 -0.0017,0.07287 -0.0028,0.02819 -0.008,0.05611 -0.01369,0.08388 -0.0048,0.0237 -0.01894,0.04622 -0.01767,0.07036 3.93e-4,0.0075 0.01395,-0.0055 0.02093,-0.0083 0.164494,-0.215876 0.115894,-0.505044 0.27315,-0.719513 0.05171,-0.09411 0.122612,-0.164425 0.206162,-0.229355 0.03913,-0.0304 0.07471,-0.06624 0.117879,-0.09058 0.04554,-0.02568 0.159814,-0.04753 0.21017,-0.05882 0.299109,-0.04069 -0.355075,0.04898 -0.387594,0.04003 -0.539617,0.171775 -0.282041,-0.453069 -0.512313,-0.554661 -0.0608,-0.02683 -0.07171,0.112279 -0.100646,0.17211 -0.05147,0.106447 -0.09343,0.217237 -0.140147,0.325855 -0.171359,0.388641 -0.320567,0.788796 -0.417424,1.203075 -0.03684,0.157583 -0.07187,0.372964 -0.07257,0.539163 -3.29e-4,0.07912 0.01106,0.157859 0.01658,0.236789 0.131224,0.347866 0.142773,0.603637 0.604275,0.712243 0.404941,0.0953 0.459185,-0.02643 0.70908,-0.114039 0.35656,-0.124999 -0.274673,0.121035 0.263059,-0.09398 0.09756,-0.06954 0.205232,-0.126734 0.292685,-0.208626 0.551179,-0.516137 0.893499,-1.311521 1.106367,-2.023053 0.04087,-0.136596 0.06674,-0.277236 0.10011,-0.415855 -0.0031,-0.05845 0.04797,-0.163556 -0.0094,-0.175341 -0.49098,-0.100923 -1.002068,-0.209164 -1.497712,-0.134445 -0.13672,0.02061 -0.112811,0.252914 -0.157067,0.383905 -0.129551,0.38346 -0.276002,0.96711 -0.355134,1.352842 -0.04822,0.23508 -0.08174,0.472939 -0.122606,0.709409 -0.123934,1.147192 -0.319231,1.609478 1.520877,1.253296 0.164447,-0.03183 0.160337,-0.294487 0.229271,-0.447144 0.09329,-0.206598 0.171306,-0.41976 0.25696,-0.62964 0.254642,-0.713428 0.49007,-1.435637 0.655832,-2.175597 0.05592,-0.249613 0.123691,-0.605762 0.134958,-0.877208 0.0019,-0.04544 -0.0097,-0.09043 -0.01449,-0.135646 -0.504432,-0.02654 -1.015971,-0.168087 -1.513294,-0.07963 -0.12354,0.02197 -0.06637,0.242203 -0.09167,0.365103 -0.171755,0.834133 -0.210358,1.684256 -0.240315,2.532659 0.0068,0.507186 0.0054,1.01906 0.08663,1.521532 0.01064,0.06583 0.02612,0.130966 0.04489,0.194953 0.01608,0.05481 0.0028,0.153435 0.05945,0.160713 0.478953,0.06152 0.965528,0.02197 1.448292,0.03296 0.05492,-0.09489 0.115343,-0.186795 0.164745,-0.284668 0.07896,-0.156434 0.149021,-0.317238 0.219955,-0.477473 0.09958,-0.224941 0.201539,-0.449021 0.291544,-0.677961 0.235369,-0.598687 0.368443,-1.006556 0.527852,-1.627651 0.05851,-0.227988 0.102173,-0.459533 0.15326,-0.689298 0.135206,-0.942818 0.317881,-1.903463 -1.471727,-1.20908 -0.241046,0.09353 -0.175171,0.487847 -0.232909,0.739873 -0.07589,0.331285 -0.111345,0.670552 -0.167017,1.005829 -0.12467,1.169751 -0.146237,2.35148 -0.02443,3.522558 0.03697,0.355521 0.102253,0.827864 0.244914,1.179152 0.03202,0.07884 0.08863,0.145282 0.132951,0.217924 0.493635,-0.07399 1.017918,-0.03544 1.480905,-0.221963 0.126669,-0.05103 0.05088,-0.268407 0.07138,-0.403423 0.06847,-0.451029 0.09401,-0.76575 0.148583,-1.23207 0.148645,-1.270038 0.05962,-0.36356 0.171792,-1.63748 0.0072,-0.115557 0.06938,-0.934995 0.04877,-1.139575 -0.0022,-0.02148 -0.03453,-0.03813 -0.05556,-0.03327 -0.485276,0.112243 -1.07481,0.04716 -1.445045,0.380355 -0.2305,0.207438 -0.0197,0.620243 -0.01124,0.930225 0.01165,0.426856 0.04767,0.852699 0.0715,1.279047 0.11773,1.121755 0.206405,2.254644 0.461395,3.356635 0.03821,0.165144 0.08011,0.331053 0.146953,0.486827 0.02344,0.05463 0.05971,0.137836 0.118944,0.132876 0.508702,-0.0426 1.005081,-0.179392 1.507622,-0.269088 0.02923,-0.150763 0.06442,-0.300492 0.08767,-0.452289 0.03277,-0.213892 0.05496,-0.429279 0.08033,-0.644173 0.1014,-0.858605 0.177325,-1.71941 0.252023,-2.580644 -0.123814,-0.140685 0.08483,-0.303581 0.04604,-0.448914 -0.0062,-0.02342 -0.01239,0.05371 -0.03427,0.06416 -0.252249,0.120549 -0.494773,0.319768 -0.774336,0.322268 -0.296604,0.0026 -0.384453,-0.221198 -0.474354,-0.409433 -0.01652,0.03197 0.06205,0.07299 0.03952,0.101451 -0.0167,0.0211 -0.07043,-0.01509 -0.08013,0.01002 -0.04738,0.122757 -0.0548,0.257599 -0.07343,0.387856 -0.06166,0.431208 -0.05299,0.542536 -0.06685,0.979403 1.38e-4,0.358383 0.01106,0.718784 0.06877,1.073249 0.02457,0.150919 0.07353,0.296124 0.110954,0.444015 0.05683,0.179307 0.144722,0.356056 0.293406,0.478679 0.07207,0.05944 0.142737,0.160459 0.235722,0.151546 0.332385,-0.03186 0.673062,-0.10565 0.965574,-0.266682 0.117759,-0.06483 0.11802,-0.241556 0.17703,-0.362334 0.282639,-0.818651 0.37338,-1.690344 0.332095,-2.553046 -0.008,-0.167516 -0.03049,-0.334027 -0.04574,-0.501041 -0.08137,-0.448827 -0.05325,-0.325424 -0.145962,-0.729105 -0.01784,-0.07764 -0.07298,-0.2901 -0.08372,-0.384146 -0.0099,-0.08654 0.01456,-0.187511 0.02741,-0.268931 0.04363,-0.363644 0.125196,-0.740003 0.05637,-1.106438 -0.01409,-0.07501 -0.03769,-0.147922 -0.05654,-0.221883 -0.05112,-0.09745 -0.09158,-0.201277 -0.153355,-0.292345 -0.09713,-0.143198 -0.190121,-0.183125 -0.310652,-0.294797 -0.04916,-0.04554 -0.09201,-0.09749 -0.13982,-0.144451 -0.238747,-0.234479 -0.268023,-0.25345 -0.529488,-0.483364 -0.329649,-0.271336 -0.653085,-0.567633 -1.049439,-0.740382 -0.09637,-0.042 -0.190167,-0.121372 -0.294867,-0.111895 -0.295357,0.02673 -0.575268,0.144459 -0.862902,0.216688 -0.06883,0.18356 -0.163965,0.359306 -0.206489,0.550679 -0.01853,0.08336 0.01873,0.169747 0.02753,0.254682 0.0021,0.02008 0.01516,0.07783 0.0051,0.06033 -0.05315,-0.09257 0.02313,-0.16422 -0.116547,-0.03485 -0.330804,0.402047 -0.558382,0.802614 -0.532244,1.350601 0.008,0.167436 0.06469,0.328953 0.09703,0.49343 0.07593,0.154136 0.131977,0.319782 0.227796,0.462408 0.295199,0.439409 0.827855,0.803955 1.372348,0.820697 0.316516,0.0097 0.635154,-0.03584 0.944179,-0.104985 0.154957,-0.03467 0.287386,-0.135146 0.431078,-0.20272 0.110208,-0.08716 0.232467,-0.160945 0.330624,-0.261485 0.186185,-0.190706 0.348393,-0.476334 0.358998,-0.749492 0.0076,-0.196415 -0.03041,-0.395667 -0.0912,-0.582596 -0.08771,-0.269731 -0.29304,-0.455436 -0.475685,-0.655288 -0.08663,-0.07127 -0.170029,-0.146664 -0.259896,-0.21381 -0.333696,-0.24933 -0.882786,-0.515331 -1.304837,-0.367327 -0.187078,0.0656 -0.285373,0.275263 -0.428059,0.412896 -0.321325,0.03259 -0.01595,0.276217 -0.08393,0.390821 -0.0051,0.0085 -0.01204,-0.06766 -0.02548,-0.05823 -0.06688,0.04692 -0.220779,0.329244 -0.22737,0.34013 -0.194688,0.406661 -0.360882,0.85109 -0.35139,1.309965 0.0021,0.100446 0.0061,0.203058 0.03459,0.299412 0.03943,0.133519 0.111278,0.25524 0.166917,0.382859 0.520147,0.415249 0.348292,0.414544 1.152575,0.331632 0.08961,-0.0092 0.167868,-0.06666 0.246873,-0.109934 0.193928,-0.106227 0.371335,-0.256423 0.550698,-0.385293 0.173038,-0.117899 0.338532,-0.250792 0.46385,-0.420889 0.04564,-0.06194 0.08007,-0.131405 0.120105,-0.197107 0.05071,-0.09198 -1.250035,-0.809109 -1.300744,-0.717132 v 0 c -0.04354,0.0054 -0.0087,-0.0017 -0.08092,0.05094 -0.235804,0.171773 -0.01754,0.0061 -0.285083,0.213019 -0.07171,0.05606 -0.166734,0.133525 -0.245662,0.185116 -0.0122,0.008 -0.02534,0.01505 -0.03934,0.01912 -0.0032,9.75e-4 -0.01214,-0.0054 -0.0088,-0.0051 0.619451,0.05513 0.409301,-0.08185 0.718917,0.319178 0.01512,0.06872 0.02744,0.138105 0.04535,0.206143 0.0024,0.0091 -9.6e-5,-0.0189 0.0015,-0.02816 0.0086,-0.04932 0.01709,-0.09875 0.02911,-0.147348 0.05958,-0.240978 0.135549,-0.478674 0.21906,-0.712258 0.02312,-0.06274 0.04359,-0.126526 0.06938,-0.188219 0.07498,-0.179382 0.109975,-0.198665 0.164771,-0.395128 0.01792,-0.06428 0.0257,-0.131044 0.03477,-0.197159 0.0035,-0.02539 0.01405,-0.09985 0.0028,-0.07683 -0.0323,0.06604 -0.04524,0.139904 -0.06785,0.209856 -0.126635,0.110088 -0.219591,0.280716 -0.379907,0.330265 -0.175734,0.05431 -0.367285,-0.02294 -0.550146,-0.0428 -0.0059,-6.38e-4 -0.0091,-0.0194 -0.0036,-0.01733 0.0602,0.02247 0.204191,0.129138 0.236308,0.151195 0.05078,0.03487 0.101708,0.0695 0.152563,0.104258 0.04654,0.03534 0.09118,0.07331 0.139602,0.106031 0.03229,0.02181 0.06837,0.07695 0.101951,0.05718 0.05156,-0.03035 0.05065,-0.108402 0.0766,-0.162306 0.09563,-0.198622 0.09858,-0.154847 -0.09506,-0.07655 -0.07044,0.02138 -0.209105,-0.0094 -0.211326,0.06414 -0.0022,0.07102 0.174108,-0.01582 0.207983,0.04663 0.02612,0.04814 -0.07363,0.08702 -0.124571,0.10715 -0.153611,0.06069 -0.320582,-0.11511 -0.404875,-0.211092 -0.02561,-0.04111 -0.04913,-0.08359 -0.07683,-0.123318 -0.01381,-0.01982 -0.04496,-0.03081 -0.04736,-0.05484 -0.0079,-0.07941 0.07882,-0.189657 0.114158,-0.242675 0.256072,-0.384147 -0.02348,0.05063 0.247997,-0.37665 0.152821,-0.312121 0.227212,-0.460159 0.225634,-0.821588 -2.25e-4,-0.05149 -0.0039,-0.105545 -0.02523,-0.152401 -0.0093,-0.02043 -0.0095,0.04389 -0.01421,0.06584 -0.06657,0.13124 -0.133138,0.262479 -0.199707,0.39372 -0.389571,0.07185 -0.628961,0.312376 -0.867942,0.06508 -0.0268,-0.02773 0.06248,0.04525 0.09278,0.06911 0.243516,0.191763 0.483219,0.38903 0.712324,0.597877 0.262394,0.210527 0.333881,0.274836 0.606472,0.466599 0.09102,0.06403 0.181629,0.129123 0.2776,0.185457 0.03023,0.01774 0.06459,0.04248 0.09895,0.03557 0.07714,-0.0155 -0.30581,-0.367291 -0.06127,-0.227967 -0.0028,-0.01776 8.25e-4,-0.06863 -0.0085,-0.05328 -0.01384,0.02263 -0.0046,0.05283 -0.0074,0.07922 -0.0046,0.04553 -0.0085,0.09114 -0.01428,0.136522 -0.03635,0.283587 -0.03018,0.161835 -0.05882,0.464574 -0.0082,0.08669 -0.01351,0.173633 -0.02027,0.260449 -0.0047,0.160221 -0.01294,0.359879 -0.0085,0.520733 0.0095,0.342102 0.07782,0.68043 0.06529,1.02355 -0.01152,0.866587 -0.02487,1.733157 -0.05152,2.599353 0.279735,-0.273259 0.197151,-0.223077 0.96714,-0.257312 0.06563,-0.0029 0.105234,0.07976 0.149937,0.127897 0.03854,0.0415 0.07815,0.124278 0.07023,0.18387 0.0012,0.01014 -0.0057,0.03483 0.0035,0.03042 0.01264,-0.0061 0.01243,-0.02551 0.01499,-0.03928 0.0083,-0.04473 0.01291,-0.0901 0.01741,-0.135367 0.03265,-0.328269 0.04541,-0.658331 0.06104,-0.987675 0.01046,-0.313311 0.02647,-0.636877 0.01559,-0.950433 -0.01447,-0.41692 -0.03879,-0.385994 -0.08946,-0.803234 -4.8e-4,-0.004 0.0069,0.004 0.01035,0.006 -0.0048,-0.02876 -0.0096,-0.05752 -0.01445,-0.08629 -0.09439,-0.274923 -0.173757,-0.646698 -0.58521,-0.677418 -0.869907,-0.06495 -1.092477,0.605818 -1.298469,1.218423 -0.04337,0.177077 -0.09409,0.352514 -0.130115,0.531231 -0.188995,0.937652 -0.267225,1.943918 -0.19539,2.898522 0.01247,0.165763 0.04279,0.329697 0.06419,0.494546 0.503297,0.04608 1.004505,0.134173 1.509889,0.13824 0.05209,4.19e-4 0.08087,-0.07476 0.09332,-0.12534 0.0416,-0.168966 0.05647,-0.344165 0.06506,-0.517964 0.05679,-1.14916 -0.08045,-2.299864 -0.235957,-3.435541 -0.08427,-0.429459 -0.152052,-0.862484 -0.252807,-1.288377 -0.08007,-0.338457 -0.0167,-0.786365 -0.289166,-1.002528 -1.844406,-1.463273 -1.879681,-0.256102 -2.08582,0.955881 -0.02673,0.282853 -0.06303,0.564965 -0.08018,0.84856 -0.03578,0.591591 -0.02969,1.012126 4e-6,1.592601 0.009,0.175181 0.02018,0.3504 0.03944,0.524749 0.0098,0.08858 -0.03948,0.244174 0.04761,0.263076 0.468932,0.101778 0.958883,0.03962 1.438324,0.05943 0.193433,0.04847 0.09338,0.04967 0.136483,-0.358806 0.02528,-0.239543 0.04211,-0.480026 0.05378,-0.720616 0.05476,-1.12922 0.0364,-2.260731 -0.01382,-3.389688 -0.01658,-0.312121 -0.01709,-0.625509 -0.04972,-0.936362 -0.01598,-0.152299 0.04073,-0.379817 -0.09572,-0.449324 -0.425778,-0.216889 -0.935421,-0.196741 -1.399116,-0.312135 -0.02036,-0.0051 -0.03007,-0.06361 -0.04232,-0.04658 -0.145228,0.201885 -0.09407,0.512811 -0.266713,0.696779 -0.07387,0.216322 -0.151378,0.431434 -0.221601,0.648967 -0.320333,0.992306 -0.589951,2.004365 -0.766521,3.032503 0.456059,0.07406 0.915909,0.127691 1.368176,0.222188 0.02739,0.0057 0.0255,0.0949 0.04229,0.07252 0.03893,-0.05188 0.03431,-0.125311 0.0453,-0.189234 0.01996,-0.116185 0.03569,-0.233167 0.04745,-0.350468 0.04574,-0.45619 0.04435,-0.663798 0.0609,-1.138626 0.0073,-0.446726 0.01374,-0.893465 0.02164,-1.340181 0.0017,-0.097 0.01867,-0.922 0.01942,-1.065419 6.08e-4,-0.116295 0.09791,-0.292269 -0.0037,-0.34887 -0.445606,-0.248259 -0.971874,-0.310242 -1.457811,-0.465363 -0.03257,0.04761 -0.07066,0.09189 -0.09772,0.142839 -0.124363,0.234096 -0.243588,0.565425 -0.326848,0.801834 -0.249021,0.707064 -0.454846,1.427778 -0.628551,2.156949 -0.04502,0.209571 -0.09578,0.417991 -0.135072,0.628712 -0.02514,0.134809 -0.173639,0.333418 -0.05809,0.407274 0.409326,0.261637 0.92148,0.309011 1.388419,0.443057 0.02413,0.0069 0.06,-0.0016 0.07138,-0.02398 0.09128,-0.179398 0.223516,-0.769507 0.25633,-0.900322 0.139252,-0.687891 0.274106,-1.377045 0.323636,-2.078742 0.01129,-0.15985 0.144705,-0.394014 0.0099,-0.480642 -1.245884,-0.800559 -1.169732,-0.80092 -1.575428,-0.30015 -0.179047,0.401795 -0.170045,0.369395 -0.344727,0.821679 -0.107658,0.278747 -0.200816,0.562956 -0.30869,0.84162 -0.05407,0.139685 -0.03839,0.113448 -0.105129,0.188397 -0.0436,0.02209 -0.143212,0.07344 -0.189416,0.09345 -0.008,0.0035 -0.03389,0.0073 -0.02521,0.0067 0.164668,-0.01096 0.336443,-0.08807 0.493648,-0.03785 0.380346,0.12151 0.378767,0.339043 0.46353,0.634 0.02296,0.07275 0.0063,0.04531 0.05849,-0.0801 0.03255,-0.07824 0.06615,-0.156053 0.09725,-0.234882 0.08609,-0.218267 0.200908,-0.528905 0.273341,-0.745968 0.04775,-0.143091 0.09042,-0.287827 0.135624,-0.431741 0.104487,-0.380159 0.307291,-0.983737 0.101473,-1.36157 -0.340747,-0.625529 -0.860169,-0.528249 -1.40868,-0.324788 -0.08879,0.04909 -0.182342,0.09041 -0.266358,0.147282 -0.336984,0.228116 -0.58854,0.561044 -0.766518,0.922378 -0.07023,0.1657 -0.131606,0.323485 -0.167019,0.500476 -0.0074,0.03701 -0.0173,0.07407 -0.01781,0.111807 -5.92e-4,0.04396 0.08791,-0.286456 0.06457,-0.114981 -0.230198,0.346989 -0.274384,0.638392 -0.169845,1.043017 0.02414,0.06574 0.04514,0.132723 0.0724,0.197234 0.140964,0.333569 0.364104,0.623862 0.606839,0.889242 0.471766,0.490654 0.16785,0.267025 1.451468,-0.570159 0.03349,-0.02184 -0.03494,-0.07217 -0.05681,-0.105629 -0.02321,-0.03551 -0.04297,-0.124588 -0.07797,-0.100608 -1.269982,0.870129 -0.67843,1.134653 -1.178914,0.891975 0.153372,0.226576 0.340049,0.421475 0.538023,0.610599 0.350724,0.335044 0.731907,0.632977 1.128413,0.911753 0.07635,0.05528 0.151177,0.112738 0.229051,0.165856 0.04745,0.03237 0.09779,0.06028 0.146681,0.09043 0.03195,0.02765 0.06142,0.05845 0.09584,0.08295 0.01028,0.0073 0.02633,0.0031 0.03619,0.01106 0.02691,0.02153 0.08479,0.115481 0.09759,0.134856 0.156917,0.248063 0.368967,0.446414 0.561461,0.665918 0.09018,0.110211 0.165543,0.230916 0.257836,0.339182 0.01825,0.02141 0.06139,0.07034 0.07971,0.06146 0.0082,-0.004 0.0029,-0.01787 0.0043,-0.02681 -6.8e-5,-0.01458 -4.73e-4,-0.02916 -2.05e-4,-0.04374 3.01e-4,-0.0164 -0.0023,0.03272 -0.0031,0.0491 -0.0093,0.192396 0.0027,0.381062 0.07115,0.563909 0.11212,0.231854 0.112589,0.284595 0.292255,0.464682 0.254266,0.254863 0.599605,0.379947 0.933592,0.490087 0.427615,0.114258 0.319415,0.105969 0.919899,0.111759 0.04781,4.6e-4 0.293384,-0.03675 0.355187,-0.06911 0.08908,-0.04664 0.173057,-0.102445 0.259586,-0.153667 -0.02996,0.02473 -0.0594,0.05008 -0.08986,0.07419 -0.01848,0.01463 -0.07698,0.02967 -0.05689,0.04199 0.0253,0.01551 0.05696,-0.01667 0.08561,-0.02438 0.08711,-0.02344 0.175177,-0.04337 0.262799,-0.06473 0.290297,-0.08723 0.5789,-0.186636 0.793781,-0.411999 0.141021,-0.141362 0.282979,-0.282962 0.399935,-0.445607 0.0083,-0.0076 0.03112,-0.03257 0.02366,-0.02413 -0.01282,0.01452 -0.05459,0.04559 -0.03522,0.04623 0.09124,0.003 0.153399,-0.247202 0.22823,-0.151375 0.05469,-0.06661 0.116425,-0.128015 0.164079,-0.19983 0.217543,-0.32784 0.245776,-0.742257 0.255788,-1.122078 -0.01362,-0.349581 -0.04657,-0.698159 -0.04825,-1.048038 10e-4,-0.04363 -7.02e-4,-0.08738 0.0023,-0.130933 0.0084,-0.122057 0.05554,-0.241022 0.05585,-0.364535 0.01873,-0.276951 0.01663,-0.554048 0.0032,-0.831354 -0.0084,-0.264787 -0.02707,-0.532509 0.0083,-0.796001 -0.06815,0.105219 -0.160124,0.256842 -0.275275,0.286301 -0.2139,0.05472 -0.442218,0.01846 -0.662364,0.0017 -0.02817,-0.0022 -0.08808,-0.04473 -0.06265,-0.05706 0.02842,-0.01379 0.05457,0.03183 0.08186,0.04775 0.406675,-0.201054 0.813349,-0.402107 1.220023,-0.603161 -0.003,-0.07194 -0.0013,-0.144228 -0.009,-0.215814 -0.01567,-0.145647 -0.06375,-0.301083 -0.112852,-0.43633 -0.131149,-0.361225 -0.306201,-0.704316 -0.490181,-1.040922 -0.157696,-0.279923 -0.135897,-0.254532 -0.289639,-0.48708 -0.02489,-0.03765 -0.0517,-0.074 -0.07716,-0.111269 -0.01074,-0.01572 -0.02161,-0.06398 -0.03142,-0.04768 -0.01469,0.02439 0.01805,0.11193 0.009,0.08494 -0.02733,-0.08147 -0.04283,-0.166436 -0.06425,-0.249654 -0.03143,-0.05705 -0.05926,-0.116229 -0.0943,-0.171132 -0.153789,-0.240973 -0.425616,-0.376746 -0.671643,-0.501074 -0.06695,-0.02892 -0.132285,-0.06189 -0.20084,-0.08676 -0.168565,-0.06116 -0.354622,-0.06007 -0.513982,-0.14541 -0.03594,-0.01161 -0.134809,-0.04451 -0.165543,-0.04957 -0.0041,-6.78e-4 -0.0035,0.01035 -0.0076,0.01 -0.09577,-0.0091 -0.239573,-0.08948 -0.330771,-0.08476 -0.365339,-0.05337 -0.282087,-0.05332 -0.828041,-0.01563 -0.07749,0.0053 -0.153051,0.02689 -0.228982,0.04326 -0.21266,0.04586 -0.422058,0.107721 -0.631953,0.164268 -0.429835,0.130301 -0.846279,0.311495 -1.292204,0.383581 -0.273738,0.03936 -0.586,0.06822 -0.821692,0.2277 -0.06917,0.04681 -0.127623,0.107773 -0.191434,0.161659 -0.09904,0.08731 0.153373,-0.136013 0.276605,-0.174358 0.114402,-0.0356 0.239579,-0.0083 0.358964,-0.01844 0.02002,-0.0017 -0.03991,-0.0046 -0.05986,-0.0069 -0.155485,-0.01762 -0.09151,-0.01061 -0.273742,-0.02815 -0.401755,-0.03728 -0.804823,-0.08237 -1.208699,-0.06956 -0.348291,0.0078 -0.70251,-0.02008 -1.041399,0.07475 -0.205131,0.02468 -0.461457,0.131569 -0.61824,0.266371 -0.05393,0.04637 -0.09704,0.104016 -0.145566,0.156024 -0.04928,0.155823 -0.159253,0.304434 -0.147855,0.467467 0.02182,0.311999 0.164884,0.519785 0.407232,0.657822 0.05947,0.03387 0.123411,0.06802 0.191607,0.07374 0.409143,0.03433 0.395328,0.02153 0.66378,-0.07005 0.380542,-0.144636 -0.0864,0.04687 -0.89232,-0.33711 -0.05326,-0.02537 -0.03387,-0.113612 -0.05996,-0.166527 -0.0067,-0.01369 -2.47e-4,0.03054 4.26e-4,0.04579 0.0043,0.09772 0.01121,0.133762 0.02409,0.246888 0.06863,0.410252 0.124028,0.822781 0.21034,1.22986 0.01272,0.06827 0.02276,0.137082 0.03815,0.204792 0.0084,0.03707 9.75e-4,0.08898 0.03325,0.109112 0.02132,0.0133 0.02813,-0.04215 0.0464,-0.0594 0.134957,-0.127474 0.232882,-0.32745 0.412565,-0.374108 0.328897,-0.0854 0.869884,0.230816 0.569123,0.06105 -0.114153,-0.06137 -0.299076,-0.171266 -0.425707,-0.182067 -0.156669,-0.01337 -0.314506,-0.0047 -0.471712,-0.0015 -0.120981,0.0025 0.243305,-0.01408 0.363,0.0037 0.03917,0.0059 0.06632,0.04331 0.09948,0.06496 0.02538,0.02711 0.05388,0.05159 0.07613,0.08131 0.02276,0.0304 0.0587,0.09765 0.02945,0.07793 -0.04497,-0.03033 -0.0306,-0.06916 -0.0774,-0.108961 -0.0082,-0.007 -0.0041,0.02104 -0.0062,0.03157 0.0062,0.03404 0.01241,0.06808 0.01862,0.102117 -7.5e-4,-0.0071 -0.0027,-0.01423 -0.0023,-0.0214 8.25e-4,-0.01859 0.002,0.02233 0.0068,0.0055 0.0083,-0.02912 0.0025,-0.0614 0.01441,-0.0897 0.05767,-0.406024 0.08953,-0.818278 0.06375,-1.228172 0.0055,-0.10577 -1.490236,-0.184532 -1.495806,-0.07876 z" />
      <path
         style="fill:#678a9b;fill-opacity:1;stroke-width:0.75"
         id="path2127"
         d="m 35.709716,18.714472 c 0.02182,0.63318 0.137576,1.270345 0.402952,1.84823 0.303813,0.522282 0.104208,0.276942 1.452238,0.06197 0.05038,-0.008 0.03232,-0.09679 0.04852,-0.145172 0.0059,-0.01738 0.02711,-0.06774 0.01756,-0.0521 -0.339325,0.55552 -0.0091,0.30414 -0.945573,0.438326 -0.02629,-0.01528 -0.05052,-0.03487 -0.07889,-0.04582 -0.0094,-0.0037 0.01337,0.01517 0.01977,0.023 0.01759,0.02155 0.03569,0.04271 0.05216,0.06513 0.04983,0.06787 0.09282,0.140289 0.144056,0.207258 -0.0221,-0.110304 -0.01469,-0.208364 -0.0087,-0.320622 -0.0254,0.0987 1.370382,0.457832 1.395777,0.359136 v 0 c 0.01129,-0.08184 0.03159,-0.162934 0.03386,-0.245516 0.0042,-0.153889 -0.0238,-0.220188 -0.06269,-0.357225 -0.113575,-0.272278 -0.28585,-0.575208 -0.512502,-0.767716 -0.08296,-0.07046 -0.177738,-0.125697 -0.266607,-0.188547 -0.299546,0.02117 -0.617968,-0.04325 -0.898638,0.06352 -0.119685,0.04553 -0.256575,0.295692 -0.30101,0.460675 -0.0012,0.0044 0.0029,-0.01155 0.0075,-0.0115 0.439836,0.005 0.879982,0.0053 1.319329,0.02657 0.01611,7.5e-4 0.01915,0.02596 0.02872,0.03895 -0.01517,-0.205168 -0.0476,-0.409282 -0.08383,-0.611663 -0.06406,-0.357838 -0.14015,-0.714257 -0.263164,-1.057204 -0.01487,-0.106126 -1.515716,0.104196 -1.500843,0.210321 z" />
      <path
         style="fill:#678a9b;fill-opacity:1;stroke-width:0.75"
         id="path2129"
         d="m 29.288789,16.03171 c -0.410545,0.223101 -0.774959,0.534885 -0.990261,0.957601 -0.147292,0.28919 -0.140238,0.394966 -0.191025,0.706907 0.0052,0.264461 -0.01208,0.324334 0.05952,0.57222 0.02194,0.07595 0.05765,0.147222 0.08648,0.220833 0.0346,0.09905 1.435381,-0.390259 1.400782,-0.489309 v 0 c -0.03489,0.02455 -0.0042,-0.136623 -0.02375,-0.108243 0.01076,-0.113559 0.06932,-0.186803 0.146521,-0.27235 0.159106,-0.176304 0.352895,-0.313224 0.52446,-0.476189 0.07859,-0.07161 -0.934135,-1.18308 -1.012727,-1.11147 z" />
      <path
         style="fill:#678a9b;fill-opacity:1;stroke-width:0.75"
         id="path2131"
         d="m 25.141283,22.478542 c 0.09822,0.552099 0.303578,1.079031 0.527781,1.590821 0.05047,0.161728 0.168002,0.298924 0.220693,0.457708 0.04868,0.392379 0.162628,0.772089 0.25508,1.155331 0.04278,0.248751 0.02562,0.503481 0.02292,0.75501 0.0031,0.240627 -0.02052,0.481096 -0.01235,0.721698 0.0061,0.180918 0.01646,0.24027 0.03685,0.413859 0.04672,0.202492 0.05849,0.404635 0.05449,0.611243 -0.01882,0.305574 -0.03853,0.610091 -0.0412,0.916505 -0.01469,0.240442 -0.0083,0.497521 -0.09696,0.726073 -0.02627,0.07103 5.3e-5,-0.01934 0.0034,-0.02816 0.0082,-0.0213 0.02496,-0.03936 0.02981,-0.06167 0.0086,-0.03967 -0.0809,0.015 -0.117197,0.03318 -0.05645,0.02828 -0.111506,0.05923 -0.167258,0.08885 -0.06491,0.04151 -0.129832,0.08302 -0.194748,0.124537 -0.07933,0.074 0.9672,1.195829 1.046525,1.121829 v 0 c 0.04953,-0.03586 0.09906,-0.07172 0.148591,-0.107578 0.115406,-0.08629 0.246164,-0.169437 0.350857,-0.268963 0.138716,-0.13187 0.241847,-0.287379 0.318707,-0.462156 0.02237,-0.06035 0.04783,-0.119624 0.06709,-0.181028 0.09919,-0.316295 0.12149,-0.652059 0.135612,-0.980901 -8.25e-4,-0.29827 -0.01802,-0.59631 -0.0066,-0.894271 0.0055,-0.247786 -0.0111,-0.494311 -0.01983,-0.741847 -0.0134,-0.344628 -0.02469,-0.689063 -0.04803,-1.033209 -0.0057,-0.333832 0.06716,-0.667259 0.0052,-1.000425 -0.04096,-0.253687 -0.08987,-0.498011 -0.173134,-0.741983 -0.07356,-0.215536 -0.06038,-0.148147 -0.130956,-0.321001 -0.01084,-0.02655 -0.01939,-0.05398 -0.02908,-0.08096 -0.04655,-0.227924 -0.126011,-0.445748 -0.187856,-0.669806 -0.152059,-0.515385 -0.31447,-1.031606 -0.547275,-1.516973 -0.02647,-0.102611 -1.477612,0.27168 -1.451145,0.374291 z" />
      <path
         style="fill:#678a9b;fill-opacity:1;stroke-width:0.75"
         id="path2133"
         d="m 24.333068,23.380697 c 0.01927,0.18135 0.03371,0.363277 0.0578,0.544049 0.06208,0.46591 0.159007,1.003071 0.247753,1.461874 0.129749,0.670784 0.277156,1.337083 0.436499,2.001332 0.03767,0.145197 0.07631,0.290147 0.113018,0.435589 0.0608,0.24087 0.08382,0.31961 0.114265,0.555255 0.03115,0.241073 0.03206,0.484109 0.04285,0.726566 0.005,0.124762 0.02096,0.248583 0.02608,0.373293 0.0023,0.05445 8.25e-4,0.09003 0.0034,0.08168 0.0088,-0.02896 0.01078,-0.05957 0.01617,-0.08935 0.0026,-0.04848 0.05023,-0.08536 0.05145,-0.132831 5.41e-4,-0.02107 -0.02798,0.0317 -0.03977,0.04918 -0.05308,0.07867 -0.09761,0.164357 -0.143742,0.247208 -0.105751,0.235298 -0.172422,0.484231 -0.214481,0.737983 -0.02534,0.09148 -0.0197,0.190856 -0.05108,0.281051 -0.002,0.0059 -0.0026,-0.01239 -0.0016,-0.01849 0.0039,-0.02286 0.01093,-0.04508 0.01639,-0.06763 -0.02101,-0.0066 -0.0062,-0.0046 -0.03378,0.02982 -0.05712,0.08486 1.14295,0.892671 1.200071,0.807813 v 0 c 0.06759,-0.07641 0.02926,-0.02992 0.110618,-0.142951 0.02947,-0.05815 0.0627,-0.114536 0.08841,-0.174443 0.06819,-0.15891 0.09297,-0.334909 0.12861,-0.502642 0.02456,-0.127044 0.06257,-0.252108 0.09308,-0.377034 0.03305,-0.07273 0.123148,-0.171343 0.169954,-0.310647 0.07115,-0.266708 0.128771,-0.536697 0.136968,-0.814092 6.13e-4,-0.08866 0.0041,-0.177335 0.0018,-0.265964 -0.0025,-0.101573 -0.02666,-0.458847 -0.03209,-0.565507 -0.0037,-0.07271 -0.02575,-0.622336 -0.02873,-0.666183 -0.0103,-0.151638 -0.02648,-0.302819 -0.03971,-0.454229 -0.02291,-0.195706 -0.04165,-0.391945 -0.06873,-0.587119 -0.138402,-0.997437 -0.337529,-1.997655 -0.655006,-2.954703 -0.05678,-0.171182 -0.127776,-0.337318 -0.191664,-0.505977 -0.02101,-0.109944 -1.575842,0.187158 -1.554834,0.297102 z" />
      <path
         style="fill:#678a9b;fill-opacity:1;stroke-width:0.75"
         id="path2135"
         d="m 24.165234,22.633893 c -0.34184,0.745606 -0.565084,1.534825 -0.793214,2.320079 -0.0188,0.174418 -0.101307,0.313434 -0.174789,0.467396 -0.09066,0.189953 -0.09793,0.221438 -0.173877,0.420642 -0.163249,0.446565 -0.235442,0.918039 -0.256502,1.391178 -0.0079,0.275545 0.03641,0.54666 0.12029,0.808467 0.04153,0.14684 0.116942,0.281438 0.161876,0.42684 0.02176,0.07041 0.04765,0.177139 0.06559,0.248281 0.08403,0.361088 0.120427,0.730385 0.142997,1.09968 0.0093,0.240705 0.0038,0.482053 0.04373,0.720481 0.0149,0.08896 0.05368,0.222316 0.07313,0.296057 0.56136,0.772996 -0.141819,-0.014 0.999534,0.466951 0.139756,0.05889 -0.30575,0.04092 -0.45479,0.01286 -0.161687,-0.03044 -0.28555,-0.18124 -0.366766,-0.311271 0.01954,0.07068 0.0102,0.0368 0.02804,0.101626 0.0189,0.101866 1.459511,-0.165386 1.440613,-0.267253 v 0 c -0.03236,-0.160838 -0.01272,-0.08035 -0.05935,-0.241345 -0.02942,-0.07163 -0.0493,-0.147957 -0.08825,-0.21488 -0.09947,-0.170914 -0.274326,-0.380065 -0.479959,-0.426763 -0.174121,-0.03954 -0.665806,-0.117505 -0.535645,0.0047 0.163968,0.153978 0.443117,0.07763 0.664676,0.116444 0.07638,0.114271 0.152752,0.228544 0.229129,0.342815 0.0091,0.04364 0.0072,0.09117 0.02738,0.130936 0.0089,0.01756 0.0073,-0.03873 0.0095,-0.0583 0.0041,-0.03745 0.0071,-0.07504 0.0095,-0.112646 0.01371,-0.216605 0.01633,-0.434055 0.0039,-0.650804 -0.03452,-0.450589 -0.09713,-0.899474 -0.210619,-1.337559 -0.07356,-0.267118 -0.167505,-0.525439 -0.306632,-0.765877 -0.0075,-0.01745 -0.0068,-0.04157 -0.02246,-0.05234 -0.0098,-0.0067 -9.75e-4,0.02372 -0.0019,0.03555 -5.52e-4,0.0071 2.66e-4,-0.01429 8.25e-4,-0.02141 0.0065,-0.08438 0.01339,-0.168788 0.02311,-0.252872 0.02037,-0.170058 0.03445,-0.343356 0.06583,-0.511809 0.03526,-0.189285 0.09489,-0.373287 0.149067,-0.557608 0.04048,-0.137295 0.07239,-0.280423 0.13327,-0.410699 0.03853,-0.08247 0.08539,-0.142878 0.134688,-0.222498 0.03669,-0.05926 0.07175,-0.119524 0.107629,-0.179286 0.04763,-0.09651 0.09854,-0.191473 0.142899,-0.28953 0.317498,-0.701791 0.550707,-1.448169 0.647904,-2.213155 0.02214,-0.106086 -1.478141,-0.419202 -1.500281,-0.313116 z" />
      <path
         style="fill:#678a9b;fill-opacity:1;stroke-width:0.75"
         id="path2137"
         d="m 23.836213,25.733657 c 0.04702,0.944918 0.370885,1.843132 0.521352,2.770859 0.01774,0.109347 0.0262,0.219995 0.03931,0.329992 -0.0017,0.07005 0.0075,0.14121 -0.0051,0.210138 -0.01347,0.07382 -0.173781,0.453226 -0.184477,0.479772 -0.09326,0.231471 -0.164364,0.400138 -0.237632,0.638398 -0.02567,0.08347 -0.04394,0.169044 -0.0659,0.253565 -0.0125,0.07927 -0.05026,0.266617 -0.03438,0.353555 0.02964,0.16221 0.09987,0.315943 0.122515,0.479277 0.0091,0.06586 -0.06265,-0.118311 -0.08132,-0.182121 -0.05237,-0.179045 0.02131,-0.241055 -0.05128,-0.167568 -0.07363,0.111473 -0.148782,0.229684 -0.191925,0.357402 -0.018,0.05329 -0.02889,0.108712 -0.04334,0.163068 -0.05052,0.01565 0.0062,0.342564 0.0032,0.363361 -0.002,0.01427 -0.0081,0.05604 -0.0092,0.06854 -3.68e-4,-0.0488 0.0013,-0.02989 -0.0017,-0.05694 -0.02617,0.09894 1.373121,0.469018 1.39929,0.370073 v 0 c 0.04481,-0.164845 0.02537,-0.07496 0.0535,-0.270663 2.57e-4,-0.08661 -4.86e-4,-0.171648 -0.0084,-0.258019 -0.0023,-0.02512 0.01094,-0.09149 -0.0083,-0.07522 -0.04255,0.03591 0.05114,0.133029 -0.01154,0.166626 -0.0048,0.0172 -0.01066,0.03412 -0.01432,0.05158 -4.54e-4,0.0022 8.25e-4,0.008 0.0022,0.0063 0.110892,-0.13954 0.182226,-0.308905 0.24714,-0.472822 0.05205,-0.19753 0.08849,-0.281143 0.05187,-0.519304 -0.01471,-0.09567 -0.09556,-0.368446 -0.102051,-0.271867 -0.01,0.14827 0.05626,0.29194 0.09099,0.436431 0.002,0.0083 0.01278,0.0244 0.01819,0.01785 0.0282,-0.03419 0.0423,-0.07788 0.06345,-0.116814 0.310101,-0.660599 0.561329,-1.357295 0.641126,-2.086485 0.0011,-0.157361 0.01132,-0.314921 0.0033,-0.472083 -0.01645,-0.323085 -0.09027,-0.805254 -0.150328,-1.116474 -0.115874,-0.600429 -0.273069,-1.193971 -0.499142,-1.762884 -0.0221,-0.1101 -1.579152,0.202397 -1.557056,0.312497 z" />
      <path
         style="fill:#678a9b;fill-opacity:1;stroke-width:0.75"
         id="path2139"
         d="m 24.582025,31.154377 c 0.01309,0.0718 0.02619,0.1436 0.03928,0.2154 0.02622,0.106026 1.525651,-0.264804 1.49943,-0.37083 v 0 c -0.02974,-0.07244 -0.05947,-0.144887 -0.08921,-0.217331 -0.02636,-0.102495 -1.475864,0.270266 -1.449506,0.372761 z" />
      <path
         style="fill:#678a9b;fill-opacity:1;stroke-width:0.75"
         id="path2141"
         d="m 24.20778,30.425654 c -0.71208,0.07893 0.143,-0.01809 -0.635493,0.07806 -0.108071,0.01335 -0.215712,0.03643 -0.324605,0.03674 -0.05605,1.64e-4 0.20906,-0.0027 0.164198,-0.03628 -0.06312,-0.04729 -0.157584,-0.0087 -0.235959,-0.01748 -0.05922,-0.0067 -0.117613,-0.01926 -0.17642,-0.02889 -0.06093,-0.0017 -0.11936,-0.03578 -0.180954,-0.03801 -0.0084,-3.02e-4 -0.01792,0.0019 -0.0239,0.0077 -0.0044,0.0044 0.0021,0.02221 -0.0026,0.01831 -0.418698,-0.342797 0.297824,0.175404 -0.291623,-0.237857 0.281334,0.283818 -0.254384,-0.159934 -0.239096,-0.07755 0.0039,0.02112 0.03983,0.01658 0.05807,0.02792 0.0099,0.0062 -0.02174,-0.0083 -0.03274,-0.01218 -0.06814,-0.0238 -0.0011,0.0078 -0.117226,-0.06315 -0.06499,-0.0195 -0.110039,-0.07482 -0.167678,-0.10687 -0.0016,-9e-4 4.32e-4,0.0067 -6.72e-4,0.0053 -0.01217,-0.0153 -0.02229,-0.03212 -0.03344,-0.04818 -0.200596,-0.308614 -0.488028,-0.489615 -0.815277,-0.639005 -0.105414,-0.04094 -0.212777,-0.08605 -0.323974,-0.110303 -0.07638,-0.01666 0.02698,0.03175 -0.03164,0.01855 -0.161668,-0.139484 -0.350385,-0.218271 -0.551464,-0.280672 -0.201931,-0.04251 -0.407037,-0.0611 -0.609944,-0.100407 0.03578,0.03322 -0.07441,-0.02131 -0.06619,-8.25e-4 0.008,0.01994 0.02985,0.03109 0.04265,0.04836 0.04307,0.05813 0.07146,0.131023 0.09935,0.196879 0.0086,-0.05366 -0.002,-0.10831 6.73e-4,-0.162082 5.8e-4,-0.01165 0.0071,-0.04584 0.0075,-0.03418 0.004,0.121644 -0.0027,0.129857 -0.02256,0.238799 -0.005,0.02408 -0.02121,0.0484 -0.01511,0.07223 0.0039,0.01508 0.02445,0.0222 0.03987,0.02434 0.03265,0.0045 0.06581,-0.0037 0.09874,-0.0051 0.09405,-0.0039 0.18367,-0.02002 0.277084,-0.03053 0.147737,-0.0176 0.271887,-0.09363 0.40559,-0.150609 0.05462,-0.02327 0.110242,-0.0441 0.164994,-0.06704 0.105934,-0.05569 0.216006,-0.103267 0.322999,-0.156696 0.03334,-0.01665 0.06442,-0.03787 0.0987,-0.05249 0.02581,-0.01101 0.05422,-0.01469 0.08068,-0.02403 0.05123,-0.01809 0.101497,-0.03882 0.152246,-0.05823 0.321875,-0.130168 0.631253,-0.316073 0.835218,-0.604707 0.04676,-0.06617 0.08465,-0.138198 0.12698,-0.207296 0.02896,-0.06209 0.05424,-0.126045 0.0869,-0.186275 0.03136,-0.05782 0.07098,-0.110775 0.10478,-0.1672 0.04375,-0.07303 0.08586,-0.147044 0.127809,-0.221126 0.139163,-0.245763 0.271308,-0.495279 0.410385,-0.741102 0.151758,-0.241847 0.275988,-0.499044 0.386206,-0.761934 0.05571,-0.113836 0.04969,-0.241463 0.07966,-0.36084 0.008,-0.03169 0.109968,-0.167271 0.124513,-0.189285 0.167114,-0.21761 0.355544,-0.416281 0.502739,-0.649078 0.07823,-0.152939 0.124755,-0.219462 0.138906,-0.421821 0.0066,-0.09473 -0.02135,-0.188728 -0.03202,-0.283091 -0.02671,-0.09764 -1.407462,0.280084 -1.380753,0.377718 v 0 c -0.02407,-0.347218 -0.02219,-0.140006 0.05294,-0.492729 -0.283026,0.271187 -0.536012,0.577466 -0.702509,0.935065 -0.08076,0.214361 -0.144245,0.385736 -0.1526,0.617173 -5.9e-4,0.01634 0.08404,-0.157448 0.02925,-0.07347 -0.04054,0.01909 -0.06477,0.05546 -0.09385,0.08969 -0.143702,0.169146 -0.271482,0.350833 -0.38437,0.541999 -0.244588,0.420428 -0.468066,0.854375 -0.620261,1.317764 0.01881,-0.04077 -0.06213,0.02077 -0.101465,0.04238 -0.156212,0.08583 -0.07263,0.04314 -0.243225,0.127134 -0.0494,0.02432 -0.09894,0.04838 -0.148411,0.07256 -0.20985,0.109096 -0.423214,0.210782 -0.631569,0.322673 -0.01637,0.0079 -0.146661,0.07385 -0.149799,0.06322 -0.0037,-0.01247 0.03641,-0.01654 0.02837,-0.02674 -0.02079,-0.02636 -0.08072,0.03035 -0.100682,-0.0016 -0.07649,0.0068 -0.153515,0.0086 -0.229574,0.01911 -0.318843,0.04428 -0.607491,0.154458 -0.846337,0.37819 -0.06439,0.08957 -0.144593,0.169656 -0.19316,0.268696 -0.146435,0.298615 -0.127037,0.619312 -0.05479,0.931184 0.02435,0.073 0.04158,0.148767 0.07306,0.218983 0.114021,0.254311 0.337973,0.4317 0.58852,0.538552 0.135081,0.0462 0.267428,0.08492 0.407478,0.113006 0.07953,0.01595 0.198317,0.04578 0.284121,0.04241 0.01619,-6.38e-4 0.03031,-0.01142 0.04548,-0.01713 0.02606,-0.01576 0.02033,-0.01643 0.05194,-0.01844 0.01059,-6.73e-4 0.03021,0.01089 0.03183,4e-4 0.0012,-0.0076 -0.05227,-0.05317 -0.01233,-0.03949 0.163512,0.147381 0.343764,0.266645 0.560078,0.319906 0.09602,0.03719 0.100638,0.04135 0.191859,0.06878 0.03562,0.01071 0.116782,0.01745 0.147418,0.03605 0.01555,0.0094 0.0281,0.02313 0.04214,0.03469 0.02083,0.02774 0.14539,0.193925 0.156609,0.207565 0.09724,0.118221 0.220146,0.211826 0.334521,0.312107 0.084,0.05351 0.163146,0.114825 0.249745,0.164017 0.08563,0.04864 0.278389,0.124703 0.36376,0.149387 0.01903,0.0055 0.07044,0.01739 0.05945,9e-4 -0.02195,-0.03295 -0.06717,-0.04193 -0.10075,-0.0629 -0.03699,-0.03418 -0.07607,-0.06622 -0.110976,-0.102524 -0.0193,-0.02007 -0.06513,-0.09013 -0.05113,-0.06606 0.140116,0.240949 0.375213,0.408027 0.611687,0.54313 0.249033,0.104988 0.469195,0.22044 0.747484,0.238552 0.672401,0.04376 1.220112,-0.0278 1.841928,-0.242865 0.09828,-0.04228 -0.499661,-1.432139 -0.597939,-1.389858 z" />
      <path
         style="fill:#678a9b;fill-opacity:1;stroke-width:0.75"
         id="path2143"
         d="m 22.157257,25.969853 c -0.294656,0.866318 -0.475169,1.774203 -0.540348,2.687055 -0.009,0.125755 -0.01026,0.251941 -0.01538,0.377911 0.0077,0.21945 0.03535,0.578208 0.146006,0.762397 0.07316,0.121786 0.232914,0.178578 0.297706,0.305017 0.04663,0.09101 -0.13789,-0.180885 -0.239586,-0.191599 -0.0562,-0.0059 0.01298,0.112274 0.01948,0.168411 0.08605,0.428373 0.220295,0.844333 0.351937,1.260158 0.02805,0.115123 1.656141,-0.281573 1.62809,-0.396696 v 0 c -0.12648,-0.467627 -0.255542,-0.935627 -0.492931,-1.362512 -0.06075,-0.109581 -0.106537,-0.228906 -0.182239,-0.328741 -0.10459,-0.137932 -0.225156,-0.264476 -0.35467,-0.379327 -0.0959,-0.08504 0.192007,0.176754 0.253219,0.289363 0.05443,0.100123 0.03833,0.227025 0.08419,0.331349 0.03805,0.08656 0.168951,-0.702935 0.105048,-0.263502 0.171226,-0.682594 0.299932,-1.372499 0.385054,-2.071384 0.02261,-0.185672 0.04456,-0.371583 0.05745,-0.558181 0.0096,-0.139693 0.0068,-0.27997 0.01009,-0.419954 0.01484,-0.106994 -1.49828,-0.316758 -1.513113,-0.209765 z" />
      <path
         style="fill:#678a9b;fill-opacity:1;stroke-width:0.75"
         id="path2145"
         d="m 23.667787,29.922563 c 0.008,-0.610904 -0.05375,-1.231446 -0.223743,-1.819987 -0.0069,-0.0093 -0.01379,-0.01851 -0.02068,-0.02776 -0.0013,-0.103202 -1.460787,-0.08495 -1.459496,0.01825 v 0 c -0.0062,0.04072 -0.0123,0.08146 -0.01845,0.122187 -0.04366,0.629327 0.06001,1.260128 0.208184,1.870278 0.01152,0.107069 1.525708,-0.05589 1.514185,-0.162962 z" />
      <path
         style="fill:#678a9b;fill-opacity:1;stroke-width:0.75"
         id="path2147"
         d="m 20.655009,28.297875 c -0.287438,0.200341 -0.582486,0.40586 -0.800593,0.684953 -0.03908,0.05 -0.09118,0.09746 -0.103695,0.15968 -0.04428,0.220169 -0.04221,0.447167 -0.06331,0.670751 0.383934,0.137851 0.750689,0.339272 1.151801,0.413551 0.117675,0.0218 0.220792,-0.09241 0.331047,-0.138951 0.414042,-0.174771 0.797079,-0.360087 1.190258,-0.577248 0.09829,-0.05673 0.178168,-0.09712 0.265876,-0.164712 0.0046,-0.0035 0.0075,-0.0094 0.0085,-0.01505 0.08499,-0.515587 0.04148,-1.502041 0.270237,-0.882931 -0.05562,-0.409867 -0.314364,-0.682843 -0.696872,-0.809477 -0.0675,-0.02235 -0.138995,-0.03005 -0.208493,-0.04507 -0.184611,-0.002 -0.369222,-0.0039 -0.553834,-0.0059 -0.101052,0.02813 0.296814,1.457235 0.397866,1.429101 v 0 c -0.10646,-0.0038 -0.21292,-0.0077 -0.31938,-0.01151 0.01561,-0.0076 0.03598,-0.0091 0.04682,-0.02268 0.03512,-0.04385 -0.03866,-0.134611 -0.04472,-0.15086 -0.07421,-0.199359 -0.08583,-0.341214 -0.05729,-0.150017 0.04553,0.181865 0.122918,0.527267 0.16977,0.425033 0.495309,-1.080785 0.542333,-1.087233 0.137862,-0.982731 -0.19119,0.0494 -0.09987,0.02369 -0.337726,0.107656 -0.316262,0.12976 -0.622035,0.271374 -0.919468,0.440983 -0.0937,0.05344 -0.185861,0.109653 -0.276451,0.168211 -0.03599,0.02326 -0.138381,0.05297 -0.102913,0.07701 0.287502,0.19484 0.616519,0.319976 0.924778,0.479964 -0.02986,0.199527 -0.08397,0.39691 -0.08957,0.59858 -7.5e-4,0.02824 0.05101,-0.02486 0.0741,-0.04113 0.205612,-0.144815 0.3995,-0.320328 0.575426,-0.499183 0.05416,-0.05506 0.103205,-0.114944 0.154808,-0.172417 0.0697,-0.07954 -1.05512,-1.065161 -1.124815,-0.985625 z" />
      <path
         style="fill:#678a9b;fill-opacity:1;stroke-width:0.75"
         id="path2149"
         d="m 13.668948,12.701835 c -0.333995,0.334694 -0.637423,0.706502 -0.887473,1.10861 -0.133119,0.214071 -0.178186,0.317169 -0.284421,0.532887 -0.06684,0.18714 -0.09303,0.23235 -0.124275,0.425729 -0.01083,0.067 -0.01147,0.135298 -0.01983,0.202656 -0.01768,0.14247 -0.04072,0.285387 -0.06494,0.426927 -0.09571,0.35578 -0.143817,0.718691 -0.149636,1.086396 0.0062,0.253077 0.04073,0.504142 0.05699,0.756688 0.0053,0.226635 -0.03388,0.451722 -0.04399,0.677813 -0.01207,0.269826 -0.0043,0.355409 0.0043,0.623843 0.03409,0.384221 0.105382,0.773237 0.319614,1.101245 -0.0025,-0.0018 -0.0081,-0.0085 -0.0074,-0.0055 0.0069,0.03087 0.01926,0.06032 0.02652,0.09111 0.01979,0.084 0.03193,0.169654 0.05098,0.253822 0.02237,0.09885 0.06582,0.274209 0.09061,0.375222 0.01541,0.06373 0.16892,0.598536 0.176514,0.600457 0.417803,0.105731 0.860944,0.04159 1.291416,0.06238 -0.08755,0.262434 -0.502135,0.327311 -0.705052,0.157911 -0.0023,-0.0019 0.0016,-0.0085 0.0044,-0.0077 0.01298,0.0038 0.02376,0.01293 0.03564,0.0194 0.112921,0.06127 0.284626,0.269771 0.390291,0.277802 0.258519,0.01965 0.51754,-0.03199 0.77631,-0.04799 0.02299,-0.01312 0.04768,-0.02364 0.06899,-0.03935 0.04054,-0.02989 0.07771,-0.06412 0.115892,-0.09697 0.14915,-0.128352 -0.07669,0.09409 -0.07968,0.10301 -0.0052,0.01555 0.0259,0.02013 0.03885,0.03019 0.04253,0.0077 0.1668,0.005 0.127596,0.02321 -0.0603,0.02803 -0.20679,-0.05599 -0.199236,0.01008 0.0011,0.0095 0.384202,0.01166 0.392455,0.01175 0.343526,0.0035 0.180621,0.0015 0.738002,-0.0075 0.146554,-0.01694 0.288096,-0.06907 0.434244,-0.08751 0.163045,-0.02056 0.346209,-0.0096 0.510502,-0.0118 0.07026,4.16e-4 0.151118,-0.03586 0.210788,0.0013 0.05544,0.03447 -0.169005,-0.05143 -0.195682,0.0081 -0.02593,0.05791 0.126909,0.0015 0.190318,0.0038 0.173254,0.0064 0.243889,0.01777 0.41357,0.0136 0.183085,-0.0045 0.366023,-0.01372 0.549034,-0.02059 0.06562,-0.02126 0.133014,-0.03765 0.196857,-0.06376 0.669764,-0.273881 -0.191351,0.05204 0.33389,-0.166715 0.105128,-0.04378 0.260157,-0.06452 0.371239,-0.09142 0.417177,-0.108122 0.842276,-0.175596 1.265416,-0.253737 0.09387,-0.0236 0.254453,-0.0601 0.351164,-0.09695 0.05795,-0.02209 0.112482,-0.0524 0.170065,-0.07541 0.05756,-0.023 0.117329,-0.0401 0.175103,-0.06254 0.155335,-0.06034 0.201384,-0.08572 0.351201,-0.157184 0.253185,-0.114306 0.441339,-0.28057 0.628178,-0.479066 0.213589,-0.229099 0.284158,-0.564785 0.254602,-0.870477 -0.0099,-0.102668 -0.03322,-0.203602 -0.04982,-0.305403 -0.03455,-0.110014 -0.06075,-0.223009 -0.103652,-0.330043 -0.144357,-0.360172 -0.407979,-0.765975 -0.735277,-0.988512 -0.09426,-0.06409 -0.198817,-0.111539 -0.298226,-0.167308 -0.762511,0.04235 -0.66969,-0.13285 -1.065777,0.310742 -0.04193,0.04697 -0.05197,0.119797 -0.100472,0.159936 -0.03827,0.03167 0.03741,-0.09335 0.06763,-0.132759 0.04381,-0.05713 0.08319,-0.132073 0.151908,-0.15353 0.137265,-0.04285 0.286981,-0.01887 0.430471,-0.0283 -0.189916,-0.05035 -0.354043,-0.167064 -0.527339,-0.254261 -0.215036,-0.108198 -0.257155,-0.116513 -0.480327,-0.198344 -0.179918,-0.08605 -0.394917,-0.07292 -0.575985,-0.153557 -0.0314,-0.01399 -0.06136,-0.03101 -0.09204,-0.04652 -0.223203,-0.118209 -0.405111,-0.298452 -0.603167,-0.452907 -0.244825,-0.179165 -0.502378,-0.341067 -0.739784,-0.530379 -0.154572,-0.189547 -0.271142,-0.403771 -0.382958,-0.619999 -0.101325,-0.200044 -0.224782,-0.3869 -0.341195,-0.577915 -0.102632,-0.147594 -0.182517,-0.310656 -0.261025,-0.472061 -0.120937,-0.274074 -0.309307,-0.503198 -0.505897,-0.725023 -0.174608,-0.174928 -0.329877,-0.366651 -0.487164,-0.556841 -0.148334,-0.172297 -0.304314,-0.337094 -0.473579,-0.488863 -0.141704,-0.129847 -0.308875,-0.225356 -0.495886,-0.271398 -0.03741,-0.0092 -0.07521,-0.02003 -0.11374,-0.0206 -0.152495,-0.0023 -0.304919,0.008 -0.457379,0.01207 -0.100412,0.02642 -0.05397,0.01348 -0.139467,0.03826 -0.09371,0.03947 0.464535,1.364757 0.558246,1.325283 v 0 c 0.01691,0.0053 0.01251,-4.15e-4 0.01605,0.01421 -0.120111,0.0019 -0.240279,0.0099 -0.360334,0.0058 -0.0067,-2.33e-4 -0.0045,-0.01276 -0.0079,-0.01853 -0.0052,-0.0087 -0.0119,-0.0163 -0.01778,-0.0245 -0.08146,-0.113836 0.09522,0.128387 -0.07171,-0.08033 -0.0056,-0.0069 -0.0065,-0.01644 -0.0097,-0.02466 0.126334,0.105789 0.231331,0.236066 0.326676,0.370672 0.17727,0.201818 0.339492,0.424731 0.553219,0.589991 0.133292,0.123757 0.215928,0.289186 0.309654,0.442622 0.07153,0.130754 0.142893,0.264295 0.227725,0.387186 0.01121,0.01624 0.02773,0.02832 0.03912,0.04445 0.0085,0.01207 0.07332,0.12223 0.08432,0.140842 0.04367,0.04916 0.008,0.0046 0.05957,0.104381 0.0625,0.120872 0.130944,0.238926 0.189988,0.361681 0.08083,0.161124 0.03797,0.07157 0.126307,0.269722 0.114496,0.236208 0.259101,0.456086 0.43447,0.6517 0.08723,0.105697 0.140309,0.176737 0.241934,0.271324 0.188834,0.175756 0.407803,0.315034 0.616751,0.464555 0.05629,0.03918 0.112579,0.07836 0.16887,0.117544 0.04594,0.02804 0.09318,0.05404 0.137806,0.08413 0.160286,0.108055 0.306641,0.236268 0.476797,0.329976 0.120625,0.06705 0.05124,0.02668 0.206271,0.124299 0.180716,0.104615 0.374622,0.177847 0.575215,0.234219 0.189234,0.06389 0.381261,0.130115 0.562839,0.213813 0.223026,0.102804 0.430947,0.240558 0.673751,0.297738 0.226701,0.0039 0.456521,0.04939 0.680102,0.01171 0.272643,-0.04595 0.375652,-0.230898 0.53411,-0.412483 0.0046,-0.0052 -0.0059,0.01291 -0.0111,0.01753 -0.05809,0.05222 -0.101085,0.138612 -0.177957,0.152415 -0.210631,0.03782 -0.427986,-0.0034 -0.64198,-0.0052 -0.03679,-0.03755 -0.07679,-0.0722 -0.110372,-0.112652 -0.0066,-0.008 0.02088,0.0059 0.02802,0.01345 0.0326,0.03434 0.06116,0.07238 0.0895,0.110319 0.122419,0.163915 0.228544,0.339234 0.332046,0.515422 0.01806,0.0247 0.03674,0.04894 0.05417,0.07409 0.0077,0.01118 0.0083,0.03099 0.02133,0.03478 0.0093,0.0027 0.01215,-0.01517 0.01629,-0.02387 0.01509,-0.03169 0.02479,-0.06587 0.0412,-0.09689 0.01644,-0.03108 0.04129,-0.05729 0.05702,-0.08874 0.004,-0.0079 -0.01388,0.01091 -0.02083,0.01636 -0.05651,0.03945 0.0062,-0.01416 -0.07688,0.02375 -0.102249,0.04663 -0.204144,0.09164 -0.307353,0.136723 -0.119871,0.05264 -0.155968,0.06889 -0.275183,0.119726 -0.0369,0.01573 -0.07217,0.0363 -0.110914,0.0467 -0.01814,0.0049 -0.03758,-0.003 -0.05632,-0.0018 -0.08936,0.0059 -0.245972,0.02876 -0.328883,0.03988 -0.477078,0.07786 -0.948541,0.185701 -1.403622,0.351242 -0.179653,0.0659 -0.197398,0.06761 -0.369906,0.149995 -0.05089,0.02431 -0.09996,0.05223 -0.150312,0.07762 -0.02251,0.01135 -0.04363,0.0271 -0.06823,0.03258 -0.013,0.0029 0.03858,-0.04379 -4.2e-4,-0.03998 0.09643,-0.0033 0.193923,0.0049 0.289278,-0.0098 0.0545,-0.0084 -0.110105,-0.0063 -0.165162,-0.0093 -0.06488,-0.0036 -0.129906,-0.005 -0.194648,-0.01061 -0.510781,-0.04377 -0.03619,-0.04615 -0.901032,-0.03039 -0.08384,0.0015 -0.167188,0.01318 -0.250783,0.01977 -0.213652,0.02673 -0.245414,0.02585 -0.451035,0.06981 -0.143176,0.03061 -0.275769,0.07823 -0.423645,0.04878 0.08899,-4.25e-4 0.178811,0.01091 0.266961,-0.0013 0.05704,-0.0079 -0.114889,-0.008 -0.172344,-0.0118 -0.06528,-0.0043 -0.130494,-0.01012 -0.195867,-0.01281 -0.189794,-0.0078 -0.742512,-0.0047 -0.801332,-0.0028 -0.06383,0.0021 -0.126753,0.01577 -0.190129,0.02365 -0.197434,0.04759 -0.207898,0.03583 -0.400964,0.154259 -0.04702,0.02885 -0.08511,0.07022 -0.128767,0.103945 -0.0039,0.003 -0.01676,0.0097 -0.01355,0.006 0.04216,-0.0492 0.07203,-0.04586 0.03866,-0.04698 0.233592,-0.0053 0.468465,-0.04094 0.700776,-0.01594 0.05728,0.0062 0.09271,0.06857 0.13647,0.106041 0.0056,0.0049 0.01656,0.02405 0.01047,0.01975 -0.05015,-0.03533 -0.08443,-0.09424 -0.134626,-0.129822 -0.114572,-0.106604 -0.323069,-0.302253 -0.473513,-0.328755 -0.480156,-0.08458 -0.611788,-0.09346 -0.968122,0.137316 -0.06057,0.03922 -0.104837,0.09919 -0.157255,0.148782 0.392941,0.06117 0.803987,0.05068 1.178824,0.183501 0.08433,0.02988 0.03857,0.175377 0.07019,0.259076 0.0064,0.01698 0.0064,-0.03582 0.0073,-0.05395 0.0078,-0.163512 -0.0082,-0.326142 -0.04007,-0.486604 -0.08493,-0.370731 -0.185404,-0.741038 -0.369674,-1.076264 -0.007,-0.012 -0.01973,-0.04985 -0.02113,-0.036 -0.002,0.02029 0.009,0.04035 0.01888,0.05819 0.0048,0.0086 -0.002,-0.01955 -0.0029,-0.02933 -0.0024,-0.02721 -0.0056,-0.05438 -0.007,-0.08166 -0.0024,-0.0451 -0.01366,-0.381321 -0.01428,-0.399504 -0.016,-0.441559 -0.04687,-0.882327 -0.06625,-1.323698 -0.0099,-0.214233 -0.04036,-0.426874 -0.04036,-0.641423 0.0261,-0.332733 0.121463,-0.654644 0.161472,-0.985601 0.01198,-0.151539 0.02058,-0.30096 0.01994,-0.452939 -3.7e-5,-0.0088 -0.0091,0.02091 -0.0022,0.02633 0.03607,0.02815 0.08073,-0.331517 0.08669,-0.106439 0.347133,-0.488262 0.722292,-0.959314 1.016971,-1.482289 0.05871,-0.08822 -1.188907,-0.918528 -1.247619,-0.830308 z" />
      <path
         style="fill:#678a9b;fill-opacity:1;stroke-width:0.75"
         id="path2151"
         d="m 13.823478,13.248335 c -0.392887,0.354382 -0.755151,0.772091 -0.9591,1.266861 -0.03573,0.08668 -0.06021,0.177588 -0.09031,0.266382 -0.110431,0.465299 -0.02246,0.824138 0.102383,1.264823 0.07753,0.339908 0.170406,0.676337 0.269267,1.010566 0.0948,0.342135 0.230323,0.67208 0.392964,0.987383 0.01188,-0.0023 0.0058,-0.03073 0.0063,-0.02569 0.0059,0.06277 0.0089,0.125935 0.01844,0.18826 0.01375,0.0896 0.0381,0.177299 0.05388,0.266568 0.0673,0.284981 0.138633,0.57126 0.252146,0.841959 2.27e-4,-0.0033 6.76e-4,-0.01315 6.81e-4,-0.0099 2.57e-4,0.193312 0.02208,0.382609 0.05537,0.572837 0.03806,0.315798 0.154846,0.615119 0.404696,0.824345 0.06154,0.05153 0.133564,0.08905 0.200347,0.133576 0.334619,0.154183 0.429552,0.10265 0.850118,0.09794 0.05569,-6.24e-4 0.113062,0.0064 0.168778,0.0089 -0.104455,-0.0013 -0.208942,-0.0012 -0.313365,-0.0041 -0.02905,-8.25e-4 0.04195,-0.0034 0.08132,-0.005 0.230901,-0.0096 0.46374,-0.02506 0.695203,-0.03215 0.04562,-0.0094 0.09124,-0.01889 0.136859,-0.02833 0.0963,-0.04087 -0.481671,-1.402824 -0.577975,-1.361955 v 0 c -0.02674,0.0036 -0.05347,0.0073 -0.08021,0.01086 -0.03635,0.0079 -0.07276,0.01554 -0.109052,0.02371 -0.323106,0.07277 0.672593,0.0055 0.239532,-0.0068 -0.145199,-0.0041 -0.290483,-0.0045 -0.435725,-0.0067 -0.0724,0.0023 -0.10262,0.002 -0.175867,0.0093 -0.03133,0.0032 -0.125168,0.01022 -0.09372,0.01172 0.211313,0.01008 0.35056,-0.09803 0.427494,0.06565 0.04453,0.06311 0.06838,0.0986 0.06996,0.175364 5.19e-4,0.02521 0.01405,0.05408 9.75e-4,0.07565 -0.03018,0.04985 0.01789,-0.312292 -0.02062,-0.173604 -0.02587,-0.215273 -0.07964,-0.425827 -0.07833,-0.644123 -0.03886,-0.314846 -0.140649,-0.613355 -0.242528,-0.912695 -0.01752,-0.05082 -0.03143,-0.103034 -0.05256,-0.152465 -0.0047,-0.01109 -0.01569,-0.0356 -0.02413,-0.02698 -0.01406,0.01436 -0.0041,0.07947 -0.008,0.05976 -0.02084,-0.10431 0.01543,-0.240054 -0.02534,-0.342378 -0.0807,-0.355668 -0.208194,-0.698298 -0.335828,-1.039355 C 14.511904,16.34791 14.40947,16.049957 14.3351,15.745975 14.29971,15.581743 14.25071,15.41851 14.224121,15.253318 c 0.218566,-0.393807 0.552197,-0.712896 0.792766,-1.092601 0.06452,-0.08439 -1.128928,-0.996796 -1.193445,-0.912407 z" />
      <path
         style="fill:#678a9b;fill-opacity:1;stroke-width:0.75"
         id="path2153"
         d="m 15.640077,20.497461 c 0.458707,0.02007 0.917929,-0.01832 1.372893,-0.07426 0.216967,-0.02668 0.405411,-0.05225 0.612648,-0.114086 0.04833,-0.01442 0.09361,-0.03758 0.140416,-0.05638 0.479799,-0.330823 0.177713,-0.08302 -0.517049,-1.399802 -0.01588,-0.03009 -0.13445,0.01711 -0.100441,0.01821 0.133173,0.0043 0.268096,-0.02988 0.399633,-0.0086 0.515453,0.08327 0.260556,1.098707 0.27094,1.250618 0.259759,0.009 0.524212,-0.0022 0.782002,0.03768 0.02944,0.0046 -0.118754,0.0074 -0.08898,0.0083 0.08928,0.0024 0.178617,-0.0023 0.267926,-0.0034 0.07079,-0.04319 0.193357,0.02162 0.272404,-0.02375 0.0094,-0.0054 -0.004,-0.02283 8.25e-4,-0.03259 0.220537,-0.450552 0.352264,-1.740386 0.821556,-1.13502 0.05616,0.07245 0.0851,0.162385 0.127654,0.243577 0.0133,0.274577 0.04241,0.234812 -0.02801,0.441124 -0.0097,0.02832 -0.0238,0.05493 -0.03672,0.08193 -0.0084,0.01762 -0.02823,0.03236 -0.02728,0.05187 0.03505,7.5e-4 0.02967,-0.0093 0.03014,0.01625 0.02555,0.01154 0.05906,-0.02666 0.08733,-0.0176 0.006,0.002 0.0041,0.01325 0.0096,0.01637 0.01257,0.0071 0.05589,0.01168 0.04147,0.01252 -0.100318,0.0058 -0.401835,0.0073 -0.301455,0.0027 0.166583,-0.0078 0.333433,-0.008 0.500149,-0.01194 0.09842,-0.02367 0.206527,-0.01481 0.304564,-0.03942 0.09157,-0.023 0.172937,-0.0701 0.265715,-0.08689 0.127133,0.05686 0.32307,0.07097 -0.262917,0.02799 -0.01739,-0.0013 -0.02973,-0.01822 -0.04459,-0.02732 0.09362,0.04031 0.663718,-1.283664 0.570099,-1.323976 v 0 c -0.04296,-0.01436 -0.08373,-0.03941 -0.128877,-0.04308 -0.270256,-0.022 -0.520364,-0.01987 -0.774714,0.06298 -0.0179,0.0053 -0.07685,0.03018 -0.107259,0.02174 -0.0061,-0.0017 -0.0079,-0.01271 -0.01429,-0.01285 -0.08272,-0.0017 -0.166665,0.02691 -0.249994,0.02233 0.108397,-1.6e-4 0.433588,-1.67e-4 0.325192,-4.79e-4 -0.153293,-4.42e-4 -0.306638,-0.0038 -0.45988,9.1e-5 -0.06792,0.0017 -0.141613,0.02476 -0.207214,0.03852 -0.05099,0.0107 -0.06215,0.01064 -0.111531,0.01569 -0.05891,0.01729 -0.190333,0.05264 -0.246935,0.08158 -0.223962,0.114506 -0.451823,0.304165 -0.517235,0.561875 -0.03433,0.135284 -0.01943,0.278471 -0.02914,0.417706 0.05154,0.115431 0.08121,0.24338 0.15462,0.346292 0.06428,0.09011 0.171537,0.298595 0.249074,0.219605 0.710374,-0.723702 1.192826,-1.160927 0.506038,-1.377617 -0.07748,-0.02444 -0.157766,-0.03889 -0.236649,-0.05833 -0.106353,-0.01463 -0.21182,-0.03892 -0.319059,-0.04388 -0.670181,-0.03107 -1.358073,-0.02829 -1.959597,0.305278 -0.02623,0.405686 -0.12465,0.81313 -0.0787,1.21706 0.0099,0.08665 0.145007,0.108725 0.231097,0.122658 0.165223,0.02674 0.33473,-0.0036 0.502101,-0.004 0.01437,-3.6e-5 0.04717,0.01639 0.04303,0.0026 -0.441043,-1.466639 -0.504076,-0.877679 -0.444381,-1.390697 -0.252517,-0.04153 -0.509035,-0.0353 -0.764184,-0.02136 -0.457995,0.02502 -0.916992,0.07644 -1.361289,0.19411 -0.103811,0.03742 0.425401,1.50553 0.529212,1.468109 z" />
      <path
         style="fill:#678a9b;fill-opacity:1;stroke-width:0.75"
         id="path2155"
         d="m 18.469314,19.583338 c 0.507673,0.204704 1.052171,0.298429 1.598177,0.288418 0.101192,0.03022 0.528479,-1.400865 0.427286,-1.431079 v 0 c -0.448702,-0.0768 -0.898038,-0.150029 -1.351111,-0.19685 -0.09472,-0.04769 -0.76907,1.291828 -0.674352,1.339511 z" />
      <path
         style="fill:#678a9b;fill-opacity:1;stroke-width:0.75"
         id="path2157"
         d="m 15.780409,19.361201 c 0.734793,0.236279 1.495578,0.380923 2.261948,0.464228 0.03262,-3.12e-4 0.0731,0.0203 0.09787,-9e-4 0.01619,-0.01389 -0.02121,-0.03703 -0.03251,-0.05512 -0.05174,-0.08278 -0.138154,-0.151605 -0.156615,-0.247464 -0.03312,-0.171958 -8.25e-4,-0.350389 0.0078,-0.525295 9e-4,-0.01847 0.02638,-0.0691 0.02057,-0.05154 -0.03769,0.113869 -0.0775,0.227029 -0.116245,0.340543 0.01537,0.119889 0.03075,0.239779 0.04612,0.359669 0.03169,0.09709 1.404762,-0.351117 1.373068,-0.448208 v 0 c 0.0037,0.09014 0.0073,0.180287 0.01093,0.270431 -0.03443,0.08508 -0.08183,0.166012 -0.103302,0.255254 -0.01017,0.04226 0.06163,-0.06801 0.06858,-0.110925 0.03142,-0.194256 0.07578,-0.394362 0.0446,-0.588658 -0.02933,-0.182763 -0.224798,-0.376719 -0.372663,-0.481206 -0.06196,-0.04378 -0.132165,-0.07454 -0.198248,-0.111807 -0.08098,-0.03178 -0.160713,-0.06692 -0.242931,-0.09532 -0.415782,-0.143666 -0.849881,-0.238573 -1.282194,-0.31616 -0.170892,-0.03067 -0.342132,-0.06056 -0.514593,-0.08061 -0.15454,-0.01797 -0.310367,-0.02223 -0.46555,-0.03335 -0.102989,-0.03158 -0.549614,1.424895 -0.446626,1.456476 z" />
      <path
         style="fill:#678a9b;fill-opacity:1;stroke-width:0.75"
         id="path2159"
         d="m 18.846995,17.829244 c 0.04799,-0.03462 0.18858,-0.06499 0.143972,-0.10387 -0.156597,-0.136501 -0.37539,-0.178129 -0.564958,-0.263093 -0.250649,-0.112341 -0.502569,-0.221884 -0.755591,-0.328776 -0.620692,-0.26222 -1.247541,-0.505554 -1.880933,-0.734914 -0.160781,-0.01644 -0.276619,-0.135759 -0.42098,-0.188781 -0.0081,-0.003 -0.02486,0.0028 -0.02336,0.01137 0.01119,0.06396 0.0608,0.121133 0.05789,0.186001 -0.02177,0.483344 -0.02556,0.412152 -0.283068,0.686205 -0.0309,0.0176 -0.07073,0.02483 -0.09269,0.0528 -0.01629,0.02075 0.06462,-0.0039 0.07375,-0.02868 0.128534,-0.348547 0.24236,-0.703529 0.329449,-1.064668 0.0082,-0.03398 -0.03673,-0.05977 -0.05055,-0.09187 -0.01559,-0.03621 -0.02366,-0.07524 -0.03732,-0.112216 -0.0213,-0.05766 -0.04502,-0.114402 -0.06752,-0.171604 -0.06594,-0.159336 -0.128644,-0.319882 -0.1879,-0.481803 -0.0084,-0.02296 -0.01291,-0.04775 -0.02522,-0.06887 -0.0026,-0.0044 -0.0064,0.0086 -0.0069,0.01372 -0.0032,0.02898 -0.0029,0.05824 -0.0043,0.08737 0.07613,-0.272395 0.003,-0.517891 -0.01754,-0.785664 -0.01121,-0.173534 0.0012,-0.347465 0.0026,-0.521328 -0.0019,-0.109527 -1.550803,-0.08328 -1.548947,0.02625 v 0 c 0.01017,0.228494 0.02573,0.455635 0.06511,0.681379 0.0084,0.0421 0.0559,0.283493 0.06452,0.288897 0.0084,0.0053 0.005,-0.02836 0.01465,-0.02593 0.02282,0.0058 -0.03402,0.07246 -0.0087,0.07007 -0.02607,0.172692 -0.04341,0.223255 -0.0344,0.392548 0.01622,0.304993 0.128792,0.594015 0.241779,0.87377 0.120539,0.235929 0.113843,0.245732 0.265362,0.455821 0.01895,0.02628 0.04946,0.101487 0.06446,0.07277 0.160797,-0.307767 0.260785,-0.643758 0.40005,-0.96185 0.005,-0.01141 0.04258,-0.0246 0.0305,-0.02156 -0.06048,0.0152 -0.118452,0.03904 -0.177678,0.05856 -0.09836,0.07989 -0.232543,0.129473 -0.295096,0.239681 -0.324726,0.572104 -0.110077,1.022447 0.318516,1.419548 0.103013,0.09544 0.216663,0.178722 0.324993,0.268082 0.148162,0.09851 0.291087,0.205381 0.444485,0.295514 0.451354,0.265201 0.966908,0.509856 1.452524,0.697333 0.476456,0.18394 1.151166,0.405217 1.667939,0.474642 0.305605,0.04106 0.615721,0.03474 0.923582,0.05211 0.102456,-0.02846 -0.299959,-1.477406 -0.402416,-1.448951 z" />
      <path
         style="fill:#678a9b;fill-opacity:1;stroke-width:0.75"
         id="path2161"
         d="m 13.937531,14.396282 c 0.06455,0.554622 0.21395,1.094112 0.340362,1.636575 0.31071,1.333339 -0.117174,-0.477525 0.165992,0.717593 0.141158,0.675211 0.292669,1.349779 0.474847,2.015298 0.02365,0.07604 0.04662,0.152293 0.07094,0.228117 0.01421,0.04429 0.02861,0.08853 0.04466,0.132186 0.0039,0.0106 0.01041,0.04063 0.01508,0.03035 0.01174,-0.02585 -2.79e-4,-0.058 0.0096,-0.08461 0.03998,-0.107945 0.06752,-0.225845 0.138856,-0.316185 0.07126,-0.09024 0.18341,-0.138707 0.275115,-0.20806 0.158191,0.0031 0.316381,0.0061 0.474572,0.0093 -0.09394,-0.03885 -0.643343,1.289626 -0.549405,1.328475 v 0 c 0.181824,0.0071 0.363649,0.01418 0.545473,0.02126 0.116259,-0.07176 0.255413,-0.115536 0.348778,-0.215279 0.314716,-0.336218 0.251791,-0.826145 0.19857,-1.235358 -0.02211,-0.110242 -0.0406,-0.221273 -0.06634,-0.330726 -0.127169,-0.540883 -0.314452,-1.068727 -0.384873,-1.622548 -0.115657,-0.84416 -0.267344,-1.69461 -0.621918,-2.47571 -0.02612,-0.104673 -1.506414,0.264689 -1.480296,0.369362 z" />
      <path
         style="fill:#678a9b;fill-opacity:1;stroke-width:0.75"
         id="path2163"
         d="m 14.948665,19.511065 c 0.579372,-0.01093 1.150095,-0.11583 1.709131,-0.261754 0.102327,-0.04183 -0.489285,-1.488941 -0.591612,-1.447107 v 0 c -0.568371,0.04342 -1.137981,0.125709 -1.68291,0.297714 -0.09978,0.03998 0.465608,1.451127 0.565391,1.411147 z" />
      <path
         id="path1066"
         d="m 21.8333,37.208456 c -0.16654,3.114488 -1.08337,4.853986 -2.57309,6.541586 h -3.63502 c -0.39586,0 -0.76032,0.218849 -0.92729,0.572858 l -2.08347,4.16649 c -0.15607,0.32304 -0.14605,0.70844 0.0418,1.01056 C 12.8437,49.81253 13.17721,50 13.54167,50 h 22.91614 c 0.36446,0 0.69798,-0.18747 0.88544,-0.48958 0.18747,-0.30212 0.20839,-0.68752 0.0419,-1.01057 l -2.08347,-4.16649 c -0.16654,-0.364458 -0.531,-0.583318 -0.92686,-0.583318 h -3.63547 c -1.48972,-1.6876 -2.40612,-3.427098 -2.57308,-6.541586 8.83342,-1.510592 15.5836,-9.197929 15.5836,-18.458582 C 43.74988,8.406194 35.34369,0 25,0 14.65632,0 6.25013,8.406194 6.25013,18.749874 c 0,9.260318 6.74995,16.947432 15.58248,18.458582 z M 34.77071,47.91653 H 15.22955 l 1.04151,-2.08347 h 17.45858 z m -6.68768,-4.166488 h -6.1667 c 1.10429,-1.604342 1.82276,-3.531338 1.98972,-6.301855 0.36446,0.02049 0.72937,0.05188 1.09383,0.05188 0.36446,0 0.72937,-0.03139 1.09383,-0.05188 0.16654,2.770517 0.88544,4.697513 1.98928,6.301855 z M 24.9999,2.084026 c 9.18744,0 16.66619,7.478968 16.66619,16.666183 0,9.187216 -7.47897,16.666183 -16.66619,16.666183 -9.18721,0 -16.66618,-7.478967 -16.66618,-16.666183 0,-9.187215 7.47897,-16.666183 16.66618,-16.666183 z M 11.31328,21.249858 c 0.59378,1.114758 1.73949,1.833246 3.05221,1.926996 0.32304,0.02093 0.65612,0.03139 0.98963,0.03139 2.26048,0 4.64562,-0.520979 6.76045,-1.46874 0.16654,0.166539 0.34354,0.312587 0.54147,0.447731 -0.88544,1.771305 -2.57309,3.68781 -4.94773,5.58378 -0.47913,0.385388 -0.77078,0.958241 -0.80218,1.57298 -0.0314,0.635197 0.2084,1.260371 0.6666,1.708583 1.52063,1.489722 3.82296,2.291837 6.08344,2.291837 1.36461,0 2.70824,-0.291661 3.85432,-0.906367 1.11476,-0.593779 1.83325,-1.739497 1.927,-3.052211 0.177,-2.541613 -0.34354,-5.312688 -1.43738,-7.75006 0.16654,-0.166539 0.31259,-0.343536 0.44773,-0.54147 1.77086,0.874972 3.68737,2.562595 5.58334,4.947735 0.38538,0.479126 0.95824,0.770776 1.57298,0.802171 h 0.11465 c 0.59378,0 1.16662,-0.239775 1.59385,-0.666592 2.39563,-2.437483 3.02074,-6.895601 1.39597,-9.937321 -0.59378,-1.114759 -1.73949,-1.833247 -3.05221,-1.926996 -2.54161,-0.176997 -5.32262,0.343535 -7.75006,1.437378 -0.16654,-0.166539 -0.34353,-0.312587 -0.54147,-0.447731 0.87497,-1.770859 2.5626,-3.687364 4.94774,-5.583333 C 32.79275,9.33423 33.0844,8.761376 33.1158,8.146637 33.1472,7.511441 32.90741,6.886266 32.44921,6.438055 30.01172,4.042424 25.55361,3.417316 22.51188,5.042082 c -1.11475,0.59378 -1.83324,1.739497 -1.92699,3.052212 -0.177,2.541612 0.34353,5.312688 1.43738,7.75006 -0.16654,0.166539 -0.31259,0.343535 -0.44773,0.541469 -1.78225,-0.864949 -3.69875,-2.55255 -5.59472,-4.927199 -0.38539,-0.479126 -0.95824,-0.770776 -1.57298,-0.802171 -0.6352,-0.03139 -1.26037,0.208392 -1.70858,0.666592 -2.38514,2.426992 -3.00992,6.885556 -1.38504,9.92683 z m 13.68741,-4.583229 c 1.14575,0 2.08346,0.937316 2.08346,2.083469 0,1.145751 -0.93731,2.083468 -2.08346,2.083468 -1.14576,0 -2.08347,-0.937315 -2.08347,-2.083468 0,-1.145752 0.93775,-2.083469 2.08347,-2.083469 z m 2.35422,12.573577 c -0.0419,0.583322 -0.354,1.104289 -0.83312,1.364611 -2.26047,1.208474 -5.68757,0.72937 -7.48935,-1.041511 -0.0418,-0.04185 -0.0519,-0.09373 -0.0209,-0.166539 2.75009,-2.197641 4.63557,-4.38535 5.62474,-6.520715 0.11465,0.01002 0.23934,0.04098 0.36446,0.04098 0.41678,0 0.81263,-0.08327 1.19798,-0.197923 0.88544,2.062486 1.30178,4.395841 1.15613,6.521162 z m 8.13555,-12.843664 c 0.58332,0.04185 1.10429,0.354004 1.36461,0.833119 1.20847,2.260476 0.72937,5.687574 -1.04151,7.489348 -0.0419,0.04185 -0.0937,0.05188 -0.16654,0.02093 -2.19764,-2.750093 -4.38535,-4.635572 -6.52072,-5.624739 0.01,-0.114654 0.041,-0.23934 0.041,-0.364462 0,-0.416783 -0.0833,-0.812629 -0.19793,-1.197983 2.07298,-0.885441 4.39584,-1.301777 6.52116,-1.156131 z M 22.64679,8.260994 c 0.0419,-0.583322 0.35401,-1.10429 0.83312,-1.364612 2.26048,-1.208474 5.68758,-0.72937 7.48935,1.041511 0.0419,0.04185 0.0519,0.09373 0.0209,0.166539 -2.7501,2.197642 -4.63557,4.38535 -5.62474,6.520716 -0.11465,-0.01002 -0.23934,-0.04098 -0.36446,-0.04098 -0.41679,0 -0.81263,0.08327 -1.19799,0.197923 C 22.91753,12.719604 22.5012,10.38625 22.64684,8.260929 Z m -8.45809,4.520952 c 0.0419,-0.04185 0.0937,-0.05188 0.16654,-0.02093 2.19764,2.750094 4.38535,4.635572 6.52072,5.62474 -0.0105,0.115088 -0.0414,0.239775 -0.0414,0.364897 0,0.416783 0.0833,0.812628 0.19793,1.197983 -2.06249,0.88544 -4.39585,1.302223 -6.52072,1.15613 -0.58332,-0.04185 -1.10429,-0.354004 -1.36461,-0.833119 -1.20848,-2.260476 -0.72937,-5.687574 1.04151,-7.489794 z"
         style="stroke-width:0.111606" />
    </g>
  </g>
</svg>
